<svg width="40" height="40" viewBox="0 0 40 40" fill="none" xmlns="http://www.w3.org/2000/svg">
<rect width="40" height="40" rx="20" fill="#ECFBFF"/>
<path d="M23.3139 11.1266C23.2952 11.1406 23.2811 11.4125 23.2811 11.7266C23.2811 12.3922 23.2952 12.3687 22.7889 12.5656C22.3764 12.7297 21.9827 12.9594 21.6124 13.2547C21.453 13.3812 21.2749 13.4844 21.2186 13.4844C21.1624 13.4844 20.9092 13.3672 20.6608 13.2266C20.4077 13.0859 20.1733 12.9688 20.1358 12.9688C20.0749 12.9688 18.9827 14.8016 18.9405 14.975C18.9264 15.0359 19.053 15.1297 19.4186 15.3359C19.6905 15.4859 19.9342 15.65 19.9577 15.6969C19.9905 15.7531 19.9858 15.875 19.953 16.0484C19.8921 16.3906 19.8921 17.3281 19.953 17.6703C19.9905 17.8578 19.9905 17.9609 19.953 18.0266C19.9296 18.0781 19.6952 18.2375 19.4374 18.3875C19.1796 18.5328 18.9546 18.6734 18.9405 18.6969C18.9171 18.7344 19.8827 20.4781 20.0655 20.7266C20.1217 20.8016 20.1639 20.7875 20.6186 20.5203C20.8905 20.3656 21.1577 20.2344 21.2186 20.2344C21.2749 20.2344 21.4249 20.3187 21.5514 20.4266C21.8702 20.6937 22.4608 21.0406 22.8171 21.1719C23.2905 21.3453 23.2811 21.3266 23.2811 22.025V22.625H24.4999H25.7186V22.0672C25.7186 21.3969 25.7421 21.3547 26.2577 21.1484C26.6655 20.9797 27.1436 20.6984 27.4624 20.4359C27.5983 20.3234 27.7577 20.2344 27.8092 20.2344C27.8655 20.2344 28.1374 20.3656 28.4139 20.5203C28.6858 20.6797 28.9202 20.8016 28.9296 20.7922C29.0327 20.6844 30.1249 18.7156 30.0921 18.6875C30.0733 18.6641 29.8671 18.5375 29.6327 18.4062C29.0092 18.05 29.0186 18.0687 29.0842 17.6C29.1546 17.1078 29.1546 16.6156 29.0889 16.1234C29.0467 15.8234 29.0467 15.7203 29.0889 15.6687C29.1217 15.6312 29.3702 15.4719 29.6374 15.3125C29.9092 15.1531 30.1249 15.0078 30.1155 14.9844C30.1061 14.9609 29.8389 14.4922 29.5202 13.9391C29.0702 13.1656 28.9202 12.9359 28.8639 12.9594C28.8217 12.9734 28.5967 13.1 28.3577 13.2359C28.1186 13.3719 27.8749 13.4844 27.8139 13.4844C27.753 13.4844 27.5655 13.3766 27.378 13.2266C27.0358 12.95 26.5249 12.6641 26.0796 12.5C25.9342 12.4437 25.7889 12.3594 25.7655 12.3125C25.7374 12.2656 25.7186 11.9703 25.7186 11.6609V11.0938H24.5327C23.8764 11.0938 23.328 11.1078 23.3139 11.1266ZM25.2733 13.9859C25.428 14.0234 25.7139 14.1312 25.9061 14.225C26.3983 14.4641 26.9889 15.0547 27.228 15.5469C27.5514 16.2078 27.6311 16.8969 27.453 17.5812C27.3124 18.1344 27.1155 18.4672 26.6561 18.9219C26.028 19.55 25.3717 19.8266 24.5233 19.8312C24.003 19.8312 23.6936 19.7609 23.2108 19.5312C22.0342 18.9687 21.3452 17.7594 21.5046 16.5312C21.5608 16.0859 21.6077 15.9406 21.8421 15.4812C21.9733 15.2281 22.1327 15.0125 22.3483 14.8016C23.1546 14.0047 24.1858 13.7188 25.2733 13.9859Z" fill="#106AA7"/>
<path d="M25.1469 16.6111L23.8438 17.9095L23.2438 17.3142C22.6906 16.7705 22.625 16.7189 22.4703 16.7189C22.25 16.7189 22.1094 16.8501 22.1094 17.0564C22.1094 17.1876 22.2078 17.3001 22.8734 17.9705C23.4594 18.5611 23.6656 18.7392 23.7875 18.7626C23.9422 18.7955 23.9703 18.7673 25.4 17.347C26.1969 16.5501 26.8719 15.847 26.8953 15.7861C26.9844 15.5658 26.7828 15.3126 26.525 15.3126C26.4828 15.3126 25.8641 15.8986 25.1469 16.6111Z" fill="#106AA7"/>
<path d="M13.6484 14.8859C10.8031 16.2641 9.97813 16.6812 9.93594 16.7703C9.90313 16.8312 9.875 17.0469 9.875 17.2437V17.6094H14.6H19.3203V16.7844L19.3156 15.9594L18.7812 15.6453C18.3969 15.425 18.2328 15.3031 18.2 15.2141C18.1672 15.1109 18.2094 15.0031 18.5188 14.4734C18.7156 14.1312 18.875 13.8359 18.875 13.8219C18.875 13.7797 17.45 13.1094 17.3703 13.1141C17.3328 13.1141 15.6594 13.9109 13.6484 14.8859Z" fill="#106AA7"/>
<path d="M10.7188 23.4645V28.6582L10.8172 28.7848C10.9109 28.9066 10.9344 28.9113 11.3 28.8973L11.6797 28.8832L11.7031 24.852C11.7266 20.9145 11.7266 20.816 11.8203 20.6941C11.8719 20.6238 11.9891 20.5254 12.0828 20.4738C12.2516 20.3801 12.3125 20.3754 14.6984 20.3754C17.4125 20.3754 17.3516 20.3707 17.5906 20.6848L17.7266 20.8582L17.75 22.6441L17.7734 24.4301L20.3937 24.4441C22.7516 24.4535 23.0234 24.4629 23.1031 24.5332C23.1828 24.6035 23.1875 24.7395 23.1875 26.7598V28.9066H23.5812C24.2234 28.9066 24.1719 29.1738 24.1719 25.9723V23.2816H23.6141C22.9578 23.2816 22.7937 23.2348 22.7234 23.0379C22.6953 22.9582 22.6719 22.6395 22.6719 22.3254L22.6672 21.7582L22.2594 21.5707C22.0391 21.4676 21.7016 21.2707 21.5094 21.1395L21.1672 20.891L20.5906 21.2238C20.0797 21.5145 20 21.5473 19.8969 21.5004C19.8172 21.4629 19.5453 21.0363 18.9781 20.052C18.5328 19.2832 18.1719 18.6223 18.1719 18.5848C18.1719 18.5473 18.2047 18.477 18.2422 18.4254C18.2797 18.3785 18.3125 18.3223 18.3125 18.2988C18.3125 18.2801 16.6062 18.266 14.5156 18.266H10.7188V23.4645Z" fill="#106AA7"/>
<path d="M12.3125 22.7187V24.4531L14.7172 24.4437L17.1172 24.4297V22.7187V21.0078H16.4844H15.8516L15.8281 21.5375C15.8047 22.0672 15.8047 22.0719 15.65 22.2078L15.5 22.3438H14.7453C14.1172 22.3438 13.9672 22.3297 13.8547 22.2641C13.6438 22.1375 13.5781 21.9453 13.5781 21.4344V20.9844H12.9453H12.3125V22.7187Z" fill="#106AA7"/>
<path d="M14.1875 21.3596V21.7393L14.7172 21.7252L15.2422 21.7111V21.3596V21.008L14.7172 20.9939L14.1875 20.9799V21.3596Z" fill="#106AA7"/>
<path d="M12.3125 26.9844V28.9062H14.7266H17.1406V26.9844V25.0578L16.4984 25.0719L15.8516 25.0859L15.8281 25.6063C15.7953 26.3844 15.7438 26.4219 14.6797 26.4219H13.9531L13.775 26.2625L13.6016 26.1031L13.5875 25.5828L13.5688 25.0625H12.9406H12.3125V26.9844Z" fill="#106AA7"/>
<path d="M14.1875 25.4377V25.8174L14.7172 25.8033L15.2422 25.7893V25.4377V25.0861L14.7172 25.0721L14.1875 25.058V25.4377Z" fill="#106AA7"/>
<path d="M17.75 26.9844V28.9062H20.1641H22.5781V26.9844V25.0625H21.95H21.3219L21.3031 25.5828L21.2891 26.1031L21.1156 26.2625L20.9375 26.4219H20.2109C19.1422 26.4219 19.0625 26.3609 19.0625 25.5547V25.0625H18.4062H17.75V26.9844Z" fill="#106AA7"/>
<path d="M19.6441 25.1283C19.6301 25.1611 19.6254 25.3252 19.6348 25.4893L19.6488 25.7893L20.1785 25.8033L20.7035 25.8174V25.4377V25.0627H20.1879C19.7941 25.0627 19.6629 25.0768 19.6441 25.1283Z" fill="#106AA7"/>
</svg>
