<svg width="40" height="40" viewBox="0 0 40 40" fill="none" xmlns="http://www.w3.org/2000/svg">
<rect width="40" height="40" rx="20" fill="#E8FFFA"/>
<path d="M14.2203 12.65C14.1453 12.7062 14.1407 12.875 14.15 15.0781L14.1641 17.4453L16.6953 17.4593C19.0344 17.4687 19.2313 17.464 19.2875 17.389C19.3297 17.3281 19.3438 16.7797 19.3438 15.0265C19.3438 12.9922 19.3344 12.7343 19.2688 12.664C19.2078 12.6031 19.0953 12.5937 18.6219 12.6031L18.0547 12.6172L18.0313 13.7047C18.0125 14.6703 17.9985 14.8015 17.9235 14.8765C17.8485 14.9515 17.7219 14.9609 16.775 14.975C15.7485 14.989 15.7016 14.9843 15.5797 14.8906L15.4532 14.7922L15.4438 13.7047L15.4297 12.6172L14.8672 12.6031C14.4641 12.5937 14.2813 12.6078 14.2203 12.65Z" fill="#00A583"/>
<path d="M16.0953 12.6221C16.0766 12.6408 16.0625 13.0439 16.0625 13.5174V14.3799L16.7328 14.3658L17.3984 14.3518V13.4846V12.6174L16.7609 12.6033C16.4141 12.5986 16.1141 12.608 16.0953 12.6221Z" fill="#00A583"/>
<path d="M11.2672 18.1109C11.2484 18.125 11.2344 19.1984 11.2344 20.4875C11.2344 22.7844 11.2344 22.8406 11.3281 22.9203C11.4172 22.9953 11.6188 23 13.8406 23C16.2594 23 16.2641 23 16.3484 22.8969C16.4328 22.8031 16.4375 22.6766 16.4375 20.4922C16.4375 18.7672 16.4234 18.1766 16.3813 18.1344C16.3438 18.0969 16.1281 18.0781 15.725 18.0781H15.125V19.1281C15.125 20.1172 15.1203 20.1828 15.0266 20.3L14.9328 20.4219H13.8313C12.7953 20.4219 12.7297 20.4172 12.6406 20.3281C12.5516 20.2391 12.5469 20.1734 12.5469 19.1562V18.0781H11.9234C11.5766 18.0781 11.2812 18.0922 11.2672 18.1109Z" fill="#00A583"/>
<path d="M13.1562 18.9453V19.8125H13.8359H14.5156V18.9453V18.0781H13.8359H13.1562V18.9453Z" fill="#00A583"/>
<path d="M17.0797 18.1062C17.0609 18.125 17.0469 19.1984 17.0469 20.4875C17.0469 22.7844 17.0469 22.8406 17.1406 22.9203C17.2297 22.9953 17.4313 23 19.6484 23C21.2281 23 22.0625 22.9859 22.0625 22.9531C22.0625 22.925 22.0906 22.9062 22.1281 22.9062C22.1656 22.9062 22.2078 22.8734 22.2219 22.8312C22.2734 22.7 22.2547 18.2656 22.2031 18.1672C22.1562 18.0875 22.1 18.0781 21.5469 18.0781H20.9375V19.1281C20.9375 20.1172 20.9328 20.1828 20.8391 20.3L20.7453 20.4219H19.6484C18.6781 20.4219 18.5469 20.4125 18.4578 20.3375C18.3641 20.2625 18.3594 20.2109 18.3453 19.1797L18.3359 18.1016L17.7219 18.0875C17.3891 18.0828 17.0984 18.0922 17.0797 18.1062Z" fill="#00A583"/>
<path d="M18.9688 18.9455V19.8174L19.6391 19.8033L20.3047 19.7893L20.3188 18.9314L20.3281 18.0783H19.6484H18.9688V18.9455Z" fill="#00A583"/>
<path d="M24.5797 19.7984C24.5609 19.8125 24.5469 21.1625 24.5469 22.7984V25.7656H25.0391C25.4375 25.7656 25.5313 25.7516 25.5313 25.6953C25.5313 25.4984 25.7469 25.0859 25.9859 24.8281C26.4313 24.3453 27.0688 24.1156 27.6641 24.2234C28.3859 24.3547 28.9625 24.8469 29.1734 25.5172L29.2531 25.7656H29.7125H30.1719V23.9469V22.1281L29.4172 21.0312C29.0047 20.4312 28.6484 19.8969 28.6203 19.85C28.5781 19.7703 28.4703 19.7656 26.5906 19.7656C25.5031 19.7656 24.5938 19.7797 24.5797 19.7984Z" fill="#00A583"/>
<path d="M9.86094 23.6422C9.84219 23.6562 9.82812 24.1437 9.82812 24.7203V25.7656L10.8875 25.7562L11.9516 25.7422L12.0078 25.5453C12.2656 24.6828 13.2406 24.0641 14.1031 24.2187C14.2531 24.2469 14.45 24.3031 14.5484 24.3406C15.0219 24.5375 15.5047 25.0719 15.6406 25.55L15.7016 25.7656H19.8172H23.9375V24.6875V23.6094H16.9156C13.0531 23.6094 9.875 23.6234 9.86094 23.6422Z" fill="#00A583"/>
<path d="M13.5408 24.8332C12.5424 25.0301 12.2002 26.3566 12.969 27.0457C13.2362 27.2941 13.4424 27.3691 13.8221 27.3691C14.3565 27.3691 14.7408 27.1301 14.994 26.6379C15.1487 26.3473 15.1393 25.8223 14.9705 25.5035C14.708 24.9879 14.1221 24.716 13.5408 24.8332Z" fill="#00A583"/>
<path d="M27.0872 24.8329C26.3138 24.9829 25.8638 25.9063 26.2059 26.6329C26.5059 27.2797 27.3028 27.561 27.9497 27.2422C28.7091 26.8719 28.9059 25.8782 28.3434 25.2407C28.0528 24.9032 27.5419 24.7391 27.0872 24.8329Z" fill="#00A583"/>
</svg>
