<svg width="8" height="12" viewBox="0 0 8 12" fill="none" xmlns="http://www.w3.org/2000/svg">
<path d="M4 11.7147C2.99048 11.7147 2.16667 11.5552 1.52857 11.2361C0.890476 10.9171 0.571429 10.5052 0.571429 10.0004C0.571429 9.77185 0.640476 9.55994 0.778571 9.3647C0.916667 9.16947 1.10952 9.00042 1.35714 8.85756L2.25714 9.70042C2.17143 9.73851 2.07857 9.78137 1.97857 9.82899C1.87857 9.87661 1.8 9.93375 1.74286 10.0004C1.86667 10.1528 2.15238 10.2861 2.6 10.4004C3.04762 10.5147 3.51429 10.5718 4 10.5718C4.48571 10.5718 4.95476 10.5147 5.40714 10.4004C5.85952 10.2861 6.14762 10.1528 6.27143 10.0004C6.20476 9.92423 6.11905 9.86232 6.01429 9.8147C5.90952 9.76709 5.80952 9.72423 5.71429 9.68613L6.6 8.82899C6.86667 8.98137 7.07143 9.15518 7.21429 9.35042C7.35714 9.54566 7.42857 9.76232 7.42857 10.0004C7.42857 10.5052 7.10952 10.9171 6.47143 11.2361C5.83333 11.5552 5.00952 11.7147 4 11.7147ZM4 10.0004C2.65714 9.00994 1.65476 8.04804 0.992857 7.1147C0.330952 6.18137 0 5.26709 0 4.37185C0 3.69566 0.121429 3.1028 0.364286 2.59328C0.607143 2.08375 0.919048 1.65756 1.3 1.3147C1.68095 0.971847 2.10952 0.714704 2.58571 0.543276C3.0619 0.371847 3.53333 0.286133 4 0.286133C4.46667 0.286133 4.9381 0.371847 5.41429 0.543276C5.89048 0.714704 6.31905 0.971847 6.7 1.3147C7.08095 1.65756 7.39286 2.08375 7.63571 2.59328C7.87857 3.1028 8 3.69566 8 4.37185C8 5.26709 7.66905 6.18137 7.00714 7.1147C6.34524 8.04804 5.34286 9.00994 4 10.0004ZM4 5.42899C4.31429 5.42899 4.58333 5.31709 4.80714 5.09328C5.03095 4.86947 5.14286 4.60042 5.14286 4.28613C5.14286 3.97185 5.03095 3.7028 4.80714 3.47899C4.58333 3.25518 4.31429 3.14328 4 3.14328C3.68571 3.14328 3.41667 3.25518 3.19286 3.47899C2.96905 3.7028 2.85714 3.97185 2.85714 4.28613C2.85714 4.60042 2.96905 4.86947 3.19286 5.09328C3.41667 5.31709 3.68571 5.42899 4 5.42899Z" fill="#4A4A4A"/>
</svg>
