<svg width="32" height="32" viewBox="0 0 32 32" fill="none" xmlns="http://www.w3.org/2000/svg">
<rect width="32" height="32" rx="16" fill="#F0F6FF"/>
<g clip-path="url(#clip0_3137_60922)">
<path d="M18.7804 9.74168C17.3554 10.0117 16.2192 11.1442 15.9567 12.5542C15.8629 13.0492 15.8929 13.7879 16.0279 14.2342C16.2154 14.8679 16.5267 15.3742 16.9954 15.8204C17.6817 16.4729 18.4767 16.7842 19.4442 16.7842C20.4117 16.7842 21.2067 16.4729 21.8929 15.8204C22.4479 15.2917 22.8192 14.6092 22.9467 13.8704C23.0104 13.5104 22.9954 12.8204 22.9167 12.4604C22.6279 11.1667 21.6267 10.1317 20.3442 9.79418C19.9467 9.69293 19.1817 9.66668 18.7804 9.74168ZM20.1192 10.4167C20.7004 10.5704 21.1392 10.8329 21.5667 11.2867C21.8817 11.6242 22.1554 12.1117 22.2567 12.5167C22.7179 14.3354 21.3267 16.1392 19.4667 16.1354C18.6342 16.1317 17.9967 15.8654 17.4004 15.2729C17.0292 14.9017 16.8454 14.6017 16.6804 14.1104C16.5717 13.7879 16.5642 13.7092 16.5604 13.2667C16.5604 12.8692 16.5754 12.7229 16.6429 12.4792C16.9579 11.3692 17.9329 10.5179 19.0692 10.3604C19.3429 10.3229 19.8604 10.3492 20.1192 10.4167Z" fill="#96AABD"/>
<path d="M19.1441 10.8447C18.2029 10.9647 17.4116 11.6247 17.1379 12.5172C17.0254 12.8772 17.0029 13.3797 17.0779 13.7359C17.2654 14.6322 17.9929 15.3859 18.8629 15.5884C18.9979 15.6222 19.2604 15.6484 19.4441 15.6484C20.1341 15.6484 20.6516 15.4347 21.1354 14.9547C21.4879 14.6059 21.7129 14.2009 21.8104 13.7359C21.8854 13.3797 21.8629 12.8772 21.7504 12.5172C21.4091 11.4072 20.3029 10.6984 19.1441 10.8447Z" fill="#96AABD"/>
<path d="M9.87434 10.7999C9.82934 10.8074 9.74684 10.8674 9.69434 10.9274C9.60059 11.0399 9.60059 11.0511 9.60059 11.6961V12.3486L12.5443 12.3411L15.4918 12.3299L15.6006 12.0036C15.7243 11.6399 15.8893 11.2874 16.0581 11.0436C16.1181 10.9536 16.1593 10.8561 16.1481 10.8261C16.1293 10.7811 15.7018 10.7736 13.0431 10.7774C11.3443 10.7811 9.91934 10.7924 9.87434 10.7999Z" fill="#96AABD"/>
<path d="M9.60059 18.0443V23.2568L9.69059 23.3618L9.78059 23.4668H15.3381H20.8956L20.9856 23.3618L21.0756 23.2568V20.1068C21.0756 18.378 21.0718 16.9605 21.0643 16.9605C21.0568 16.9605 20.9256 17.0055 20.7718 17.058C19.7256 17.418 18.6493 17.3468 17.6443 16.848C16.5868 16.3268 15.8293 15.3818 15.5218 14.2155C15.4618 13.9943 15.4356 13.7505 15.4206 13.368L15.4018 12.8355H12.5031H9.60059V18.0443ZM15.3418 15.1193C15.4093 15.2018 15.4131 15.288 15.4131 16.833V18.4605H17.5468C19.5906 18.4605 19.6843 18.4643 19.7668 18.5318L19.8568 18.603V20.5418V22.4805L19.7668 22.5518C19.6806 22.6193 19.5531 22.623 15.1693 22.623C10.6656 22.623 10.6618 22.623 10.5606 22.5443L10.4631 22.4693V18.8505C10.4631 16.3605 10.4743 15.2055 10.5043 15.1568C10.5268 15.1155 10.5793 15.0668 10.6243 15.048C10.6693 15.0293 11.7193 15.018 12.9868 15.0218L15.2706 15.0293L15.3418 15.1193Z" fill="#96AABD"/>
<path d="M10.9764 15.5247C10.9614 15.5359 10.9502 16.2034 10.9502 17.0059V18.4609H12.9377H14.9252L14.9177 16.9872L14.9064 15.5172H14.3814H13.8564L13.8377 15.9559C13.8189 16.3534 13.8114 16.4022 13.7289 16.4884C13.5977 16.6272 13.4327 16.6609 12.9002 16.6609C12.3827 16.6609 12.2402 16.6197 12.0977 16.4247C12.0302 16.3347 12.0152 16.2522 12.0077 15.9072L11.9927 15.4984H11.4977C11.2239 15.4984 10.9877 15.5097 10.9764 15.5247Z" fill="#96AABD"/>
<path d="M12.5026 15.5468C12.4914 15.5768 12.4876 15.723 12.4951 15.8768L12.5064 16.1543L12.9301 16.1655L13.3501 16.1768V15.8355V15.498H12.9376C12.6264 15.498 12.5176 15.5093 12.5026 15.5468Z" fill="#96AABD"/>
<path d="M10.9502 20.542V22.1357H12.9377H14.9252V20.542V18.9445L14.3927 18.9557L13.8564 18.967L13.8377 19.4095L13.8189 19.8557L13.6952 19.9645L13.5752 20.0732H12.9414C12.3489 20.0732 12.3039 20.0695 12.2064 19.9907C12.0489 19.867 12.0002 19.7057 12.0002 19.3045V18.9482H11.4752H10.9502V20.542Z" fill="#96AABD"/>
<path d="M12.5145 18.9747C12.4995 18.9859 12.4883 19.1322 12.4883 19.2934V19.5859H12.9195H13.3508V19.2672V18.9484H12.9458C12.7208 18.9484 12.5258 18.9597 12.5145 18.9747Z" fill="#96AABD"/>
<path d="M15.4131 20.542V22.1357L17.3931 22.1282L19.3693 22.117V20.542V18.967H18.8443H18.3193L18.3006 19.3795C18.2706 20.047 18.2331 20.0732 17.3631 20.0732H16.7631L16.6206 19.9457L16.4818 19.8182L16.4706 19.3832L16.4556 18.9482H15.9343H15.4131V20.542Z" fill="#96AABD"/>
<path d="M16.9502 19.2672V19.5859H17.3814H17.8127V19.2672V18.9484H17.3814H16.9502V19.2672Z" fill="#96AABD"/>
<path d="M22.302 16.091C22.2645 16.1285 22.2383 16.1773 22.2383 16.196C22.2383 16.2148 22.332 16.3235 22.4445 16.436C22.662 16.6498 22.7145 16.6573 22.8158 16.4998C22.8495 16.4473 22.8195 16.3985 22.6508 16.2298C22.5383 16.1173 22.4295 16.0235 22.4033 16.0235C22.3808 16.0235 22.3358 16.0535 22.302 16.091Z" fill="#96AABD"/>
<path d="M23.1002 16.9049L22.6689 17.3361L23.8314 18.4986C24.4689 19.1399 25.0089 19.6611 25.0314 19.6611C25.0539 19.6611 25.2564 19.4736 25.4814 19.2486L25.8939 18.8361L24.7127 17.6549L23.5314 16.4736L23.1002 16.9049Z" fill="#96AABD"/>
</g>
<defs>
<clipPath id="clip0_3137_60922">
<rect width="19.2" height="19.2" fill="white" transform="translate(6.40039 6.40039)"/>
</clipPath>
</defs>
</svg>
