<svg width="32" height="32" viewBox="0 0 32 32" fill="none" xmlns="http://www.w3.org/2000/svg">
<rect width="32" height="32" rx="16" fill="#F0F6FF"/>
<path d="M16.4817 11.2458C16.2949 11.3537 16.2991 11.3039 16.2949 13.8394V16.2588H19.7601H23.2252V13.8353C23.2252 11.5114 23.221 11.4076 23.1463 11.3163C23.0675 11.2167 23.0592 11.2167 22.1296 11.2043L21.1918 11.1918V11.8682C21.1918 12.4907 21.1835 12.5654 21.1005 12.7314C21.0465 12.8352 20.9428 12.9597 20.8639 13.0095C20.727 13.1007 20.6896 13.1049 19.785 13.1049C18.7516 13.1049 18.6562 13.0841 18.4777 12.8435C18.3989 12.7356 18.3864 12.6484 18.3698 11.972L18.3491 11.2167L17.4569 11.2084C16.8386 11.2001 16.5398 11.2126 16.4817 11.2458Z" fill="#96AABD"/>
<path d="M18.9092 11.8807V12.5654L19.7723 12.5571L20.6314 12.5447V11.8807V11.2167L19.7723 11.2043L18.9092 11.196V11.8807Z" fill="#96AABD"/>
<path d="M8.8252 19.5992V22.4004H12.2903H15.7555V19.5992V16.7981H14.718H13.6805V17.5202C13.6805 18.1966 13.6764 18.2464 13.5892 18.375C13.5353 18.4497 13.4398 18.5535 13.3776 18.5991C13.2655 18.6821 13.2074 18.6863 12.2986 18.6863C11.1906 18.6863 11.1201 18.6697 10.9541 18.3335C10.8669 18.1675 10.8586 18.0928 10.8586 17.4745V16.7981H9.84191H8.8252V19.5992Z" fill="#96AABD"/>
<path d="M11.4067 17.4701L11.4192 18.1465H12.2699H13.1206L13.1331 17.4701L13.1414 16.7978H12.2699H11.3984L11.4067 17.4701Z" fill="#96AABD"/>
<path d="M16.2949 19.5992V22.4004H19.7601H23.2252V19.5992V16.7981H22.2126H21.2001L21.1835 17.5119C21.171 18.3169 21.1378 18.4207 20.8598 18.595C20.7228 18.6821 20.6689 18.6863 19.7518 18.6863C18.8429 18.6863 18.7848 18.6821 18.6728 18.5991C18.6105 18.5535 18.5151 18.4497 18.4653 18.375C18.374 18.2464 18.3698 18.1966 18.3698 17.5202V16.7981H17.3324H16.2949V19.5992Z" fill="#96AABD"/>
<path d="M18.9175 17.4701L18.9299 18.1465H19.7806H20.6314L20.6438 17.4701L20.6521 16.7978H19.7806H18.9092L18.9175 17.4701Z" fill="#96AABD"/>
</svg>
