<svg width="40" height="40" viewBox="0 0 40 40" fill="none" xmlns="http://www.w3.org/2000/svg">
<rect width="40" height="40" rx="20" fill="#F8FFF1"/>
<path d="M23.8906 10.0082C23.7406 10.0879 23.4969 10.3316 23.3562 10.5379C23.2812 10.641 22.5312 12.066 21.6875 13.7019C20.8437 15.3379 20.1125 16.7207 20.0656 16.7723C20.0187 16.8285 19.0297 17.4191 17.8672 18.0848L15.7578 19.3035L15.7719 22.2988L15.7812 25.2894L16.4141 25.6598C16.7609 25.8613 17.0609 26.0254 17.0844 26.0254C17.1031 26.0301 17.1172 24.7363 17.1172 23.1566C17.1172 20.9723 17.1312 20.2598 17.1781 20.1801C17.2156 20.1051 17.975 19.641 19.4141 18.8113L21.5937 17.5504L22.7094 15.4035C25.0625 10.8801 24.8984 11.1754 25.1937 10.8707C25.3437 10.7207 25.4469 10.5801 25.4281 10.5566C25.3859 10.5191 24.0547 9.95194 24.0078 9.95194C23.9937 9.95194 23.9422 9.98006 23.8906 10.0082Z" fill="#DBDF34"/>
<path d="M25.625 11.2824C25.4187 11.484 25.3672 11.5684 25.3437 11.7465C25.2593 12.3184 25.6062 12.8105 26.0984 12.8105C26.5015 12.8105 26.7922 12.4309 26.7922 11.9199C26.7922 11.5684 26.7125 11.3902 26.4687 11.1746C26.3328 11.0574 26.2625 11.0293 26.089 11.0293C25.8968 11.0293 25.8547 11.0527 25.625 11.2824Z" fill="#DBDF34"/>
<path d="M16.7656 15.5199C14.7828 16.6684 13.3906 17.5027 13.3906 17.5402C13.3906 17.6105 15.3359 18.7637 15.4484 18.7637C15.4813 18.7637 16.4328 18.2293 17.5625 17.573L19.6203 16.3871L20.2438 15.1965C20.5859 14.5402 20.8625 13.9824 20.8672 13.959C20.8672 13.9074 20.2766 13.5605 20.1922 13.5652C20.1641 13.5652 18.6219 14.4465 16.7656 15.5199Z" fill="#DBDF34"/>
<path d="M22.7231 16.6736C22.3715 17.3533 22.0528 17.9392 22.0106 17.972C21.9684 18.0095 21.0778 18.5345 20.0325 19.1392C18.9871 19.7439 18.1246 20.2595 18.1153 20.2876C18.1059 20.3298 20.0465 21.4829 20.1871 21.5204C20.2668 21.5392 27.0309 17.6158 27.0403 17.5408C27.0543 17.4704 23.5621 15.4361 23.4309 15.4361C23.3887 15.4361 23.1215 15.9001 22.7231 16.6736Z" fill="#DBDF34"/>
<path d="M13.0012 22.0969L13.0153 26.0906L16.4137 28.05C18.284 29.1328 19.8356 30.0047 19.859 30C19.8918 29.9859 19.9106 28.6172 19.9199 26.039L19.9293 22.0922L19.7559 21.9797C19.2449 21.6469 17.8434 20.8734 17.7871 20.8922C17.7356 20.9109 17.7262 21.4547 17.7262 23.8172C17.7262 26.5687 17.7215 26.7234 17.6418 26.7937C17.5949 26.8406 17.5059 26.8734 17.4449 26.8734C17.3278 26.8734 15.4387 25.8094 15.2559 25.6406L15.1481 25.5469V22.425V19.3031L14.1028 18.7031C13.5309 18.375 13.0434 18.1078 13.0246 18.1078C13.0059 18.1078 12.9965 19.9031 13.0012 22.0969Z" fill="#DBDF34"/>
<path d="M23.9888 20.0531C22.1325 21.1265 20.5856 22.0265 20.5528 22.0546C20.5013 22.0968 20.4919 22.8374 20.5013 26.0437C20.5106 28.6406 20.5294 29.9859 20.5622 29.9999C20.5903 30.0093 22.1372 29.1327 24.0075 28.0499L27.4059 26.0906L27.42 22.0968C27.4247 19.9031 27.4153 18.1077 27.3966 18.1077C27.3731 18.1077 25.8403 18.9843 23.9888 20.0531Z" fill="#DBDF34"/>
</svg>
