<svg width="40" height="40" viewBox="0 0 40 40" fill="none" xmlns="http://www.w3.org/2000/svg">
<rect width="40" height="40" rx="20" fill="#F0F0FF"/>
<path d="M29.3281 15.7656V18.5312H30.3359H31.3438V15.7656V13H30.3359H29.3281V15.7656Z" fill="#7628B2"/>
<path d="M23.258 13.5246C22.4659 13.5668 22.1518 13.6183 21.9034 13.7496C21.6643 13.8714 19.8174 15.3527 19.8174 15.423C19.8127 15.4699 20.2346 15.4839 21.7768 15.4839C22.9534 15.4839 23.7924 15.5027 23.8674 15.5308C24.1065 15.6199 24.1112 16.0183 23.8815 16.3418C23.8299 16.4121 23.1971 17.0121 22.4752 17.673C21.6174 18.4558 21.1393 18.9293 21.0971 19.0277C21.0174 19.2152 21.0127 19.5996 21.083 19.7824C21.144 19.9464 21.3409 20.1574 21.5237 20.2511C21.7205 20.3543 22.1424 20.3496 22.344 20.2464C22.433 20.1949 23.0518 19.6605 23.7174 19.0511C24.3877 18.4418 24.9643 17.9308 25.0112 17.9168C25.0534 17.898 25.2784 17.9168 25.508 17.9543C26.3049 18.0855 27.8002 17.9871 28.6627 17.7527C28.7049 17.7386 28.719 17.2746 28.719 15.6339V13.5293L28.194 13.5011C27.4674 13.4589 24.1159 13.473 23.258 13.5246Z" fill="#7628B2"/>
<path d="M11.5016 16.159C11.2812 16.2387 11.1687 16.3372 11.075 16.5387C11.0094 16.6747 11 17.2793 11 22.084V27.47L11.1078 27.6293C11.1641 27.7137 11.2859 27.8356 11.3703 27.8918L11.5297 27.9997H17.3375C23.7734 27.9997 23.2906 28.0231 23.5484 27.6856L23.6797 27.5168L23.6937 23.7481C23.7031 20.659 23.6937 19.984 23.6422 19.984C23.6094 19.984 23.4172 20.134 23.2156 20.3122C22.7516 20.7247 22.6156 20.809 22.2594 20.8981C21.6078 21.0668 20.8906 20.72 20.5578 20.0778C20.4641 19.8997 20.4453 19.7965 20.4453 19.4215C20.4453 18.7372 20.4781 18.695 21.9594 17.3403C23.0703 16.3278 23.1875 16.2059 23.1125 16.1543C23.0469 16.1075 22.6062 16.0934 21.0312 16.1028L19.0391 16.1168L19.025 20.6731L19.0156 25.2293L18.8891 25.3278C18.7672 25.4215 18.7297 25.4262 17.2953 25.4122C15.9641 25.3981 15.8234 25.3887 15.7484 25.3137C15.6687 25.234 15.6641 24.9762 15.65 20.6637L15.6406 16.0934H13.6578C12.1109 16.0981 11.6422 16.1122 11.5016 16.159Z" fill="#7628B2"/>
<path d="M16.2736 16.15C16.2596 16.1828 16.2549 18.1422 16.2596 20.5L16.2736 24.7891L17.3424 24.8031L18.4064 24.8125V20.4531V16.0938H17.3518C16.5502 16.0938 16.2877 16.1078 16.2736 16.15Z" fill="#7628B2"/>
</svg>
