<svg width="40" height="40" viewBox="0 0 40 40" fill="none" xmlns="http://www.w3.org/2000/svg">
<rect width="40" height="40" rx="20" fill="#FDE6E6"/>
<path d="M22.5545 12.5781C21.8373 12.6766 21.2186 12.9109 20.6326 13.3047C18.2514 14.8891 17.9092 18.2734 19.9248 20.2937C20.4873 20.8516 21.2279 21.2828 22.0014 21.4937C22.4936 21.6297 23.6982 21.6391 24.1904 21.5172C25.2217 21.2594 26.1639 20.6453 26.7779 19.8297C27.0686 19.45 27.4248 18.7 27.5561 18.2031C27.7107 17.6266 27.7061 16.5812 27.5561 15.9766C27.1436 14.3687 25.8779 13.0984 24.2889 12.6953C23.7686 12.5594 23.0186 12.5125 22.5545 12.5781ZM24.1576 13.5437C25.142 13.825 25.9482 14.4859 26.417 15.3859C27.1811 16.8531 26.8811 18.6297 25.6764 19.7594C25.2686 20.1484 24.8373 20.4062 24.2654 20.6031C23.8482 20.7437 23.7779 20.7531 23.1873 20.7578C22.4373 20.7578 22.142 20.6922 21.5232 20.3828C20.3326 19.7969 19.5826 18.6906 19.4607 17.3359C19.3764 16.4641 19.7232 15.4281 20.3279 14.7109C20.9045 14.0312 21.7389 13.5578 22.6107 13.4219C23.0326 13.3562 23.6889 13.4078 24.1576 13.5437Z" fill="#FC2B76"/>
<path d="M22.6907 14.0267C20.7313 14.3408 19.5688 16.3329 20.2625 18.1892C20.7922 19.6048 22.2969 20.4158 23.8063 20.1017C24.6922 19.9142 25.5172 19.2767 25.8969 18.4798C26.6422 16.933 26.0704 15.1283 24.5985 14.3642C24.4016 14.2611 24.1157 14.1486 23.961 14.1064C23.6047 14.0173 23.0047 13.9798 22.6907 14.0267ZM25.0391 15.8361C25.1891 15.9861 25.1891 16.1173 25.0297 16.2673C24.4438 16.8111 22.4141 18.5642 22.325 18.597C22.2641 18.6205 22.1797 18.6251 22.1422 18.6111C22.0532 18.5783 20.9844 17.3923 20.8954 17.2329C20.8204 17.0829 20.886 16.9142 21.05 16.8345C21.2141 16.7642 21.3079 16.8345 21.8094 17.4064C22.0391 17.6642 22.25 17.8705 22.2829 17.8658C22.311 17.8564 22.8266 17.4204 23.4266 16.8908C24.9125 15.583 24.8375 15.6298 25.0391 15.8361Z" fill="#FC2B76"/>
<path d="M11 15.4375V17.6875H13.8125H16.625V15.4375V13.1875H15.8516H15.0781V13.7125C15.0781 14.2984 15.0219 14.4859 14.7828 14.6594C14.6609 14.7484 14.5859 14.7578 13.8172 14.7578C13.1047 14.7578 12.9688 14.7484 12.8609 14.6734C12.6125 14.5141 12.5703 14.3875 12.5516 13.7641L12.5375 13.1875H11.7688H11V15.4375Z" fill="#FC2B76"/>
<path d="M13.1654 13.6656L13.1795 14.1484H13.8123H14.4451L14.4592 13.6656L14.4732 13.1875H13.8123H13.1514L13.1654 13.6656Z" fill="#FC2B76"/>
<path d="M11.0328 18.3297C11.0141 18.3438 11 19.3703 11 20.6031V22.8438H13.8125H16.625L16.6156 20.5797L16.6016 18.3203H15.8516H15.1016L15.0781 18.9062C15.05 19.5484 15.0172 19.6562 14.7828 19.7969C14.6516 19.8812 14.5438 19.8906 13.8219 19.8906C12.9359 19.8906 12.8234 19.8625 12.6594 19.6234C12.5891 19.5156 12.5703 19.3844 12.5563 18.8922L12.5375 18.2969H11.8016C11.3938 18.2969 11.0469 18.3109 11.0328 18.3297Z" fill="#FC2B76"/>
<path d="M13.1891 18.325C13.1703 18.3437 13.1562 18.5687 13.1562 18.8219V19.2812H13.8125H14.4734L14.4594 18.7984L14.4453 18.3203L13.8313 18.3062C13.4984 18.3016 13.2078 18.3109 13.1891 18.325Z" fill="#FC2B76"/>
<path d="M26.7828 20.7248C26.7359 20.7717 26.7031 20.8326 26.7031 20.8561C26.7031 20.8795 26.8297 21.0248 26.9844 21.1795L27.2656 21.4561L27.3922 21.3295L27.5187 21.2029L27.2422 20.9217C27.0875 20.767 26.9422 20.6404 26.9094 20.6404C26.8812 20.6404 26.825 20.6779 26.7828 20.7248Z" fill="#FC2B76"/>
<path d="M27.8047 21.7656L27.2422 22.3281L28.7188 23.8047C29.5297 24.6156 30.2141 25.2812 30.2422 25.2812C30.2703 25.2812 30.5328 25.0375 30.8281 24.7422L31.3672 24.2031L29.8672 22.7031L28.3672 21.2031L27.8047 21.7656Z" fill="#FC2B76"/>
<path d="M11 25.7266V28H13.8125H16.625V25.7266V23.4531H15.8516H15.0781V24.0062C15.0781 24.6391 15.0172 24.8172 14.7453 24.9625C14.6047 25.0422 14.4922 25.0469 13.7563 25.0375C12.95 25.0234 12.9266 25.0187 12.8 24.9062C12.5938 24.7141 12.5469 24.5359 12.5469 23.9688V23.4531H11.7734H11V25.7266Z" fill="#FC2B76"/>
<path d="M13.1891 23.4859C13.1703 23.5 13.1562 23.725 13.1562 23.9781V24.4375H13.8125H14.4688V23.9453V23.4531H13.8453C13.4984 23.4531 13.2031 23.4672 13.1891 23.4859Z" fill="#FC2B76"/>
<path d="M17.2438 25.7125L17.2578 27.9766H20.0703H22.8828V25.7266V23.4766L22.1 23.4625L21.3125 23.4531V24.0156C21.3125 24.6531 21.2656 24.8031 21.0172 24.9531C20.8859 25.0375 20.7781 25.0469 20.0797 25.0469C19.25 25.0469 19.1375 25.0234 18.9453 24.8125C18.8656 24.7234 18.8469 24.625 18.8281 24.0906L18.8047 23.4766L18.0172 23.4625L17.2344 23.4531L17.2438 25.7125Z" fill="#FC2B76"/>
<path d="M19.4375 23.9453V24.4375H20.0703H20.7031V23.9453V23.4531H20.0703H19.4375V23.9453Z" fill="#FC2B76"/>
</svg>
