<svg width="40" height="40" viewBox="0 0 40 40" fill="none" xmlns="http://www.w3.org/2000/svg">
<rect width="40" height="40" rx="20" fill="#FDEFE6"/>
<path d="M20.0912 8.54296C20.0698 8.55908 20.0536 9.23583 20.0536 10.0415V11.5078L19.914 11.6152C19.7851 11.7173 19.6992 11.728 18.9687 11.728C18.2275 11.728 18.163 11.7334 18.2006 11.8193C18.2704 12.0181 20.7304 15.751 20.7841 15.751C20.8486 15.7563 23.3837 11.8892 23.3837 11.7871C23.3837 11.7441 23.142 11.728 22.5781 11.728C21.7885 11.728 21.7617 11.7227 21.6381 11.5937L21.5038 11.4648V9.98242V8.50537H20.8163C20.435 8.50537 20.1074 8.52148 20.0912 8.54296Z" fill="#FC7E2B"/>
<path d="M16.0415 17.0936C15.9502 17.1527 15.8428 17.2493 15.8159 17.3084C15.7783 17.3782 15.7568 18.3128 15.7568 20.1336V22.8568L15.9072 22.8299C15.9878 22.8192 16.2456 22.7493 16.4819 22.6849C16.8794 22.5721 17.0781 22.5613 19.248 22.513C20.5317 22.4862 22.0088 22.47 22.5244 22.4808C23.3784 22.4969 23.4858 22.513 23.6953 22.6204C24.0337 22.7977 24.3076 23.0716 24.4849 23.3939C24.5654 23.5496 24.6406 23.6839 24.6514 23.6947C24.6729 23.7269 25.0112 23.5389 25.4141 23.265L25.8008 23.0018V20.1712V17.3353L25.6343 17.1741L25.4731 17.0184L24.1304 17.0023L22.793 16.9862V18.2806C22.793 19.6878 22.7715 19.8275 22.4976 20.0423C22.3525 20.1551 22.3096 20.1605 20.7842 20.1605C19.103 20.1605 19.0708 20.1551 18.915 19.8758C18.8667 19.7952 18.8345 19.3441 18.8184 18.388L18.7915 17.0184L17.5024 17.0023C16.3047 16.9915 16.2026 16.9969 16.0415 17.0936Z" fill="#FC7E2B"/>
<path d="M19.5166 18.2275V19.4629H20.8057H22.0947L22.084 18.2383L22.0679 17.019L20.7949 17.0029L19.5166 16.9922V18.2275Z" fill="#FC7E2B"/>
<path d="M27.5146 22.6473C26.3438 23.4529 25.1245 24.3016 24.8022 24.5433C24.48 24.785 24.104 25.0535 23.9644 25.1502C23.4971 25.4617 23.4004 25.4778 21.8428 25.4778H20.4248L20.2959 25.3436C20.1348 25.1878 20.1294 25.1019 20.2744 24.9192L20.3818 24.7796H21.7944C22.5732 24.7796 23.2876 24.7635 23.3843 24.7474C23.5938 24.7044 23.8999 24.4197 23.9482 24.2264C24.0449 23.8504 23.7334 23.3348 23.3359 23.2166C23.1909 23.1736 22.2778 23.1736 20.0273 23.2112C17.041 23.2596 16.896 23.2703 16.5093 23.3831C16.0205 23.5281 15.5425 23.743 15.0967 24.0062C14.6992 24.2479 13.8452 24.8816 13.6733 25.0643L13.5498 25.1932L14.7905 26.8797C15.4727 27.8089 16.0527 28.5716 16.0796 28.5823C16.1387 28.6038 17.0732 28.1097 17.4116 27.8841C17.7715 27.637 18.0669 27.5296 18.4429 27.492C18.6362 27.4759 19.9897 27.4168 21.4507 27.3577C22.9116 27.2986 24.2544 27.2396 24.4316 27.2234C25.1084 27.159 24.9419 27.2986 27.6113 24.5594C28.9648 23.1683 30.0981 21.9813 30.1357 21.9168C30.2324 21.7449 30.2217 21.3636 30.1196 21.2669C30.0713 21.2186 29.9531 21.181 29.8403 21.1863C29.6685 21.1863 29.3247 21.4065 27.5146 22.6473Z" fill="#FC7E2B"/>
<path d="M10.9927 25.8918C9.87012 26.719 9.79492 26.7834 9.79492 26.9446C9.79492 27.0842 10.085 27.5139 11.3955 29.2917C12.8403 31.2576 13.0122 31.467 13.1626 31.4831C13.2969 31.4993 13.5063 31.365 14.4731 30.6614C15.6709 29.7859 15.8105 29.6623 15.8105 29.5066C15.8105 29.4153 12.6899 25.1238 12.5664 25.0378C12.373 24.9035 12.1743 25.011 10.9927 25.8918Z" fill="#FC7E2B"/>
</svg>
