<svg width="91" height="73" viewBox="0 0 91 73" fill="none" xmlns="http://www.w3.org/2000/svg">
<path d="M76.9386 61.9517V61.1272H76.1142H72.4501H71.6257V61.9517V65.6158V66.4402H72.4501H76.1142H76.9386V65.6158V61.9517Z" fill="#275C90" stroke="#002F5D" stroke-width="1.64885"/>
<mask id="path-2-inside-1_797_28055" fill="white">
<path d="M76.1142 58.2876H72.4501V62.8677H76.1142V58.2876Z"/>
</mask>
<path d="M76.1142 58.2876H72.4501V62.8677H76.1142V58.2876Z" fill="#275C90"/>
<path d="M72.4501 58.2876V54.6235H68.786V58.2876H72.4501ZM76.1142 58.2876H79.7783V54.6235H76.1142V58.2876ZM76.1142 62.8677V66.5319H79.7783V62.8677H76.1142ZM72.4501 62.8677H68.786V66.5319H72.4501V62.8677ZM72.4501 61.9517H76.1142V54.6235H72.4501V61.9517ZM72.4501 58.2876V62.8677H79.7783V58.2876H72.4501ZM76.1142 59.2036H72.4501V66.5319H76.1142V59.2036ZM76.1142 62.8677V58.2876H68.786V62.8677H76.1142Z" fill="#13477B" mask="url(#path-2-inside-1_797_28055)"/>
<path d="M45.7937 61.9517V61.1272H44.9693H41.3052H40.4807V61.9517V65.6158V66.4402H41.3052H44.9693H45.7937V65.6158V61.9517Z" fill="#275C90" stroke="#002F5D" stroke-width="1.64885"/>
<mask id="path-5-inside-2_797_28055" fill="white">
<path d="M44.9693 58.2876H41.3052V62.8677H44.9693V58.2876Z"/>
</mask>
<path d="M44.9693 58.2876H41.3052V62.8677H44.9693V58.2876Z" fill="#275C90"/>
<path d="M41.3052 58.2876V54.6235H37.641V58.2876H41.3052ZM44.9693 58.2876H48.6334V54.6235H44.9693V58.2876ZM44.9693 62.8677V66.5319H48.6334V62.8677H44.9693ZM41.3052 62.8677H37.641V66.5319H41.3052V62.8677ZM41.3052 61.9517H44.9693V54.6235H41.3052V61.9517ZM41.3052 58.2876V62.8677H48.6334V58.2876H41.3052ZM44.9693 59.2036H41.3052V66.5319H44.9693V59.2036ZM44.9693 62.8677V58.2876H37.641V62.8677H44.9693Z" fill="#13477B" mask="url(#path-5-inside-2_797_28055)"/>
<path d="M15.5648 61.9517V61.1272H14.7403H11.0762H10.2518V61.9517V65.6158V66.4402H11.0762H14.7403H15.5648V65.6158V61.9517Z" fill="#275C90" stroke="#002F5D" stroke-width="1.64885"/>
<mask id="path-8-inside-3_797_28055" fill="white">
<path d="M14.7403 58.2876H11.0762V62.8677H14.7403V58.2876Z"/>
</mask>
<path d="M14.7403 58.2876H11.0762V62.8677H14.7403V58.2876Z" fill="#275C90"/>
<path d="M11.0762 58.2876V54.6235H7.4121V58.2876H11.0762ZM14.7403 58.2876H18.4044V54.6235H14.7403V58.2876ZM14.7403 62.8677V66.5319H18.4044V62.8677H14.7403ZM11.0762 62.8677H7.4121V66.5319H11.0762V62.8677ZM11.0762 61.9517H14.7403V54.6235H11.0762V61.9517ZM11.0762 58.2876V62.8677H18.4044V58.2876H11.0762ZM14.7403 59.2036H11.0762V66.5319H14.7403V59.2036ZM14.7403 62.8677V58.2876H7.4121V62.8677H14.7403Z" fill="#13477B" mask="url(#path-8-inside-3_797_28055)"/>
<path d="M70.0684 1.85658H21.8896C19.9269 1.85658 18.3358 3.44767 18.3358 5.41037V53.5892C18.3358 55.5519 19.9269 57.143 21.8896 57.143H70.0684C72.0311 57.143 73.6222 55.5519 73.6222 53.5892V5.41037C73.6222 3.44766 72.0311 1.85658 70.0684 1.85658Z" fill="#F37B7D" stroke="#DD6B6C" stroke-width="2.19847"/>
<path d="M72.5447 7.62622V5.75815C72.5447 5.00922 72.2472 4.29097 71.7176 3.7614C71.1881 3.23183 70.4698 2.93433 69.7209 2.93433H22.2589C21.51 2.93433 20.7917 3.23183 20.2622 3.7614C19.7326 4.29097 19.4351 5.00922 19.4351 5.75815V7.62622H72.5447Z" fill="#F59293"/>
<path d="M62.2706 11.5793H29.7097C28.798 11.5793 28.0589 12.3185 28.0589 13.2302V45.7911C28.0589 46.7028 28.798 47.4419 29.7097 47.4419H62.2706C63.1823 47.4419 63.9214 46.7028 63.9214 45.7911V13.2302C63.9214 12.3185 63.1823 11.5793 62.2706 11.5793Z" fill="#F59293"/>
<path d="M55.1076 2.80127H36.8396V23.98H55.1076V2.80127Z" fill="#F59293"/>
<path d="M55.1239 2.95581H36.8559V7.60427H55.1239V2.95581Z" fill="#F8B3B3"/>
<path d="M55.1076 11.425H36.8396V23.9802H55.1076V11.425Z" fill="#F37B7D"/>
<path d="M51.5399 37.1675H40.4836C39.9075 37.1675 39.355 37.3963 38.9476 37.8037C38.5402 38.2111 38.3114 38.7636 38.3114 39.3397C38.3114 39.9157 38.5402 40.4683 38.9476 40.8756C39.355 41.283 39.9075 41.5118 40.4836 41.5118H51.5399C52.116 41.5118 52.6685 41.283 53.0759 40.8756C53.4832 40.4683 53.7121 39.9157 53.7121 39.3397C53.7121 38.7636 53.4832 38.2111 53.0759 37.8037C52.6685 37.3963 52.116 37.1675 51.5399 37.1675Z" fill="#B2696A"/>
<path d="M82.2791 55.5396H5.67166C5.62107 55.5396 5.58006 55.5806 5.58006 55.6312V60.5411C5.58006 60.5917 5.62107 60.6327 5.67166 60.6327H82.2791C82.3297 60.6327 82.3707 60.5917 82.3707 60.5411V55.6312C82.3707 55.5806 82.3297 55.5396 82.2791 55.5396Z" fill="#2B5279" stroke="#002F5D" stroke-width="1.64885"/>
<path d="M10.1602 56.4556H77.9463V58.0069C77.9366 58.2305 77.8016 58.4427 77.5701 58.5979C77.3386 58.7531 77.0291 58.839 76.7078 58.8372H11.3987C11.0727 58.8372 10.76 58.747 10.5295 58.5865C10.299 58.4259 10.1694 58.2082 10.1694 57.9811V56.4556H10.1602Z" fill="#396289"/>
<path d="M87.015 65.6157H1.09151C1.04092 65.6157 0.999908 65.6567 0.999908 65.7073V71.8172C0.999908 71.8678 1.04093 71.9088 1.09152 71.9088H87.015C87.0655 71.9088 87.1066 71.8678 87.1066 71.8172V65.7073C87.1066 65.6567 87.0655 65.6157 87.015 65.6157Z" fill="#2B5279" stroke="#002F5D" stroke-width="1.64885"/>
<path d="M5.58006 66.5317H82.5264V68.611C82.5264 68.771 82.4868 68.9295 82.4098 69.0773C82.3327 69.2251 82.2198 69.3594 82.0775 69.4726C81.9352 69.5857 81.7662 69.6755 81.5803 69.7367C81.3943 69.7979 81.195 69.8294 80.9937 69.8294H7.11274C6.70625 69.8294 6.3164 69.7011 6.02897 69.4726C5.74153 69.2441 5.58006 68.9342 5.58006 68.611V66.5317Z" fill="#396289"/>
<path d="M35.9237 23.1666V2.09131H55.2118V23.1666C55.2118 23.6321 54.8343 24.0096 54.3688 24.0096H36.7667C36.3011 24.0096 35.9237 23.6321 35.9237 23.1666Z" stroke="#DD6B6C" stroke-width="2.19847"/>
<mask id="path-22-outside-4_797_28055" maskUnits="userSpaceOnUse" x="58.184" y="6.50867" width="34.8124" height="46.5302" fill="black">
<rect fill="white" x="58.184" y="6.50867" width="34.8124" height="46.5302"/>
<path d="M83.9653 19.2911C84.3374 19.2156 84.6643 18.9954 84.874 18.6789C85.0837 18.3624 85.1591 17.9756 85.0836 17.6035C85.0081 17.2314 84.7879 16.9045 84.4714 16.6948C84.1549 16.485 83.7681 16.4096 83.396 16.4851L83.0956 16.5461L82.7901 15.0403L83.0905 14.9794C83.287 14.9395 83.473 14.8587 83.6363 14.7423C83.7996 14.6259 83.9367 14.4765 84.0386 14.3038C84.1405 14.131 84.2049 13.9388 84.2278 13.7395C84.2506 13.5403 84.2314 13.3384 84.1712 13.1471C84.0543 12.8044 83.8154 12.5166 83.5 12.3386C83.1847 12.1605 82.8149 12.1046 82.461 12.1815L82.216 12.2312L82.0252 11.2906C81.9101 10.7289 81.5775 10.2357 81.0998 9.91854C80.6222 9.60141 80.0385 9.48622 79.4762 9.59813L64.3634 12.6645C63.802 12.7806 63.3093 13.1142 62.9931 13.5924C62.6769 14.0706 62.5627 14.6545 62.6757 15.2166L62.8666 16.1572L62.6255 16.2061C62.3417 16.2532 62.0787 16.3843 61.8704 16.5826C61.6621 16.7809 61.5181 17.0372 61.4572 17.3183C61.3963 17.5994 61.4212 17.8923 61.5287 18.159C61.6362 18.4258 61.8214 18.6541 62.0602 18.8144C62.2642 18.9382 62.4936 19.0145 62.7312 19.0375C62.9689 19.0606 63.2086 19.0298 63.4327 18.9474L63.7382 20.4531L63.4378 20.5141C63.0657 20.5896 62.7389 20.8098 62.5292 21.1263C62.3194 21.4428 62.244 21.8296 62.3195 22.2017C62.395 22.5738 62.6152 22.9007 62.9317 23.1104C63.2482 23.3202 63.6351 23.3956 64.0072 23.3201L64.3075 23.2591L64.6131 24.7649L64.3127 24.8258C63.9568 24.9179 63.6498 25.143 63.455 25.4546C63.2601 25.7663 63.1923 26.1409 63.2654 26.5011C63.3384 26.8614 63.5469 27.1798 63.8479 27.3909C64.1488 27.602 64.5192 27.6897 64.8828 27.6357L65.1832 27.5748L65.613 29.6931C65.6491 29.871 65.4809 29.6706 68.6867 32.674L71.8453 48.2413C71.9704 48.8526 72.3322 49.3896 72.8517 49.7351C73.3713 50.0807 74.0064 50.2068 74.6185 50.0858L84.6173 48.0571C85.2292 47.9318 85.7667 47.5694 86.1122 47.049C86.4577 46.5285 86.5831 45.8925 86.461 45.2799L83.3048 29.7245L84.9371 26.0274C85.0141 25.8595 84.9953 25.9292 84.5367 23.6686L84.7935 23.6164C85.0765 23.5682 85.3384 23.436 85.5453 23.2371C85.7522 23.0381 85.8945 22.7815 85.9538 22.5007C86.013 22.2198 85.9864 21.9276 85.8775 21.6621C85.7686 21.3965 85.5824 21.1698 85.3431 21.0114C85.14 20.8837 84.9107 20.8036 84.6723 20.7771C84.4339 20.7507 84.1926 20.7785 83.9665 20.8586L83.661 19.3529L83.9653 19.2911ZM83.7317 21.7292L84.4273 21.5881C84.5075 21.5713 84.5904 21.571 84.6708 21.5872C84.7512 21.6035 84.8274 21.6359 84.8949 21.6825C85 21.7536 85.0811 21.8548 85.1276 21.9728C85.1742 22.0909 85.1839 22.2202 85.1556 22.3439C85.1273 22.4676 85.0623 22.5798 84.969 22.6658C84.8758 22.7519 84.7587 22.8077 84.6332 22.826L83.9811 22.9583C83.8763 22.9796 83.7842 23.0416 83.7251 23.1308C83.666 23.2199 83.6448 23.3289 83.666 23.4337L84.1472 25.805C82.3749 29.8062 82.4423 29.5703 82.4784 29.7481L85.6618 45.438C85.7434 45.8401 85.6625 46.2583 85.4367 46.6009C85.2109 46.9436 84.8587 47.1829 84.4569 47.2666L74.4581 49.2954C74.0552 49.3771 73.6364 49.2958 73.2935 49.0692C72.9505 48.8425 72.7114 48.4892 72.6286 48.0865C69.2246 31.3099 69.4679 32.3262 69.3299 32.1938L66.3818 29.426L65.9006 27.0548C65.8794 26.95 65.8173 26.8579 65.7282 26.7988C65.639 26.7397 65.5301 26.7185 65.4252 26.7398L64.7297 26.8809C64.5727 26.8998 64.4143 26.859 64.2861 26.7664C64.1579 26.6739 64.0692 26.5364 64.0378 26.3814C64.0063 26.2265 64.0344 26.0653 64.1164 25.9301C64.1984 25.7949 64.3283 25.6955 64.4803 25.6518L65.1759 25.5107C65.2807 25.4894 65.3727 25.4274 65.4318 25.3382C65.4909 25.2491 65.5121 25.1401 65.4909 25.0353L65.0218 22.7233C65.0005 22.6185 64.9385 22.5264 64.8493 22.4673C64.7602 22.4082 64.6512 22.387 64.5464 22.4083L63.8508 22.5494C63.6883 22.5824 63.5194 22.5494 63.3812 22.4579C63.2431 22.3663 63.1469 22.2236 63.1139 22.0611C63.081 21.8987 63.1139 21.7297 63.2055 21.5916C63.297 21.4534 63.4398 21.3572 63.6022 21.3243L64.2978 21.1831C64.4026 21.1619 64.4947 21.0998 64.5538 21.0107C64.6128 20.9215 64.6341 20.8125 64.6128 20.7077L64.1469 18.4116C64.1257 18.3067 64.0636 18.2147 63.9745 18.1556C63.8853 18.0965 63.7763 18.0753 63.6715 18.0965L62.976 18.2377C62.8947 18.2544 62.8109 18.2544 62.7297 18.2377C62.6484 18.2209 62.5715 18.1877 62.5035 18.1401C62.398 18.0677 62.317 17.9648 62.2714 17.8452C62.2259 17.7255 62.2179 17.5948 62.2486 17.4705C62.2793 17.3463 62.3471 17.2343 62.4431 17.1496C62.5391 17.0649 62.6587 17.0115 62.7859 16.9965L63.4221 16.8674C63.527 16.8462 63.619 16.7841 63.6781 16.695C63.7372 16.6058 63.7584 16.4969 63.7372 16.392L63.4661 15.0562C63.3946 14.7037 63.4658 14.3372 63.664 14.037C63.8623 13.7368 64.1715 13.5275 64.5238 13.4549L72.0802 11.9217L79.6366 10.3885C79.9894 10.3181 80.3557 10.3903 80.6553 10.5895C80.9548 10.7886 81.1632 11.0984 81.2347 11.451L81.5058 12.7868C81.527 12.8916 81.5891 12.9837 81.6782 13.0428C81.7674 13.1018 81.8764 13.1231 81.9812 13.1018L82.6214 12.9719C82.779 12.9349 82.9446 12.9566 83.0874 13.0329C83.2301 13.1092 83.3401 13.2349 83.3968 13.3865C83.4236 13.4702 83.4325 13.5585 83.4229 13.6459C83.4132 13.7332 83.3853 13.8175 83.3409 13.8933C83.2965 13.9691 83.2366 14.0346 83.1651 14.0857C83.0936 14.1368 83.0122 14.1723 82.9261 14.1898L82.2306 14.3309C82.1257 14.3522 82.0337 14.4142 81.9746 14.5034C81.9155 14.5925 81.8943 14.7015 81.9155 14.8063L82.3814 17.1025C82.4027 17.2073 82.4647 17.2994 82.5539 17.3584C82.643 17.4175 82.752 17.4388 82.8568 17.4175L83.5524 17.2764C83.7142 17.2435 83.8824 17.276 84.0203 17.3668C84.1582 17.4575 84.2546 17.5991 84.2885 17.7607C84.3047 17.8406 84.305 17.923 84.2894 18.003C84.2738 18.083 84.2426 18.1592 84.1975 18.2272C84.1525 18.2952 84.0945 18.3536 84.0268 18.3992C83.9592 18.4448 83.8833 18.4766 83.8033 18.4928L83.1038 18.6347C82.999 18.656 82.9069 18.718 82.8478 18.8072C82.7888 18.8963 82.7675 19.0053 82.7888 19.1101L83.2547 21.4063C83.2643 21.4591 83.2843 21.5094 83.3136 21.5543C83.3429 21.5993 83.3809 21.6379 83.4253 21.668C83.4698 21.698 83.5197 21.7189 83.5723 21.7295C83.6249 21.74 83.6791 21.7399 83.7317 21.7292Z"/>
</mask>
<path d="M83.9653 19.2911C84.3374 19.2156 84.6643 18.9954 84.874 18.6789C85.0837 18.3624 85.1591 17.9756 85.0836 17.6035C85.0081 17.2314 84.7879 16.9045 84.4714 16.6948C84.1549 16.485 83.7681 16.4096 83.396 16.4851L83.0956 16.5461L82.7901 15.0403L83.0905 14.9794C83.287 14.9395 83.473 14.8587 83.6363 14.7423C83.7996 14.6259 83.9367 14.4765 84.0386 14.3038C84.1405 14.131 84.2049 13.9388 84.2278 13.7395C84.2506 13.5403 84.2314 13.3384 84.1712 13.1471C84.0543 12.8044 83.8154 12.5166 83.5 12.3386C83.1847 12.1605 82.8149 12.1046 82.461 12.1815L82.216 12.2312L82.0252 11.2906C81.9101 10.7289 81.5775 10.2357 81.0998 9.91854C80.6222 9.60141 80.0385 9.48622 79.4762 9.59813L64.3634 12.6645C63.802 12.7806 63.3093 13.1142 62.9931 13.5924C62.6769 14.0706 62.5627 14.6545 62.6757 15.2166L62.8666 16.1572L62.6255 16.2061C62.3417 16.2532 62.0787 16.3843 61.8704 16.5826C61.6621 16.7809 61.5181 17.0372 61.4572 17.3183C61.3963 17.5994 61.4212 17.8923 61.5287 18.159C61.6362 18.4258 61.8214 18.6541 62.0602 18.8144C62.2642 18.9382 62.4936 19.0145 62.7312 19.0375C62.9689 19.0606 63.2086 19.0298 63.4327 18.9474L63.7382 20.4531L63.4378 20.5141C63.0657 20.5896 62.7389 20.8098 62.5292 21.1263C62.3194 21.4428 62.244 21.8296 62.3195 22.2017C62.395 22.5738 62.6152 22.9007 62.9317 23.1104C63.2482 23.3202 63.6351 23.3956 64.0072 23.3201L64.3075 23.2591L64.6131 24.7649L64.3127 24.8258C63.9568 24.9179 63.6498 25.143 63.455 25.4546C63.2601 25.7663 63.1923 26.1409 63.2654 26.5011C63.3384 26.8614 63.5469 27.1798 63.8479 27.3909C64.1488 27.602 64.5192 27.6897 64.8828 27.6357L65.1832 27.5748L65.613 29.6931C65.6491 29.871 65.4809 29.6706 68.6867 32.674L71.8453 48.2413C71.9704 48.8526 72.3322 49.3896 72.8517 49.7351C73.3713 50.0807 74.0064 50.2068 74.6185 50.0858L84.6173 48.0571C85.2292 47.9318 85.7667 47.5694 86.1122 47.049C86.4577 46.5285 86.5831 45.8925 86.461 45.2799L83.3048 29.7245L84.9371 26.0274C85.0141 25.8595 84.9953 25.9292 84.5367 23.6686L84.7935 23.6164C85.0765 23.5682 85.3384 23.436 85.5453 23.2371C85.7522 23.0381 85.8945 22.7815 85.9538 22.5007C86.013 22.2198 85.9864 21.9276 85.8775 21.6621C85.7686 21.3965 85.5824 21.1698 85.3431 21.0114C85.14 20.8837 84.9107 20.8036 84.6723 20.7771C84.4339 20.7507 84.1926 20.7785 83.9665 20.8586L83.661 19.3529L83.9653 19.2911ZM83.7317 21.7292L84.4273 21.5881C84.5075 21.5713 84.5904 21.571 84.6708 21.5872C84.7512 21.6035 84.8274 21.6359 84.8949 21.6825C85 21.7536 85.0811 21.8548 85.1276 21.9728C85.1742 22.0909 85.1839 22.2202 85.1556 22.3439C85.1273 22.4676 85.0623 22.5798 84.969 22.6658C84.8758 22.7519 84.7587 22.8077 84.6332 22.826L83.9811 22.9583C83.8763 22.9796 83.7842 23.0416 83.7251 23.1308C83.666 23.2199 83.6448 23.3289 83.666 23.4337L84.1472 25.805C82.3749 29.8062 82.4423 29.5703 82.4784 29.7481L85.6618 45.438C85.7434 45.8401 85.6625 46.2583 85.4367 46.6009C85.2109 46.9436 84.8587 47.1829 84.4569 47.2666L74.4581 49.2954C74.0552 49.3771 73.6364 49.2958 73.2935 49.0692C72.9505 48.8425 72.7114 48.4892 72.6286 48.0865C69.2246 31.3099 69.4679 32.3262 69.3299 32.1938L66.3818 29.426L65.9006 27.0548C65.8794 26.95 65.8173 26.8579 65.7282 26.7988C65.639 26.7397 65.5301 26.7185 65.4252 26.7398L64.7297 26.8809C64.5727 26.8998 64.4143 26.859 64.2861 26.7664C64.1579 26.6739 64.0692 26.5364 64.0378 26.3814C64.0063 26.2265 64.0344 26.0653 64.1164 25.9301C64.1984 25.7949 64.3283 25.6955 64.4803 25.6518L65.1759 25.5107C65.2807 25.4894 65.3727 25.4274 65.4318 25.3382C65.4909 25.2491 65.5121 25.1401 65.4909 25.0353L65.0218 22.7233C65.0005 22.6185 64.9385 22.5264 64.8493 22.4673C64.7602 22.4082 64.6512 22.387 64.5464 22.4083L63.8508 22.5494C63.6883 22.5824 63.5194 22.5494 63.3812 22.4579C63.2431 22.3663 63.1469 22.2236 63.1139 22.0611C63.081 21.8987 63.1139 21.7297 63.2055 21.5916C63.297 21.4534 63.4398 21.3572 63.6022 21.3243L64.2978 21.1831C64.4026 21.1619 64.4947 21.0998 64.5538 21.0107C64.6128 20.9215 64.6341 20.8125 64.6128 20.7077L64.1469 18.4116C64.1257 18.3067 64.0636 18.2147 63.9745 18.1556C63.8853 18.0965 63.7763 18.0753 63.6715 18.0965L62.976 18.2377C62.8947 18.2544 62.8109 18.2544 62.7297 18.2377C62.6484 18.2209 62.5715 18.1877 62.5035 18.1401C62.398 18.0677 62.317 17.9648 62.2714 17.8452C62.2259 17.7255 62.2179 17.5948 62.2486 17.4705C62.2793 17.3463 62.3471 17.2343 62.4431 17.1496C62.5391 17.0649 62.6587 17.0115 62.7859 16.9965L63.4221 16.8674C63.527 16.8462 63.619 16.7841 63.6781 16.695C63.7372 16.6058 63.7584 16.4969 63.7372 16.392L63.4661 15.0562C63.3946 14.7037 63.4658 14.3372 63.664 14.037C63.8623 13.7368 64.1715 13.5275 64.5238 13.4549L72.0802 11.9217L79.6366 10.3885C79.9894 10.3181 80.3557 10.3903 80.6553 10.5895C80.9548 10.7886 81.1632 11.0984 81.2347 11.451L81.5058 12.7868C81.527 12.8916 81.5891 12.9837 81.6782 13.0428C81.7674 13.1018 81.8764 13.1231 81.9812 13.1018L82.6214 12.9719C82.779 12.9349 82.9446 12.9566 83.0874 13.0329C83.2301 13.1092 83.3401 13.2349 83.3968 13.3865C83.4236 13.4702 83.4325 13.5585 83.4229 13.6459C83.4132 13.7332 83.3853 13.8175 83.3409 13.8933C83.2965 13.9691 83.2366 14.0346 83.1651 14.0857C83.0936 14.1368 83.0122 14.1723 82.9261 14.1898L82.2306 14.3309C82.1257 14.3522 82.0337 14.4142 81.9746 14.5034C81.9155 14.5925 81.8943 14.7015 81.9155 14.8063L82.3814 17.1025C82.4027 17.2073 82.4647 17.2994 82.5539 17.3584C82.643 17.4175 82.752 17.4388 82.8568 17.4175L83.5524 17.2764C83.7142 17.2435 83.8824 17.276 84.0203 17.3668C84.1582 17.4575 84.2546 17.5991 84.2885 17.7607C84.3047 17.8406 84.305 17.923 84.2894 18.003C84.2738 18.083 84.2426 18.1592 84.1975 18.2272C84.1525 18.2952 84.0945 18.3536 84.0268 18.3992C83.9592 18.4448 83.8833 18.4766 83.8033 18.4928L83.1038 18.6347C82.999 18.656 82.9069 18.718 82.8478 18.8072C82.7888 18.8963 82.7675 19.0053 82.7888 19.1101L83.2547 21.4063C83.2643 21.4591 83.2843 21.5094 83.3136 21.5543C83.3429 21.5993 83.3809 21.6379 83.4253 21.668C83.4698 21.698 83.5197 21.7189 83.5723 21.7295C83.6249 21.74 83.6791 21.7399 83.7317 21.7292Z" fill="#002F5D"/>
<path d="M83.9653 19.2911C84.3374 19.2156 84.6643 18.9954 84.874 18.6789C85.0837 18.3624 85.1591 17.9756 85.0836 17.6035C85.0081 17.2314 84.7879 16.9045 84.4714 16.6948C84.1549 16.485 83.7681 16.4096 83.396 16.4851L83.0956 16.5461L82.7901 15.0403L83.0905 14.9794C83.287 14.9395 83.473 14.8587 83.6363 14.7423C83.7996 14.6259 83.9367 14.4765 84.0386 14.3038C84.1405 14.131 84.2049 13.9388 84.2278 13.7395C84.2506 13.5403 84.2314 13.3384 84.1712 13.1471C84.0543 12.8044 83.8154 12.5166 83.5 12.3386C83.1847 12.1605 82.8149 12.1046 82.461 12.1815L82.216 12.2312L82.0252 11.2906C81.9101 10.7289 81.5775 10.2357 81.0998 9.91854C80.6222 9.60141 80.0385 9.48622 79.4762 9.59813L64.3634 12.6645C63.802 12.7806 63.3093 13.1142 62.9931 13.5924C62.6769 14.0706 62.5627 14.6545 62.6757 15.2166L62.8666 16.1572L62.6255 16.2061C62.3417 16.2532 62.0787 16.3843 61.8704 16.5826C61.6621 16.7809 61.5181 17.0372 61.4572 17.3183C61.3963 17.5994 61.4212 17.8923 61.5287 18.159C61.6362 18.4258 61.8214 18.6541 62.0602 18.8144C62.2642 18.9382 62.4936 19.0145 62.7312 19.0375C62.9689 19.0606 63.2086 19.0298 63.4327 18.9474L63.7382 20.4531L63.4378 20.5141C63.0657 20.5896 62.7389 20.8098 62.5292 21.1263C62.3194 21.4428 62.244 21.8296 62.3195 22.2017C62.395 22.5738 62.6152 22.9007 62.9317 23.1104C63.2482 23.3202 63.6351 23.3956 64.0072 23.3201L64.3075 23.2591L64.6131 24.7649L64.3127 24.8258C63.9568 24.9179 63.6498 25.143 63.455 25.4546C63.2601 25.7663 63.1923 26.1409 63.2654 26.5011C63.3384 26.8614 63.5469 27.1798 63.8479 27.3909C64.1488 27.602 64.5192 27.6897 64.8828 27.6357L65.1832 27.5748L65.613 29.6931C65.6491 29.871 65.4809 29.6706 68.6867 32.674L71.8453 48.2413C71.9704 48.8526 72.3322 49.3896 72.8517 49.7351C73.3713 50.0807 74.0064 50.2068 74.6185 50.0858L84.6173 48.0571C85.2292 47.9318 85.7667 47.5694 86.1122 47.049C86.4577 46.5285 86.5831 45.8925 86.461 45.2799L83.3048 29.7245L84.9371 26.0274C85.0141 25.8595 84.9953 25.9292 84.5367 23.6686L84.7935 23.6164C85.0765 23.5682 85.3384 23.436 85.5453 23.2371C85.7522 23.0381 85.8945 22.7815 85.9538 22.5007C86.013 22.2198 85.9864 21.9276 85.8775 21.6621C85.7686 21.3965 85.5824 21.1698 85.3431 21.0114C85.14 20.8837 84.9107 20.8036 84.6723 20.7771C84.4339 20.7507 84.1926 20.7785 83.9665 20.8586L83.661 19.3529L83.9653 19.2911ZM83.7317 21.7292L84.4273 21.5881C84.5075 21.5713 84.5904 21.571 84.6708 21.5872C84.7512 21.6035 84.8274 21.6359 84.8949 21.6825C85 21.7536 85.0811 21.8548 85.1276 21.9728C85.1742 22.0909 85.1839 22.2202 85.1556 22.3439C85.1273 22.4676 85.0623 22.5798 84.969 22.6658C84.8758 22.7519 84.7587 22.8077 84.6332 22.826L83.9811 22.9583C83.8763 22.9796 83.7842 23.0416 83.7251 23.1308C83.666 23.2199 83.6448 23.3289 83.666 23.4337L84.1472 25.805C82.3749 29.8062 82.4423 29.5703 82.4784 29.7481L85.6618 45.438C85.7434 45.8401 85.6625 46.2583 85.4367 46.6009C85.2109 46.9436 84.8587 47.1829 84.4569 47.2666L74.4581 49.2954C74.0552 49.3771 73.6364 49.2958 73.2935 49.0692C72.9505 48.8425 72.7114 48.4892 72.6286 48.0865C69.2246 31.3099 69.4679 32.3262 69.3299 32.1938L66.3818 29.426L65.9006 27.0548C65.8794 26.95 65.8173 26.8579 65.7282 26.7988C65.639 26.7397 65.5301 26.7185 65.4252 26.7398L64.7297 26.8809C64.5727 26.8998 64.4143 26.859 64.2861 26.7664C64.1579 26.6739 64.0692 26.5364 64.0378 26.3814C64.0063 26.2265 64.0344 26.0653 64.1164 25.9301C64.1984 25.7949 64.3283 25.6955 64.4803 25.6518L65.1759 25.5107C65.2807 25.4894 65.3727 25.4274 65.4318 25.3382C65.4909 25.2491 65.5121 25.1401 65.4909 25.0353L65.0218 22.7233C65.0005 22.6185 64.9385 22.5264 64.8493 22.4673C64.7602 22.4082 64.6512 22.387 64.5464 22.4083L63.8508 22.5494C63.6883 22.5824 63.5194 22.5494 63.3812 22.4579C63.2431 22.3663 63.1469 22.2236 63.1139 22.0611C63.081 21.8987 63.1139 21.7297 63.2055 21.5916C63.297 21.4534 63.4398 21.3572 63.6022 21.3243L64.2978 21.1831C64.4026 21.1619 64.4947 21.0998 64.5538 21.0107C64.6128 20.9215 64.6341 20.8125 64.6128 20.7077L64.1469 18.4116C64.1257 18.3067 64.0636 18.2147 63.9745 18.1556C63.8853 18.0965 63.7763 18.0753 63.6715 18.0965L62.976 18.2377C62.8947 18.2544 62.8109 18.2544 62.7297 18.2377C62.6484 18.2209 62.5715 18.1877 62.5035 18.1401C62.398 18.0677 62.317 17.9648 62.2714 17.8452C62.2259 17.7255 62.2179 17.5948 62.2486 17.4705C62.2793 17.3463 62.3471 17.2343 62.4431 17.1496C62.5391 17.0649 62.6587 17.0115 62.7859 16.9965L63.4221 16.8674C63.527 16.8462 63.619 16.7841 63.6781 16.695C63.7372 16.6058 63.7584 16.4969 63.7372 16.392L63.4661 15.0562C63.3946 14.7037 63.4658 14.3372 63.664 14.037C63.8623 13.7368 64.1715 13.5275 64.5238 13.4549L72.0802 11.9217L79.6366 10.3885C79.9894 10.3181 80.3557 10.3903 80.6553 10.5895C80.9548 10.7886 81.1632 11.0984 81.2347 11.451L81.5058 12.7868C81.527 12.8916 81.5891 12.9837 81.6782 13.0428C81.7674 13.1018 81.8764 13.1231 81.9812 13.1018L82.6214 12.9719C82.779 12.9349 82.9446 12.9566 83.0874 13.0329C83.2301 13.1092 83.3401 13.2349 83.3968 13.3865C83.4236 13.4702 83.4325 13.5585 83.4229 13.6459C83.4132 13.7332 83.3853 13.8175 83.3409 13.8933C83.2965 13.9691 83.2366 14.0346 83.1651 14.0857C83.0936 14.1368 83.0122 14.1723 82.9261 14.1898L82.2306 14.3309C82.1257 14.3522 82.0337 14.4142 81.9746 14.5034C81.9155 14.5925 81.8943 14.7015 81.9155 14.8063L82.3814 17.1025C82.4027 17.2073 82.4647 17.2994 82.5539 17.3584C82.643 17.4175 82.752 17.4388 82.8568 17.4175L83.5524 17.2764C83.7142 17.2435 83.8824 17.276 84.0203 17.3668C84.1582 17.4575 84.2546 17.5991 84.2885 17.7607C84.3047 17.8406 84.305 17.923 84.2894 18.003C84.2738 18.083 84.2426 18.1592 84.1975 18.2272C84.1525 18.2952 84.0945 18.3536 84.0268 18.3992C83.9592 18.4448 83.8833 18.4766 83.8033 18.4928L83.1038 18.6347C82.999 18.656 82.9069 18.718 82.8478 18.8072C82.7888 18.8963 82.7675 19.0053 82.7888 19.1101L83.2547 21.4063C83.2643 21.4591 83.2843 21.5094 83.3136 21.5543C83.3429 21.5993 83.3809 21.6379 83.4253 21.668C83.4698 21.698 83.5197 21.7189 83.5723 21.7295C83.6249 21.74 83.6791 21.7399 83.7317 21.7292Z" stroke="#002F5D" stroke-width="2.56488" mask="url(#path-22-outside-4_797_28055)"/>
<path d="M84.6835 17.6806C84.7108 17.8126 84.7118 17.9488 84.6864 18.0812C84.661 18.2136 84.6097 18.3398 84.5354 18.4523C84.4612 18.5649 84.3654 18.6616 84.2536 18.7371C84.1419 18.8126 84.0163 18.8652 83.8842 18.892L83.1846 19.034L83.6513 21.3341C84.2955 21.2034 84.6842 21.0504 85.1184 21.345C85.2909 21.4594 85.4248 21.6232 85.5027 21.815C85.5806 22.0068 85.5988 22.2176 85.5549 22.4199C85.5111 22.6221 85.4072 22.8065 85.2569 22.9488C85.1065 23.091 84.9168 23.1846 84.7124 23.2173L84.0603 23.3496L84.5671 25.8474L82.8726 29.6641L86.0569 45.3578C86.1598 45.8648 86.0576 46.3919 85.7727 46.8237C85.4878 47.2556 85.0435 47.5569 84.5369 47.6619L74.5381 49.6907C74.0308 49.7936 73.5034 49.6908 73.0719 49.4048C72.6404 49.1189 72.3401 48.6733 72.2372 48.166L69.0553 32.484L66.0073 29.6296L65.4973 27.1161C64.8531 27.2468 64.4644 27.3997 64.0302 27.1051C63.8612 26.9927 63.7292 26.8328 63.6509 26.6454C63.5726 26.4581 63.5516 26.2518 63.5903 26.0525C63.6291 25.8533 63.726 25.6699 63.8688 25.5256C64.0116 25.3813 64.1939 25.2825 64.3928 25.2416L65.0883 25.1005L64.6217 22.8004L63.93 22.9407C63.7944 22.9772 63.6527 22.9855 63.5137 22.9652C63.3748 22.9448 63.2414 22.8962 63.122 22.8223C63.0025 22.7484 62.8995 22.6508 62.8192 22.5356C62.7389 22.4203 62.683 22.2898 62.6551 22.1522C62.6272 22.0145 62.6277 21.8726 62.6568 21.7352C62.6858 21.5978 62.7427 21.4677 62.8239 21.3531C62.9051 21.2385 63.0089 21.1418 63.129 21.0689C63.249 20.9959 63.3827 20.9484 63.5219 20.9291L64.2174 20.788L63.7516 18.4918C63.1074 18.6225 62.7187 18.7754 62.2837 18.4769C62.1117 18.3606 61.9789 18.1952 61.9024 18.0023C61.8259 17.8093 61.8093 17.5978 61.8549 17.3953C61.9004 17.1928 62.0059 17.0087 62.1577 16.8671C62.3094 16.7255 62.5003 16.6329 62.7055 16.6014L63.3418 16.4723L63.07 15.1325C62.9794 14.6757 63.073 14.2017 63.3302 13.8135C63.5874 13.4254 63.9875 13.1545 64.4435 13.0598L79.5563 9.9934C80.0131 9.90179 80.4877 9.99486 80.8762 10.2523C81.2646 10.5097 81.5353 10.9104 81.629 11.3669L81.9008 12.7067L82.5411 12.5768C82.7939 12.5196 83.0589 12.5566 83.2864 12.6809C83.5139 12.8052 83.6882 13.0082 83.7767 13.2519C83.8208 13.3894 83.8354 13.5347 83.8196 13.6782C83.8038 13.8217 83.758 13.9604 83.6851 14.085C83.6121 14.2097 83.5138 14.3175 83.3964 14.4017C83.279 14.4858 83.1452 14.5442 83.0038 14.5732L82.3082 14.7143L82.7741 17.0105L83.4696 16.8694C83.6027 16.8418 83.7399 16.841 83.8733 16.867C84.0066 16.893 84.1335 16.9452 84.2465 17.0207C84.3594 17.0962 84.4563 17.1935 84.5313 17.3067C84.6063 17.42 84.6581 17.5471 84.6835 17.6806Z" fill="#396289"/>
<path d="M81.7341 11.8846L81.6291 11.3669C81.5354 10.9104 81.2647 10.5097 80.8763 10.2523C80.4878 9.99487 80.0132 9.9018 79.5564 9.99341L64.4435 13.0598C63.9876 13.1545 63.5875 13.4254 63.3303 13.8135C63.0731 14.2017 62.9795 14.6758 63.0701 15.1325L63.1751 15.6503L81.7341 11.8846Z" fill="#275C90"/>
<path d="M75.6557 10.7851L68.3443 12.2686L68.799 14.5094L76.1103 13.0259L75.6557 10.7851Z" fill="#396289"/>
<path d="M79.7089 29.767L72.0063 31.3299C71.6243 31.4074 71.3775 31.7799 71.455 32.1618L73.8093 43.7652C73.8868 44.1471 74.2593 44.394 74.6413 44.3165L82.3439 42.7536C82.7259 42.6761 82.9727 42.3036 82.8952 41.9217L80.5409 30.3183C80.4634 29.9363 80.0909 29.6895 79.7089 29.767Z" fill="#275C90"/>
<path d="M74.3917 29.3979L76.9171 28.8855C77.0888 28.8507 77.2658 28.85 77.4379 28.8835C77.6099 28.9171 77.7737 28.9842 77.9198 29.081C78.0659 29.1778 78.1915 29.3025 78.2895 29.4479C78.3874 29.5932 78.4558 29.7565 78.4906 29.9283L78.5965 30.4499C78.6311 30.6199 78.5984 30.7966 78.5052 30.9429C78.4121 31.0892 78.2659 31.1937 78.0972 31.2343L74.2598 32.0129C74.0858 32.0482 73.9049 32.013 73.7569 31.9149C73.6089 31.8168 73.5059 31.664 73.4706 31.49L73.3648 30.9683C73.2949 30.6241 73.3635 30.2662 73.5557 29.9722C73.748 29.6783 74.0483 29.4719 74.3917 29.3979Z" fill="#47597C"/>
<path d="M81.6737 33.8946L79.9111 34.2522C79.6819 34.2987 79.5338 34.5222 79.5803 34.7514L79.7327 35.5023C79.7792 35.7315 80.0026 35.8796 80.2318 35.8331L81.9945 35.4754C82.2236 35.4289 82.3717 35.2054 82.3252 34.9763L82.1729 34.2254C82.1264 33.9962 81.9029 33.8481 81.6737 33.8946Z" fill="#47597C"/>
<path d="M77.6227 34.7164L75.8601 35.074C75.6309 35.1205 75.4828 35.344 75.5293 35.5732L75.6816 36.3241C75.7281 36.5533 75.9516 36.7013 76.1808 36.6548L77.9434 36.2972C78.1726 36.2507 78.3207 36.0272 78.2742 35.798L78.1219 35.0471C78.0754 34.818 77.8519 34.6699 77.6227 34.7164Z" fill="#47597C"/>
<path d="M73.5719 35.5384L71.8093 35.896C71.5801 35.9425 71.432 36.166 71.4785 36.3952L71.6309 37.1461C71.6774 37.3753 71.9008 37.5234 72.13 37.4769L73.8927 37.1192C74.1218 37.0727 74.2699 36.8492 74.2234 36.6201L74.0711 35.8692C74.0246 35.64 73.8011 35.4919 73.5719 35.5384Z" fill="#47597C"/>
<path d="M82.3361 37.159L80.5735 37.5166C80.3443 37.5631 80.1962 37.7866 80.2427 38.0158L80.3951 38.7667C80.4416 38.9959 80.6651 39.144 80.8942 39.0975L82.6569 38.7398C82.8861 38.6933 83.0341 38.4698 82.9876 38.2407L82.8353 37.4898C82.7888 37.2606 82.5653 37.1125 82.3361 37.159Z" fill="#29273B"/>
<path d="M78.2849 37.981L76.5223 38.3387C76.2931 38.3852 76.145 38.6086 76.1915 38.8378L76.3438 39.5887C76.3903 39.8179 76.6138 39.966 76.843 39.9195L78.6056 39.5619C78.8348 39.5154 78.9829 39.2919 78.9364 39.0627L78.7841 38.3118C78.7376 38.0826 78.5141 37.9345 78.2849 37.981Z" fill="#29273B"/>
<path d="M74.2343 38.8028L72.4717 39.1604C72.2425 39.2069 72.0944 39.4304 72.1409 39.6596L72.2933 40.4105C72.3398 40.6397 72.5633 40.7878 72.7924 40.7413L74.5551 40.3836C74.7843 40.3371 74.9324 40.1136 74.8859 39.8845L74.7335 39.1336C74.687 38.9044 74.4635 38.7563 74.2343 38.8028Z" fill="#29273B"/>
<path d="M82.9985 40.4229L81.2359 40.7805C81.0067 40.827 80.8586 41.0505 80.9051 41.2797L81.0575 42.0306C81.104 42.2598 81.3275 42.4079 81.5566 42.3614L83.3193 42.0037C83.5485 41.9572 83.6966 41.7338 83.6501 41.5046L83.4977 40.7537C83.4512 40.5245 83.2277 40.3764 82.9985 40.4229Z" fill="#29273B"/>
<path d="M78.9475 41.2454L77.1849 41.6031C76.9557 41.6496 76.8076 41.873 76.8541 42.1022L77.0065 42.8531C77.053 43.0823 77.2765 43.2304 77.5057 43.1839L79.2683 42.8263C79.4975 42.7798 79.6456 42.5563 79.5991 42.3271L79.4467 41.5762C79.4002 41.347 79.1767 41.1989 78.9475 41.2454Z" fill="#29273B"/>
<path d="M74.8967 42.0672L73.1341 42.4248C72.9049 42.4713 72.7568 42.6948 72.8033 42.924L72.9557 43.6749C73.0022 43.9041 73.2257 44.0522 73.4549 44.0057L75.2175 43.648C75.4467 43.6015 75.5948 43.378 75.5483 43.1489L75.3959 42.398C75.3494 42.1688 75.1259 42.0207 74.8967 42.0672Z" fill="#29273B"/>
<path d="M83.6607 43.6878L81.8981 44.0454C81.6689 44.0919 81.5208 44.3154 81.5673 44.5446L81.7197 45.2955C81.7662 45.5247 81.9897 45.6728 82.2189 45.6263L83.9815 45.2686C84.2107 45.2221 84.3588 44.9987 84.3123 44.7695L84.1599 44.0186C84.1134 43.7894 83.8899 43.6413 83.6607 43.6878Z" fill="#29273B"/>
<path d="M79.61 44.5098L77.8473 44.8675C77.6181 44.914 77.47 45.1374 77.5165 45.3666L77.6689 46.1175C77.7154 46.3467 77.9389 46.4948 78.1681 46.4483L79.9307 46.0907C80.1599 46.0442 80.308 45.8207 80.2615 45.5915L80.1091 44.8406C80.0626 44.6114 79.8391 44.4633 79.61 44.5098Z" fill="#29273B"/>
<path d="M75.5588 45.3316L73.7962 45.6892C73.567 45.7357 73.4189 45.9592 73.4654 46.1884L73.6178 46.9393C73.6643 47.1685 73.8878 47.3166 74.1169 47.2701L75.8796 46.9124C76.1088 46.8659 76.2569 46.6425 76.2104 46.4133L76.058 45.6624C76.0115 45.4332 75.788 45.2851 75.5588 45.3316Z" fill="#29273B"/>
<path d="M65.5013 27.115L64.8058 27.2562C64.6735 27.284 64.5371 27.2849 64.4045 27.2588C64.2719 27.2327 64.146 27.1801 64.0342 27.1041C63.8652 26.9917 63.7332 26.8317 63.6549 26.6444C63.5767 26.4571 63.5556 26.2508 63.5944 26.0515C63.6331 25.8522 63.73 25.6689 63.8728 25.5246C64.0156 25.3803 64.1979 25.2815 64.3968 25.2406L65.0924 25.0995L65.5013 27.115Z" fill="#2E5E8D"/>
<path d="M69.0514 32.485L66.0113 29.6289L65.5799 27.5027L68.62 30.3587L69.0514 32.485Z" fill="#2E5E8D"/>
<path d="M85.6337 43.2303L86.0651 45.3565C86.1161 45.6082 86.1171 45.8675 86.068 46.1196C86.0189 46.3717 85.9205 46.6117 85.7787 46.8258C85.6368 47.0399 85.4541 47.2239 85.2411 47.3675C85.0281 47.511 84.7889 47.6111 84.5372 47.6622L74.5384 49.6909C74.0307 49.794 73.5029 49.6914 73.0708 49.4057C72.6387 49.12 72.3376 48.6745 72.2335 48.167L71.8013 46.0369C71.9054 46.5443 72.2065 46.9898 72.6386 47.2755C73.0707 47.5612 73.5985 47.6638 74.1062 47.5608L84.105 45.532C84.6127 45.429 85.0588 45.1288 85.3453 44.6973C85.6319 44.2658 85.7356 43.7382 85.6337 43.2303Z" fill="#2E5E8D"/>
<path d="M82.4524 27.5521L84.139 23.737L84.5704 25.8633L82.8839 29.6783L82.4524 27.5521Z" fill="#2E5E8D"/>
<path d="M82.6287 25.035C82.6051 25.0809 83.333 24.9167 67.5009 28.1291C66.6036 23.7067 66.7993 24.671 64.7732 14.7869L79.9018 11.6967C79.9138 11.756 82.6158 24.9717 82.6287 25.035Z" fill="#96AABD"/>
<path d="M80.057 12.3606L64.9245 15.431C64.8828 15.2255 64.9028 15.3243 64.7692 14.7671L79.9018 11.6967C79.9098 11.7362 80.0419 12.3061 80.057 12.3606Z" fill="#6B86A1"/>
<path d="M82.6337 25.0589C82.1848 25.1787 85.3567 24.5064 67.5011 28.1293L67.3411 27.4417L82.4736 24.3713L82.6337 25.0589Z" fill="#275C90"/>
<path d="M74.3018 28.9548L76.8272 28.4424C76.9989 28.4076 77.1759 28.4069 77.348 28.4404C77.52 28.474 77.6838 28.5411 77.8299 28.6379C77.976 28.7347 78.1016 28.8594 78.1996 29.0047C78.2975 29.1501 78.3659 29.3134 78.4007 29.4851L78.5066 30.0068C78.5419 30.1808 78.5066 30.3617 78.4085 30.5097C78.3105 30.6577 78.1576 30.7607 77.9836 30.796L74.1699 31.5698C73.9959 31.6051 73.815 31.5698 73.667 31.4718C73.519 31.3737 73.416 31.2209 73.3807 31.0469L73.2749 30.5252C73.205 30.181 73.2736 29.8231 73.4658 29.5291C73.6581 29.2352 73.9584 29.0288 74.3018 28.9548Z" fill="#2B5279"/>
<path d="M81.583 33.4481L79.8204 33.8057C79.5912 33.8522 79.4431 34.0757 79.4896 34.3049L79.642 35.0558C79.6885 35.2849 79.9119 35.433 80.1411 35.3865L81.9038 35.0289C82.1329 34.9824 82.281 34.7589 82.2345 34.5297L82.0822 33.7788C82.0357 33.5496 81.8122 33.4016 81.583 33.4481Z" fill="#2B5279"/>
<path d="M77.5321 34.2698L75.7695 34.6275C75.5403 34.674 75.3922 34.8975 75.4387 35.1266L75.5911 35.8775C75.6376 36.1067 75.8611 36.2548 76.0902 36.2083L77.8529 35.8507C78.0821 35.8042 78.2301 35.5807 78.1836 35.3515L78.0313 34.6006C77.9848 34.3714 77.7613 34.2233 77.5321 34.2698Z" fill="#2B5279"/>
<path d="M73.4813 35.0919L71.7187 35.4495C71.4895 35.496 71.3414 35.7195 71.3879 35.9487L71.5403 36.6996C71.5868 36.9287 71.8103 37.0768 72.0394 37.0303L73.8021 36.6727C74.0313 36.6262 74.1794 36.4027 74.1329 36.1735L73.9805 35.4226C73.934 35.1934 73.7105 35.0454 73.4813 35.0919Z" fill="#2B5279"/>
<path d="M82.2458 36.7125L80.4831 37.0701C80.254 37.1166 80.1059 37.3401 80.1524 37.5693L80.3047 38.3202C80.3512 38.5493 80.5747 38.6974 80.8039 38.6509L82.5665 38.2933C82.7957 38.2468 82.9438 38.0233 82.8973 37.7941L82.7449 37.0432C82.6984 36.8141 82.475 36.666 82.2458 36.7125Z" fill="#002F5D"/>
<path d="M78.1945 37.5342L76.4319 37.8919C76.2027 37.9384 76.0546 38.1619 76.1011 38.391L76.2535 39.1419C76.3 39.3711 76.5235 39.5192 76.7527 39.4727L78.5153 39.1151C78.7445 39.0686 78.8926 38.8451 78.8461 38.6159L78.6937 37.865C78.6472 37.6358 78.4237 37.4877 78.1945 37.5342Z" fill="#002F5D"/>
<path d="M74.1435 38.3565L72.3809 38.7141C72.1517 38.7606 72.0036 38.9841 72.0501 39.2133L72.2025 39.9642C72.249 40.1934 72.4725 40.3415 72.7016 40.295L74.4643 39.9373C74.6935 39.8908 74.8416 39.6674 74.7951 39.4382L74.6427 38.6873C74.5962 38.4581 74.3727 38.31 74.1435 38.3565Z" fill="#002F5D"/>
<path d="M82.908 39.9769L81.1453 40.3345C80.9162 40.381 80.7681 40.6045 80.8146 40.8337L80.9669 41.5846C81.0134 41.8138 81.2369 41.9618 81.4661 41.9153L83.2287 41.5577C83.4579 41.5112 83.606 41.2877 83.5595 41.0585L83.4071 40.3076C83.3606 40.0785 83.1372 39.9304 82.908 39.9769Z" fill="#002F5D"/>
<path d="M78.8572 40.7989L77.0945 41.1565C76.8654 41.203 76.7173 41.4265 76.7638 41.6557L76.9161 42.4066C76.9626 42.6358 77.1861 42.7839 77.4153 42.7374L79.1779 42.3797C79.4071 42.3332 79.5552 42.1097 79.5087 41.8806L79.3563 41.1297C79.3098 40.9005 79.0864 40.7524 78.8572 40.7989Z" fill="#002F5D"/>
<path d="M74.806 41.6209L73.0433 41.9785C72.8141 42.025 72.666 42.2485 72.7125 42.4777L72.8649 43.2286C72.9114 43.4578 73.1349 43.6059 73.3641 43.5594L75.1267 43.2017C75.3559 43.1552 75.504 42.9318 75.4575 42.7026L75.3051 41.9517C75.2586 41.7225 75.0351 41.5744 74.806 41.6209Z" fill="#002F5D"/>
<path d="M83.5711 43.2457L81.8084 43.6033C81.5792 43.6498 81.4312 43.8733 81.4777 44.1025L81.63 44.8534C81.6765 45.0825 81.9 45.2306 82.1292 45.1841L83.8918 44.8265C84.121 44.78 84.2691 44.5565 84.2226 44.3273L84.0702 43.5764C84.0237 43.3473 83.8002 43.1992 83.5711 43.2457Z" fill="#002F5D"/>
<path d="M79.5201 44.0672L77.7574 44.4248C77.5282 44.4713 77.3801 44.6948 77.4266 44.924L77.579 45.6749C77.6255 45.9041 77.849 46.0522 78.0782 46.0057L79.8408 45.648C80.07 45.6015 80.2181 45.378 80.1716 45.1489L80.0192 44.398C79.9727 44.1688 79.7492 44.0207 79.5201 44.0672Z" fill="#002F5D"/>
<path d="M75.4693 44.8892L73.7066 45.2469C73.4775 45.2934 73.3294 45.5168 73.3759 45.746L73.5282 46.4969C73.5747 46.7261 73.7982 46.8742 74.0274 46.8277L75.79 46.4701C76.0192 46.4236 76.1673 46.2001 76.1208 45.9709L75.9684 45.22C75.9219 44.9908 75.6984 44.8427 75.4693 44.8892Z" fill="#002F5D"/>
<path opacity="0.4" d="M80.2948 13.6125L71.1686 27.3848L69.5364 27.716L79.9597 11.9811L80.2948 13.6125Z" fill="white"/>
<path opacity="0.4" d="M75.911 12.5105L67.044 25.8968L66.1459 21.4911L71.4982 13.4141L75.911 12.5105Z" fill="white"/>
<path opacity="0.4" d="M82.1944 22.9137L80.4838 25.4951L76.6424 26.2745L81.4118 19.077L82.1944 22.9137Z" fill="white"/>
<path d="M76.2783 29.2452L74.9662 29.5114C74.7654 29.5522 74.6355 29.7471 74.676 29.9468C74.7165 30.1465 74.9122 30.2754 75.113 30.2347L76.4251 29.9684C76.6259 29.9277 76.7558 29.7328 76.7153 29.5331C76.6748 29.3333 76.4791 29.2045 76.2783 29.2452Z" fill="#002F5D"/>
<path d="M78.2015 32.3358L74.5893 33.0687C74.3775 33.1117 74.2407 33.3181 74.2837 33.5298C74.3266 33.7416 74.5331 33.8784 74.7448 33.8354L78.357 33.1025C78.5688 33.0595 78.7056 32.8531 78.6626 32.6414C78.6196 32.4296 78.4132 32.2928 78.2015 32.3358Z" fill="#0D3761"/>
<path d="M69.9015 21.2604C69.8802 21.1556 69.8182 21.0635 69.729 21.0044C69.6399 20.9453 69.5309 20.9241 69.4261 20.9454L68.2405 21.1859L68.0368 20.1821C68.0155 20.0773 67.9535 19.9852 67.8643 19.9261C67.7752 19.8671 67.6662 19.8458 67.5614 19.8671C67.4566 19.8883 67.3645 19.9504 67.3054 20.0395C67.2463 20.1287 67.2251 20.2377 67.2464 20.3425L67.5302 21.7415C67.5515 21.8463 67.6135 21.9384 67.7027 21.9975C67.7918 22.0566 67.9008 22.0778 68.0056 22.0565L69.5865 21.7358C69.6913 21.7145 69.7834 21.6525 69.8424 21.5633C69.9015 21.4742 69.9227 21.3652 69.9015 21.2604Z" fill="#0D3761"/>
<path d="M78.1783 19.9923L79.7592 19.6716C79.864 19.6503 79.956 19.5883 80.0151 19.4991C80.0742 19.41 80.0954 19.301 80.0742 19.1962L79.7903 17.7971C79.769 17.6923 79.707 17.6002 79.6179 17.5412C79.5287 17.4821 79.4197 17.4608 79.3149 17.4821C79.2101 17.5034 79.118 17.5654 79.0589 17.6546C78.9999 17.7437 78.9786 17.8527 78.9999 17.9575L79.2036 18.9613L78.0179 19.2019C77.9131 19.2232 77.8211 19.2852 77.762 19.3744C77.7029 19.4635 77.6817 19.5725 77.7029 19.6773C77.7242 19.7821 77.7862 19.8742 77.8754 19.9333C77.9645 19.9924 78.0735 20.0136 78.1783 19.9923Z" fill="#0D3761"/>
<path d="M77.0596 14.4793L78.2452 14.2387L78.4489 15.2425C78.4702 15.3474 78.5322 15.4394 78.6214 15.4985C78.7105 15.5576 78.8195 15.5788 78.9243 15.5576C79.0291 15.5363 79.1212 15.4743 79.1803 15.3851C79.2394 15.296 79.2606 15.187 79.2393 15.0822L78.9555 13.6831C78.9342 13.5783 78.8722 13.4862 78.783 13.4272C78.6939 13.3681 78.5849 13.3468 78.4801 13.3681L76.8992 13.6889C76.7944 13.7101 76.7023 13.7722 76.6433 13.8613C76.5842 13.9505 76.5629 14.0594 76.5842 14.1643C76.6055 14.2691 76.6675 14.3611 76.7567 14.4202C76.8458 14.4793 76.9548 14.5005 77.0596 14.4793Z" fill="#0D3761"/>
<path d="M67.1864 17.9391C67.2912 17.9178 67.3833 17.8558 67.4424 17.7667C67.5015 17.6775 67.5227 17.5685 67.5014 17.4637L67.2978 16.4599L68.4834 16.2193C68.5882 16.198 68.6803 16.136 68.7394 16.0469C68.7984 15.9577 68.8197 15.8487 68.7984 15.7439C68.7772 15.6391 68.7151 15.547 68.626 15.4879C68.5368 15.4289 68.4278 15.4076 68.323 15.4289L66.7422 15.7496C66.6374 15.7709 66.5453 15.8329 66.4862 15.9221C66.4271 16.0113 66.4059 16.1202 66.4272 16.225L66.711 17.6241C66.7323 17.7289 66.7943 17.821 66.8835 17.8801C66.9726 17.9391 67.0816 17.9604 67.1864 17.9391Z" fill="#0D3761"/>
<path d="M78.9213 29.9222L78.8155 29.4005C78.7238 28.9488 78.4564 28.5519 78.0722 28.2973C77.6879 28.0427 77.2183 27.9511 76.7665 28.0428L74.2411 28.5552C73.789 28.6469 73.3917 28.9143 73.1364 29.2985C72.8812 29.6828 72.7887 30.1526 72.8794 30.605L72.9853 31.1266C73.0418 31.4055 73.2069 31.6504 73.444 31.8075C73.6812 31.9647 73.971 32.0212 74.2498 31.9646L78.0873 31.186C78.3652 31.1285 78.609 30.9632 78.7654 30.7264C78.9217 30.4895 78.9778 30.2003 78.9213 29.9222ZM78.1309 30.0826C78.1448 30.1511 78.1312 30.2223 78.093 30.2809C78.0549 30.3394 77.9952 30.3806 77.9269 30.3956L74.0895 31.1742C74.0204 31.1871 73.949 31.1727 73.8904 31.1338C73.8318 31.095 73.7907 31.0349 73.7757 30.9663L73.6698 30.4446C73.6217 30.2019 73.6716 29.95 73.8088 29.744C73.9459 29.5381 74.159 29.3948 74.4015 29.3456L76.9269 28.8332C77.1689 28.7852 77.4201 28.8347 77.6258 28.971C77.8314 29.1073 77.9749 29.3193 78.0251 29.5609L78.1309 30.0826Z" fill="#0D3761"/>
<path d="M71.3192 29.9718C71.424 29.9506 71.5161 29.8885 71.5752 29.7994C71.6342 29.7102 71.6555 29.6013 71.6342 29.4964C71.613 29.3916 71.5509 29.2995 71.4618 29.2405C71.3726 29.1814 71.2636 29.1601 71.1588 29.1814L69.9297 29.4308C69.8249 29.4521 69.7328 29.5141 69.6738 29.6033C69.6147 29.6924 69.5934 29.8014 69.6147 29.9062C69.636 30.011 69.698 30.1031 69.7872 30.1622C69.8763 30.2212 69.9853 30.2425 70.0901 30.2212L71.3192 29.9718Z" fill="#002F5D"/>
<path d="M80.8849 27.2078L79.6558 27.4572C79.551 27.4784 79.4589 27.5405 79.3998 27.6296C79.3408 27.7188 79.3195 27.8277 79.3408 27.9326C79.3621 28.0374 79.4241 28.1295 79.5132 28.1885C79.6024 28.2476 79.7114 28.2689 79.8162 28.2476L81.0453 27.9982C81.1501 27.9769 81.2422 27.9149 81.3013 27.8257C81.3603 27.7366 81.3816 27.6276 81.3603 27.5228C81.339 27.418 81.277 27.3259 81.1879 27.2668C81.0987 27.2078 80.9897 27.1865 80.8849 27.2078Z" fill="#002F5D"/>
<path d="M81.4285 33.403L79.7102 33.7516C79.505 33.7932 79.3246 33.9158 79.2077 34.0933C79.0907 34.2708 79.0465 34.4891 79.0844 34.7016L79.2447 35.492C79.2926 35.7024 79.4185 35.8862 79.5954 36.004C79.7722 36.1219 79.9861 36.1646 80.1914 36.1229L81.9019 35.7758C82.1072 35.7342 82.2876 35.6116 82.4045 35.4341C82.5215 35.2566 82.5657 35.0383 82.5278 34.8258L82.3715 34.0552C82.3281 33.8417 82.2048 33.6534 82.0282 33.5312C81.8516 33.4091 81.6361 33.363 81.4285 33.403ZM81.7684 34.9799C81.7764 35.0194 81.7684 34.9799 80.0195 35.3348L79.8706 34.542L81.6004 34.1911L81.7684 34.9799Z" fill="#0D3761"/>
<path d="M77.4971 34.2009L75.7866 34.548C75.5813 34.5896 75.4009 34.7122 75.284 34.8897C75.167 35.0672 75.1228 35.2855 75.1607 35.4979L75.3211 36.2884C75.369 36.4988 75.4948 36.6825 75.6717 36.8004C75.8486 36.9183 76.0625 36.961 76.2677 36.9192L77.9783 36.5722C78.1835 36.5306 78.3639 36.4079 78.4808 36.2305C78.5978 36.053 78.642 35.8347 78.6041 35.6222L78.4478 34.8516C78.4042 34.6367 78.2795 34.4474 78.1013 34.3254C77.923 34.2034 77.7057 34.1586 77.4971 34.2009ZM77.8371 35.7779C77.8451 35.8174 77.8371 35.7779 76.0881 36.1327L75.9469 35.3384L77.6767 34.9874L77.8371 35.7779Z" fill="#0D3761"/>
<path d="M73.5741 34.997L71.8558 35.3456C71.6506 35.3872 71.4702 35.5098 71.3533 35.6873C71.2363 35.8648 71.1921 36.0831 71.23 36.2955L71.3903 37.086C71.4382 37.2964 71.5641 37.4802 71.7409 37.598C71.9178 37.7159 72.1317 37.7586 72.337 37.7169L74.0552 37.3682C74.2561 37.3222 74.4312 37.1983 74.5441 37.0222C74.6571 36.8461 74.6992 36.6312 74.6619 36.4222L74.5055 35.6515C74.4627 35.44 74.3413 35.2531 74.1672 35.1308C73.9932 35.0085 73.7803 34.9605 73.5741 34.997ZM73.8948 36.5778C73.9028 36.6173 73.8948 36.5778 72.1459 36.9327L72.0047 36.1383L73.7345 35.7874L73.8948 36.5778Z" fill="#0D3761"/>
<path d="M82.091 36.6679L80.3727 37.0165C80.1675 37.0581 79.9871 37.1807 79.8702 37.3582C79.7532 37.5357 79.709 37.754 79.7469 37.9664L79.9 38.7213C79.9214 38.8268 79.963 38.9271 80.0225 39.0162C80.082 39.1053 80.1581 39.1816 80.2463 39.2404C80.3345 39.2991 80.4331 39.3393 80.5362 39.3585C80.6393 39.3777 80.7449 39.3756 80.8467 39.3522L82.5572 39.0051C82.6601 38.987 82.7582 38.9478 82.8456 38.89C82.9331 38.8321 83.0082 38.7567 83.0665 38.6681C83.1249 38.5796 83.1652 38.4798 83.1853 38.3745C83.2053 38.2692 83.2045 38.1606 83.1831 38.0552L83.034 37.3201C82.9906 37.1066 82.8673 36.9183 82.6907 36.7961C82.5141 36.674 82.2986 36.6279 82.091 36.6679ZM82.4309 38.2448C82.4389 38.2843 82.4309 38.2448 80.682 38.5997L80.5408 37.8054L82.2705 37.4544L82.4309 38.2448Z" fill="#0D3761"/>
<path d="M78.1596 37.4656L76.449 37.8126C76.2437 37.8542 76.0634 37.9769 75.9464 38.1544C75.8295 38.3319 75.7852 38.5501 75.8231 38.7626L75.9763 39.5174C75.9976 39.6229 76.0393 39.7232 76.0988 39.8123C76.1582 39.9015 76.2343 39.9777 76.3225 40.0365C76.4107 40.0953 76.5093 40.1355 76.6124 40.1547C76.7155 40.1739 76.8211 40.1717 76.9229 40.1483L78.6335 39.8012C78.7363 39.7831 78.8344 39.744 78.9219 39.6861C79.0093 39.6282 79.0845 39.5528 79.1428 39.4643C79.2011 39.3757 79.2415 39.2759 79.2615 39.1706C79.2815 39.0654 79.2808 38.9568 79.2593 38.8513L79.1102 38.1162C79.0666 37.9013 78.942 37.7121 78.7637 37.5901C78.5854 37.468 78.3681 37.4233 78.1596 37.4656ZM78.4995 39.0425C78.5075 39.082 78.4995 39.0425 76.7506 39.3974L76.6094 38.6031L78.3391 38.2521L78.4995 39.0425Z" fill="#0D3761"/>
<path d="M74.2359 38.2616L72.5176 38.6102C72.3124 38.6518 72.132 38.7745 72.015 38.952C71.8981 39.1295 71.8539 39.3477 71.8917 39.5602L72.0449 40.315C72.0663 40.4205 72.1079 40.5208 72.1674 40.61C72.2269 40.6991 72.3029 40.7753 72.3912 40.8341C72.4794 40.8929 72.5779 40.9331 72.6811 40.9523C72.7842 40.9715 72.8897 40.9693 72.9915 40.9459L74.7098 40.5973C74.8126 40.5792 74.9107 40.54 74.9982 40.4821C75.0857 40.4243 75.1608 40.3488 75.2191 40.2603C75.2774 40.1718 75.3178 40.0719 75.3378 39.9667C75.3578 39.8614 75.3571 39.7528 75.3357 39.6473L75.1865 38.9123C75.1429 38.6974 75.0183 38.5081 74.84 38.3861C74.6617 38.2641 74.4444 38.2193 74.2359 38.2616ZM74.5758 39.8386C74.5838 39.8781 74.5758 39.8386 72.8269 40.1934L72.6857 39.3991L74.4154 39.0481L74.5758 39.8386Z" fill="#0D3761"/>
<path d="M82.7541 39.9362L81.0358 40.2848C80.8306 40.3264 80.6502 40.449 80.5333 40.6265C80.4163 40.804 80.3721 41.0223 80.41 41.2348L80.5631 41.9896C80.611 42.2 80.7369 42.3838 80.9137 42.5017C81.0906 42.6196 81.3045 42.6622 81.5097 42.6205L83.2203 42.2734C83.4256 42.2318 83.6059 42.1092 83.7229 41.9317C83.8398 41.7542 83.8841 41.5359 83.8462 41.3235L83.6962 40.5844C83.6521 40.3718 83.5285 40.1846 83.3522 40.0633C83.1759 39.942 82.961 39.8963 82.7541 39.9362ZM83.094 41.5131C83.102 41.5526 83.094 41.5131 81.3451 41.868L81.2039 41.0737L82.9336 40.7227L83.094 41.5131Z" fill="#0D3761"/>
<path d="M78.8227 40.7339L77.1121 41.0809C76.9068 41.1225 76.7265 41.2452 76.6095 41.4227C76.4926 41.6002 76.4483 41.8185 76.4862 42.0309L76.6394 42.7857C76.6873 42.9962 76.8131 43.1799 76.99 43.2978C77.1669 43.4157 77.3808 43.4583 77.586 43.4166L79.2966 43.0696C79.5018 43.028 79.6822 42.9053 79.7991 42.7278C79.9161 42.5503 79.9603 42.3321 79.9224 42.1196L79.7725 41.3806C79.728 41.1666 79.6031 40.9784 79.4251 40.8572C79.2471 40.736 79.0305 40.6917 78.8227 40.7339ZM79.1626 42.3108C79.1706 42.3503 79.1626 42.3108 77.4137 42.6657L77.2725 41.8714L79.0022 41.5204L79.1626 42.3108Z" fill="#0D3761"/>
<path d="M74.8992 41.5299L73.1809 41.8786C72.9757 41.9201 72.7953 42.0428 72.6784 42.2203C72.5614 42.3978 72.5172 42.6161 72.5551 42.8285L72.7082 43.5834C72.7561 43.7938 72.882 43.9775 73.0588 44.0954C73.2357 44.2133 73.4496 44.256 73.6548 44.2142L75.3731 43.8656C75.5784 43.824 75.7587 43.7014 75.8757 43.5239C75.9926 43.3464 76.0369 43.1281 75.999 42.9157L75.849 42.1766C75.8045 41.9626 75.6797 41.7745 75.5017 41.6533C75.3237 41.5321 75.107 41.4877 74.8992 41.5299ZM75.2391 43.1069C75.2471 43.1464 75.2391 43.1069 73.4902 43.4617L73.349 42.6674L75.0787 42.3165L75.2391 43.1069Z" fill="#0D3761"/>
<path d="M83.4165 43.2005L81.6983 43.5492C81.493 43.5907 81.3126 43.7134 81.1957 43.8909C81.0787 44.0684 81.0345 44.2867 81.0724 44.4991L81.2247 45.25C81.2441 45.3586 81.2844 45.4623 81.3431 45.5551C81.4019 45.6479 81.478 45.7279 81.567 45.7904C81.6559 45.8529 81.756 45.8965 81.8611 45.9189C81.9663 45.9412 82.0745 45.9417 82.1794 45.9204L83.89 45.5733C84.0985 45.531 84.2812 45.4051 84.3978 45.2232C84.5144 45.0414 84.5554 44.8185 84.5118 44.6036L84.3595 43.8527C84.3162 43.6392 84.1928 43.4509 84.0162 43.3288C83.8397 43.2067 83.6241 43.1606 83.4165 43.2005ZM83.7524 44.7577C83.7604 44.7972 83.7564 44.7775 82.0035 45.1126L81.8586 44.3396L83.5884 43.9886L83.7524 44.7577Z" fill="#0D3761"/>
<path d="M79.4853 43.9983L77.7747 44.3454C77.5695 44.3869 77.3891 44.5096 77.2721 44.6871C77.1552 44.8646 77.111 45.0829 77.1488 45.2953L77.3012 46.0462C77.3448 46.2611 77.4694 46.4503 77.6477 46.5724C77.826 46.6944 78.0433 46.7392 78.2518 46.6968L79.9624 46.3498C80.1709 46.3075 80.3536 46.1815 80.4702 45.9997C80.5869 45.8178 80.6279 45.5949 80.5843 45.3801L80.4319 44.6292C80.384 44.4188 80.2582 44.235 80.0813 44.1171C79.9044 43.9992 79.6905 43.9566 79.4853 43.9983ZM79.8212 45.5555C79.8292 45.595 79.8252 45.5752 78.0723 45.9103L77.9351 45.1358L79.6648 44.7848L79.8212 45.5555Z" fill="#0D3761"/>
<path d="M75.5616 44.7946L73.8434 45.1432C73.6381 45.1848 73.4577 45.3074 73.3408 45.4849C73.2238 45.6624 73.1796 45.8807 73.2175 46.0932L73.3698 46.8441C73.4134 47.0589 73.5381 47.2482 73.7164 47.3702C73.8946 47.4922 74.1119 47.537 74.3205 47.4947L76.0387 47.1461C76.2396 47.1001 76.4147 46.9762 76.5276 46.8C76.6406 46.6239 76.6828 46.409 76.6454 46.2L76.4931 45.4491C76.4502 45.2376 76.3288 45.0507 76.1548 44.9284C75.9807 44.8061 75.7678 44.7581 75.5616 44.7946ZM75.8783 46.3556C75.8864 46.3952 75.8824 46.3754 74.1294 46.7105L73.9922 45.936L75.722 45.585L75.8783 46.3556Z" fill="#0D3761"/>
<path d="M82.6321 25.0509C82.5926 25.0589 83.3356 24.9081 67.4995 28.1213L66.5825 23.7029L81.715 20.6325L82.6321 25.0509Z" fill="#6B86A1"/>
<path d="M68.2149 25.3181L69.0804 25.1425C69.1852 25.1213 69.2773 25.0592 69.3364 24.9701C69.3954 24.8809 69.4167 24.7719 69.3954 24.6671C69.3741 24.5623 69.3121 24.4702 69.223 24.4112C69.1338 24.3521 69.0248 24.3308 68.92 24.3521L68.0545 24.5277C67.9497 24.549 67.8576 24.611 67.7985 24.7002C67.7395 24.7893 67.7182 24.8983 67.7395 25.0031C67.7608 25.1079 67.8228 25.2 67.9119 25.2591C68.0011 25.3182 68.1101 25.3394 68.2149 25.3181Z" fill="#0D3761"/>
<path d="M69.2371 25.8345L68.3558 26.0133C68.2509 26.0346 68.1589 26.0966 68.0998 26.1858C68.0407 26.2749 68.0195 26.3839 68.0407 26.4887C68.062 26.5935 68.124 26.6856 68.2132 26.7447C68.3023 26.8038 68.4113 26.825 68.5161 26.8037L69.3816 26.6281C69.4865 26.6069 69.5785 26.5448 69.6376 26.4557C69.6967 26.3665 69.7179 26.2575 69.6967 26.1527C69.6754 26.0479 69.6134 25.9558 69.5242 25.8968C69.435 25.8377 69.3261 25.8164 69.2213 25.8377L69.2371 25.8345Z" fill="#0D3761"/>
<path d="M76.5328 22.8939L71.6283 23.8891C71.5235 23.9103 71.4314 23.9724 71.3723 24.0615C71.3132 24.1507 71.292 24.2596 71.3132 24.3644C71.3345 24.4693 71.3965 24.5613 71.4857 24.6204C71.5749 24.6795 71.6838 24.7007 71.7886 24.6795L76.6932 23.6843C76.798 23.6631 76.8901 23.601 76.9492 23.5119C77.0082 23.4227 77.0295 23.3138 77.0082 23.2089C76.9869 23.1041 76.9249 23.012 76.8358 22.953C76.7466 22.8939 76.6376 22.8726 76.5328 22.8939Z" fill="#0D3761"/>
<path d="M74.7571 24.6283L71.8957 25.2089C71.7909 25.2301 71.6989 25.2922 71.6398 25.3813C71.5807 25.4705 71.5595 25.5795 71.5807 25.6843C71.602 25.7891 71.664 25.8812 71.7532 25.9402C71.8423 25.9993 71.9513 26.0206 72.0561 25.9993L74.9056 25.4211C75.0104 25.3999 75.1025 25.3378 75.1615 25.2487C75.2206 25.1595 75.2419 25.0506 75.2206 24.9457C75.1993 24.8409 75.1373 24.7488 75.0481 24.6898C74.959 24.6307 74.85 24.6095 74.7452 24.6307L74.7571 24.6283Z" fill="#0D3761"/>
<path d="M80.2973 11.6167C80.2761 11.5119 80.214 11.4199 80.1249 11.3608C80.0357 11.3017 79.9267 11.2805 79.8219 11.3017C63.7694 14.5835 64.5786 14.3535 64.4368 14.5674C64.3846 14.6491 64.3635 14.7468 64.3775 14.8428C64.3855 14.8823 67.0441 28.1069 67.1514 28.3114C67.1594 28.3509 67.1586 28.347 67.2459 28.4321C67.4639 28.6142 66.6488 28.7138 82.6903 25.4589C82.7951 25.4377 82.8872 25.3756 82.9463 25.2865C83.0054 25.1973 83.0266 25.0883 83.0053 24.9835C82.8719 24.2247 80.3053 11.6563 80.2973 11.6167ZM65.249 15.1021L79.5911 12.1921L81.2406 20.3215L66.9103 23.2292L65.249 15.1021ZM67.0604 24.0299L69.6174 23.5111L70.3543 27.1431L67.8171 27.6579L67.0604 24.0299ZM71.1439 26.9787L70.407 23.3468L81.4017 21.1159L82.1395 24.7518L71.1439 26.9787Z" fill="#002F5D"/>
</svg>
