<svg width="96" height="70" viewBox="0 0 96 70" fill="none" xmlns="http://www.w3.org/2000/svg">
<path d="M89.91 50.855H6.08V56.415H89.91V50.855Z" fill="#2B5279"/>
<path d="M11.33 50.855H84.67V53.265C84.6596 53.6125 84.5135 53.9421 84.263 54.1832C84.0126 54.4243 83.6776 54.5577 83.33 54.555H12.67C12.3173 54.555 11.979 54.4149 11.7296 54.1654C11.4801 53.916 11.34 53.5777 11.34 53.225V50.855H11.33Z" fill="#396289"/>
<path d="M95 61.165H1V68.035H95V61.165Z" fill="#2B5279"/>
<path d="M6.08 61.165H89.92V64.015C89.92 64.2343 89.8768 64.4515 89.7929 64.6541C89.709 64.8567 89.5859 65.0408 89.4309 65.1959C89.2758 65.351 89.0917 65.474 88.8891 65.5579C88.6865 65.6418 88.4693 65.685 88.25 65.685H7.75C7.30709 65.685 6.88232 65.5091 6.56913 65.1959C6.25595 64.8827 6.08 64.4579 6.08 64.015V61.165Z" fill="#396289"/>
<path d="M16.89 56.415H11.33V61.165H16.89V56.415Z" fill="#275C90"/>
<path d="M50.78 56.415H45.22V61.165H50.78V56.415Z" fill="#275C90"/>
<path d="M84.67 56.415H79.11V61.165H84.67V56.415Z" fill="#275C90"/>
<path d="M16.89 56.415H11.33V58.785H16.89V56.415Z" fill="#13477B"/>
<path d="M50.78 56.415H45.22V58.785H50.78V56.415Z" fill="#13477B"/>
<path d="M84.67 56.415H79.11V58.785H84.67V56.415Z" fill="#13477B"/>
<g opacity="0.7">
<path d="M83.53 26.51H61.35C60.7259 26.51 60.22 27.0138 60.22 27.6352V49.7199C60.22 50.3413 60.7259 50.8451 61.35 50.8451H83.53C84.1541 50.8451 84.66 50.3413 84.66 49.7199V27.6352C84.66 27.0138 84.1541 26.51 83.53 26.51Z" fill="#EE4345"/>
<path d="M84.67 28.6507V27.7944C84.67 27.4511 84.533 27.1219 84.2892 26.8791C84.0454 26.6364 83.7148 26.5 83.37 26.5H61.52C61.1752 26.5 60.8445 26.6364 60.6007 26.8791C60.3569 27.1219 60.22 27.4511 60.22 27.7944V28.6507H84.67Z" fill="#F16365"/>
<path d="M79.9399 30.4629H64.9499C64.5302 30.4629 64.1899 30.8017 64.1899 31.2196V46.1453C64.1899 46.5632 64.5302 46.902 64.9499 46.902H79.9399C80.3597 46.902 80.6999 46.5632 80.6999 46.1453V31.2196C80.6999 30.8017 80.3597 30.4629 79.9399 30.4629Z" fill="#F16365"/>
<path d="M76.65 26.51H68.24V36.2181H76.65V26.51Z" fill="#F16365"/>
<path d="M76.65 26.51H68.24V28.6408H76.65V26.51Z" fill="#F59293"/>
<path d="M76.65 30.4629H68.24V36.2181H76.65V30.4629Z" fill="#EE4345"/>
<path d="M74.9999 42.1924H69.9099C69.6447 42.1924 69.3903 42.2973 69.2028 42.484C69.0153 42.6707 68.9099 42.924 68.9099 43.1881C68.9099 43.4522 69.0153 43.7054 69.2028 43.8922C69.3903 44.0789 69.6447 44.1838 69.9099 44.1838H74.9999C75.2651 44.1838 75.5195 44.0789 75.707 43.8922C75.8946 43.7054 75.9999 43.4522 75.9999 43.1881C75.9999 42.924 75.8946 42.6707 75.707 42.484C75.5195 42.2973 75.2651 42.1924 74.9999 42.1924Z" fill="#91292A"/>
</g>
<g opacity="0.7">
<path d="M59.31 26.51H37.13C36.5059 26.51 36 27.0152 36 27.6384V49.7867C36 50.4099 36.5059 50.9151 37.13 50.9151H59.31C59.9341 50.9151 60.44 50.4099 60.44 49.7867V27.6384C60.44 27.0152 59.9341 26.51 59.31 26.51Z" fill="#EE4345"/>
<path d="M60.45 28.6569V27.7981C60.45 27.4539 60.313 27.1237 60.0692 26.8802C59.8254 26.6368 59.4948 26.5 59.15 26.5H37.3C36.9552 26.5 36.6246 26.6368 36.3808 26.8802C36.137 27.1237 36 27.4539 36 27.7981V28.6569H60.45Z" fill="#F16365"/>
<path d="M55.72 30.4744H40.73C40.3102 30.4744 39.97 30.8141 39.97 31.2333V46.2019C39.97 46.621 40.3102 46.9608 40.73 46.9608H55.72C56.1397 46.9608 56.48 46.621 56.48 46.2019V31.2333C56.48 30.8141 56.1397 30.4744 55.72 30.4744Z" fill="#F16365"/>
<path d="M52.43 26.51H44.02V36.2461H52.43V26.51Z" fill="#F16365"/>
<path d="M52.43 26.51H44.02V28.647H52.43V26.51Z" fill="#F59293"/>
<path d="M52.43 30.4744H44.02V36.2461H52.43V30.4744Z" fill="#EE4345"/>
<path d="M50.7799 42.2375H45.6899C45.4247 42.2375 45.1704 42.3428 44.9828 42.53C44.7953 42.7173 44.6899 42.9713 44.6899 43.2361C44.6899 43.501 44.7953 43.755 44.9828 43.9422C45.1704 44.1295 45.4247 44.2347 45.6899 44.2347H50.7799C51.0452 44.2347 51.2995 44.1295 51.487 43.9422C51.6746 43.755 51.7799 43.501 51.7799 43.2361C51.7799 42.9713 51.6746 42.7173 51.487 42.53C51.2995 42.3428 51.0452 42.2375 50.7799 42.2375Z" fill="#91292A"/>
</g>
<g opacity="0.7">
<path d="M34.31 26.51H12.13C11.5059 26.51 11 27.0152 11 27.6384V49.7867C11 50.4099 11.5059 50.9151 12.13 50.9151H34.31C34.9341 50.9151 35.44 50.4099 35.44 49.7867V27.6384C35.44 27.0152 34.9341 26.51 34.31 26.51Z" fill="#EE4345"/>
<path d="M35.45 28.6569V27.7981C35.45 27.4539 35.313 27.1237 35.0692 26.8802C34.8254 26.6368 34.4948 26.5 34.15 26.5H12.3C11.9552 26.5 11.6246 26.6368 11.3808 26.8802C11.137 27.1237 11 27.4539 11 27.7981V28.6569H35.45Z" fill="#F16365"/>
<path d="M30.72 30.4744H15.73C15.3102 30.4744 14.97 30.8141 14.97 31.2333V46.2019C14.97 46.621 15.3102 46.9608 15.73 46.9608H30.72C31.1397 46.9608 31.48 46.621 31.48 46.2019V31.2333C31.48 30.8141 31.1397 30.4744 30.72 30.4744Z" fill="#F16365"/>
<path d="M27.43 26.51H19.02V36.2461H27.43V26.51Z" fill="#F16365"/>
<path d="M27.43 26.51H19.02V28.647H27.43V26.51Z" fill="#F59293"/>
<path d="M27.43 30.4744H19.02V36.2461H27.43V30.4744Z" fill="#EE4345"/>
<path d="M25.7799 42.2375H20.6899C20.4247 42.2375 20.1704 42.3428 19.9828 42.53C19.7953 42.7173 19.6899 42.9713 19.6899 43.2361C19.6899 43.501 19.7953 43.755 19.9828 43.9422C20.1704 44.1295 20.4247 44.2347 20.6899 44.2347H25.7799C26.0452 44.2347 26.2995 44.1295 26.487 43.9422C26.6746 43.755 26.7799 43.501 26.7799 43.2361C26.7799 42.9713 26.6746 42.7173 26.487 42.53C26.2995 42.3428 26.0452 42.2375 25.7799 42.2375Z" fill="#91292A"/>
</g>
<g opacity="0.7">
<path d="M71.31 2.47485H49.13C48.5059 2.47485 48 2.97218 48 3.58567V25.3891C48 26.0026 48.5059 26.4999 49.13 26.4999H71.31C71.9341 26.4999 72.44 26.0026 72.44 25.3891V3.58567C72.44 2.97218 71.9341 2.47485 71.31 2.47485Z" fill="#EE4345"/>
<path d="M72.45 4.58842V3.74302C72.45 3.40409 72.313 3.07904 72.0692 2.83938C71.8254 2.59973 71.4948 2.46509 71.15 2.46509H49.3C48.9552 2.46509 48.6246 2.59973 48.3808 2.83938C48.137 3.07904 48 3.40409 48 3.74302V4.58842H72.45Z" fill="#F16365"/>
<path d="M67.72 6.37744H52.73C52.3102 6.37744 51.97 6.71193 51.97 7.12454V21.86C51.97 22.2727 52.3102 22.6071 52.73 22.6071H67.72C68.1397 22.6071 68.48 22.2727 68.48 21.86V7.12454C68.48 6.71193 68.1397 6.37744 67.72 6.37744Z" fill="#F16365"/>
<path d="M64.43 2.47485H56.02V12.0593H64.43V2.47485Z" fill="#F16365"/>
<path d="M64.43 2.47485H56.02V4.57852H64.43V2.47485Z" fill="#F59293"/>
<path d="M64.43 6.37744H56.02V12.0593H64.43V6.37744Z" fill="#EE4345"/>
<path d="M62.7799 17.9575H57.6899C57.4247 17.9575 57.1704 18.0611 56.9828 18.2454C56.7953 18.4298 56.6899 18.6798 56.6899 18.9405C56.6899 19.2013 56.7953 19.4513 56.9828 19.6356C57.1704 19.82 57.4247 19.9236 57.6899 19.9236H62.7799C63.0452 19.9236 63.2995 19.82 63.487 19.6356C63.6746 19.4513 63.7799 19.2013 63.7799 18.9405C63.7799 18.6798 63.6746 18.4298 63.487 18.2454C63.2995 18.0611 63.0452 17.9575 62.7799 17.9575Z" fill="#91292A"/>
</g>
<g opacity="0.7">
<path d="M47.31 2.47485H25.13C24.5059 2.47485 24 2.97218 24 3.58567V25.3891C24 26.0026 24.5059 26.4999 25.13 26.4999H47.31C47.9341 26.4999 48.44 26.0026 48.44 25.3891V3.58567C48.44 2.97218 47.9341 2.47485 47.31 2.47485Z" fill="#EE4345"/>
<path d="M48.45 4.58842V3.74302C48.45 3.40409 48.313 3.07904 48.0692 2.83938C47.8254 2.59973 47.4948 2.46509 47.15 2.46509H25.3C24.9552 2.46509 24.6246 2.59973 24.3808 2.83938C24.137 3.07904 24 3.40409 24 3.74302V4.58842H48.45Z" fill="#F16365"/>
<path d="M43.72 6.37744H28.73C28.3102 6.37744 27.97 6.71193 27.97 7.12454V21.86C27.97 22.2727 28.3102 22.6071 28.73 22.6071H43.72C44.1397 22.6071 44.48 22.2727 44.48 21.86V7.12454C44.48 6.71193 44.1397 6.37744 43.72 6.37744Z" fill="#F16365"/>
<path d="M40.43 2.47485H32.02V12.0593H40.43V2.47485Z" fill="#F16365"/>
<path d="M40.43 2.47485H32.02V4.57852H40.43V2.47485Z" fill="#F59293"/>
<path d="M40.43 6.37744H32.02V12.0593H40.43V6.37744Z" fill="#EE4345"/>
<path d="M38.7799 17.9575H33.6899C33.4247 17.9575 33.1704 18.0611 32.9828 18.2454C32.7953 18.4298 32.6899 18.6798 32.6899 18.9405C32.6899 19.2013 32.7953 19.4513 32.9828 19.6356C33.1704 19.82 33.4247 19.9236 33.6899 19.9236H38.7799C39.0452 19.9236 39.2995 19.82 39.487 19.6356C39.6746 19.4513 39.7799 19.2013 39.7799 18.9405C39.7799 18.6798 39.6746 18.4298 39.487 18.2454C39.2995 18.0611 39.0452 17.9575 38.7799 17.9575Z" fill="#91292A"/>
</g>
<mask id="path-46-inside-1_797_27872" fill="white">
<path d="M95 60.1651H85.67V57.4151H89.92C90.1852 57.4151 90.4396 57.3097 90.6271 57.1222C90.8146 56.9347 90.92 56.6803 90.92 56.4151V50.8551C90.92 50.5899 90.8146 50.3355 90.6271 50.148C90.4396 49.9604 90.1852 49.8551 89.92 49.8551H85.65C85.65 49.5151 85.65 45.0251 85.65 27.6251C85.6474 27.038 85.4123 26.4759 84.9963 26.0618C84.5802 25.6476 84.0171 25.4151 83.43 25.4151H73.43C73.43 25.0651 73.43 20.5051 73.43 3.18509C73.4313 2.89403 73.3751 2.60557 73.2647 2.33629C73.1542 2.067 72.9916 1.82219 72.7863 1.61591C72.5809 1.40964 72.3368 1.24595 72.068 1.13427C71.7993 1.02258 71.5111 0.965085 71.22 0.965088H49.22C48.7892 0.967856 48.3686 1.09646 48.01 1.33509C47.6513 1.09646 47.2308 0.967856 46.8 0.965088H24.8C24.5089 0.965085 24.2207 1.02258 23.952 1.13427C23.6832 1.24595 23.4391 1.40964 23.2337 1.61591C23.0284 1.82219 22.8658 2.067 22.7553 2.33629C22.6449 2.60557 22.5887 2.89403 22.59 3.18509C22.59 20.5051 22.59 25.0651 22.59 25.4151H12.59C12.0029 25.4151 11.4398 25.6476 11.0237 26.0618C10.6077 26.4759 10.3726 27.038 10.37 27.6251C10.37 45.0251 10.37 49.5151 10.37 49.8551H6.08C5.81478 49.8551 5.56043 49.9604 5.37289 50.148C5.18536 50.3355 5.08 50.5899 5.08 50.8551V56.4151C5.08 56.6803 5.18536 56.9347 5.37289 57.1222C5.56043 57.3097 5.81478 57.4151 6.08 57.4151H10.33V60.1651H1C0.734784 60.1651 0.48043 60.2704 0.292893 60.458C0.105357 60.6455 0 60.8999 0 61.1651L0 68.0351C0 68.3003 0.105357 68.5547 0.292893 68.7422C0.48043 68.9297 0.734784 69.0351 1 69.0351H95C95.2652 69.0351 95.5196 68.9297 95.7071 68.7422C95.8946 68.5547 96 68.3003 96 68.0351V61.1651C96 60.8999 95.8946 60.6455 95.7071 60.458C95.5196 60.2704 95.2652 60.1651 95 60.1651ZM83.67 60.1651H80.11V57.4151H83.67V60.1651ZM51.78 60.1651V57.4151H78.11V60.1651H51.78ZM17.89 60.1651V57.4151H44.22V60.1651H17.89ZM46.22 57.4151H49.78V60.1651H46.22V57.4151ZM83.67 27.6251V49.6251C83.67 49.6535 83.6643 49.6817 83.6531 49.7078C83.6419 49.734 83.6256 49.7576 83.605 49.7772C83.5844 49.7969 83.5601 49.8121 83.5334 49.8221C83.5068 49.832 83.4784 49.8364 83.45 49.8351H61.45C61.4216 49.8364 61.3932 49.832 61.3666 49.8221C61.3399 49.8121 61.3156 49.7969 61.295 49.7772C61.2744 49.7576 61.2581 49.734 61.2469 49.7078C61.2357 49.6817 61.23 49.6535 61.23 49.6251V27.6251C61.23 27.5966 61.2357 27.5685 61.2469 27.5423C61.2581 27.5162 61.2744 27.4926 61.295 27.4729C61.3156 27.4533 61.3399 27.4381 61.3666 27.4281C61.3932 27.4182 61.4216 27.4137 61.45 27.4151H67.25V36.1551C67.25 36.4203 67.3554 36.6747 67.5429 36.8622C67.7304 37.0497 67.9848 37.1551 68.25 37.1551H76.66C76.9252 37.1551 77.1796 37.0497 77.3671 36.8622C77.5546 36.6747 77.66 36.4203 77.66 36.1551V27.4151H83.46C83.4876 27.4151 83.5149 27.4205 83.5404 27.4311C83.5658 27.4416 83.589 27.4571 83.6085 27.4766C83.628 27.4961 83.6435 27.5192 83.654 27.5447C83.6646 27.5702 83.67 27.5975 83.67 27.6251ZM36.78 49.6251V27.6251C36.78 27.5694 36.8021 27.516 36.8415 27.4766C36.8809 27.4372 36.9343 27.4151 36.99 27.4151H42.8V36.1551C42.8 36.4203 42.9054 36.6747 43.0929 36.8622C43.2804 37.0497 43.5348 37.1551 43.8 37.1551H52.21C52.4752 37.1551 52.7296 37.0497 52.9171 36.8622C53.1046 36.6747 53.21 36.4203 53.21 36.1551V27.4151H59C59.0557 27.4151 59.1091 27.4372 59.1485 27.4766C59.1879 27.516 59.21 27.5694 59.21 27.6251V49.6251C59.21 49.6808 59.1879 49.7342 59.1485 49.7736C59.1091 49.813 59.0557 49.8351 59 49.8351H37C36.9459 49.8379 36.8928 49.8197 36.8518 49.7843C36.8108 49.7489 36.7851 49.699 36.78 49.6451V49.6251ZM51.21 27.4151V35.1551H44.8V27.4151H51.21ZM75.65 35.1551H69.24V27.4151H75.65V35.1551ZM63.43 2.96509V10.7151H57V2.96509H63.43ZM49.21 2.96509H55V11.7151C55 11.9803 55.1054 12.2347 55.2929 12.4222C55.4804 12.6097 55.7348 12.7151 56 12.7151H64.41C64.6752 12.7151 64.9296 12.6097 65.1171 12.4222C65.3046 12.2347 65.41 11.9803 65.41 11.7151V2.96509H71.21C71.2384 2.96506 71.2666 2.9708 71.2927 2.98197C71.3189 2.99315 71.3425 3.00952 71.3621 3.03009C71.3818 3.05066 71.397 3.07501 71.407 3.10165C71.4169 3.12829 71.4214 3.15668 71.42 3.18509V25.1851C71.4214 25.2135 71.4169 25.2419 71.407 25.2685C71.397 25.2952 71.3818 25.3195 71.3621 25.3401C71.3425 25.3607 71.3189 25.377 71.2927 25.3882C71.2666 25.3994 71.2384 25.4051 71.21 25.4051H49.21C49.1534 25.4025 49.1 25.3782 49.0609 25.3372C49.0217 25.2962 48.9999 25.2417 49 25.1851V3.18509C48.9999 3.12843 49.0217 3.07394 49.0609 3.03296C49.1 2.99197 49.1534 2.96766 49.21 2.96509ZM39 2.96509V10.7151H32.57V2.96509H39ZM24.56 25.1951V3.19509C24.5586 3.16668 24.5631 3.13829 24.573 3.11165C24.583 3.08501 24.5982 3.06066 24.6179 3.04009C24.6375 3.01952 24.6611 3.00315 24.6873 2.99197C24.7134 2.9808 24.7416 2.97506 24.77 2.97509H30.57V11.7251C30.57 11.9903 30.6754 12.2447 30.8629 12.4322C31.0504 12.6197 31.3048 12.7251 31.57 12.7251H40C40.2652 12.7251 40.5196 12.6197 40.7071 12.4322C40.8946 12.2447 41 11.9903 41 11.7251V2.96509H46.81C46.8666 2.96766 46.92 2.99197 46.9591 3.03296C46.9983 3.07394 47.0201 3.12843 47.02 3.18509V25.1851C47.0201 25.2417 46.9983 25.2962 46.9591 25.3372C46.92 25.3782 46.8666 25.4025 46.81 25.4051H24.81C24.7793 25.4111 24.7476 25.4101 24.7173 25.4022C24.687 25.3944 24.6589 25.3799 24.6349 25.3597C24.6109 25.3396 24.5918 25.3144 24.5788 25.2859C24.5659 25.2574 24.5594 25.2264 24.56 25.1951ZM26.76 27.4151V35.1551H20.35V27.4151H26.76ZM12.33 49.6451V27.6451C12.33 27.6166 12.3357 27.5885 12.3469 27.5623C12.3581 27.5362 12.3744 27.5126 12.395 27.4929C12.4156 27.4733 12.4399 27.4581 12.4666 27.4481C12.4932 27.4382 12.5216 27.4337 12.55 27.4351H18.35V36.1551C18.35 36.4203 18.4554 36.6747 18.6429 36.8622C18.8304 37.0497 19.0848 37.1551 19.35 37.1551H27.76C28.0252 37.1551 28.2796 37.0497 28.4671 36.8622C28.6546 36.6747 28.76 36.4203 28.76 36.1551V27.4151H34.56C34.5884 27.4137 34.6168 27.4182 34.6434 27.4281C34.6701 27.4381 34.6944 27.4533 34.715 27.4729C34.7356 27.4926 34.7519 27.5162 34.7631 27.5423C34.7743 27.5685 34.78 27.5966 34.78 27.6251V49.6251C34.78 49.6535 34.7743 49.6817 34.7631 49.7078C34.7519 49.734 34.7356 49.7576 34.715 49.7772C34.6944 49.7969 34.6701 49.8121 34.6434 49.8221C34.6168 49.832 34.5884 49.8364 34.56 49.8351H12.56C12.5324 49.8378 12.5045 49.8351 12.478 49.827C12.4515 49.8189 12.4268 49.8057 12.4054 49.788C12.384 49.7704 12.3663 49.7486 12.3534 49.7241C12.3405 49.6996 12.3325 49.6727 12.33 49.6451ZM7.08 51.8551H88.92V55.4151H7.08V51.8551ZM12.33 57.4151H15.89V60.1651H12.33V57.4151ZM94 67.0351H2V62.1651H94V67.0351Z"/>
</mask>
<path d="M95 60.1651H85.67V57.4151H89.92C90.1852 57.4151 90.4396 57.3097 90.6271 57.1222C90.8146 56.9347 90.92 56.6803 90.92 56.4151V50.8551C90.92 50.5899 90.8146 50.3355 90.6271 50.148C90.4396 49.9604 90.1852 49.8551 89.92 49.8551H85.65C85.65 49.5151 85.65 45.0251 85.65 27.6251C85.6474 27.038 85.4123 26.4759 84.9963 26.0618C84.5802 25.6476 84.0171 25.4151 83.43 25.4151H73.43C73.43 25.0651 73.43 20.5051 73.43 3.18509C73.4313 2.89403 73.3751 2.60557 73.2647 2.33629C73.1542 2.067 72.9916 1.82219 72.7863 1.61591C72.5809 1.40964 72.3368 1.24595 72.068 1.13427C71.7993 1.02258 71.5111 0.965085 71.22 0.965088H49.22C48.7892 0.967856 48.3686 1.09646 48.01 1.33509C47.6513 1.09646 47.2308 0.967856 46.8 0.965088H24.8C24.5089 0.965085 24.2207 1.02258 23.952 1.13427C23.6832 1.24595 23.4391 1.40964 23.2337 1.61591C23.0284 1.82219 22.8658 2.067 22.7553 2.33629C22.6449 2.60557 22.5887 2.89403 22.59 3.18509C22.59 20.5051 22.59 25.0651 22.59 25.4151H12.59C12.0029 25.4151 11.4398 25.6476 11.0237 26.0618C10.6077 26.4759 10.3726 27.038 10.37 27.6251C10.37 45.0251 10.37 49.5151 10.37 49.8551H6.08C5.81478 49.8551 5.56043 49.9604 5.37289 50.148C5.18536 50.3355 5.08 50.5899 5.08 50.8551V56.4151C5.08 56.6803 5.18536 56.9347 5.37289 57.1222C5.56043 57.3097 5.81478 57.4151 6.08 57.4151H10.33V60.1651H1C0.734784 60.1651 0.48043 60.2704 0.292893 60.458C0.105357 60.6455 0 60.8999 0 61.1651L0 68.0351C0 68.3003 0.105357 68.5547 0.292893 68.7422C0.48043 68.9297 0.734784 69.0351 1 69.0351H95C95.2652 69.0351 95.5196 68.9297 95.7071 68.7422C95.8946 68.5547 96 68.3003 96 68.0351V61.1651C96 60.8999 95.8946 60.6455 95.7071 60.458C95.5196 60.2704 95.2652 60.1651 95 60.1651ZM83.67 60.1651H80.11V57.4151H83.67V60.1651ZM51.78 60.1651V57.4151H78.11V60.1651H51.78ZM17.89 60.1651V57.4151H44.22V60.1651H17.89ZM46.22 57.4151H49.78V60.1651H46.22V57.4151ZM83.67 27.6251V49.6251C83.67 49.6535 83.6643 49.6817 83.6531 49.7078C83.6419 49.734 83.6256 49.7576 83.605 49.7772C83.5844 49.7969 83.5601 49.8121 83.5334 49.8221C83.5068 49.832 83.4784 49.8364 83.45 49.8351H61.45C61.4216 49.8364 61.3932 49.832 61.3666 49.8221C61.3399 49.8121 61.3156 49.7969 61.295 49.7772C61.2744 49.7576 61.2581 49.734 61.2469 49.7078C61.2357 49.6817 61.23 49.6535 61.23 49.6251V27.6251C61.23 27.5966 61.2357 27.5685 61.2469 27.5423C61.2581 27.5162 61.2744 27.4926 61.295 27.4729C61.3156 27.4533 61.3399 27.4381 61.3666 27.4281C61.3932 27.4182 61.4216 27.4137 61.45 27.4151H67.25V36.1551C67.25 36.4203 67.3554 36.6747 67.5429 36.8622C67.7304 37.0497 67.9848 37.1551 68.25 37.1551H76.66C76.9252 37.1551 77.1796 37.0497 77.3671 36.8622C77.5546 36.6747 77.66 36.4203 77.66 36.1551V27.4151H83.46C83.4876 27.4151 83.5149 27.4205 83.5404 27.4311C83.5658 27.4416 83.589 27.4571 83.6085 27.4766C83.628 27.4961 83.6435 27.5192 83.654 27.5447C83.6646 27.5702 83.67 27.5975 83.67 27.6251ZM36.78 49.6251V27.6251C36.78 27.5694 36.8021 27.516 36.8415 27.4766C36.8809 27.4372 36.9343 27.4151 36.99 27.4151H42.8V36.1551C42.8 36.4203 42.9054 36.6747 43.0929 36.8622C43.2804 37.0497 43.5348 37.1551 43.8 37.1551H52.21C52.4752 37.1551 52.7296 37.0497 52.9171 36.8622C53.1046 36.6747 53.21 36.4203 53.21 36.1551V27.4151H59C59.0557 27.4151 59.1091 27.4372 59.1485 27.4766C59.1879 27.516 59.21 27.5694 59.21 27.6251V49.6251C59.21 49.6808 59.1879 49.7342 59.1485 49.7736C59.1091 49.813 59.0557 49.8351 59 49.8351H37C36.9459 49.8379 36.8928 49.8197 36.8518 49.7843C36.8108 49.7489 36.7851 49.699 36.78 49.6451V49.6251ZM51.21 27.4151V35.1551H44.8V27.4151H51.21ZM75.65 35.1551H69.24V27.4151H75.65V35.1551ZM63.43 2.96509V10.7151H57V2.96509H63.43ZM49.21 2.96509H55V11.7151C55 11.9803 55.1054 12.2347 55.2929 12.4222C55.4804 12.6097 55.7348 12.7151 56 12.7151H64.41C64.6752 12.7151 64.9296 12.6097 65.1171 12.4222C65.3046 12.2347 65.41 11.9803 65.41 11.7151V2.96509H71.21C71.2384 2.96506 71.2666 2.9708 71.2927 2.98197C71.3189 2.99315 71.3425 3.00952 71.3621 3.03009C71.3818 3.05066 71.397 3.07501 71.407 3.10165C71.4169 3.12829 71.4214 3.15668 71.42 3.18509V25.1851C71.4214 25.2135 71.4169 25.2419 71.407 25.2685C71.397 25.2952 71.3818 25.3195 71.3621 25.3401C71.3425 25.3607 71.3189 25.377 71.2927 25.3882C71.2666 25.3994 71.2384 25.4051 71.21 25.4051H49.21C49.1534 25.4025 49.1 25.3782 49.0609 25.3372C49.0217 25.2962 48.9999 25.2417 49 25.1851V3.18509C48.9999 3.12843 49.0217 3.07394 49.0609 3.03296C49.1 2.99197 49.1534 2.96766 49.21 2.96509ZM39 2.96509V10.7151H32.57V2.96509H39ZM24.56 25.1951V3.19509C24.5586 3.16668 24.5631 3.13829 24.573 3.11165C24.583 3.08501 24.5982 3.06066 24.6179 3.04009C24.6375 3.01952 24.6611 3.00315 24.6873 2.99197C24.7134 2.9808 24.7416 2.97506 24.77 2.97509H30.57V11.7251C30.57 11.9903 30.6754 12.2447 30.8629 12.4322C31.0504 12.6197 31.3048 12.7251 31.57 12.7251H40C40.2652 12.7251 40.5196 12.6197 40.7071 12.4322C40.8946 12.2447 41 11.9903 41 11.7251V2.96509H46.81C46.8666 2.96766 46.92 2.99197 46.9591 3.03296C46.9983 3.07394 47.0201 3.12843 47.02 3.18509V25.1851C47.0201 25.2417 46.9983 25.2962 46.9591 25.3372C46.92 25.3782 46.8666 25.4025 46.81 25.4051H24.81C24.7793 25.4111 24.7476 25.4101 24.7173 25.4022C24.687 25.3944 24.6589 25.3799 24.6349 25.3597C24.6109 25.3396 24.5918 25.3144 24.5788 25.2859C24.5659 25.2574 24.5594 25.2264 24.56 25.1951ZM26.76 27.4151V35.1551H20.35V27.4151H26.76ZM12.33 49.6451V27.6451C12.33 27.6166 12.3357 27.5885 12.3469 27.5623C12.3581 27.5362 12.3744 27.5126 12.395 27.4929C12.4156 27.4733 12.4399 27.4581 12.4666 27.4481C12.4932 27.4382 12.5216 27.4337 12.55 27.4351H18.35V36.1551C18.35 36.4203 18.4554 36.6747 18.6429 36.8622C18.8304 37.0497 19.0848 37.1551 19.35 37.1551H27.76C28.0252 37.1551 28.2796 37.0497 28.4671 36.8622C28.6546 36.6747 28.76 36.4203 28.76 36.1551V27.4151H34.56C34.5884 27.4137 34.6168 27.4182 34.6434 27.4281C34.6701 27.4381 34.6944 27.4533 34.715 27.4729C34.7356 27.4926 34.7519 27.5162 34.7631 27.5423C34.7743 27.5685 34.78 27.5966 34.78 27.6251V49.6251C34.78 49.6535 34.7743 49.6817 34.7631 49.7078C34.7519 49.734 34.7356 49.7576 34.715 49.7772C34.6944 49.7969 34.6701 49.8121 34.6434 49.8221C34.6168 49.832 34.5884 49.8364 34.56 49.8351H12.56C12.5324 49.8378 12.5045 49.8351 12.478 49.827C12.4515 49.8189 12.4268 49.8057 12.4054 49.788C12.384 49.7704 12.3663 49.7486 12.3534 49.7241C12.3405 49.6996 12.3325 49.6727 12.33 49.6451ZM7.08 51.8551H88.92V55.4151H7.08V51.8551ZM12.33 57.4151H15.89V60.1651H12.33V57.4151ZM94 67.0351H2V62.1651H94V67.0351Z" fill="#DD6B6C" stroke="#DD6B6C" stroke-width="2" mask="url(#path-46-inside-1_797_27872)"/>
<rect y="50.9651" width="96" height="18" fill="white"/>
<path d="M0 48.9651H10L12 50.9651L10 66.9651H0V48.9651Z" fill="white"/>
<path d="M96 48.9651H86L84 50.9651L86 66.9651H96V48.9651Z" fill="white"/>
<path d="M83.9 57.9651V57.0651H83H79H78.1V57.9651V61.9651V62.8651H79H83H83.9V61.9651V57.9651Z" fill="#275C90" stroke="#002F5D" stroke-width="1.8"/>
<mask id="path-51-inside-2_797_27872" fill="white">
<path d="M83 53.9651H79V58.9651H83V53.9651Z"/>
</mask>
<path d="M83 53.9651H79V58.9651H83V53.9651Z" fill="#275C90"/>
<path d="M79 53.9651V49.9651H75V53.9651H79ZM83 53.9651H87V49.9651H83V53.9651ZM83 58.9651V62.9651H87V58.9651H83ZM79 58.9651H75V62.9651H79V58.9651ZM79 57.9651H83V49.9651H79V57.9651ZM79 53.9651V58.9651H87V53.9651H79ZM83 54.9651H79V62.9651H83V54.9651ZM83 58.9651V53.9651H75V58.9651H83Z" fill="#13477B" mask="url(#path-51-inside-2_797_27872)"/>
<path d="M49.9 57.9651V57.0651H49H45H44.1V57.9651V61.9651V62.8651H45H49H49.9V61.9651V57.9651Z" fill="#275C90" stroke="#002F5D" stroke-width="1.8"/>
<mask id="path-54-inside-3_797_27872" fill="white">
<path d="M49 53.9651H45V58.9651H49V53.9651Z"/>
</mask>
<path d="M49 53.9651H45V58.9651H49V53.9651Z" fill="#275C90"/>
<path d="M45 53.9651V49.9651H41V53.9651H45ZM49 53.9651H53V49.9651H49V53.9651ZM49 58.9651V62.9651H53V58.9651H49ZM45 58.9651H41V62.9651H45V58.9651ZM45 57.9651H49V49.9651H45V57.9651ZM45 53.9651V58.9651H53V53.9651H45ZM49 54.9651H45V62.9651H49V54.9651ZM49 58.9651V53.9651H41V58.9651H49Z" fill="#13477B" mask="url(#path-54-inside-3_797_27872)"/>
<path d="M16.9 57.9651V57.0651H16H12H11.1V57.9651V61.9651V62.8651H12H16H16.9V61.9651V57.9651Z" fill="#275C90" stroke="#002F5D" stroke-width="1.8"/>
<mask id="path-57-inside-4_797_27872" fill="white">
<path d="M16 53.9651H12V58.9651H16V53.9651Z"/>
</mask>
<path d="M16 53.9651H12V58.9651H16V53.9651Z" fill="#275C90"/>
<path d="M12 53.9651V49.9651H8V53.9651H12ZM16 53.9651H20V49.9651H16V53.9651ZM16 58.9651V62.9651H20V58.9651H16ZM12 58.9651H8V62.9651H12V58.9651ZM12 57.9651H16V49.9651H12V57.9651ZM12 53.9651V58.9651H20V53.9651H12ZM16 54.9651H12V62.9651H16V54.9651ZM16 58.9651V53.9651H8V58.9651H16Z" fill="#13477B" mask="url(#path-57-inside-4_797_27872)"/>
<path d="M89.73 50.9651H6.1C6.04477 50.9651 6 51.0099 6 51.0651V56.4251C6 56.4803 6.04477 56.5251 6.1 56.5251H89.73C89.7852 56.5251 89.83 56.4803 89.83 56.4251V51.0651C89.83 51.0099 89.7852 50.9651 89.73 50.9651Z" fill="#2B5279" stroke="#002F5D" stroke-width="1.8"/>
<path d="M11 51.9651H85V53.6586C84.9895 53.9028 84.8421 54.1344 84.5893 54.3038C84.3366 54.4732 83.9987 54.567 83.6479 54.5651H12.3521C11.9961 54.5651 11.6548 54.4666 11.4031 54.2913C11.1515 54.1161 11.0101 53.8783 11.0101 53.6305V51.9651H11Z" fill="#396289"/>
<path d="M94.9 61.9651H1.1C1.04477 61.9651 1 62.0099 1 62.0651V68.7351C1 68.7903 1.04477 68.8351 1.1 68.8351H94.9C94.9552 68.8351 95 68.7903 95 68.7351V62.0651C95 62.0099 94.9552 61.9651 94.9 61.9651Z" fill="#2B5279" stroke="#002F5D" stroke-width="1.8"/>
<path d="M6 62.9651H90V65.235C90 65.4097 89.9567 65.5826 89.8726 65.744C89.7886 65.9054 89.6653 66.052 89.5099 66.1755C89.3546 66.299 89.1701 66.397 88.9671 66.4638C88.7641 66.5307 88.5465 66.5651 88.3268 66.5651H7.67319C7.22943 66.5651 6.80385 66.425 6.49007 66.1755C6.17628 65.9261 6 65.5878 6 65.235V62.9651Z" fill="#396289"/>
</svg>
