<svg width="70" height="70" viewBox="0 0 70 70" fill="none" xmlns="http://www.w3.org/2000/svg">
<g opacity="0.7">
<path d="M30.9321 5.79614H2.96946C2.18267 5.79614 1.54485 6.43396 1.54485 7.22075V35.1834C1.54485 35.9702 2.18267 36.608 2.96946 36.608H30.9321C31.7189 36.608 32.3567 35.9702 32.3567 35.1834V7.22075C32.3567 6.43396 31.7189 5.79614 30.9321 5.79614Z" fill="#EE4345"/>
<path d="M32.3696 8.50708V7.42286C32.3696 6.98819 32.1969 6.57132 31.8895 6.26397C31.5822 5.95661 31.1653 5.78394 30.7307 5.78394H3.18406C2.74939 5.78394 2.33252 5.95661 2.02516 6.26397C1.71781 6.57132 1.54514 6.98819 1.54514 7.42286V8.50708H32.3696Z" fill="#F16365"/>
<path d="M26.4066 10.8013H7.50852C6.97935 10.8013 6.55038 11.2302 6.55038 11.7594V30.6575C6.55038 31.1867 6.97935 31.6157 7.50852 31.6157H26.4066C26.9358 31.6157 27.3648 31.1867 27.3648 30.6575V11.7594C27.3648 11.2302 26.9358 10.8013 26.4066 10.8013Z" fill="#F16365"/>
<path d="M22.2585 5.79614H11.6559V18.0881H22.2585V5.79614Z" fill="#F16365"/>
<path d="M22.2585 5.79614H11.6559V8.49407H22.2585V5.79614Z" fill="#F59293"/>
<path d="M22.2587 10.8013H11.6561V18.0882H22.2587V10.8013Z" fill="#EE4345"/>
<path d="M20.1785 25.6526H13.7615C13.4271 25.6526 13.1064 25.7854 12.87 26.0218C12.6336 26.2583 12.5008 26.5789 12.5008 26.9133C12.5008 27.2477 12.6336 27.5683 12.87 27.8048C13.1064 28.0412 13.4271 28.174 13.7615 28.174H20.1785C20.5129 28.174 20.8335 28.0412 21.07 27.8048C21.3064 27.5683 21.4392 27.2477 21.4392 26.9133C21.4392 26.5789 21.3064 26.2583 21.07 26.0218C20.8335 25.7854 20.5129 25.6526 20.1785 25.6526Z" fill="#91292A"/>
</g>
<path d="M30.3862 4.69423H30.3851H3.32523C2.54077 4.69423 1.78844 5.00585 1.23374 5.56055C0.679046 6.11525 0.36742 6.86758 0.36742 7.65204V34.7109C0.363525 35.1002 0.436539 35.4865 0.582275 35.8476C0.728149 36.209 0.944006 36.538 1.21744 36.8157L1.36643 36.669L1.21744 36.8157C1.49088 37.0934 1.8165 37.3143 2.1756 37.4658C2.5347 37.6172 2.92019 37.6962 3.30991 37.6982H3.31099H30.3709C31.1554 37.6982 31.9077 37.3866 32.4624 36.8319C33.0171 36.2772 33.3287 35.5249 33.3287 34.7404V7.68157C33.3326 7.29224 33.2596 6.90597 33.1139 6.54491C32.968 6.18351 32.7521 5.8545 32.4787 5.57679C32.2052 5.29908 31.8796 5.07815 31.5205 4.92669L31.4393 5.11934L31.5205 4.92669C31.1614 4.77523 30.7759 4.69623 30.3862 4.69423ZM31.5006 34.7262L31.5006 34.7284C31.5022 34.8759 31.4745 35.0223 31.4191 35.159C31.3638 35.2957 31.2819 35.4201 31.1781 35.5249C31.0744 35.6298 30.9509 35.713 30.8148 35.7698C30.6787 35.8266 30.5326 35.8559 30.3852 35.8559H3.32523C3.0294 35.8559 2.74569 35.7383 2.53651 35.5292C2.32732 35.32 2.20981 35.0363 2.20981 34.7404V7.68052C2.20981 7.38469 2.32732 7.10098 2.53651 6.8918C2.74569 6.68262 3.0294 6.5651 3.32523 6.5651H10.5719V18.0345C10.5719 18.2788 10.6689 18.5131 10.8417 18.6859C11.0144 18.8586 11.2487 18.9557 11.4931 18.9557H22.1746C22.4189 18.9557 22.6532 18.8586 22.826 18.6859C22.9987 18.5131 23.0958 18.2788 23.0958 18.0345V6.53662H30.3851C30.681 6.53662 30.9647 6.65413 31.1739 6.86332C31.383 7.0725 31.5006 7.35621 31.5006 7.65204L31.5006 34.7262ZM21.2819 6.53662V17.1133H12.4427V6.53662H21.2819Z" fill="#DD6B6C" stroke="#DD6B6C" stroke-width="0.418182"/>
<g opacity="0.7">
<path d="M35.1143 37.2776H7.15168C6.36489 37.2776 5.72707 37.9154 5.72707 38.7022V66.6648C5.72707 67.4516 6.36489 68.0894 7.15168 68.0894H35.1143C35.9011 68.0894 36.5389 67.4516 36.5389 66.6648V38.7022C36.5389 37.9154 35.9011 37.2776 35.1143 37.2776Z" fill="#EE4345"/>
<path d="M36.5515 39.988V38.9038C36.5515 38.4691 36.3788 38.0523 36.0715 37.7449C35.7641 37.4376 35.3473 37.2649 34.9126 37.2649H7.366C6.93133 37.2649 6.51446 37.4376 6.2071 37.7449C5.89974 38.0523 5.72707 38.4691 5.72707 38.9038V39.988H36.5515Z" fill="#F16365"/>
<path d="M30.5884 42.2827H11.6903C11.1612 42.2827 10.7322 42.7117 10.7322 43.2409V62.139C10.7322 62.6681 11.1612 63.0971 11.6903 63.0971H30.5884C31.1176 63.0971 31.5466 62.6681 31.5466 62.139V43.2409C31.5466 42.7117 31.1176 42.2827 30.5884 42.2827Z" fill="#F16365"/>
<path d="M26.4405 37.2776H15.8379V49.5695H26.4405V37.2776Z" fill="#F16365"/>
<path d="M26.4405 37.2776H15.8379V39.9755H26.4405V37.2776Z" fill="#F59293"/>
<path d="M26.4405 42.2827H15.8379V49.5696H26.4405V42.2827Z" fill="#EE4345"/>
<path d="M24.3603 57.1338H17.9433C17.6089 57.1338 17.2882 57.2666 17.0518 57.503C16.8154 57.7395 16.6826 58.0601 16.6826 58.3945C16.6826 58.7289 16.8154 59.0495 17.0518 59.286C17.2882 59.5224 17.6089 59.6552 17.9433 59.6552H24.3603C24.6947 59.6552 25.0153 59.5224 25.2518 59.286C25.4882 59.0495 25.621 58.7289 25.621 58.3945C25.621 58.0601 25.4882 57.7395 25.2518 57.503C25.0153 57.2666 24.6947 57.1338 24.3603 57.1338Z" fill="#91292A"/>
</g>
<path d="M34.5679 36.0104H34.5669H7.50695C6.72249 36.0104 5.97016 36.322 5.41546 36.8767C4.86076 37.4314 4.54914 38.1837 4.54914 38.9682V66.0271C4.54524 66.4164 4.61826 66.8027 4.76399 67.1637C4.90987 67.5251 5.12572 67.8541 5.39916 68.1318L5.54815 67.9851L5.39916 68.1318C5.6726 68.4096 5.99822 68.6305 6.35732 68.782C6.71642 68.9334 7.10191 69.0124 7.49163 69.0144H7.4927H34.5526C35.3371 69.0144 36.0894 68.7028 36.6441 68.1481C37.1988 67.5934 37.5104 66.8411 37.5104 66.0566V38.9977C37.5143 38.6084 37.4413 38.2221 37.2956 37.8611C37.1497 37.4997 36.9338 37.1707 36.6604 36.893C36.387 36.6152 36.0613 36.3943 35.7022 36.2429L35.621 36.4355L35.7022 36.2429C35.3431 36.0914 34.9577 36.0124 34.5679 36.0104ZM35.6823 66.0424L35.6823 66.0446C35.6839 66.1921 35.6562 66.3384 35.6009 66.4751C35.5455 66.6119 35.4636 66.7362 35.3599 66.8411C35.2561 66.9459 35.1326 67.0292 34.9965 67.086C34.8604 67.1428 34.7144 67.172 34.5669 67.172H7.50695C7.21112 67.172 6.92741 67.0545 6.71822 66.8453C6.50904 66.6361 6.39152 66.3524 6.39152 66.0566V38.9967C6.39152 38.7009 6.50904 38.4171 6.71822 38.208C6.9274 37.9988 7.21112 37.8813 7.50695 37.8813H14.7536V49.3507C14.7536 49.595 14.8506 49.8293 15.0234 50.002C15.1961 50.1748 15.4305 50.2719 15.6748 50.2719H26.3563C26.6006 50.2719 26.8349 50.1748 27.0077 50.002C27.1805 49.8293 27.2775 49.595 27.2775 49.3507V37.8528H34.5669C34.8627 37.8528 35.1464 37.9703 35.3556 38.1795C35.5648 38.3887 35.6823 38.6724 35.6823 38.9682L35.6823 66.0424ZM25.4636 37.8528V48.4295H16.6244V37.8528H25.4636Z" fill="#DD6B6C" stroke="#DD6B6C" stroke-width="0.418182"/>
<path d="M68.697 16.4637C68.6979 16.704 68.6514 16.9422 68.5601 17.1645C68.4688 17.3869 68.3344 17.589 68.1648 17.7592C67.9952 17.9295 67.7936 18.0646 67.5717 18.1568C67.3497 18.249 67.1117 18.2965 66.8714 18.2965H65.5992V22.4796C66.7707 22.4796 67.5039 22.3502 68.1579 23.0187C68.4186 23.2797 68.5945 23.6133 68.6626 23.9758C68.7307 24.3384 68.6877 24.7131 68.5394 25.0509C68.3911 25.3886 68.1443 25.6738 67.8313 25.8691C67.5183 26.0643 67.1537 26.1606 66.7851 26.1452H65.5992V30.6877L61.2867 36.754V65.2956C61.2867 66.2176 60.9214 67.1021 60.2707 67.7554C59.6201 68.4087 58.7371 68.7777 57.8151 68.7815H39.6307C38.7081 68.7815 37.8233 68.415 37.1709 67.7626C36.5185 67.1102 36.152 66.2254 36.152 65.3027V36.7827L31.8395 30.7165V26.1452C30.6679 26.1452 29.9348 26.2746 29.2807 25.6062C29.0253 25.3499 28.8515 25.0237 28.7811 24.6688C28.7108 24.3138 28.7471 23.946 28.8854 23.6116C29.0238 23.2773 29.258 22.9914 29.5586 22.7899C29.8592 22.5885 30.2126 22.4805 30.5745 22.4796H31.8395V18.2965H30.5817C30.3318 18.3122 30.0814 18.2765 29.8459 18.1916C29.6103 18.1068 29.3947 17.9746 29.2122 17.8032C29.0297 17.6318 28.8843 17.4249 28.7848 17.1951C28.6854 16.9653 28.6341 16.7176 28.6341 16.4673C28.6341 16.2169 28.6854 15.9692 28.7848 15.7395C28.8843 15.5097 29.0297 15.3027 29.2122 15.1313C29.3947 14.9599 29.6103 14.8277 29.8459 14.7429C30.0814 14.6581 30.3318 14.6224 30.5817 14.6381H31.8467V10.4621C30.6751 10.4621 29.942 10.5915 29.2879 9.91587C29.0288 9.65181 28.8553 9.31577 28.7901 8.95162C28.7249 8.58747 28.7709 8.21211 28.9223 7.87453C29.0736 7.53695 29.3232 7.25282 29.6384 7.05923C29.9537 6.86564 30.32 6.77157 30.6895 6.78931H31.8467V4.35274C31.8505 3.52279 32.1818 2.7279 32.7687 2.14103C33.3556 1.55415 34.1505 1.22278 34.9804 1.21899H62.4654C63.296 1.22089 64.0919 1.55166 64.6792 2.13895C65.2665 2.72623 65.5973 3.52221 65.5992 4.35274V6.78931H66.7635C67.2255 6.779 67.6753 6.9376 68.0286 7.23534C68.3819 7.53308 68.6145 7.9495 68.6826 8.40649C68.7109 8.66233 68.6849 8.92125 68.6065 9.16639C68.528 9.41153 68.3988 9.6374 68.2273 9.82929C68.0557 10.0212 67.8457 10.1748 67.6108 10.2801C67.376 10.3854 67.1216 10.4401 66.8642 10.4406H65.5992V14.6165H66.8642C67.1063 14.6155 67.3463 14.6627 67.57 14.7554C67.7938 14.8481 67.9969 14.9843 68.1674 15.1562C68.338 15.3282 68.4727 15.5323 68.5636 15.7568C68.6545 15.9812 68.6998 16.2215 68.697 16.4637Z" fill="#396289"/>
<path d="M65.5996 5.29431V4.35274C65.5977 3.52221 65.2669 2.72623 64.6796 2.13895C64.0923 1.55166 63.2964 1.22089 62.4658 1.21899H34.9808C34.1509 1.22278 33.356 1.55415 32.7691 2.14103C32.1822 2.7279 31.8508 3.52279 31.8471 4.35274V5.29431H65.5996Z" fill="#275C90"/>
<path d="M55.3712 1.21899H42.0743V5.29431H55.3712V1.21899Z" fill="#396289"/>
<path d="M55.724 35.8125H41.7156C41.0209 35.8125 40.4578 36.3756 40.4578 37.0703V58.1728C40.4578 58.8675 41.0209 59.4306 41.7156 59.4306H55.724C56.4187 59.4306 56.9818 58.8675 56.9818 58.1728V37.0703C56.9818 36.3756 56.4187 35.8125 55.724 35.8125Z" fill="#275C90"/>
<path d="M46.5667 33.2827H51.1595C51.4719 33.2827 51.7813 33.3442 52.0699 33.4638C52.3585 33.5834 52.6208 33.7586 52.8417 33.9795C53.0626 34.2004 53.2379 34.4627 53.3574 34.7513C53.477 35.04 53.5385 35.3494 53.5385 35.6618V36.6105C53.5387 36.9196 53.419 37.2167 53.2045 37.4393C52.9899 37.6619 52.6974 37.7925 52.3885 37.8037H45.4095C45.093 37.8037 44.7896 37.6779 44.5658 37.4542C44.342 37.2304 44.2163 36.927 44.2163 36.6105V35.6618C44.2163 35.0358 44.463 34.435 44.903 33.9896C45.3429 33.5443 45.9407 33.2903 46.5667 33.2827Z" fill="#47597C"/>
<path d="M57.6936 43.7183H54.4879C54.0711 43.7183 53.7332 44.0561 53.7332 44.4729V45.8386C53.7332 46.2554 54.0711 46.5933 54.4879 46.5933H57.6936C58.1104 46.5933 58.4482 46.2554 58.4482 45.8386V44.4729C58.4482 44.0561 58.1104 43.7183 57.6936 43.7183Z" fill="#47597C"/>
<path d="M50.3258 43.7183H47.1202C46.7034 43.7183 46.3655 44.0561 46.3655 44.4729V45.8386C46.3655 46.2554 46.7034 46.5933 47.1202 46.5933H50.3258C50.7426 46.5933 51.0805 46.2554 51.0805 45.8386V44.4729C51.0805 44.0561 50.7426 43.7183 50.3258 43.7183Z" fill="#47597C"/>
<path d="M42.9585 43.7183H39.7529C39.3361 43.7183 38.9982 44.0561 38.9982 44.4729V45.8386C38.9982 46.2554 39.3361 46.5933 39.7529 46.5933H42.9585C43.3753 46.5933 43.7132 46.2554 43.7132 45.8386V44.4729C43.7132 44.0561 43.3753 43.7183 42.9585 43.7183Z" fill="#47597C"/>
<path d="M57.6936 49.6553H54.4879C54.0711 49.6553 53.7332 49.9932 53.7332 50.41V51.7756C53.7332 52.1924 54.0711 52.5303 54.4879 52.5303H57.6936C58.1104 52.5303 58.4482 52.1924 58.4482 51.7756V50.41C58.4482 49.9932 58.1104 49.6553 57.6936 49.6553Z" fill="#29273B"/>
<path d="M50.3258 49.6553H47.1202C46.7034 49.6553 46.3655 49.9932 46.3655 50.41V51.7756C46.3655 52.1924 46.7034 52.5303 47.1202 52.5303H50.3258C50.7426 52.5303 51.0805 52.1924 51.0805 51.7756V50.41C51.0805 49.9932 50.7426 49.6553 50.3258 49.6553Z" fill="#29273B"/>
<path d="M42.9585 49.6553H39.7529C39.3361 49.6553 38.9982 49.9932 38.9982 50.41V51.7756C38.9982 52.1924 39.3361 52.5303 39.7529 52.5303H42.9585C43.3753 52.5303 43.7132 52.1924 43.7132 51.7756V50.41C43.7132 49.9932 43.3753 49.6553 42.9585 49.6553Z" fill="#29273B"/>
<path d="M57.6936 55.592H54.4879C54.0711 55.592 53.7332 55.9299 53.7332 56.3467V57.7124C53.7332 58.1292 54.0711 58.467 54.4879 58.467H57.6936C58.1104 58.467 58.4482 58.1292 58.4482 57.7124V56.3467C58.4482 55.9299 58.1104 55.592 57.6936 55.592Z" fill="#29273B"/>
<path d="M50.3258 55.592H47.1202C46.7034 55.592 46.3655 55.9299 46.3655 56.3467V57.7124C46.3655 58.1292 46.7034 58.467 47.1202 58.467H50.3258C50.7426 58.467 51.0805 58.1292 51.0805 57.7124V56.3467C51.0805 55.9299 50.7426 55.592 50.3258 55.592Z" fill="#29273B"/>
<path d="M42.9585 55.592H39.7529C39.3361 55.592 38.9982 55.9299 38.9982 56.3467V57.7124C38.9982 58.1292 39.3361 58.467 39.7529 58.467H42.9585C43.3753 58.467 43.7132 58.1292 43.7132 57.7124V56.3467C43.7132 55.9299 43.3753 55.592 42.9585 55.592Z" fill="#29273B"/>
<path d="M57.6936 61.5291H54.4879C54.0711 61.5291 53.7332 61.8669 53.7332 62.2837V63.6494C53.7332 64.0662 54.0711 64.4041 54.4879 64.4041H57.6936C58.1104 64.4041 58.4482 64.0662 58.4482 63.6494V62.2837C58.4482 61.8669 58.1104 61.5291 57.6936 61.5291Z" fill="#29273B"/>
<path d="M50.3258 61.5291H47.1202C46.7034 61.5291 46.3655 61.8669 46.3655 62.2837V63.6494C46.3655 64.0662 46.7034 64.4041 47.1202 64.4041H50.3258C50.7426 64.4041 51.0805 64.0662 51.0805 63.6494V62.2837C51.0805 61.8669 50.7426 61.5291 50.3258 61.5291Z" fill="#29273B"/>
<path d="M42.9585 61.5291H39.7529C39.3361 61.5291 38.9982 61.8669 38.9982 62.2837V63.6494C38.9982 64.0662 39.3361 64.4041 39.7529 64.4041H42.9585C43.3753 64.4041 43.7132 64.0662 43.7132 63.6494V62.2837C43.7132 61.8669 43.3753 61.5291 42.9585 61.5291Z" fill="#29273B"/>
<path d="M31.847 26.1451H30.582C30.3412 26.1469 30.1025 26.1001 29.8802 26.0075C29.6579 25.9149 29.4566 25.7783 29.2883 25.6061C29.0329 25.3498 28.859 25.0236 28.7887 24.6686C28.7183 24.3137 28.7546 23.9459 28.893 23.6115C29.0313 23.2772 29.2655 22.9913 29.5661 22.7898C29.8667 22.5883 30.2202 22.4804 30.582 22.4795H31.847V26.1451Z" fill="#2E5E8D"/>
<path d="M36.1452 36.7825L31.8471 30.7162V26.8494L36.1452 32.9156V36.7825Z" fill="#2E5E8D"/>
<path d="M61.3016 61.4287V65.2956C61.3016 65.7534 61.2115 66.2067 61.0363 66.6296C60.8611 67.0525 60.6043 67.4368 60.2806 67.7605C59.9569 68.0842 59.5726 68.341 59.1497 68.5162C58.7268 68.6914 58.2735 68.7815 57.8157 68.7815H39.6313C38.708 68.7815 37.8225 68.4152 37.1689 67.7631C36.5154 67.1109 36.1473 66.2261 36.1454 65.3028V61.4287C36.1473 62.352 36.5154 63.2368 37.1689 63.889C37.8225 64.5412 38.708 64.9075 39.6313 64.9075H57.8157C58.739 64.9075 59.6246 64.5412 60.2781 63.889C60.9316 63.2368 61.2997 62.352 61.3016 61.4287Z" fill="#2E5E8D"/>
<path d="M61.301 32.9156L65.5991 26.8494V30.7162L61.301 36.7825V32.9156Z" fill="#2E5E8D"/>
<path d="M62.5015 28.5814C62.444 28.6533 63.7737 28.6245 34.9806 28.6245C34.9806 20.5817 34.9806 22.3355 34.9446 4.35234L62.4656 4.31641C62.4656 4.42422 62.5015 28.4664 62.5015 28.5814Z" fill="#96AABD"/>
<path d="M62.5015 5.53109H34.9806C34.9806 5.15734 34.9806 5.33703 34.9446 4.31641H62.4656C62.4656 4.38828 62.4943 5.43047 62.5015 5.53109Z" fill="#6B86A1"/>
<path d="M62.5015 28.6248C61.6749 28.6751 67.4537 28.6248 34.9806 28.6248L34.9446 27.3669H62.4656L62.5015 28.6248Z" fill="#275C90"/>
<path d="M46.5667 32.4775H51.1595C51.4719 32.4775 51.7813 32.5391 52.0699 32.6586C52.3585 32.7782 52.6208 32.9534 52.8417 33.1743C53.0626 33.3953 53.2379 33.6575 53.3574 33.9462C53.477 34.2348 53.5385 34.5442 53.5385 34.8566V35.8053C53.5385 36.1218 53.4128 36.4253 53.1891 36.649C52.9653 36.8728 52.6618 36.9985 52.3454 36.9985H45.4095C45.093 36.9985 44.7896 36.8728 44.5658 36.649C44.342 36.4253 44.2163 36.1218 44.2163 35.8053V34.8566C44.2163 34.2306 44.463 33.6298 44.903 33.1844C45.3429 32.7391 45.9407 32.4851 46.5667 32.4775Z" fill="#2B5279"/>
<path d="M57.6936 42.9065H54.4879C54.0711 42.9065 53.7332 43.2444 53.7332 43.6612V45.0268C53.7332 45.4436 54.0711 45.7815 54.4879 45.7815H57.6936C58.1104 45.7815 58.4482 45.4436 58.4482 45.0268V43.6612C58.4482 43.2444 58.1104 42.9065 57.6936 42.9065Z" fill="#2B5279"/>
<path d="M50.3258 42.9065H47.1202C46.7034 42.9065 46.3655 43.2444 46.3655 43.6612V45.0268C46.3655 45.4436 46.7034 45.7815 47.1202 45.7815H50.3258C50.7426 45.7815 51.0805 45.4436 51.0805 45.0268V43.6612C51.0805 43.2444 50.7426 42.9065 50.3258 42.9065Z" fill="#2B5279"/>
<path d="M42.9585 42.9065H39.7529C39.3361 42.9065 38.9982 43.2444 38.9982 43.6612V45.0268C38.9982 45.4436 39.3361 45.7815 39.7529 45.7815H42.9585C43.3753 45.7815 43.7132 45.4436 43.7132 45.0268V43.6612C43.7132 43.2444 43.3753 42.9065 42.9585 42.9065Z" fill="#2B5279"/>
<path d="M57.6936 48.8433H54.4879C54.0711 48.8433 53.7332 49.1811 53.7332 49.5979V50.9636C53.7332 51.3804 54.0711 51.7183 54.4879 51.7183H57.6936C58.1104 51.7183 58.4482 51.3804 58.4482 50.9636V49.5979C58.4482 49.1811 58.1104 48.8433 57.6936 48.8433Z" fill="#002F5D"/>
<path d="M50.3258 48.8433H47.1202C46.7034 48.8433 46.3655 49.1811 46.3655 49.5979V50.9636C46.3655 51.3804 46.7034 51.7183 47.1202 51.7183H50.3258C50.7426 51.7183 51.0805 51.3804 51.0805 50.9636V49.5979C51.0805 49.1811 50.7426 48.8433 50.3258 48.8433Z" fill="#002F5D"/>
<path d="M42.9585 48.8433H39.7529C39.3361 48.8433 38.9982 49.1811 38.9982 49.5979V50.9636C38.9982 51.3804 39.3361 51.7183 39.7529 51.7183H42.9585C43.3753 51.7183 43.7132 51.3804 43.7132 50.9636V49.5979C43.7132 49.1811 43.3753 48.8433 42.9585 48.8433Z" fill="#002F5D"/>
<path d="M57.6936 54.78H54.4879C54.0711 54.78 53.7332 55.1179 53.7332 55.5347V56.9003C53.7332 57.3171 54.0711 57.655 54.4879 57.655H57.6936C58.1104 57.655 58.4482 57.3171 58.4482 56.9003V55.5347C58.4482 55.1179 58.1104 54.78 57.6936 54.78Z" fill="#002F5D"/>
<path d="M50.3258 54.78H47.1202C46.7034 54.78 46.3655 55.1179 46.3655 55.5347V56.9003C46.3655 57.3171 46.7034 57.655 47.1202 57.655H50.3258C50.7426 57.655 51.0805 57.3171 51.0805 56.9003V55.5347C51.0805 55.1179 50.7426 54.78 50.3258 54.78Z" fill="#002F5D"/>
<path d="M42.9585 54.78H39.7529C39.3361 54.78 38.9982 55.1179 38.9982 55.5347V56.9003C38.9982 57.3171 39.3361 57.655 39.7529 57.655H42.9585C43.3753 57.655 43.7132 57.3171 43.7132 56.9003V55.5347C43.7132 55.1179 43.3753 54.78 42.9585 54.78Z" fill="#002F5D"/>
<path d="M57.6936 60.7244H54.4879C54.0711 60.7244 53.7332 61.0622 53.7332 61.479V62.8447C53.7332 63.2615 54.0711 63.5994 54.4879 63.5994H57.6936C58.1104 63.5994 58.4482 63.2615 58.4482 62.8447V61.479C58.4482 61.0622 58.1104 60.7244 57.6936 60.7244Z" fill="#002F5D"/>
<path d="M50.3258 60.7244H47.1202C46.7034 60.7244 46.3655 61.0622 46.3655 61.479V62.8447C46.3655 63.2615 46.7034 63.5994 47.1202 63.5994H50.3258C50.7426 63.5994 51.0805 63.2615 51.0805 62.8447V61.479C51.0805 61.0622 50.7426 60.7244 50.3258 60.7244Z" fill="#002F5D"/>
<path d="M42.9585 60.7244H39.7529C39.3361 60.7244 38.9982 61.0622 38.9982 61.479V62.8447C38.9982 63.2615 39.3361 63.5994 39.7529 63.5994H42.9585C43.3753 63.5994 43.7132 63.2615 43.7132 62.8447V61.479C43.7132 61.0622 43.3753 60.7244 42.9585 60.7244Z" fill="#002F5D"/>
<path opacity="0.4" d="M62.4728 7.80267L41.6506 28.6249H38.6822L62.4656 4.83423L62.4728 7.80267Z" fill="white"/>
<path opacity="0.4" d="M55.2061 4.32373L34.9733 24.5637L34.9661 16.5497L47.1776 4.33811L55.2061 4.32373Z" fill="white"/>
<path opacity="0.4" d="M62.4946 24.7217L58.5918 28.6246H51.6055L62.4874 17.7427L62.4946 24.7217Z" fill="white"/>
<path d="M49.9166 33.6848H47.5304C47.1652 33.6848 46.8691 33.9793 46.8691 34.3425C46.8691 34.7057 47.1652 35.0001 47.5304 35.0001H49.9166C50.2818 35.0001 50.5779 34.7057 50.5779 34.3425C50.5779 33.9793 50.2818 33.6848 49.9166 33.6848Z" fill="#002F5D"/>
<path d="M52.1805 39.7651H45.6111C45.226 39.7651 44.9139 40.0773 44.9139 40.4623C44.9139 40.8474 45.226 41.1595 45.6111 41.1595H52.1805C52.5655 41.1595 52.8776 40.8474 52.8776 40.4623C52.8776 40.0773 52.5655 39.7651 52.1805 39.7651Z" fill="#0D3761"/>
<path d="M41.6078 17.477C41.6078 17.2864 41.5321 17.1036 41.3973 16.9688C41.2625 16.834 41.0797 16.7582 40.889 16.7582H38.7328V14.9326C38.7328 14.742 38.6571 14.5592 38.5223 14.4244C38.3875 14.2896 38.2047 14.2139 38.014 14.2139C37.8234 14.2139 37.6406 14.2896 37.5058 14.4244C37.371 14.5592 37.2953 14.742 37.2953 14.9326V17.477C37.2953 17.6676 37.371 17.8504 37.5058 17.9852C37.6406 18.12 37.8234 18.1957 38.014 18.1957H40.889C41.0797 18.1957 41.2625 18.12 41.3973 17.9852C41.5321 17.8504 41.6078 17.6676 41.6078 17.477Z" fill="#0D3761"/>
<path d="M56.5148 18.1957H59.3898C59.5804 18.1957 59.7632 18.12 59.898 17.9852C60.0328 17.8504 60.1086 17.6676 60.1086 17.477V14.9326C60.1086 14.742 60.0328 14.5592 59.898 14.4244C59.7632 14.2896 59.5804 14.2139 59.3898 14.2139C59.1992 14.2139 59.0164 14.2896 58.8816 14.4244C58.7468 14.5592 58.6711 14.742 58.6711 14.9326V16.7582H56.5148C56.3242 16.7582 56.1414 16.834 56.0066 16.9688C55.8718 17.1036 55.7961 17.2864 55.7961 17.477C55.7961 17.6676 55.8718 17.8504 56.0066 17.9852C56.1414 18.12 56.3242 18.1957 56.5148 18.1957Z" fill="#0D3761"/>
<path d="M56.5148 8.16943H58.6711V9.99506C58.6711 10.1857 58.7468 10.3685 58.8816 10.5033C59.0164 10.6381 59.1992 10.7138 59.3898 10.7138C59.5804 10.7138 59.7632 10.6381 59.898 10.5033C60.0328 10.3685 60.1086 10.1857 60.1086 9.99506V7.45068C60.1086 7.26006 60.0328 7.07724 59.898 6.94245C59.7632 6.80766 59.5804 6.73193 59.3898 6.73193H56.5148C56.3242 6.73193 56.1414 6.80766 56.0066 6.94245C55.8718 7.07724 55.7961 7.26006 55.7961 7.45068C55.7961 7.64131 55.8718 7.82412 56.0066 7.95892C56.1414 8.09371 56.3242 8.16943 56.5148 8.16943Z" fill="#0D3761"/>
<path d="M38.0426 10.7138C38.2332 10.7138 38.4161 10.6381 38.5508 10.5033C38.6856 10.3685 38.7614 10.1857 38.7614 9.99506V8.16943H40.9176C41.1082 8.16943 41.2911 8.09371 41.4258 7.95892C41.5606 7.82412 41.6364 7.64131 41.6364 7.45068C41.6364 7.26006 41.5606 7.07724 41.4258 6.94245C41.2911 6.80766 41.1082 6.73193 40.9176 6.73193H38.0426C37.852 6.73193 37.6692 6.80766 37.5344 6.94245C37.3996 7.07724 37.3239 7.26006 37.3239 7.45068V9.99506C37.3239 10.1857 37.3996 10.3685 37.5344 10.5033C37.6692 10.6381 37.852 10.7138 38.0426 10.7138Z" fill="#0D3761"/>
<mask id="path-63-outside-1_797_27948" maskUnits="userSpaceOnUse" x="27.0305" y="-0.5" width="43" height="71" fill="black">
<rect fill="white" x="27.0305" y="-0.5" width="43" height="71"/>
<path d="M66.8718 19.0222C67.5485 19.0222 68.1975 18.7534 68.676 18.2749C69.1545 17.7963 69.4233 17.1473 69.4233 16.4706C69.4233 15.7939 69.1545 15.1449 68.676 14.6664C68.1975 14.1879 67.5485 13.9191 66.8718 13.9191H66.3255V11.1806H66.8718C67.2292 11.1806 67.5827 11.1054 67.9093 10.96C68.2358 10.8145 68.5282 10.6021 68.7674 10.3365C69.0066 10.0709 69.1873 9.75793 69.2978 9.41798C69.4084 9.07803 69.4462 8.71865 69.409 8.36312C69.3261 7.72302 69.0109 7.1357 68.5232 6.71293C68.0355 6.29016 67.4093 6.06145 66.764 6.07031H66.3183V4.35969C66.3165 3.33786 65.9102 2.35832 65.1883 1.6351C64.4664 0.911889 63.4877 0.503797 62.4658 0.5L34.9808 0.5C33.959 0.503797 32.9802 0.911889 32.2584 1.6351C31.5365 2.35832 31.1302 3.33786 31.1283 4.35969V6.07031H30.6899C30.1776 6.05191 29.6716 6.1878 29.2375 6.46036C28.8034 6.73293 28.4611 7.1296 28.2551 7.59898C28.0491 8.06836 27.9888 8.58879 28.082 9.09284C28.1752 9.5969 28.4177 10.0613 28.778 10.4259C29.0906 10.7146 29.4643 10.9291 29.8711 11.0536C30.278 11.178 30.7078 11.2092 31.1283 11.1447V13.8831H30.5821C29.9054 13.8831 29.2564 14.1519 28.7779 14.6305C28.2994 15.109 28.0305 15.758 28.0305 16.4347C28.0305 17.1114 28.2994 17.7604 28.7779 18.2389C29.2564 18.7174 29.9054 18.9862 30.5821 18.9862H31.1283V21.7247H30.5821C29.9279 21.7594 29.3119 22.0437 28.861 22.5191C28.4102 22.9945 28.1589 23.6247 28.1589 24.2798C28.1589 24.935 28.4102 25.5652 28.861 26.0406C29.3119 26.5159 29.9279 26.8003 30.5821 26.835H31.1283V30.6875C31.1283 31.0109 30.9055 30.6012 35.4408 36.9837V65.2953C35.4427 66.4074 35.8844 67.4736 36.6694 68.2613C37.4544 69.049 38.5191 69.4943 39.6312 69.5H57.8155C58.9289 69.4981 59.9962 69.0555 60.7841 68.2689C61.572 67.4824 62.0164 66.4158 62.0202 65.3025V37.0125L66.1818 31.1331C66.3758 30.8672 66.3183 30.9822 66.3183 26.8709H66.7855C67.2969 26.887 67.8012 26.7489 68.2331 26.4747C68.665 26.2005 69.0045 25.8028 69.2076 25.3332C69.4106 24.8636 69.4678 24.3438 69.3717 23.8413C69.2756 23.3388 69.0306 22.8768 68.6687 22.5153C68.3593 22.2203 67.9871 21.9991 67.5801 21.8684C67.173 21.7377 66.7417 21.7009 66.3183 21.7606V19.0222H66.8718ZM65.5996 23.1981H66.8646C67.0108 23.1972 67.1556 23.2261 67.2903 23.2829C67.425 23.3398 67.5467 23.4234 67.648 23.5288C67.8064 23.6902 67.9122 23.8957 67.9516 24.1184C67.9911 24.341 67.9623 24.5704 67.869 24.7764C67.7757 24.9824 67.6223 25.1554 67.429 25.2726C67.2356 25.3899 67.0113 25.4459 66.7855 25.4334H65.5996C65.409 25.4334 65.2262 25.5092 65.0914 25.644C64.9566 25.7787 64.8808 25.9616 64.8808 26.1522V30.4647C60.3671 36.8256 60.5683 36.4375 60.5683 36.7609V65.2953C60.5684 66.0267 60.2788 66.7284 59.7629 67.2469C59.2471 67.7655 58.5469 68.0587 57.8155 68.0625H39.6312C38.8985 68.0625 38.1957 67.7719 37.677 67.2546C37.1583 66.7372 36.8659 66.0352 36.864 65.3025C36.864 34.7916 36.9287 36.6531 36.7346 36.3728L32.5658 30.4934V26.1809C32.5658 25.9903 32.4901 25.8075 32.3553 25.6727C32.2205 25.5379 32.0377 25.4622 31.8471 25.4622H30.5821C30.3011 25.4396 30.039 25.3121 29.8478 25.105C29.6567 24.8979 29.5505 24.6264 29.5505 24.3445C29.5505 24.0627 29.6567 23.7912 29.8478 23.5841C30.039 23.3769 30.3011 23.2494 30.5821 23.2269H31.8471C32.0377 23.2269 32.2205 23.1511 32.3553 23.0164C32.4901 22.8816 32.5658 22.6987 32.5658 22.5081V18.3034C32.5658 18.1128 32.4901 17.93 32.3553 17.7952C32.2205 17.6604 32.0377 17.5847 31.8471 17.5847H30.5821C30.2866 17.5847 30.0033 17.4673 29.7943 17.2584C29.5854 17.0495 29.468 16.7661 29.468 16.4706C29.468 16.1752 29.5854 15.8918 29.7943 15.6829C30.0033 15.4739 30.2866 15.3566 30.5821 15.3566H31.8471C32.0377 15.3566 32.2205 15.2808 32.3553 15.146C32.4901 15.0113 32.5658 14.8284 32.5658 14.6378V10.4619C32.5658 10.2712 32.4901 10.0884 32.3553 9.95364C32.2205 9.81885 32.0377 9.74312 31.8471 9.74312H30.5821C30.4342 9.74364 30.2879 9.71394 30.1519 9.65585C30.0159 9.59776 29.8933 9.5125 29.7915 9.40531C29.6327 9.24142 29.5277 9.03298 29.4906 8.80785C29.4534 8.58272 29.4858 8.3516 29.5834 8.14537C29.6811 7.93913 29.8393 7.7676 30.037 7.65368C30.2348 7.53976 30.4625 7.48887 30.6899 7.50781H31.8471C32.0377 7.50781 32.2205 7.43209 32.3553 7.2973C32.4901 7.1625 32.5658 6.97969 32.5658 6.78906V4.35969C32.5658 3.71853 32.82 3.10352 33.2727 2.64948C33.7254 2.19544 34.3397 1.9394 34.9808 1.9375H48.7233H62.4658C63.107 1.9394 63.7213 2.19544 64.1739 2.64948C64.6266 3.10352 64.8808 3.71853 64.8808 4.35969V6.78906C64.8808 6.97969 64.9566 7.1625 65.0914 7.2973C65.2262 7.43209 65.409 7.50781 65.5996 7.50781H66.764C67.0523 7.49898 67.334 7.59556 67.5563 7.77946C67.7785 7.96336 67.9261 8.22197 67.9715 8.50688C67.9886 8.6625 67.9728 8.82 67.925 8.9691C67.8772 9.1182 67.7986 9.25555 67.6941 9.3722C67.5897 9.48884 67.4618 9.58217 67.3189 9.64608C67.176 9.70999 67.0212 9.74306 66.8646 9.74312H65.5996C65.409 9.74312 65.2262 9.81885 65.0914 9.95364C64.9566 10.0884 64.8808 10.2712 64.8808 10.4619V14.6378C64.8808 14.8284 64.9566 15.0113 65.0914 15.146C65.2262 15.2808 65.409 15.3566 65.5996 15.3566H66.8646C67.1588 15.3566 67.4411 15.4729 67.6498 15.6803C67.8585 15.8877 67.9768 16.1692 67.9787 16.4634C67.9787 16.6088 67.95 16.7527 67.8944 16.887C67.8388 17.0213 67.7572 17.1433 67.6545 17.2461C67.5517 17.3489 67.4297 17.4304 67.2954 17.4861C67.1611 17.5417 67.0171 17.5703 66.8718 17.5703H65.5996C65.409 17.5703 65.2262 17.646 65.0914 17.7808C64.9566 17.9156 64.8808 18.0984 64.8808 18.2891V22.465C64.8789 22.5606 64.8961 22.6556 64.9314 22.7445C64.9666 22.8333 65.0193 22.9143 65.0862 22.9826C65.1531 23.0508 65.233 23.1051 65.3212 23.1421C65.4093 23.1791 65.504 23.1981 65.5996 23.1981Z"/>
</mask>
<path d="M66.8718 19.0222C67.5485 19.0222 68.1975 18.7534 68.676 18.2749C69.1545 17.7963 69.4233 17.1473 69.4233 16.4706C69.4233 15.7939 69.1545 15.1449 68.676 14.6664C68.1975 14.1879 67.5485 13.9191 66.8718 13.9191H66.3255V11.1806H66.8718C67.2292 11.1806 67.5827 11.1054 67.9093 10.96C68.2358 10.8145 68.5282 10.6021 68.7674 10.3365C69.0066 10.0709 69.1873 9.75793 69.2978 9.41798C69.4084 9.07803 69.4462 8.71865 69.409 8.36312C69.3261 7.72302 69.0109 7.1357 68.5232 6.71293C68.0355 6.29016 67.4093 6.06145 66.764 6.07031H66.3183V4.35969C66.3165 3.33786 65.9102 2.35832 65.1883 1.6351C64.4664 0.911889 63.4877 0.503797 62.4658 0.5L34.9808 0.5C33.959 0.503797 32.9802 0.911889 32.2584 1.6351C31.5365 2.35832 31.1302 3.33786 31.1283 4.35969V6.07031H30.6899C30.1776 6.05191 29.6716 6.1878 29.2375 6.46036C28.8034 6.73293 28.4611 7.1296 28.2551 7.59898C28.0491 8.06836 27.9888 8.58879 28.082 9.09284C28.1752 9.5969 28.4177 10.0613 28.778 10.4259C29.0906 10.7146 29.4643 10.9291 29.8711 11.0536C30.278 11.178 30.7078 11.2092 31.1283 11.1447V13.8831H30.5821C29.9054 13.8831 29.2564 14.1519 28.7779 14.6305C28.2994 15.109 28.0305 15.758 28.0305 16.4347C28.0305 17.1114 28.2994 17.7604 28.7779 18.2389C29.2564 18.7174 29.9054 18.9862 30.5821 18.9862H31.1283V21.7247H30.5821C29.9279 21.7594 29.3119 22.0437 28.861 22.5191C28.4102 22.9945 28.1589 23.6247 28.1589 24.2798C28.1589 24.935 28.4102 25.5652 28.861 26.0406C29.3119 26.5159 29.9279 26.8003 30.5821 26.835H31.1283V30.6875C31.1283 31.0109 30.9055 30.6012 35.4408 36.9837V65.2953C35.4427 66.4074 35.8844 67.4736 36.6694 68.2613C37.4544 69.049 38.5191 69.4943 39.6312 69.5H57.8155C58.9289 69.4981 59.9962 69.0555 60.7841 68.2689C61.572 67.4824 62.0164 66.4158 62.0202 65.3025V37.0125L66.1818 31.1331C66.3758 30.8672 66.3183 30.9822 66.3183 26.8709H66.7855C67.2969 26.887 67.8012 26.7489 68.2331 26.4747C68.665 26.2005 69.0045 25.8028 69.2076 25.3332C69.4106 24.8636 69.4678 24.3438 69.3717 23.8413C69.2756 23.3388 69.0306 22.8768 68.6687 22.5153C68.3593 22.2203 67.9871 21.9991 67.5801 21.8684C67.173 21.7377 66.7417 21.7009 66.3183 21.7606V19.0222H66.8718ZM65.5996 23.1981H66.8646C67.0108 23.1972 67.1556 23.2261 67.2903 23.2829C67.425 23.3398 67.5467 23.4234 67.648 23.5288C67.8064 23.6902 67.9122 23.8957 67.9516 24.1184C67.9911 24.341 67.9623 24.5704 67.869 24.7764C67.7757 24.9824 67.6223 25.1554 67.429 25.2726C67.2356 25.3899 67.0113 25.4459 66.7855 25.4334H65.5996C65.409 25.4334 65.2262 25.5092 65.0914 25.644C64.9566 25.7787 64.8808 25.9616 64.8808 26.1522V30.4647C60.3671 36.8256 60.5683 36.4375 60.5683 36.7609V65.2953C60.5684 66.0267 60.2788 66.7284 59.7629 67.2469C59.2471 67.7655 58.5469 68.0587 57.8155 68.0625H39.6312C38.8985 68.0625 38.1957 67.7719 37.677 67.2546C37.1583 66.7372 36.8659 66.0352 36.864 65.3025C36.864 34.7916 36.9287 36.6531 36.7346 36.3728L32.5658 30.4934V26.1809C32.5658 25.9903 32.4901 25.8075 32.3553 25.6727C32.2205 25.5379 32.0377 25.4622 31.8471 25.4622H30.5821C30.3011 25.4396 30.039 25.3121 29.8478 25.105C29.6567 24.8979 29.5505 24.6264 29.5505 24.3445C29.5505 24.0627 29.6567 23.7912 29.8478 23.5841C30.039 23.3769 30.3011 23.2494 30.5821 23.2269H31.8471C32.0377 23.2269 32.2205 23.1511 32.3553 23.0164C32.4901 22.8816 32.5658 22.6987 32.5658 22.5081V18.3034C32.5658 18.1128 32.4901 17.93 32.3553 17.7952C32.2205 17.6604 32.0377 17.5847 31.8471 17.5847H30.5821C30.2866 17.5847 30.0033 17.4673 29.7943 17.2584C29.5854 17.0495 29.468 16.7661 29.468 16.4706C29.468 16.1752 29.5854 15.8918 29.7943 15.6829C30.0033 15.4739 30.2866 15.3566 30.5821 15.3566H31.8471C32.0377 15.3566 32.2205 15.2808 32.3553 15.146C32.4901 15.0113 32.5658 14.8284 32.5658 14.6378V10.4619C32.5658 10.2712 32.4901 10.0884 32.3553 9.95364C32.2205 9.81885 32.0377 9.74312 31.8471 9.74312H30.5821C30.4342 9.74364 30.2879 9.71394 30.1519 9.65585C30.0159 9.59776 29.8933 9.5125 29.7915 9.40531C29.6327 9.24142 29.5277 9.03298 29.4906 8.80785C29.4534 8.58272 29.4858 8.3516 29.5834 8.14537C29.6811 7.93913 29.8393 7.7676 30.037 7.65368C30.2348 7.53976 30.4625 7.48887 30.6899 7.50781H31.8471C32.0377 7.50781 32.2205 7.43209 32.3553 7.2973C32.4901 7.1625 32.5658 6.97969 32.5658 6.78906V4.35969C32.5658 3.71853 32.82 3.10352 33.2727 2.64948C33.7254 2.19544 34.3397 1.9394 34.9808 1.9375H48.7233H62.4658C63.107 1.9394 63.7213 2.19544 64.1739 2.64948C64.6266 3.10352 64.8808 3.71853 64.8808 4.35969V6.78906C64.8808 6.97969 64.9566 7.1625 65.0914 7.2973C65.2262 7.43209 65.409 7.50781 65.5996 7.50781H66.764C67.0523 7.49898 67.334 7.59556 67.5563 7.77946C67.7785 7.96336 67.9261 8.22197 67.9715 8.50688C67.9886 8.6625 67.9728 8.82 67.925 8.9691C67.8772 9.1182 67.7986 9.25555 67.6941 9.3722C67.5897 9.48884 67.4618 9.58217 67.3189 9.64608C67.176 9.70999 67.0212 9.74306 66.8646 9.74312H65.5996C65.409 9.74312 65.2262 9.81885 65.0914 9.95364C64.9566 10.0884 64.8808 10.2712 64.8808 10.4619V14.6378C64.8808 14.8284 64.9566 15.0113 65.0914 15.146C65.2262 15.2808 65.409 15.3566 65.5996 15.3566H66.8646C67.1588 15.3566 67.4411 15.4729 67.6498 15.6803C67.8585 15.8877 67.9768 16.1692 67.9787 16.4634C67.9787 16.6088 67.95 16.7527 67.8944 16.887C67.8388 17.0213 67.7572 17.1433 67.6545 17.2461C67.5517 17.3489 67.4297 17.4304 67.2954 17.4861C67.1611 17.5417 67.0171 17.5703 66.8718 17.5703H65.5996C65.409 17.5703 65.2262 17.646 65.0914 17.7808C64.9566 17.9156 64.8808 18.0984 64.8808 18.2891V22.465C64.8789 22.5606 64.8961 22.6556 64.9314 22.7445C64.9666 22.8333 65.0193 22.9143 65.0862 22.9826C65.1531 23.0508 65.233 23.1051 65.3212 23.1421C65.4093 23.1791 65.504 23.1981 65.5996 23.1981Z" fill="#002F5D"/>
<path d="M66.8718 19.0222C67.5485 19.0222 68.1975 18.7534 68.676 18.2749C69.1545 17.7963 69.4233 17.1473 69.4233 16.4706C69.4233 15.7939 69.1545 15.1449 68.676 14.6664C68.1975 14.1879 67.5485 13.9191 66.8718 13.9191H66.3255V11.1806H66.8718C67.2292 11.1806 67.5827 11.1054 67.9093 10.96C68.2358 10.8145 68.5282 10.6021 68.7674 10.3365C69.0066 10.0709 69.1873 9.75793 69.2978 9.41798C69.4084 9.07803 69.4462 8.71865 69.409 8.36312C69.3261 7.72302 69.0109 7.1357 68.5232 6.71293C68.0355 6.29016 67.4093 6.06145 66.764 6.07031H66.3183V4.35969C66.3165 3.33786 65.9102 2.35832 65.1883 1.6351C64.4664 0.911889 63.4877 0.503797 62.4658 0.5L34.9808 0.5C33.959 0.503797 32.9802 0.911889 32.2584 1.6351C31.5365 2.35832 31.1302 3.33786 31.1283 4.35969V6.07031H30.6899C30.1776 6.05191 29.6716 6.1878 29.2375 6.46036C28.8034 6.73293 28.4611 7.1296 28.2551 7.59898C28.0491 8.06836 27.9888 8.58879 28.082 9.09284C28.1752 9.5969 28.4177 10.0613 28.778 10.4259C29.0906 10.7146 29.4643 10.9291 29.8711 11.0536C30.278 11.178 30.7078 11.2092 31.1283 11.1447V13.8831H30.5821C29.9054 13.8831 29.2564 14.1519 28.7779 14.6305C28.2994 15.109 28.0305 15.758 28.0305 16.4347C28.0305 17.1114 28.2994 17.7604 28.7779 18.2389C29.2564 18.7174 29.9054 18.9862 30.5821 18.9862H31.1283V21.7247H30.5821C29.9279 21.7594 29.3119 22.0437 28.861 22.5191C28.4102 22.9945 28.1589 23.6247 28.1589 24.2798C28.1589 24.935 28.4102 25.5652 28.861 26.0406C29.3119 26.5159 29.9279 26.8003 30.5821 26.835H31.1283V30.6875C31.1283 31.0109 30.9055 30.6012 35.4408 36.9837V65.2953C35.4427 66.4074 35.8844 67.4736 36.6694 68.2613C37.4544 69.049 38.5191 69.4943 39.6312 69.5H57.8155C58.9289 69.4981 59.9962 69.0555 60.7841 68.2689C61.572 67.4824 62.0164 66.4158 62.0202 65.3025V37.0125L66.1818 31.1331C66.3758 30.8672 66.3183 30.9822 66.3183 26.8709H66.7855C67.2969 26.887 67.8012 26.7489 68.2331 26.4747C68.665 26.2005 69.0045 25.8028 69.2076 25.3332C69.4106 24.8636 69.4678 24.3438 69.3717 23.8413C69.2756 23.3388 69.0306 22.8768 68.6687 22.5153C68.3593 22.2203 67.9871 21.9991 67.5801 21.8684C67.173 21.7377 66.7417 21.7009 66.3183 21.7606V19.0222H66.8718ZM65.5996 23.1981H66.8646C67.0108 23.1972 67.1556 23.2261 67.2903 23.2829C67.425 23.3398 67.5467 23.4234 67.648 23.5288C67.8064 23.6902 67.9122 23.8957 67.9516 24.1184C67.9911 24.341 67.9623 24.5704 67.869 24.7764C67.7757 24.9824 67.6223 25.1554 67.429 25.2726C67.2356 25.3899 67.0113 25.4459 66.7855 25.4334H65.5996C65.409 25.4334 65.2262 25.5092 65.0914 25.644C64.9566 25.7787 64.8808 25.9616 64.8808 26.1522V30.4647C60.3671 36.8256 60.5683 36.4375 60.5683 36.7609V65.2953C60.5684 66.0267 60.2788 66.7284 59.7629 67.2469C59.2471 67.7655 58.5469 68.0587 57.8155 68.0625H39.6312C38.8985 68.0625 38.1957 67.7719 37.677 67.2546C37.1583 66.7372 36.8659 66.0352 36.864 65.3025C36.864 34.7916 36.9287 36.6531 36.7346 36.3728L32.5658 30.4934V26.1809C32.5658 25.9903 32.4901 25.8075 32.3553 25.6727C32.2205 25.5379 32.0377 25.4622 31.8471 25.4622H30.5821C30.3011 25.4396 30.039 25.3121 29.8478 25.105C29.6567 24.8979 29.5505 24.6264 29.5505 24.3445C29.5505 24.0627 29.6567 23.7912 29.8478 23.5841C30.039 23.3769 30.3011 23.2494 30.5821 23.2269H31.8471C32.0377 23.2269 32.2205 23.1511 32.3553 23.0164C32.4901 22.8816 32.5658 22.6987 32.5658 22.5081V18.3034C32.5658 18.1128 32.4901 17.93 32.3553 17.7952C32.2205 17.6604 32.0377 17.5847 31.8471 17.5847H30.5821C30.2866 17.5847 30.0033 17.4673 29.7943 17.2584C29.5854 17.0495 29.468 16.7661 29.468 16.4706C29.468 16.1752 29.5854 15.8918 29.7943 15.6829C30.0033 15.4739 30.2866 15.3566 30.5821 15.3566H31.8471C32.0377 15.3566 32.2205 15.2808 32.3553 15.146C32.4901 15.0113 32.5658 14.8284 32.5658 14.6378V10.4619C32.5658 10.2712 32.4901 10.0884 32.3553 9.95364C32.2205 9.81885 32.0377 9.74312 31.8471 9.74312H30.5821C30.4342 9.74364 30.2879 9.71394 30.1519 9.65585C30.0159 9.59776 29.8933 9.5125 29.7915 9.40531C29.6327 9.24142 29.5277 9.03298 29.4906 8.80785C29.4534 8.58272 29.4858 8.3516 29.5834 8.14537C29.6811 7.93913 29.8393 7.7676 30.037 7.65368C30.2348 7.53976 30.4625 7.48887 30.6899 7.50781H31.8471C32.0377 7.50781 32.2205 7.43209 32.3553 7.2973C32.4901 7.1625 32.5658 6.97969 32.5658 6.78906V4.35969C32.5658 3.71853 32.82 3.10352 33.2727 2.64948C33.7254 2.19544 34.3397 1.9394 34.9808 1.9375H48.7233H62.4658C63.107 1.9394 63.7213 2.19544 64.1739 2.64948C64.6266 3.10352 64.8808 3.71853 64.8808 4.35969V6.78906C64.8808 6.97969 64.9566 7.1625 65.0914 7.2973C65.2262 7.43209 65.409 7.50781 65.5996 7.50781H66.764C67.0523 7.49898 67.334 7.59556 67.5563 7.77946C67.7785 7.96336 67.9261 8.22197 67.9715 8.50688C67.9886 8.6625 67.9728 8.82 67.925 8.9691C67.8772 9.1182 67.7986 9.25555 67.6941 9.3722C67.5897 9.48884 67.4618 9.58217 67.3189 9.64608C67.176 9.70999 67.0212 9.74306 66.8646 9.74312H65.5996C65.409 9.74312 65.2262 9.81885 65.0914 9.95364C64.9566 10.0884 64.8808 10.2712 64.8808 10.4619V14.6378C64.8808 14.8284 64.9566 15.0113 65.0914 15.146C65.2262 15.2808 65.409 15.3566 65.5996 15.3566H66.8646C67.1588 15.3566 67.4411 15.4729 67.6498 15.6803C67.8585 15.8877 67.9768 16.1692 67.9787 16.4634C67.9787 16.6088 67.95 16.7527 67.8944 16.887C67.8388 17.0213 67.7572 17.1433 67.6545 17.2461C67.5517 17.3489 67.4297 17.4304 67.2954 17.4861C67.1611 17.5417 67.0171 17.5703 66.8718 17.5703H65.5996C65.409 17.5703 65.2262 17.646 65.0914 17.7808C64.9566 17.9156 64.8808 18.0984 64.8808 18.2891V22.465C64.8789 22.5606 64.8961 22.6556 64.9314 22.7445C64.9666 22.8333 65.0193 22.9143 65.0862 22.9826C65.1531 23.0508 65.233 23.1051 65.3212 23.1421C65.4093 23.1791 65.504 23.1981 65.5996 23.1981Z" stroke="#002F5D" stroke-width="0.836364" mask="url(#path-63-outside-1_797_27948)"/>
<path d="M54.2932 35.8053V34.8566C54.2932 34.035 53.9668 33.2471 53.3859 32.6661C52.8049 32.0852 52.017 31.7588 51.1954 31.7588H46.6026C45.7803 31.7588 44.9916 32.0849 44.4095 32.6657C43.8275 33.2464 43.4995 34.0343 43.4976 34.8566V35.8053C43.4976 36.3124 43.699 36.7987 44.0575 37.1573C44.4161 37.5158 44.9024 37.7172 45.4094 37.7172H52.3885C52.8943 37.7153 53.3788 37.5131 53.7358 37.1547C54.0928 36.7964 54.2932 36.3112 54.2932 35.8053ZM52.8557 35.8053C52.8557 35.9299 52.8067 36.0495 52.7193 36.1383C52.6319 36.227 52.5131 36.2778 52.3885 36.2797H45.4094C45.2842 36.2779 45.1646 36.2273 45.0761 36.1387C44.9875 36.0502 44.9369 35.9306 44.9351 35.8053V34.8566C44.937 34.4156 45.1135 33.9933 45.426 33.6821C45.7385 33.371 46.1616 33.1963 46.6026 33.1963H51.1954C51.6351 33.1982 52.0564 33.3737 52.3673 33.6847C52.6783 33.9956 52.8538 34.4168 52.8557 34.8566V35.8053Z" fill="#0D3761"/>
<path d="M40.9967 33.1963C41.1873 33.1963 41.3701 33.1206 41.5049 32.9858C41.6397 32.851 41.7154 32.6682 41.7154 32.4775C41.7154 32.2869 41.6397 32.1041 41.5049 31.9693C41.3701 31.8345 41.1873 31.7588 40.9967 31.7588H38.7614C38.5708 31.7588 38.3879 31.8345 38.2531 31.9693C38.1184 32.1041 38.0426 32.2869 38.0426 32.4775C38.0426 32.6682 38.1184 32.851 38.2531 32.9858C38.3879 33.1206 38.5708 33.1963 38.7614 33.1963H40.9967Z" fill="#002F5D"/>
<path d="M58.685 31.7588H56.4497C56.259 31.7588 56.0762 31.8345 55.9414 31.9693C55.8066 32.1041 55.7309 32.2869 55.7309 32.4775C55.7309 32.6682 55.8066 32.851 55.9414 32.9858C56.0762 33.1206 56.259 33.1963 56.4497 33.1963H58.685C58.8756 33.1963 59.0584 33.1206 59.1932 32.9858C59.328 32.851 59.4037 32.6682 59.4037 32.4775C59.4037 32.2869 59.328 32.1041 59.1932 31.9693C59.0584 31.8345 58.8756 31.7588 58.685 31.7588Z" fill="#002F5D"/>
<path d="M57.4387 42.7734H54.3138C53.9406 42.7733 53.582 42.9236 53.3149 43.1922C53.0477 43.4608 52.893 43.8264 52.8839 44.2109V45.6484C52.893 46.033 53.0477 46.3986 53.3149 46.6672C53.582 46.9358 53.9406 47.0861 54.3138 47.0859H57.4248C57.7981 47.0861 58.1566 46.9358 58.4238 46.6672C58.6909 46.3986 58.8456 46.033 58.8547 45.6484V44.2469C58.8547 43.8586 58.706 43.486 58.4408 43.21C58.1757 42.9341 57.8156 42.7772 57.4387 42.7734ZM57.4736 45.6484C57.4736 45.7203 57.4736 45.6484 54.2929 45.6484L54.3138 44.2109H57.4597L57.4736 45.6484Z" fill="#0D3761"/>
<path d="M50.289 42.7734H47.1781C46.8048 42.7733 46.4463 42.9236 46.1791 43.1922C45.9119 43.4608 45.7572 43.8264 45.7481 44.2109V45.6484C45.7572 46.033 45.9119 46.3986 46.1791 46.6672C46.4463 46.9358 46.8048 47.0861 47.1781 47.0859H50.289C50.6623 47.0861 51.0208 46.9358 51.288 46.6672C51.5552 46.3986 51.7098 46.033 51.7189 45.6484V44.2469C51.7189 43.8561 51.5683 43.4813 51.3001 43.205C51.032 42.9287 50.6682 42.7734 50.289 42.7734ZM50.3239 45.6484C50.3239 45.7203 50.3239 45.6484 47.1432 45.6484L47.1781 44.2109H50.3239V45.6484Z" fill="#0D3761"/>
<path d="M43.1534 42.7734H40.0285C39.6552 42.7733 39.2967 42.9236 39.0295 43.1922C38.7623 43.4608 38.6077 43.8264 38.5986 44.2109V45.6484C38.6077 46.033 38.7623 46.3986 39.0295 46.6672C39.2967 46.9358 39.6552 47.0861 40.0285 47.0859H43.1534C43.5206 47.0768 43.8703 46.9224 44.13 46.6548C44.3898 46.3872 44.5396 46.0268 44.5484 45.6484V44.2469C44.5485 43.8622 44.4027 43.4928 44.142 43.2175C43.8814 42.9422 43.5265 42.7828 43.1534 42.7734ZM43.1534 45.6484C43.1534 45.7203 43.1534 45.6484 39.9727 45.6484L40.0076 44.2109H43.1534V45.6484Z" fill="#0D3761"/>
<path d="M57.4387 48.7104H54.3138C53.9406 48.7103 53.582 48.8606 53.3149 49.1292C53.0477 49.3978 52.893 49.7634 52.8839 50.1479V51.5208C52.8839 51.7126 52.9211 51.9025 52.9933 52.0793C53.0656 52.2561 53.1715 52.4162 53.3048 52.5501C53.438 52.6841 53.596 52.7892 53.7693 52.8593C53.9426 52.9294 54.1277 52.9631 54.3138 52.9583H57.4248C57.6109 52.9631 57.7961 52.9294 57.9694 52.8593C58.1427 52.7892 58.3006 52.6841 58.4339 52.5501C58.5671 52.4162 58.673 52.2561 58.7453 52.0793C58.8176 51.9025 58.8548 51.7126 58.8547 51.5208V50.1839C58.8547 49.7956 58.706 49.423 58.4408 49.1471C58.1757 48.8711 57.8156 48.7142 57.4387 48.7104ZM57.4736 51.5854C57.4736 51.6573 57.4736 51.5854 54.2929 51.5854L54.3278 50.1479H57.4736V51.5854Z" fill="#0D3761"/>
<path d="M50.289 48.7104H47.1781C46.8048 48.7103 46.4463 48.8606 46.1791 49.1292C45.9119 49.3978 45.7572 49.7634 45.7481 50.1479V51.5208C45.7481 51.7126 45.7853 51.9025 45.8576 52.0793C45.9298 52.2561 46.0357 52.4162 46.169 52.5501C46.3022 52.6841 46.4602 52.7892 46.6335 52.8593C46.8068 52.9294 46.9919 52.9631 47.1781 52.9583H50.289C50.4751 52.9631 50.6603 52.9294 50.8336 52.8593C51.0069 52.7892 51.1648 52.6841 51.2981 52.5501C51.4313 52.4162 51.5372 52.2561 51.6095 52.0793C51.6818 51.9025 51.719 51.7126 51.7189 51.5208V50.1839C51.7189 49.7931 51.5683 49.4183 51.3001 49.142C51.032 48.8657 50.6682 48.7104 50.289 48.7104ZM50.3239 51.5854C50.3239 51.6573 50.3239 51.5854 47.1432 51.5854L47.1781 50.1479H50.3239V51.5854Z" fill="#0D3761"/>
<path d="M43.1533 48.7104H40.0284C39.6551 48.7103 39.2966 48.8606 39.0294 49.1292C38.7622 49.3978 38.6076 49.7634 38.5985 50.1479V51.5208C38.5984 51.7126 38.6356 51.9025 38.7079 52.0793C38.7802 52.2561 38.8861 52.4162 39.0193 52.5501C39.1526 52.6841 39.3105 52.7892 39.4838 52.8593C39.6571 52.9294 39.8423 52.9631 40.0284 52.9583H43.1533C43.3394 52.9631 43.5246 52.9294 43.6979 52.8593C43.8712 52.7892 44.0291 52.6841 44.1624 52.5501C44.2956 52.4162 44.4015 52.2561 44.4738 52.0793C44.5461 51.9025 44.5833 51.7126 44.5832 51.5208V50.1839C44.5832 49.7931 44.4326 49.4183 44.1644 49.142C43.8963 48.8657 43.5325 48.7104 43.1533 48.7104ZM43.1882 51.5854C43.1882 51.6573 43.1882 51.5854 40.0075 51.5854L40.0424 50.1479H43.1882V51.5854Z" fill="#0D3761"/>
<path d="M57.4387 54.6543H54.3138C53.9406 54.6542 53.582 54.8045 53.3149 55.0731C53.0477 55.3417 52.893 55.7073 52.8839 56.0918V57.4646C52.893 57.8491 53.0477 58.2147 53.3149 58.4833C53.582 58.7519 53.9406 58.9022 54.3138 58.9021H57.4248C57.7981 58.9022 58.1566 58.7519 58.4238 58.4833C58.6909 58.2147 58.8456 57.8491 58.8547 57.4646V56.1205C58.8529 55.7335 58.7034 55.3627 58.4384 55.0884C58.1734 54.814 57.8144 54.6581 57.4387 54.6543ZM57.4736 57.5293C57.4736 57.6012 57.4736 57.5293 54.2929 57.5293L54.3278 56.0918H57.4736V57.5293Z" fill="#0D3761"/>
<path d="M50.289 54.6543H47.1781C46.8048 54.6542 46.4463 54.8045 46.1791 55.0731C45.9119 55.3417 45.7572 55.7073 45.7481 56.0918V57.4646C45.7572 57.8491 45.9119 58.2147 46.1791 58.4833C46.4463 58.7519 46.8048 58.9022 47.1781 58.9021H50.289C50.6623 58.9022 51.0208 58.7519 51.288 58.4833C51.5552 58.2147 51.7098 57.8491 51.7189 57.4646V56.1205C51.7171 55.731 51.5656 55.3581 51.2977 55.0833C51.0297 54.8085 50.667 54.6543 50.289 54.6543ZM50.3239 57.5293C50.3239 57.6012 50.3239 57.5293 47.1432 57.5293L47.1781 56.0918H50.3239V57.5293Z" fill="#0D3761"/>
<path d="M43.1533 54.6543H40.0284C39.6551 54.6542 39.2966 54.8045 39.0294 55.0731C38.7622 55.3417 38.6076 55.7073 38.5985 56.0918V57.4646C38.6076 57.8491 38.7622 58.2147 39.0294 58.4833C39.2966 58.7519 39.6551 58.9022 40.0284 58.9021H43.1533C43.5266 58.9022 43.8851 58.7519 44.1523 58.4833C44.4195 58.2147 44.5741 57.8491 44.5832 57.4646V56.1205C44.5814 55.731 44.4299 55.3581 44.162 55.0833C43.894 54.8085 43.5313 54.6543 43.1533 54.6543ZM43.1882 57.5293C43.1882 57.6012 43.1882 57.5293 40.0075 57.5293L40.0424 56.0918H43.1882V57.5293Z" fill="#0D3761"/>
<path d="M57.4385 60.5913H54.3136C53.9404 60.5912 53.5818 60.7415 53.3147 61.0101C53.0475 61.2787 52.8928 61.6443 52.8837 62.0288V63.3944C52.8791 63.5909 52.9126 63.7864 52.9824 63.9693C53.0522 64.1523 53.1567 64.319 53.29 64.4596C53.4232 64.6003 53.5825 64.712 53.7583 64.7883C53.9341 64.8646 54.1229 64.9039 54.3136 64.9038H57.4246C57.8038 64.9038 58.1675 64.7486 58.4357 64.4722C58.7039 64.1959 58.8545 63.8211 58.8545 63.4304V62.0647C58.8545 61.6764 58.7058 61.3038 58.4406 61.0279C58.1755 60.752 57.8154 60.5951 57.4385 60.5913ZM57.4734 63.4304C57.4734 63.5022 57.4734 63.4663 54.2927 63.4304L54.3136 62.0288H57.4595L57.4734 63.4304Z" fill="#0D3761"/>
<path d="M50.289 60.5913H47.1781C46.8048 60.5912 46.4463 60.7415 46.1791 61.0101C45.9119 61.2787 45.7572 61.6443 45.7481 62.0288V63.3944C45.7481 63.7852 45.8988 64.16 46.1669 64.4363C46.4351 64.7126 46.7988 64.8679 47.1781 64.8679H50.289C50.6682 64.8679 51.032 64.7126 51.3001 64.4363C51.5683 64.16 51.7189 63.7852 51.7189 63.3944V62.0288C51.7098 61.6443 51.5552 61.2787 51.288 61.0101C51.0208 60.7415 50.6623 60.5912 50.289 60.5913ZM50.3239 63.4304C50.3239 63.5022 50.3239 63.4663 47.1432 63.4304L47.1781 62.0288H50.3239V63.4304Z" fill="#0D3761"/>
<path d="M43.1533 60.5913H40.0284C39.6551 60.5912 39.2966 60.7415 39.0294 61.0101C38.7622 61.2787 38.6076 61.6443 38.5985 62.0288V63.3944C38.5985 63.7852 38.7491 64.16 39.0173 64.4363C39.2855 64.7126 39.6492 64.8679 40.0284 64.8679H43.1533C43.5205 64.8587 43.8702 64.7044 44.13 64.4367C44.3897 64.1691 44.5395 63.8087 44.5484 63.4304V62.0647C44.5485 61.6801 44.4026 61.3107 44.1419 61.0354C43.8813 60.7601 43.5265 60.6007 43.1533 60.5913ZM43.1533 63.4304C43.1533 63.5022 43.1533 63.4663 39.9726 63.4304L40.0075 62.0288H43.1533V63.4304Z" fill="#0D3761"/>
<path d="M62.5015 28.6104C62.4296 28.6104 63.7809 28.6104 34.9806 28.6104L34.9446 20.5676H62.4656L62.5015 28.6104Z" fill="#6B86A1"/>
<path d="M37.2234 23.9673H38.7975C38.9881 23.9673 39.1709 23.8916 39.3057 23.7568C39.4405 23.622 39.5162 23.4392 39.5162 23.2485C39.5162 23.0579 39.4405 22.8751 39.3057 22.7403C39.1709 22.6055 38.9881 22.5298 38.7975 22.5298H37.2234C37.0328 22.5298 36.85 22.6055 36.7152 22.7403C36.5804 22.8751 36.5047 23.0579 36.5047 23.2485C36.5047 23.4392 36.5804 23.622 36.7152 23.7568C36.85 23.8916 37.0328 23.9673 37.2234 23.9673Z" fill="#0D3761"/>
<path d="M38.8262 25.2319H37.2234C37.0328 25.2319 36.85 25.3077 36.7152 25.4425C36.5804 25.5772 36.5047 25.7601 36.5047 25.9507C36.5047 26.1413 36.5804 26.3241 36.7152 26.4589C36.85 26.5937 37.0328 26.6694 37.2234 26.6694H38.7975C38.9881 26.6694 39.1709 26.5937 39.3057 26.4589C39.4405 26.3241 39.5162 26.1413 39.5162 25.9507C39.5162 25.7601 39.4405 25.5772 39.3057 25.4425C39.1709 25.3077 38.9881 25.2319 38.7975 25.2319H38.8262Z" fill="#0D3761"/>
<path d="M52.6118 22.6809H43.6921C43.5015 22.6809 43.3187 22.7566 43.1839 22.8914C43.0491 23.0262 42.9734 23.209 42.9734 23.3997C42.9734 23.5903 43.0491 23.7731 43.1839 23.9079C43.3187 24.0427 43.5015 24.1184 43.6921 24.1184H52.6118C52.8024 24.1184 52.9852 24.0427 53.12 23.9079C53.2548 23.7731 53.3306 23.5903 53.3306 23.3997C53.3306 23.209 53.2548 23.0262 53.12 22.8914C52.9852 22.7566 52.8024 22.6809 52.6118 22.6809Z" fill="#0D3761"/>
<path d="M48.8959 25.0815H43.6921C43.5015 25.0815 43.3187 25.1573 43.1839 25.2921C43.0491 25.4269 42.9734 25.6097 42.9734 25.8003C42.9734 25.9909 43.0491 26.1737 43.1839 26.3085C43.3187 26.4433 43.5015 26.519 43.6921 26.519H48.8743C49.0649 26.519 49.2477 26.4433 49.3825 26.3085C49.5173 26.1737 49.5931 25.9909 49.5931 25.8003C49.5931 25.6097 49.5173 25.4269 49.3825 25.2921C49.2477 25.1573 49.0649 25.0815 48.8743 25.0815H48.8959Z" fill="#0D3761"/>
<path d="M63.185 4.31665C63.185 4.12603 63.1093 3.94321 62.9745 3.80842C62.8397 3.67363 62.6569 3.5979 62.4663 3.5979C33.2635 3.64103 34.7585 3.52603 34.435 3.84946C34.3148 3.97362 34.2434 4.13692 34.2338 4.30946C34.2338 4.38134 34.1907 28.4235 34.3057 28.8188C34.3057 28.8907 34.3057 28.8835 34.4279 29.0632C34.7441 29.4585 33.285 29.3435 62.4591 29.3435C62.6497 29.3435 62.8325 29.2678 62.9673 29.133C63.1021 28.9982 63.1778 28.8154 63.1778 28.6248C63.2138 27.252 63.185 4.38853 63.185 4.31665ZM35.6641 5.07134H61.7475V19.856H35.6857L35.6641 5.07134ZM35.6641 21.3079H40.3144V27.9132H35.7L35.6641 21.3079ZM41.7519 27.906V21.3007H61.7475V27.9132L41.7519 27.906Z" fill="#002F5D"/>
</svg>
