<svg width="16" height="16" viewBox="0 0 16 16" fill="none" xmlns="http://www.w3.org/2000/svg">
<path d="M2.33327 6.13284C2.45704 6.13284 2.57574 6.08368 2.66326 5.99616C2.75077 5.90864 2.79994 5.78995 2.79994 5.66618V2.99951C2.79994 2.94647 2.82101 2.8956 2.85852 2.85809C2.89603 2.82058 2.9469 2.79951 2.99994 2.79951H5.66661C5.79037 2.79951 5.90907 2.75035 5.99659 2.66283C6.08411 2.57531 6.13327 2.45661 6.13327 2.33285C6.13327 2.20908 6.08411 2.09038 5.99659 2.00286C5.90907 1.91534 5.79037 1.86618 5.66661 1.86618H2.99994C2.69936 1.86618 2.41109 1.98558 2.19855 2.19812C1.98601 2.41067 1.86661 2.69893 1.86661 2.99951V5.66618C1.86661 5.78995 1.91577 5.90864 2.00329 5.99616C2.09081 6.08368 2.2095 6.13284 2.33327 6.13284Z" fill="#002F5D" stroke="#002F5D" stroke-width="0.266667"/>
<path d="M5.66661 13.1995H2.99994C2.9469 13.1995 2.89602 13.1784 2.85852 13.1409C2.82101 13.1034 2.79994 13.0526 2.79994 12.9995V10.3328C2.79994 10.2091 2.75077 10.0904 2.66326 10.0029C2.57574 9.91534 2.45704 9.86618 2.33327 9.86618C2.2095 9.86618 2.09081 9.91534 2.00329 10.0029C1.91577 10.0904 1.86661 10.2091 1.86661 10.3328V12.9995C1.86661 13.3001 1.98601 13.5884 2.19855 13.8009C2.41109 14.0134 2.69936 14.1328 2.99994 14.1328H5.66661C5.79037 14.1328 5.90907 14.0837 5.99659 13.9962C6.08411 13.9086 6.13327 13.7899 6.13327 13.6662C6.13327 13.5424 6.08411 13.4237 5.99659 13.3362C5.90907 13.2487 5.79037 13.1995 5.66661 13.1995Z" fill="#002F5D" stroke="#002F5D" stroke-width="0.266667"/>
<path d="M10.3333 2.79951H12.9999C13.053 2.79951 13.1039 2.82058 13.1414 2.85809C13.1789 2.8956 13.1999 2.94647 13.1999 2.99951V5.66618C13.1999 5.78995 13.2491 5.90864 13.3366 5.99616C13.4241 6.08368 13.5428 6.13284 13.6666 6.13284C13.7904 6.13284 13.9091 6.08368 13.9966 5.99616C14.0841 5.90864 14.1333 5.78995 14.1333 5.66618V2.99951C14.1333 2.69893 14.0139 2.41067 13.8013 2.19812C13.5888 1.98558 13.3005 1.86618 12.9999 1.86618H10.3333C10.2095 1.86618 10.0908 1.91534 10.0033 2.00286C9.91577 2.09038 9.86661 2.20908 9.86661 2.33285C9.86661 2.45661 9.91577 2.57531 10.0033 2.66283C10.0908 2.75035 10.2095 2.79951 10.3333 2.79951Z" fill="#002F5D" stroke="#002F5D" stroke-width="0.266667"/>
<path d="M13.6666 9.86618C13.5428 9.86618 13.4241 9.91534 13.3366 10.0029C13.2491 10.0904 13.1999 10.2091 13.1999 10.3328V12.9995C13.1999 13.0526 13.1789 13.1034 13.1414 13.1409C13.1039 13.1784 13.053 13.1995 12.9999 13.1995H10.3333C10.2095 13.1995 10.0908 13.2487 10.0033 13.3362C9.91577 13.4237 9.86661 13.5424 9.86661 13.6662C9.86661 13.7899 9.91577 13.9086 10.0033 13.9962C10.0908 14.0837 10.2095 14.1328 10.3333 14.1328H12.9999C13.3005 14.1328 13.5888 14.0134 13.8013 13.8009C14.0139 13.5884 14.1333 13.3001 14.1333 12.9995V10.3328C14.1333 10.2091 14.0841 10.0904 13.9966 10.0029C13.9091 9.91534 13.7904 9.86618 13.6666 9.86618Z" fill="#002F5D" stroke="#002F5D" stroke-width="0.266667"/>
<path d="M1.33327 7.53219H14.6666C14.7904 7.53219 14.9091 7.58136 14.9966 7.66888M1.33327 7.53219L14.9966 7.66888M1.33327 7.53219C1.2095 7.53219 1.09081 7.58136 1.00329 7.66888C0.915772 7.75639 0.866606 7.87509 0.866606 7.99886C0.866606 8.12263 0.915772 8.24133 1.00329 8.32884C1.09081 8.41636 1.2095 8.46553 1.33327 8.46553H14.6666C14.7904 8.46553 14.9091 8.41636 14.9966 8.32884C15.0841 8.24133 15.1333 8.12263 15.1333 7.99886C15.1333 7.87509 15.0841 7.75639 14.9966 7.66888M1.33327 7.53219L14.9966 7.66888" fill="#002F5D" stroke="#002F5D" stroke-width="0.266667"/>
</svg>
