<svg width="11" height="16" viewBox="0 0 11 16" fill="none" xmlns="http://www.w3.org/2000/svg">
<path d="M5.19737 0.841507C4.98531 0.919091 4.82497 1.04323 4.73187 1.20874C4.69049 1.28115 4.65946 1.87596 4.64394 3.07076L4.61808 4.82933L2.88537 4.85519C1.73195 4.87071 1.10611 4.90174 1.01818 4.94312C0.578535 5.13966 0.40785 5.87413 0.70267 6.29308C0.925077 6.60342 0.997489 6.61376 2.8233 6.61376C3.73362 6.61376 4.51463 6.62928 4.56118 6.6448C4.6336 6.67066 4.64394 6.87755 4.64394 8.40854C4.64394 10.0637 4.64911 10.1516 4.74739 10.3171C4.90773 10.5705 5.25427 10.7205 5.60598 10.6843C5.95252 10.6481 6.15424 10.5137 6.29389 10.2137C6.40251 9.99643 6.40251 9.92919 6.39217 8.32578C6.38182 6.98099 6.39217 6.66031 6.44389 6.63962C6.48527 6.62411 7.26111 6.61376 8.17143 6.61376C9.58863 6.61376 9.85242 6.60342 10.0024 6.53101C10.2559 6.41204 10.4007 6.18446 10.4265 5.85861C10.4576 5.51207 10.4214 5.36724 10.2507 5.16553C9.99724 4.86553 9.91966 4.85519 8.07833 4.85519H6.40251V3.18455C6.40251 1.67942 6.39217 1.49839 6.30424 1.31218C6.25252 1.19839 6.15941 1.06392 6.10252 1.01219C5.98356 0.903575 5.65253 0.774268 5.49736 0.774268C5.44047 0.774268 5.30599 0.805302 5.19737 0.841507Z" fill="white"/>
<path d="M0.687137 13.5086C0.39749 13.6224 0.309561 13.7 0.200944 13.9224C-0.00594705 14.3517 0.113015 14.8534 0.485419 15.0965C0.630242 15.1948 0.775066 15.2 5.49218 15.2C10.3334 15.2 10.3489 15.2 10.5248 15.0913C11.0524 14.7655 11.0162 13.8655 10.4627 13.5759C10.2558 13.4672 10.2145 13.4672 5.54907 13.4569C2.03193 13.4517 0.800927 13.4621 0.687137 13.5086Z" fill="white"/>
</svg>
