<svg width="280" height="185" viewBox="0 0 280 185" fill="none" xmlns="http://www.w3.org/2000/svg">
<path d="M266.072 117.387C262.673 100.063 242.949 84.2598 242.949 84.2598C227.623 61.9014 233.903 48.9748 219.681 30.0642C216.52 25.8616 210.552 18.976 201.21 13.0788C182.271 1.12306 151.143 -5.93988 132.766 6.65501C121.998 14.0352 123.608 22.1391 109.402 29.266C97.0344 35.4698 83.8384 36.4606 83.8384 36.4606C78.0653 36.8935 70.72 36.6303 60.7488 39.801C58.1875 40.6152 56.1726 41.4279 54.9292 41.9568C46.1968 45.6716 34.4047 55.4313 25.1123 71.0212C23.299 74.0626 -0.224363 114.921 16.5358 155.019C17.8827 158.241 19.2311 160.839 20.2385 162.651C20.2522 162.775 20.3374 162.924 20.4995 163.094C22.0161 165.512 30.3901 176.861 51.1292 171.459C68.0446 174.139 93.223 176.7 129.741 178.032C215.991 181.177 253.152 168.68 253.152 168.68C267.431 161.207 269.471 134.712 266.072 117.388L266.072 117.387Z" fill="#DDF0FB"/>
<path d="M113.021 3.88984C111.151 2.35125 108.531 1.9373 106.05 1.73489C91.1904 0.51893 75.8935 4.83872 64.2398 13.5422C61.3384 15.7093 58.5047 18.3931 57.9203 21.8219C57.3359 25.2499 57.7948 28.3088 67.2409 31.332C68.5642 31.507 69.8943 31.6295 71.2274 31.7048C81.9976 32.3143 92.9527 29.7089 102.144 24.4288C104.561 23.0401 106.857 21.4673 108.995 19.7187C111.476 17.6893 113.816 15.3418 114.891 12.4282C115.966 9.51463 115.495 5.92685 113.021 3.88984Z" fill="#DDF0FB"/>
<mask id="mask0_76_7014" style="mask-type:luminance" maskUnits="userSpaceOnUse" x="10" y="0" width="258" height="176">
<path d="M265.501 115.59C262.108 98.6384 242.426 83.1748 242.426 83.1748C227.131 61.2965 233.399 48.6469 219.206 30.1419C216.053 26.0298 210.096 19.2918 200.774 13.5209C181.875 1.82238 150.811 -5.08913 132.473 7.23487C121.727 14.4568 123.335 22.3872 109.157 29.3604C96.815 35.4311 83.6468 36.4005 83.6468 36.4005C77.886 36.8243 70.5558 36.5664 60.6056 39.6687C58.0497 40.4654 56.039 41.2605 54.7981 41.778C46.0835 45.4129 34.3158 54.9633 25.0429 70.2184C23.2339 73.1952 -0.241128 113.176 16.4841 152.413C17.8281 155.566 19.1736 158.109 20.1786 159.882C20.1923 160.003 20.2771 160.149 20.439 160.315C21.9525 162.68 30.309 173.786 51.0051 168.5C67.8853 171.123 93.0113 173.629 129.454 174.931C215.526 178.008 253.139 168.333 253.139 168.333C267.389 161.02 268.894 132.541 265.502 115.589L265.501 115.59Z" fill="white"/>
</mask>
<g mask="url(#mask0_76_7014)">
<path d="M-8.80124 67.9053V174.986H270.044V75.701H249.162V81.3227H248.022V83.2905H246.77V85.4827H244.818L240.704 89.4183V95.0118H238.076V70.284H222.182V98.5722L217.076 95.3771L211.078 99.1346V88.2655H206.108V86.3258H205.625V78.7645H191.807V78.4837H191.379V72.2243L190.555 71.2595H176.135L175.311 72.2243V94.047L173.966 93.035L168.569 89.053L167.082 90.1678V89.3247L166.426 89.868V90.6456L163.879 92.5099L161.332 90.6456V89.8588L160.669 89.3247V90.1678L159.189 89.053L153.767 93.035L152.447 94.0751V82.9625H152.875V70.9224H152.447V60.503L151.623 59.5381H137.203L136.36 60.503V66.7715H135.933V67.0432H122.133V86.3266H121.65V88.2662H116.68V98.6765L105.576 98.592V32.8326H89.6814V95.0126H87.0537V89.419L82.9392 85.4835H80.9813V83.2913H79.7358V81.3235H78.5773V64.2041H60.7746V112.451H54.5846V97.2809L54.8824 96.953C54.7091 96.7658 54.5288 96.5969 54.3494 96.4378C54.1264 96.2225 53.9469 96.0536 53.7484 95.9037C52.3479 94.7699 50.6748 94.0485 48.8901 93.805C48.8901 93.805 48.797 93.7959 48.7351 93.7959C48.6916 93.7868 48.6419 93.7769 48.5923 93.7769H48.5243C48.2265 93.7206 47.8921 93.7206 47.5454 93.7206C44.7008 93.7206 42.1113 94.8452 40.2396 96.8221H40.4008L40.4191 97.7588V112.404L37.4073 115.122L36.8124 91.1623H34.1168V85.3153H32.8652V84.1344H31.7067V83.6375H21.9161V84.1344H20.7386V85.3153H19.487V104.234H8.85256V103.756H8.20805V104.234H5.11607L2.8977 106.951V67.9053H-8.80124Z" fill="#8BBCD8"/>
<g opacity="0.5">
<path d="M253.572 79.387H251.558V82.4322H253.572V79.387Z" fill="white"/>
<path d="M203.277 82.4322H201.263V85.4774H203.277V82.4322Z" fill="white"/>
<path d="M200.23 107.458H198.216V110.503H200.23V107.458Z" fill="white"/>
<path d="M196.976 107.458H194.963V110.503H196.976V107.458Z" fill="white"/>
<path d="M195.969 91.9971H193.956V95.0423H195.969V91.9971Z" fill="white"/>
<path d="M144.977 73.7257H142.964V76.7709H144.977V73.7257Z" fill="white"/>
<path d="M144.977 90.4745H142.964V93.5198H144.977V90.4745Z" fill="white"/>
<path d="M188.895 92.3875H186.881V95.4327H188.895V92.3875Z" fill="white"/>
<path d="M126.593 70.6416H124.58V73.6868H126.593V70.6416Z" fill="white"/>
<path d="M127.601 85.4173H125.587V88.4625H127.601V85.4173Z" fill="white"/>
<path d="M126.593 105.935H124.58V108.98H126.593V105.935Z" fill="white"/>
<path d="M130.27 70.6416H128.256V73.6868H130.27V70.6416Z" fill="white"/>
<path d="M133.946 77.8644H131.932V80.9096H133.946V77.8644Z" fill="white"/>
<path d="M137.622 70.6416H135.608V73.6868H137.622V70.6416Z" fill="white"/>
<path d="M137.622 99.181H135.608V102.226H137.622V99.181Z" fill="white"/>
<path d="M71.3669 108.551H69.3532V111.596H71.3669V108.551Z" fill="white"/>
<path d="M49.1628 120.928H47.149V123.973H49.1628V120.928Z" fill="white"/>
<path d="M25.4602 120.928H23.4465V123.973H25.4602V120.928Z" fill="white"/>
<path d="M18.4118 111.675H16.3981V114.72H18.4118V111.675Z" fill="white"/>
<path d="M11.1314 116.945H9.11771V119.99H11.1314V116.945Z" fill="white"/>
<path d="M45.2124 108.98H43.1987V112.025H45.2124V108.98Z" fill="white"/>
<path d="M35.2577 108.98H33.244V112.025H35.2577V108.98Z" fill="white"/>
<path d="M76.2207 108.551H74.2069V111.596H76.2207V108.551Z" fill="white"/>
<path d="M264.313 92.739H262.764V95.0812H264.313V92.739Z" fill="white"/>
<path d="M249.648 95.082H248.408V99.1423H249.648V95.082Z" fill="white"/>
<path d="M253.985 90.241H252.565V91.9591H253.985V90.241Z" fill="white"/>
<path d="M251.558 120.03H250.138V121.748H251.558V120.03Z" fill="white"/>
<path d="M260.698 110.542H259.356V114.134H260.698V110.542Z" fill="white"/>
<path d="M264.984 119.092H263.641V122.684H264.984V119.092Z" fill="white"/>
<path d="M235.705 73.687H234.466V76.8106H235.705V73.687Z" fill="white"/>
<path d="M233.123 73.687H231.884V76.8106H233.123V73.687Z" fill="white"/>
<path d="M184.17 73.687H182.931V76.8106H184.17V73.687Z" fill="white"/>
<path d="M178.903 92.3488H177.664V95.4724H178.903V92.3488Z" fill="white"/>
<path d="M180.969 119.327H179.73V122.45H180.969V119.327Z" fill="white"/>
<path d="M181.588 73.687H180.349V76.8106H181.588V73.687Z" fill="white"/>
<path d="M104.338 36.0507H103.099V39.1743H104.338V36.0507Z" fill="white"/>
<path d="M98.5541 36.0507H97.3147V39.1743H98.5541V36.0507Z" fill="white"/>
<path d="M101.446 42.2188H100.207V45.3424H101.446V42.2188Z" fill="white"/>
<path d="M104.338 48.3876H103.099V51.5112H104.338V48.3876Z" fill="white"/>
<path d="M98.5541 48.3876H97.3147V51.5112H98.5541V48.3876Z" fill="white"/>
<path d="M92.771 48.3876H91.5316V51.5112H92.771V48.3876Z" fill="white"/>
<path d="M95.6631 54.5563H94.4237V57.6799H95.6631V54.5563Z" fill="white"/>
<path d="M92.771 54.5563H91.5316V57.6799H92.771V54.5563Z" fill="white"/>
<path d="M104.338 60.7244H103.099V63.848H104.338V60.7244Z" fill="white"/>
<path d="M76.4538 66.8933H75.2144V70.0169H76.4538V66.8933Z" fill="white"/>
<path d="M73.4067 73.687H72.1673V76.8106H73.4067V73.687Z" fill="white"/>
<path d="M64.2668 73.687H63.0274V76.8106H64.2668V73.687Z" fill="white"/>
<path d="M70.3599 66.8933H69.1205V70.0169H70.3599V66.8933Z" fill="white"/>
<path d="M32.1993 86.9612H30.96V90.0848H32.1993V86.9612Z" fill="white"/>
<path d="M28.9462 86.9005H27.7068V90.0241H28.9462V86.9005Z" fill="white"/>
<path d="M28.9462 92.3488H27.7068V95.4724H28.9462V92.3488Z" fill="white"/>
<path d="M28.9462 107.419H27.7068V110.542H28.9462V107.419Z" fill="white"/>
<path d="M28.9462 120.03H27.7068V123.153H28.9462V120.03Z" fill="white"/>
<path d="M22.4401 99.3957H21.2007V102.519H22.4401V99.3957Z" fill="white"/>
<path d="M25.6931 92.6417H24.4537V95.7653H25.6931V92.6417Z" fill="white"/>
<path d="M64.8868 118.468H63.6474V121.591H64.8868V118.468Z" fill="white"/>
<path d="M52.0961 108.98H50.8567V112.104H52.0961V108.98Z" fill="white"/>
<path d="M52.0961 99.3957H50.8567V102.519H52.0961V99.3957Z" fill="white"/>
<path d="M35.8779 99.1423H34.6385V102.266H35.8779V99.1423Z" fill="white"/>
<path d="M64.2668 66.8933H63.0274V70.0169H64.2668V66.8933Z" fill="white"/>
<path d="M67.3137 80.0892H66.0743V83.2128H67.3137V80.0892Z" fill="white"/>
<path d="M64.2668 90.4357H63.0274V93.5593H64.2668V90.4357Z" fill="white"/>
<path d="M85.1804 90.7873H83.941V93.9109H85.1804V90.7873Z" fill="white"/>
<path d="M80.8423 86.9612H79.6029V90.0848H80.8423V86.9612Z" fill="white"/>
<path d="M74.0261 96.0186H72.7867V99.1422H74.0261V96.0186Z" fill="white"/>
<path d="M101.446 60.7244H100.207V63.848H101.446V60.7244Z" fill="white"/>
<path d="M98.5541 60.7244H97.3147V63.848H98.5541V60.7244Z" fill="white"/>
<path d="M95.6631 66.8933H94.4237V70.0169H95.6631V66.8933Z" fill="white"/>
<path d="M104.338 73.0623H103.099V76.1859H104.338V73.0623Z" fill="white"/>
<path d="M95.6631 79.2311H94.4237V82.3548H95.6631V79.2311Z" fill="white"/>
<path d="M92.771 79.2311H91.5316V82.3548H92.771V79.2311Z" fill="white"/>
<path d="M101.446 85.3991H100.207V88.5227H101.446V85.3991Z" fill="white"/>
<path d="M95.6631 85.3991H94.4237V88.5227H95.6631V85.3991Z" fill="white"/>
<path d="M104.338 91.5679H103.099V94.6915H104.338V91.5679Z" fill="white"/>
<path d="M92.771 91.5679H91.5316V94.6915H92.771V91.5679Z" fill="white"/>
<path d="M104.338 97.7369H103.099V100.86H104.338V97.7369Z" fill="white"/>
<path d="M92.771 97.7369H91.5316V100.86H92.771V97.7369Z" fill="white"/>
<path d="M98.5541 103.905H97.3147V107.028H98.5541V103.905Z" fill="white"/>
<path d="M92.771 103.905H91.5316V107.028H92.771V103.905Z" fill="white"/>
<path d="M104.338 110.074H103.099V113.197H104.338V110.074Z" fill="white"/>
<path d="M146.217 65.0975H144.977V68.2211H146.217V65.0975Z" fill="white"/>
<path d="M114.904 102.773H113.664V105.896H114.904V102.773Z" fill="white"/>
<path d="M119.571 91.9583H118.332V95.0819H119.571V91.9583Z" fill="white"/>
<path d="M198.216 91.9583H196.976V95.0819H198.216V91.9583Z" fill="white"/>
<path d="M228.992 90.3969H227.753V93.5205H228.992V90.3969Z" fill="white"/>
<path d="M228.992 107.419H227.753V110.542H228.992V107.419Z" fill="white"/>
<path d="M190.754 107.419H189.515V110.542H190.754V107.419Z" fill="white"/>
<path d="M157.112 104.335H155.873V107.459H157.112V104.335Z" fill="white"/>
<path d="M160.83 92.3488H159.591V95.4724H160.83V92.3488Z" fill="white"/>
<path d="M149.16 65.0975H147.92V68.2211H149.16V65.0975Z" fill="white"/>
<path d="M218.355 97.5807H217.116V100.704H218.355V97.5807Z" fill="white"/>
<path d="M189.515 73.687H188.275V76.8106H189.515V73.687Z" fill="white"/>
<path d="M186.881 81.6516H185.642V84.7752H186.881V81.6516Z" fill="white"/>
<path d="M169.402 100.704H168.163V103.827H169.402V100.704Z" fill="white"/>
<path d="M235.705 90.3969H234.466V93.5205H235.705V90.3969Z" fill="white"/>
<path d="M227.03 79.3482H225.791V82.4718H227.03V79.3482Z" fill="white"/>
<path d="M233.123 79.3482H231.884V82.4718H233.123V79.3482Z" fill="white"/>
<path d="M231.884 107.419H230.644V110.542H231.884V107.419Z" fill="white"/>
<path d="M209.06 92.3488H207.821V95.4724H209.06V92.3488Z" fill="white"/>
<path d="M172.293 95.0423H171.054V98.1659H172.293V95.0423Z" fill="white"/>
</g>
</g>
<path d="M141.931 178.514C212.533 178.514 269.767 175.653 269.767 172.123C269.767 168.593 212.533 165.731 141.931 165.731C71.3289 165.731 14.0948 168.593 14.0948 172.123C14.0948 175.653 71.3289 178.514 141.931 178.514Z" fill="#7F93B8"/>
<path d="M251.881 74.1273H222.877V108.403H254.648V76.8941C254.648 75.3661 253.409 74.1281 251.882 74.1281L251.881 74.1273Z" fill="#E67C25"/>
<path d="M259.735 86.5694C258.897 84.1899 256.518 82.5821 253.835 82.5821H217.731V156.728H270.114L270.856 119.16C270.869 118.509 270.764 117.859 270.545 117.24L259.735 86.5694Z" fill="#FFCD4C"/>
<path d="M265.499 144.459V156.262C265.499 156.52 265.708 156.728 265.966 156.728H270.856V143.993H265.966C265.709 143.993 265.499 144.201 265.499 144.459Z" fill="#4A58A6"/>
<path d="M267.791 89.5164H253.686V91.1745H267.791C271.648 91.1745 274.784 94.3087 274.784 98.1613V103.964H276.444V98.1613C276.444 93.3949 272.562 89.5164 267.791 89.5164Z" fill="#31415F"/>
<path d="M279.603 100.293H271.271C271.051 100.293 270.873 100.471 270.873 100.691V115.529C270.873 115.748 271.051 115.926 271.271 115.926H279.603C279.822 115.926 280 115.748 280 115.529V100.691C280 100.471 279.822 100.293 279.603 100.293Z" fill="#31415F"/>
<path d="M278.241 101.783H272.631C272.483 101.783 272.363 101.903 272.363 102.051V114.169C272.363 114.317 272.483 114.437 272.631 114.437H278.241C278.389 114.437 278.509 114.317 278.509 114.169V102.051C278.509 101.903 278.389 101.783 278.241 101.783Z" fill="#8CB0DD"/>
<path d="M255.311 90.9698C254.917 89.6846 253.729 88.8065 252.383 88.8065H231.977C230.285 88.8065 228.913 90.177 228.913 91.867V114.286C228.913 115.977 230.285 117.347 231.977 117.347H259.262C261.322 117.347 262.794 115.357 262.191 113.389L255.311 90.9698Z" fill="#31415F"/>
<path d="M258.427 101.123H228.913V114.286C228.913 115.977 230.285 117.347 231.977 117.347H259.262C261.322 117.347 262.794 115.357 262.191 113.389L258.427 101.123Z" fill="#4A58A6"/>
<path d="M247.606 140.901C239.206 140.895 232.395 147.701 232.4 156.094C232.406 164.347 239.324 171.259 247.584 171.265C255.986 171.271 262.797 164.466 262.791 156.072C262.785 147.819 255.866 140.907 247.606 140.901Z" fill="#13375B"/>
<path d="M110.374 170.797C118.41 170.797 124.924 164.104 124.924 155.849C124.924 147.593 118.41 140.901 110.374 140.901C102.339 140.901 95.8247 147.593 95.8247 155.849C95.8247 164.104 102.339 170.797 110.374 170.797Z" fill="#3E3A39"/>
<path d="M65.8646 39.2014H220.885C221.984 39.2014 222.876 40.0933 222.876 41.192V133.928C222.876 135.027 221.984 135.918 220.885 135.918H65.8646C64.7658 135.918 63.874 135.027 63.874 133.928V41.1913C63.874 40.0925 64.7658 39.2007 65.8646 39.2007V39.2014Z" fill="#5CBEE3"/>
<path d="M67.8263 43.4811V131.639C67.8263 131.822 67.9755 131.971 68.1581 131.971H143.292V43.1493H68.1581C67.9747 43.1493 67.8263 43.2977 67.8263 43.4811Z" fill="#31415F"/>
<path d="M67.8263 43.2079V66.6125C67.8263 66.6612 67.9755 66.7008 68.1581 66.7008H143.292V43.1204H68.1581C67.9747 43.1204 67.8263 43.1599 67.8263 43.2086V43.2079Z" fill="#0E5D91"/>
<path d="M218.594 39.2015H147.243V135.919H218.594C220.959 135.919 222.877 134.003 222.877 131.639V43.481C222.877 41.1176 220.959 39.2015 218.594 39.2015Z" fill="#1061A0"/>
<path d="M107.648 105.324H75.6403V131.971H107.648V105.324Z" fill="#FCBC68"/>
<path d="M143.291 100.112H102.906V131.971H143.291V100.112Z" fill="#FCBC68"/>
<path d="M143.292 82.611H117.455V100.112H143.292V82.611Z" fill="#FCBC68"/>
<path d="M127.55 82.611H117.455V100.112H127.55V82.611Z" fill="#E67C25"/>
<path d="M220.31 135.919H74.2174V156.728H220.31C220.811 156.728 221.217 156.322 221.217 155.821V136.825C221.217 136.324 220.812 135.918 220.31 135.918V135.919Z" fill="#1D285C"/>
<path d="M145.109 138.725H75.6403V154.238H145.109V138.725Z" fill="#4A58A6"/>
<path d="M142.82 144.605H122.748V150.764H142.82V144.605Z" fill="#FFCD4C"/>
<path d="M142.82 144.605H130.708V150.764H142.82V144.605Z" fill="#EF5E7C"/>
<path d="M100.195 144.605H80.1221V150.764H100.195V144.605Z" fill="#EF5E7C"/>
<path d="M89.2106 144.605H80.1221V150.764H89.2106V144.605Z" fill="#FFCD4C"/>
<path d="M157.926 140.901C149.89 140.901 143.376 147.594 143.376 155.849C143.376 164.104 150.487 170.797 158.522 170.797C170.443 170.797 172.475 164.104 172.475 155.849C172.475 147.594 165.961 140.901 157.926 140.901Z" fill="#31415F"/>
<path d="M162.417 139.611C154.382 139.611 147.868 146.696 147.868 155.438C147.868 164.18 153.96 170.796 161.995 170.796C170.031 170.796 176.967 164.179 176.967 155.438C176.967 146.697 170.453 139.611 162.417 139.611Z" fill="#13375B"/>
<path d="M250.101 171.265C258.136 171.265 264.65 164.34 264.65 155.798C264.65 147.255 258.136 140.33 250.101 140.33C242.065 140.33 235.551 147.255 235.551 155.798C235.551 164.34 242.065 171.265 250.101 171.265Z" fill="#31415F"/>
<path d="M250.101 163.22C254.052 163.22 257.255 159.736 257.255 155.438C257.255 151.14 254.052 147.656 250.101 147.656C246.15 147.656 242.946 151.14 242.946 155.438C242.946 159.736 246.15 163.22 250.101 163.22Z" fill="#34548A"/>
<path d="M162.417 147.656C158.466 147.656 155.263 151.14 155.263 155.439C155.263 159.737 158.466 163.221 162.417 163.221C166.368 163.221 169.571 159.736 169.571 155.439C169.571 151.141 166.369 147.656 162.417 147.656Z" fill="#34548A"/>
<path d="M103.164 64.0558H109.725C111.645 64.0558 113.202 62.5004 113.202 60.5814H99.6864C99.6864 62.5004 101.243 64.0558 103.164 64.0558Z" fill="#5CBEE3"/>
<path d="M256.795 127.936H263.925V124.785H253.641C253.641 126.525 255.053 127.936 256.795 127.936Z" fill="#E67C25"/>
<path d="M83.2785 105.324H70.6106V131.971H83.2785V105.324Z" fill="#E67C25"/>
<path d="M113.891 100.112H97.8632V131.971H113.891V100.112Z" fill="#F79831"/>
<path d="M136.957 82.611H129.319V84.5133H136.957V82.611Z" fill="#EEEEB3"/>
<path d="M134.821 100.112H124.499V102.683H134.821V100.112Z" fill="#EEEEB3"/>
<path d="M167.111 118.562C168.352 118.801 170.693 117.646 170.693 117.646H165.871C165.871 117.646 166.344 118.414 167.11 118.562H167.111Z" fill="#D98B8C"/>
<g opacity="0.95">
<path d="M162.196 24.0559C156.683 20.459 149.238 22.3872 149.238 22.3872C142.234 14.6075 135.667 23.5841 135.667 23.5841C131.143 22.986 129.251 28.3711 129.251 28.3711L167.085 28.9692C167.085 28.9692 165.87 26.4536 162.195 24.0559H162.196Z" fill="#F2F8FC"/>
</g>
<g opacity="0.95">
<path d="M186.031 13.9919C182.922 11.964 178.724 13.0506 178.724 13.0506C174.775 8.66309 171.071 13.7255 171.071 13.7255C168.52 13.3885 167.453 16.4253 167.453 16.4253L188.789 16.7632C188.789 16.7632 188.104 15.3448 186.031 13.9926V13.9919Z" fill="#F2F8FC"/>
</g>
<path d="M22.0383 161.934C23.6751 163.505 29.7145 165.678 29.7145 165.678L31.4837 162.671L23.4818 158.738L22.0375 161.934H22.0383Z" fill="#7AD1F6"/>
<path d="M32.6067 166.84C33.6111 169.056 34.4565 171.243 35.0082 172.887C35.0082 172.887 18.2206 175.195 14.438 171.884C11.2558 169.098 15.1015 167.527 15.1015 167.527C15.1015 167.527 9.14041 166.289 7.20994 164.172C5.3236 162.103 8.18849 161.18 8.32546 161.135C8.14283 161.068 5.87831 160.242 3.75608 158.551C3.68988 158.493 3.61988 158.437 3.55063 158.381C1.58135 156.756 -0.197701 154.373 0.0176418 151.154C0.479525 144.225 10.4941 151.439 13.7676 155.392C13.776 155.399 13.7783 155.402 13.7783 155.402C13.7783 155.402 13.7813 155.4 13.7821 155.395C13.8277 155.211 14.5012 152.683 16.4986 152.941C17.1537 153.023 18.0189 153.796 18.8932 154.819C20.7841 157.019 22.7245 160.364 22.7245 160.364V160.359C22.7854 160.178 24.3597 155.593 27.2657 158.2C29.0752 159.824 31.0354 163.367 32.6074 166.84H32.6067Z" fill="#5CBEE3"/>
<g style="mix-blend-mode:multiply" opacity="0.3">
<path d="M23.4815 164.199C21.4278 158.44 18.8916 157.362 17.5501 160.271C16.2086 163.18 13.2592 163.793 9.12964 158.277C5.00084 152.761 3.34963 153.031 3.76738 156.919C3.83434 157.528 3.82749 158.082 3.75444 158.552C5.87667 160.243 8.14119 161.069 8.32382 161.136C8.18685 161.181 5.32195 162.104 7.20829 164.173C9.13877 166.29 15.0999 167.528 15.0999 167.528C15.0999 167.528 11.2542 169.097 14.4364 171.885C18.2189 175.196 35.0065 172.888 35.0065 172.888C31.8038 166.257 25.5337 169.96 23.4808 164.2L23.4815 164.199ZM24.3497 171.832C19.4113 172.261 18.5834 169.306 20.7954 169.032C24.1633 168.611 29.2882 171.403 24.3497 171.832Z" fill="#326C90"/>
</g>
<g style="mix-blend-mode:multiply" opacity="0.3">
<path d="M12.442 156.512C11.6506 157.47 14.3474 161.659 15.6036 160.632C16.8599 159.606 13.6313 155.074 12.442 156.512Z" fill="#326C90"/>
</g>
<g opacity="0.5">
<path d="M13.7676 155.392C13.5234 155.199 9.56805 152.079 6.38737 150.229C3.10321 148.321 0.115802 148.723 0.837923 153.122C1.20012 155.333 2.42218 157.139 3.55063 158.381C1.58135 156.756 -0.197701 154.373 0.0176418 151.154C0.479525 144.225 10.4941 151.439 13.7676 155.392Z" fill="white"/>
</g>
<g opacity="0.5">
<path d="M16.4977 152.941C17.1529 153.024 18.018 153.797 18.8923 154.819C15.4644 152.234 13.8717 155.219 13.7804 155.396C13.8261 155.212 14.4995 152.684 16.4969 152.942L16.4977 152.941Z" fill="white"/>
</g>
<g opacity="0.5">
<path d="M32.6067 166.84C29.6763 161.589 26.9263 158.11 25.4707 158.176C24.0105 158.241 22.7808 160.277 22.7245 160.359C22.7846 160.178 24.359 155.593 27.2649 158.2C29.0744 159.824 31.0346 163.367 32.6067 166.84Z" fill="white"/>
</g>
<path d="M2.20905 151.51C2.20905 151.51 20.4074 166.367 34.3514 172.505C34.3514 172.505 12.4085 158.756 2.20905 151.51Z" fill="#4785C5"/>
<path d="M38.9239 167.759C37.5184 169.746 36.0582 171.581 34.9176 172.888C34.9176 172.888 24.432 159.587 25.3771 154.652C26.173 150.5 29.4739 153.02 29.4739 153.02C29.4739 153.02 27.5267 147.256 28.3782 144.521C29.2099 141.849 31.4561 143.851 31.5642 143.946C31.5299 143.755 31.097 141.384 31.4835 138.7C31.5002 138.613 31.5132 138.525 31.5269 138.437C31.934 135.919 33.0906 133.179 35.9783 131.737C42.1943 128.63 41.0324 140.91 39.2754 145.731C39.2739 145.741 39.2724 145.745 39.2724 145.745C39.2724 145.745 39.2754 145.746 39.28 145.745C39.4618 145.69 41.9851 144.992 42.7734 146.844C43.0344 147.451 42.8046 148.587 42.364 149.858C41.4212 152.6 39.5151 155.965 39.5151 155.965L39.5197 155.964C39.7061 155.923 44.4611 154.962 43.6804 158.785C43.1942 161.165 41.1267 164.647 38.9239 167.759Z" fill="#5CBEE3"/>
<g style="mix-blend-mode:multiply" opacity="0.3">
<path d="M36.587 158.559C40.5203 153.876 40.1679 151.144 36.9781 151.46C33.7883 151.776 31.7658 149.544 34.4397 143.195C37.1128 136.845 36.0445 135.559 32.9003 137.886C32.408 138.252 31.9271 138.526 31.4842 138.701C31.0977 141.386 31.5307 143.755 31.5649 143.947C31.4568 143.852 29.2106 141.85 28.3789 144.522C27.5274 147.257 29.4746 153.021 29.4746 153.021C29.4746 153.021 26.1737 150.501 25.3778 154.653C24.4327 159.589 34.9183 172.889 34.9183 172.889C39.0228 166.774 32.6538 163.244 36.5878 158.56L36.587 158.559ZM30.4144 163.934C26.6592 160.701 28.1993 158.046 29.9403 159.437C32.5921 161.553 34.1696 167.168 30.4144 163.934Z" fill="#326C90"/>
</g>
<g style="mix-blend-mode:multiply" opacity="0.3">
<path d="M37.6386 145.156C36.4112 144.958 34.1596 149.401 35.6815 149.965C37.2034 150.528 39.4823 145.452 37.6386 145.156Z" fill="#326C90"/>
</g>
<g opacity="0.5">
<path d="M39.2762 145.732C39.3188 145.423 40.0128 140.436 40.0006 136.759C39.9861 132.963 38.1279 130.592 34.6954 133.439C32.9696 134.87 32.0291 136.837 31.5276 138.437C31.9347 135.919 33.0914 133.179 35.9791 131.737C42.1951 128.63 41.0332 140.91 39.2762 145.731V145.732Z" fill="white"/>
</g>
<g opacity="0.5">
<path d="M42.7733 146.845C43.0343 147.451 42.8045 148.587 42.364 149.859C42.8616 145.597 39.4793 145.734 39.2807 145.745C39.4625 145.691 41.9858 144.993 42.7741 146.845H42.7733Z" fill="white"/>
</g>
<g opacity="0.5">
<path d="M38.9239 167.759C41.9744 162.578 43.5868 158.447 42.7939 157.226C41.998 156 39.6186 155.971 39.5197 155.964C39.7061 155.923 44.4611 154.962 43.6804 158.785C43.1942 161.166 41.1267 164.648 38.9239 167.759Z" fill="white"/>
</g>
<path d="M36.7803 133.806C36.7803 133.806 33.1598 157.006 34.9153 172.13C34.9153 172.13 35.6838 146.263 36.7803 133.806Z" fill="#4785C5"/>
<path d="M36.4798 163.859C36.0438 167.255 35.4404 170.498 34.8849 172.875C34.8849 172.875 13.0699 163.249 10.9865 156.491C9.2348 150.804 15.0026 151.762 15.0026 151.762C15.0026 151.762 8.77748 145.879 8.03101 141.919C7.30128 138.048 11.4149 139.057 11.6119 139.104C11.443 138.889 9.34057 136.228 8.04927 132.636C8.01275 132.517 7.9709 132.399 7.92905 132.281C6.77244 128.881 6.40262 124.714 9.04076 121.017C14.7173 113.059 21.3785 129.091 22.3768 136.243C22.3821 136.257 22.3821 136.262 22.3821 136.262C22.3821 136.262 22.3867 136.262 22.3912 136.257C22.5822 136.069 25.2577 133.538 27.4598 135.322C28.1842 135.904 28.6484 137.469 28.9398 139.339C29.5782 143.37 29.4291 148.809 29.4291 148.809L29.4336 148.804C29.6391 148.631 34.9146 144.302 36.4684 149.569C37.4356 152.849 37.1632 158.54 36.4791 163.86L36.4798 163.859Z" fill="#4A85C5"/>
<g style="mix-blend-mode:multiply" opacity="0.3">
<path d="M27.5017 153.962C29.3005 145.547 27.0596 142.384 23.3013 144.878C19.5439 147.372 15.5566 145.93 14.6899 136.275C13.8224 126.62 11.6447 125.725 9.27209 130.69C8.90152 131.47 8.48453 132.126 8.04928 132.635C9.34057 136.227 11.443 138.889 11.6119 139.103C11.4149 139.056 7.30129 138.047 8.03102 141.918C8.77749 145.878 15.0026 151.761 15.0026 151.761C15.0026 151.761 9.23481 150.803 10.9865 156.49C13.0691 163.248 34.8849 172.875 34.8849 172.875C35.9518 162.569 25.7036 162.375 27.5024 153.961L27.5017 153.962ZM23.1149 164.187C16.3814 160.397 17.9185 155.866 21.0071 157.459C25.7112 159.879 29.8484 167.977 23.1149 164.187Z" fill="#326C90"/>
</g>
<g style="mix-blend-mode:multiply" opacity="0.3">
<path d="M19.9615 136.606C18.3049 137.169 18.4381 144.176 20.7026 143.874C22.9664 143.572 22.4497 135.76 19.9615 136.606Z" fill="#326C90"/>
</g>
<g opacity="0.5">
<path d="M9.04073 121.017C6.40259 124.713 6.7724 128.88 7.92902 132.28C7.49605 129.959 7.36745 126.894 8.5682 123.979C10.956 118.177 14.8314 119.9 17.3546 124.609C19.7972 129.172 22.2269 135.83 22.3768 136.242C21.3784 129.091 14.7173 113.058 9.04073 121.017Z" fill="white"/>
</g>
<g opacity="0.5">
<path d="M27.4605 135.321C25.2576 133.538 22.5829 136.069 22.3919 136.256C22.6316 136.11 26.7459 133.711 28.9412 139.338C28.6498 137.468 28.1856 135.904 27.4612 135.321H27.4605Z" fill="white"/>
</g>
<g opacity="0.5">
<path d="M29.4344 148.803C29.5622 148.746 32.5397 147.215 34.3385 148.214C36.1305 149.21 36.8519 155.407 36.4798 163.858C37.1639 158.539 37.4355 152.848 36.4691 149.567C34.9161 144.3 29.6406 148.629 29.4344 148.803Z" fill="white"/>
</g>
<path d="M34.3803 171.934C34.3803 171.934 18.2616 139.27 11.4026 123.061C11.4026 123.061 22.2154 154.289 34.3803 171.934Z" fill="#2F54A4"/>
<path d="M223.185 123.28H182.71V165.176H223.185V123.28Z" fill="#FFCF6C"/>
<path d="M220.502 126.86H185.058V161.353H220.502V126.86Z" fill="#F79831"/>
<path d="M218.696 154.88H209.573V158.474H218.696V154.88Z" fill="#F2E9E1"/>
<path d="M184.292 160.319L185.59 163.222L221.267 128.137L219.97 125.234L184.292 160.319Z" fill="#FFCF6C"/>
<path d="M182.902 123.28H142.426V165.176H182.902V123.28Z" fill="#FFCF6C"/>
<path d="M180.218 126.86H144.774V161.353H180.218V126.86Z" fill="#F79831"/>
<path d="M178.412 154.88H169.289V158.474H178.412V154.88Z" fill="#F2E9E1"/>
<path d="M144.009 160.319L145.306 163.222L180.984 128.137L179.687 125.234L144.009 160.319Z" fill="#FFCF6C"/>
<path d="M223.048 110.915V165.163H145.542C144.656 165.163 143.938 165.881 143.938 166.766C143.938 167.651 144.656 168.369 145.542 168.369H226.257V111.636C226.257 111.237 226.581 110.914 226.98 110.914H238.494V107.706H226.257C224.484 107.706 223.048 109.142 223.048 110.914V110.915Z" fill="#EF5E7C"/>
<path d="M241.937 107.633H228.197C228.143 107.633 228.102 107.677 228.11 107.73C228.169 108.125 228.368 109.653 228.117 110.898C228.106 110.952 228.146 111.001 228.2 111.001H241.937C242.823 111.001 243.542 110.247 243.542 109.317C243.542 108.387 242.823 107.633 241.937 107.633Z" fill="#31415F"/>
<path d="M222.912 177.233C227.64 177.228 231.469 173.393 231.463 168.669C231.457 163.945 227.619 160.12 222.891 160.126C218.163 160.132 214.335 163.966 214.34 168.69C214.346 173.414 218.184 177.239 222.912 177.233Z" fill="#31415F"/>
<path d="M222.921 174.33C226.051 174.324 228.583 171.784 228.577 168.657C228.571 165.53 226.029 163 222.899 163.006C219.769 163.012 217.236 165.552 217.242 168.679C217.248 171.806 219.791 174.336 222.921 174.33Z" fill="#E8E3DF"/>
<path d="M159.491 176.924C164.219 176.918 168.047 173.084 168.042 168.36C168.036 163.636 164.198 159.811 159.47 159.817C154.742 159.823 150.913 163.657 150.919 168.381C150.925 173.105 154.763 176.93 159.491 176.924Z" fill="#31415F"/>
<path d="M159.504 174.019C162.634 174.013 165.167 171.474 165.161 168.347C165.155 165.219 162.613 162.689 159.483 162.695C156.353 162.701 153.82 165.241 153.826 168.368C153.832 171.495 156.374 174.025 159.504 174.019Z" fill="#E8E3DF"/>
<path d="M219.529 90.5315H156.339V123.63H219.529V90.5315Z" fill="#FCBC68"/>
<path d="M190.839 90.5315H185.051V123.63H190.839V90.5315Z" fill="#E67C25"/>
<path d="M173.991 90.5315H168.556V99.0463H173.991V90.5315Z" fill="#FAEBD4"/>
<path d="M207.699 90.5315H202.263V99.0463H207.699V90.5315Z" fill="#FAEBD4"/>
<path d="M44.6467 174.527L45.1845 179.636L46.2089 180.463L48.9248 178.449L48.4814 174.036L44.6467 174.527Z" fill="#FABA97"/>
<path d="M55.1633 182.171C54.387 181.623 52.6981 180.997 51.855 180.581C50.336 179.835 49.8452 179.253 49.0231 177.674C48.5187 176.705 47.1686 178.277 46.4738 179.202C46.2753 179.466 45.8772 179.428 45.7299 179.132C44.6667 176.991 44.622 178.142 44.622 178.142C44.7191 179.063 44.6074 180.18 44.595 181.049C44.5864 181.662 44.6268 182.15 44.8248 182.36C45.3691 182.935 47.3978 183.735 49.9131 184.333C51.9171 184.809 55.2275 185.411 55.9427 184.382C55.9837 184.232 56.0101 184.089 56.0258 183.951C56.1078 183.206 55.8176 182.634 55.1633 182.171V182.171Z" fill="#EE4345"/>
<path d="M47.8152 182.964C46.075 182.362 45.1224 181.674 44.6003 181.103C44.5916 181.715 44.6321 182.204 44.83 182.413C45.3743 182.988 47.4031 183.789 49.9184 184.386C51.9223 184.863 55.2327 185.465 55.948 184.436C55.989 184.285 56.0235 183.899 56.0386 183.76C55.6389 184.709 51.1531 184.119 47.8146 182.964L47.8152 182.964Z" fill="#A72F30"/>
<path d="M62.7776 174.04C62.2953 174.198 59.4666 175.211 59.4666 175.211L59.8987 178.108L61.1847 179.965L63.8429 178.108C63.8429 178.108 63.2598 173.883 62.7776 174.04Z" fill="#FABA97"/>
<path d="M70.1115 181.134C69.3078 180.629 67.5887 180.095 66.7234 179.727C65.1677 179.066 64.6472 178.511 63.7437 176.979C63.1892 176.04 61.9237 177.684 61.2786 178.645C61.0946 178.919 60.6944 178.903 60.532 178.616C59.3571 176.538 59.3733 177.689 59.3733 177.689C59.5346 178.707 59.4505 179.983 59.5141 180.879C59.5476 181.355 59.6225 181.723 59.7984 181.889C60.3713 182.433 61.784 182.554 62.2797 182.4C62.7247 182.263 64.9444 182.999 65.8523 183.377C67.7586 184.168 70.3618 184.455 71.0226 183.389C71.0825 183.113 71.0986 182.853 71.0744 182.61C71.0129 181.996 70.6876 181.495 70.112 181.133L70.1115 181.134Z" fill="#EE4345"/>
<path d="M67.45 183.114C65.2702 182.52 64.0705 181.934 62.9243 181.632C61.7775 181.33 61.0358 181.706 60.3965 181.519C60.1144 181.436 59.7892 181.168 59.5135 180.896C59.547 181.371 59.6219 181.739 59.7978 181.905C60.3707 182.45 61.7834 182.57 62.2791 182.417C62.7241 182.279 64.9438 183.015 65.8517 183.393C67.758 184.184 70.3612 184.471 71.022 183.405C71.0819 183.129 71.098 182.869 71.0738 182.626C70.2717 183.252 68.9021 183.508 67.4505 183.113L67.45 183.114Z" fill="#A72F30"/>
<path d="M55.0779 129.566L53.4251 136.836C54.7747 141.732 56.3034 148.084 57.05 153.113C56.9 157.721 57.0236 162.217 57.5365 166.689C57.3359 160.899 58.2372 153.167 58.2372 153.167C54.2132 138.452 55.0779 129.566 55.0779 129.566Z" fill="#1DB580"/>
<path d="M61.9043 117.288C60.7079 122.762 41.2878 117.124 41.2878 117.124C39.3329 125.335 41.5785 135.76 42.0823 149.219C42.1368 150.668 42.1708 152.152 42.1773 153.672C41.9162 155.205 41.7252 156.391 41.5969 157.406C41.2128 160.444 41.3886 161.945 41.9194 166.566C42.139 168.478 42.782 172.986 43.5625 175.769C46.0735 177.807 50.1445 176.675 50.1871 176.078C49.3726 166.814 49.8338 162.487 50.6661 154.746C53.7801 139.717 52.5972 142.103 53.4252 136.837C54.7748 141.732 56.3035 148.085 57.0501 153.113C56.9001 157.721 57.0236 162.217 57.5366 166.69C57.8673 169.571 58.3592 172.442 59.0454 175.327C59.0454 175.327 65.2848 176.793 65.4369 174.645C65.9024 167.993 64.6051 161 65.458 152.541L65.5858 151.537C65.5777 151.541 65.5702 151.544 65.5621 151.548C65.5831 151.351 65.6047 151.154 65.6268 150.955C64.9752 138.388 63.7971 126.912 61.9032 117.288H61.9043Z" fill="#2B5279"/>
<g opacity="0.5">
<path d="M65.2701 153.219V153.218C65.3036 152.889 65.3381 152.557 65.3743 152.225C64.3084 152.749 63.1243 152.583 62.3104 152.644C63.038 153.27 64.344 153.443 65.2701 153.219Z" fill="#002F5D"/>
</g>
<g opacity="0.5">
<path d="M43.3841 152.349C42.9348 151.525 42.5162 150.269 42.0825 149.219C42.137 150.668 42.171 152.152 42.1775 153.672C41.9164 155.205 41.7254 156.391 41.597 157.406C42.0135 156.6 42.6219 155.301 43.1511 154.47C43.4311 154.03 43.7461 153.575 43.6814 153.085C43.6479 152.834 43.5158 152.59 43.3841 152.349Z" fill="#002F5D"/>
</g>
<path d="M54.5676 131.81L53.4251 136.836C54.7748 141.732 56.3035 148.084 57.05 153.113C56.9001 157.721 57.0236 162.217 57.5366 166.689C57.6142 153.989 59.9224 152.224 59.9224 152.224C56.625 142.377 55.5709 135.271 55.2343 131.854C55.196 131.464 54.6539 131.428 54.5671 131.81H54.5676Z" fill="#002F5D"/>
<path d="M44.2648 165.254C44.1105 163.679 43.9358 162.102 43.9234 160.517C43.9169 159.695 43.9541 158.871 44.0679 158.058C44.178 157.275 44.3846 156.521 44.5825 155.759C44.7627 155.064 44.9207 154.345 44.8727 153.621C44.8269 152.922 44.5539 152.285 44.3608 151.621C44.137 150.851 44.069 150.051 44.0188 149.253C43.9665 148.426 43.9185 147.598 43.8689 146.771C43.6704 143.479 43.4713 140.186 43.2728 136.894C43.0473 133.163 42.8224 129.432 42.5969 125.701C42.5872 125.542 42.3445 125.541 42.3542 125.701C42.7544 132.329 43.1547 138.957 43.5549 145.586C43.6504 147.169 43.6822 148.773 43.8683 150.348C43.9552 151.082 44.1521 151.759 44.3765 152.458C44.6338 153.258 44.6958 154.022 44.5415 154.853C44.3986 155.623 44.1461 156.366 43.9849 157.131C43.8322 157.854 43.7459 158.591 43.7065 159.328C43.6229 160.899 43.7529 162.472 43.9034 164.034C44.26 167.738 44.63 171.441 44.993 175.144C45.0087 175.302 45.2514 175.303 45.2358 175.144C44.9121 171.848 44.589 168.551 44.2653 165.255L44.2648 165.254Z" fill="#002F5D"/>
<path d="M48.5768 126.79C48.47 127.787 48.3632 128.783 48.2559 129.78C48.1615 130.658 48.1545 131.643 47.7553 132.448C47.3378 133.288 46.3534 133.726 45.6047 134.204C44.7874 134.725 43.9702 135.246 43.153 135.767C43.0208 135.851 43.1422 136.067 43.2755 135.981C44.1639 135.415 45.0523 134.849 45.9407 134.282C46.6722 133.815 47.5552 133.393 47.9651 132.573C48.3514 131.801 48.3805 130.886 48.4711 130.04C48.5871 128.957 48.7036 127.873 48.8196 126.789C48.8368 126.631 48.5936 126.632 48.5768 126.789V126.79Z" fill="#002F5D"/>
<path d="M61.6168 126.044C61.6535 127.725 61.6901 129.406 61.7263 131.087C61.7295 131.247 61.9728 131.247 61.969 131.087C61.9323 129.406 61.8957 127.725 61.8595 126.044C61.8563 125.885 61.613 125.884 61.6168 126.044Z" fill="#002F5D"/>
<path d="M61.9668 131.13C61.839 131.037 61.7176 131.252 61.8444 131.344C62.5397 131.85 63.1293 132.476 63.598 133.205C63.6838 133.338 63.8942 133.214 63.8079 133.08C63.3154 132.315 62.6972 131.661 61.9674 131.13H61.9668Z" fill="#002F5D"/>
<path d="M57.1174 113.238C56.975 113.259 56.8822 113.432 56.9108 113.625C56.9394 113.817 57.078 113.957 57.221 113.935C57.3634 113.914 57.4562 113.74 57.4276 113.548C57.399 113.355 57.2604 113.216 57.1174 113.238Z" fill="white"/>
<path d="M57.4212 118.48C57.2783 118.501 57.186 118.674 57.2146 118.867C57.2432 119.059 57.3818 119.199 57.5248 119.177C57.6672 119.156 57.76 118.982 57.7314 118.79C57.7028 118.597 57.5641 118.458 57.4212 118.48Z" fill="white"/>
<path d="M72.6134 109.155C72.4634 108.394 72.1851 107.64 71.8037 106.953C71.7153 106.786 71.6182 106.625 71.5146 106.467L68.0461 101.087L67.989 100.999L64.5669 95.6893C64.1742 95.0825 63.638 94.5743 62.9983 94.2313C62.0295 93.7102 61.0612 93.2592 60.0946 92.8784C59.3464 92.5817 58.5988 92.3266 57.8549 92.1108C53.4263 90.8243 49.0862 90.9031 45.1565 91.9657C44.5146 92.1373 43.8835 92.3374 43.2632 92.5618C42.1622 92.9599 41.1006 93.4351 40.0882 93.9783C39.3006 94.4007 38.6582 95.0496 38.2525 95.8436L33.7403 104.69C33.7052 104.76 33.6696 104.831 33.6367 104.901C33.6303 104.917 33.6211 104.932 33.6146 104.952C32.0503 108.343 33.5725 112.388 37.0388 113.892L38.7466 114.634L39.682 115.04L40.2203 113.565C40.2446 113.895 40.2667 114.216 40.2888 114.521C40.4237 116.382 41.0812 117.968 43.3403 118.786C43.8986 118.988 44.4812 119.101 45.0724 119.153C46.2418 119.259 48.9114 119.453 52.6274 119.453C56.7599 119.453 60.1604 118.775 60.1604 118.775C61.7425 118.507 63.0662 116.64 63.179 115.032C63.2167 114.515 63.254 113.87 63.2939 113.134C63.3424 112.172 63.3931 111.055 63.4438 109.854L64.6483 112.926C64.9968 113.553 65.5686 114.092 66.2769 114.457C67.2278 114.945 68.4194 115.117 69.6331 114.741C70.0722 114.607 70.5134 114.402 70.946 114.114C72.5325 113.061 72.9716 111.182 72.6452 109.321C72.6366 109.266 72.6274 109.209 72.6145 109.154L72.6134 109.155Z" fill="#EE4345"/>
<path d="M53.0482 89.0755C51.4995 87.4675 49.2399 86.9421 47.5035 87.9406C47.3579 88.0242 47.2187 88.1164 47.0887 88.2178C45.3281 89.5685 45.587 92.3918 46.3853 93.5359C48.0289 95.8916 51.7741 96.835 53.0396 96.0561C55.1093 94.782 55.365 92.7311 53.9264 90.246C53.6728 89.8107 53.3772 89.4169 53.0482 89.076V89.0755Z" fill="#EE4345"/>
<path d="M41.1375 117.309C41.1467 117.933 40.8888 118.941 40.898 119.564C46.0883 122.854 56.5999 121.449 62.5033 120.301C62.4936 119.638 61.9741 118.336 61.9644 117.674C56.0616 118.862 47.0716 118.287 41.1375 117.31V117.309Z" fill="#31415F"/>
<path d="M52.059 93.843C52.0304 93.8494 52.0126 93.878 52.0191 93.9066C52.032 93.9638 53.3434 99.6897 53.5192 106.521C53.5203 106.55 53.5435 106.573 53.5726 106.573H53.5742C53.6034 106.573 53.6265 106.548 53.626 106.519C53.4496 99.6757 52.1361 93.9401 52.1227 93.8829C52.1162 93.8543 52.0881 93.837 52.059 93.843Z" fill="#954B22"/>
<path d="M45.8992 102.09C45.725 103.317 45.1953 105.477 43.5803 107.365C42.7178 108.374 41.5434 109.307 39.9462 109.975C40.0698 111.641 40.1825 113.204 40.2774 114.522C40.4117 116.383 41.0693 117.968 43.3289 118.786C43.4724 118.839 43.6159 118.883 43.7637 118.925C44.1871 119.041 44.6219 119.114 45.061 119.154C45.6964 119.211 46.7731 119.294 48.2209 119.358C49.4389 119.413 50.9174 119.452 52.6161 119.452H52.7924C53.1058 119.45 53.4149 119.446 53.717 119.437C57.3354 119.335 60.149 118.775 60.149 118.775C60.3389 118.742 60.5239 118.687 60.7051 118.612C60.8837 118.539 61.0536 118.447 61.2192 118.337C62.2916 117.633 63.0813 116.256 63.1676 115.031C63.249 113.854 63.3375 112.02 63.4281 109.926C63.426 109.924 63.4281 109.919 63.4281 109.917C63.4589 109.222 63.4902 108.501 63.5187 107.762C61.1777 105.329 60.8179 102.274 60.765 101.365L45.8998 102.089L45.8992 102.09Z" fill="#2B5279"/>
<path d="M42.8932 98.5666C42.8689 98.5827 42.8625 98.6162 42.8787 98.6405C43.5589 99.6422 43.1268 101.13 43.0329 101.418C43.02 101.452 43.0135 101.473 43.0135 101.473C42.9482 101.634 41.3823 105.496 41.3267 105.697C41.3257 105.701 41.3251 105.706 41.3251 105.711C41.3251 105.74 41.3489 105.766 41.3785 105.766C41.4082 105.766 41.4319 105.744 41.4319 105.715C41.4729 105.569 42.5501 102.899 43.1138 101.51C43.1149 101.506 43.1219 101.487 43.1343 101.453C43.2703 101.034 43.657 99.5968 42.9677 98.5806C42.9515 98.5563 42.918 98.5498 42.8938 98.5666H42.8932Z" fill="#954B22"/>
<path d="M45.1561 91.9658C44.5142 92.1373 43.8831 92.3374 43.2627 92.5618C44.8448 97.2251 46.12 103.302 44.8314 107.056L46.7091 107.697C48.0792 103.705 47.0025 98.1507 45.8595 94.1962C45.641 93.4465 45.4047 92.6961 45.1555 91.9658H45.1561Z" fill="#2B5279"/>
<path d="M60.0935 92.8784C59.3454 92.5817 58.5977 92.3265 57.8539 92.1108C59.1247 96.9429 60.0094 103.384 58.3723 107.138L60.195 107.928C61.8806 104.056 61.2538 98.4365 60.4312 94.4028C60.3276 93.8925 60.2149 93.3822 60.0935 92.8784Z" fill="#2B5279"/>
<path d="M53.0394 89.0663C51.4902 87.4648 49.2376 86.9437 47.5034 87.94C47.3906 88.0037 47.2828 88.0744 47.1792 88.1509C47.1484 88.1709 47.1172 88.1952 47.0886 88.2168C47.0686 88.4805 47.0994 88.7643 47.1792 89.0523C47.3955 89.862 47.9845 90.7218 48.8606 91.3993C50.3564 92.5542 52.1613 92.7651 53.0394 91.9317C53.0966 91.8789 53.15 91.8217 53.1986 91.758C53.7283 91.0784 53.6312 90.0492 53.0486 89.0744C53.0464 89.0723 53.0421 89.068 53.04 89.0658L53.0394 89.0663Z" fill="#91292A"/>
<path d="M47.0828 118.388H46.1582V121.582H47.0828V118.388Z" fill="#5CBEE3"/>
<path d="M53.717 118.388H52.7924V121.582H53.717V118.388Z" fill="#5CBEE3"/>
<path d="M61.2194 117.729H60.7053V120.923H61.2194V117.729Z" fill="#5CBEE3"/>
<path d="M47.7597 90.1301C47.976 90.9398 47.9841 90.723 48.8601 91.4005C49.3278 91.7613 49.8219 92.0294 50.3123 92.2031C50.3123 92.2495 52.0708 93.8947 52.0708 93.8947L53.0395 91.9329V84.3578L48.5316 84.8444L47.7597 90.1307V90.1301Z" fill="#FABA97"/>
<path d="M53.0395 91.9323L52.4219 93.1827L54.7311 93.9508C54.7311 93.9508 53.3092 92.9162 53.0395 91.9323Z" fill="#91292A"/>
<path d="M56.5743 116.778C49.9281 117.462 43.5231 115.378 43.309 113.015C43.179 111.557 43.3953 109.06 43.5803 107.365C42.7178 108.374 41.5434 109.307 39.9462 109.975C40.0698 111.64 40.1825 113.204 40.2774 114.521C40.4117 116.382 41.0693 117.968 43.3289 118.786C43.4724 118.839 43.6159 118.883 43.7637 118.925C43.7637 118.925 48.2063 120.38 51.1683 120.491C51.6478 120.508 52.0955 120.495 52.5475 120.453H52.5497C52.6312 120.447 52.7131 120.441 52.7924 120.431C53.0417 120.409 53.2887 120.385 53.5293 120.361C53.5358 120.361 53.5401 120.359 53.5471 120.359C53.5514 120.356 53.5557 120.356 53.5627 120.356C53.6134 120.35 53.6663 120.346 53.717 120.339C55.599 120.141 57.2383 119.901 58.6133 119.659C58.6176 119.659 58.6241 119.657 58.6289 119.657C58.6376 119.657 58.6489 119.655 58.6575 119.652C59.9629 119.345 61.2192 118.337 61.2192 118.337C62.2916 117.633 63.0813 116.257 63.1676 115.031C63.249 113.855 63.3375 112.02 63.4281 109.926C63.2825 110.705 62.9561 116.118 56.5748 116.778L56.5743 116.778Z" fill="#002F5D"/>
<path opacity="0.5" d="M68.0461 101.087L67.989 100.999C66.2127 101.641 63.0883 103.313 62.9713 107.138C62.8343 111.559 69.4826 108.242 71.8037 106.953C71.7152 106.786 71.6181 106.625 71.5146 106.467L68.0461 101.087Z" fill="#B44226"/>
<path opacity="0.5" d="M43.0843 101.435C43.0708 101.47 43.0643 101.49 43.0643 101.49C43.0643 101.49 41.4337 105.511 41.3786 105.711L41.9612 109.313L46.2636 107.217C43.8254 106.023 43.2493 102.972 43.0843 101.435Z" fill="#B44226"/>
<path d="M47.6622 94.8339L51.5109 93.3689L50.2859 92.2032C49.3797 93.775 47.6617 94.8339 47.6617 94.8339H47.6622Z" fill="#91292A"/>
<path d="M47.4905 94.6612C46.8912 94.289 45.985 93.727 45.8226 91.6529C45.8205 91.6238 45.7989 91.6006 45.7655 91.6043C45.7363 91.6065 45.7142 91.6319 45.7164 91.6615C45.883 93.7895 46.854 94.3921 47.4339 94.7518C47.5056 94.7966 47.572 94.8376 47.6313 94.8781C47.6405 94.8845 47.6513 94.8872 47.6615 94.8872C47.6782 94.8872 47.6949 94.8791 47.7052 94.864C47.7219 94.8398 47.7154 94.8069 47.6917 94.7901C47.6313 94.7491 47.5639 94.7071 47.4905 94.6612Z" fill="#954B22"/>
<path d="M54.2943 90.9511C54.2679 90.9635 54.256 90.9954 54.269 91.0218C54.6886 91.9118 54.8731 93.2199 54.68 93.9373C54.6725 93.9654 54.6892 93.9945 54.7178 94.0021C54.7221 94.0031 54.7269 94.0037 54.7312 94.0037C54.755 94.0037 54.7766 93.988 54.7825 93.9643C54.9842 93.2134 54.8008 91.901 54.365 90.9759C54.352 90.9495 54.3202 90.9382 54.2943 90.9506V90.9511Z" fill="#954B22"/>
<path opacity="0.5" d="M72.6135 109.155L68.5911 113.233L66.2765 114.458C67.2275 114.946 68.419 115.117 69.6327 114.741C72.3708 112.434 72.6249 110.024 72.6448 109.322C72.6491 109.205 72.647 109.135 72.647 109.122L72.6141 109.155H72.6135Z" fill="#B44226"/>
<path d="M44.0174 104.662L41.9298 103.997L41.9255 103.995L41.5792 103.885C39.1982 103.258 36.6058 105.253 35.7896 108.341C34.9735 111.43 36.2422 114.438 38.6227 115.065C38.6227 115.065 38.6248 115.065 38.6291 115.067C38.7748 115.114 41.1158 115.861 41.2016 115.872C41.2216 115.872 41.3559 115.378 41.5571 114.594C42.8522 113.842 43.9359 112.41 44.4122 110.606C44.9106 108.724 44.6328 106.869 43.7967 105.567C43.9338 105.002 44.0174 104.661 44.0174 104.661V104.662Z" fill="white"/>
<path d="M45.2774 105.761C44.9705 105.191 44.5449 104.8 44.0173 104.661C43.349 104.485 42.6186 104.744 41.9346 105.325C41.8882 105.364 41.844 105.404 41.8003 105.446C40.8714 106.297 40.044 107.74 39.5849 109.475C39.4129 110.122 39.3071 110.76 39.2651 111.365C39.2516 111.545 39.2429 111.723 39.2408 111.899C39.2009 113.934 39.8741 115.529 41.0613 115.841C42.4956 116.219 44.2034 114.598 45.1452 112.106C45.2558 111.822 45.3524 111.528 45.4387 111.224C45.4586 111.16 45.4764 111.094 45.4937 111.028C46.032 108.987 45.9263 107.047 45.3195 105.844C45.306 105.815 45.293 105.787 45.2774 105.761Z" fill="#79241C"/>
<path d="M41.9811 105.334L41.9347 105.326C41.8883 105.365 41.8441 105.405 41.8004 105.446C40.8715 106.298 40.044 107.741 39.585 109.476C39.4129 110.123 39.3072 110.76 39.2651 111.365C39.2516 111.546 39.243 111.724 39.2408 111.9L41.9525 111.994L44.6976 112.091L45.1453 112.107L52.3098 112.357L52.2284 107.294L41.9816 105.334H41.9811Z" fill="#FABA97"/>
<path d="M71.5329 104.97L71.2432 104.751L71.2389 104.748L69.4934 103.428C69.4934 103.428 69.262 103.692 68.8763 104.129C67.3265 104.196 65.6452 105.035 64.3862 106.524C63.18 107.95 62.6277 109.657 62.755 111.146C62.228 111.76 62.8019 112.852 62.8132 112.868C62.8715 112.932 63.9288 113.714 64.0501 113.806C64.0544 113.808 64.0555 113.81 64.0555 113.81C65.9386 115.392 69.1379 114.696 71.2033 112.255C73.2688 109.814 73.4155 106.552 71.5318 104.971L71.5329 104.97Z" fill="white"/>
<path d="M68.5289 103.104C68.3412 103.08 68.1491 103.071 67.9528 103.078C67.9064 103.08 67.8622 103.084 67.8158 103.086C66.5428 103.183 65.095 103.933 63.8705 105.258C63.8241 105.308 63.7777 105.356 63.7356 105.409C63.6186 105.541 63.5064 105.675 63.398 105.814C63.1466 106.135 62.9211 106.469 62.7248 106.81C61.5289 108.869 61.3433 111.172 62.4178 112.485C63.3068 113.569 64.8382 113.71 66.3939 113.015C66.4624 112.986 66.5331 112.956 66.601 112.921C66.8524 112.8 67.1043 112.655 67.3535 112.487C67.8476 112.164 68.3309 111.753 68.7835 111.262C69.9686 109.982 70.7011 108.429 70.8905 107.013C70.8948 106.978 70.8991 106.945 70.904 106.911C70.9083 106.874 70.9126 106.839 70.9147 106.801C71.0275 105.719 70.809 104.734 70.2351 104.034C69.796 103.497 69.2026 103.192 68.5273 103.104L68.5289 103.104Z" fill="#79241C"/>
<path d="M67.9533 103.078L64.4207 98.3486C64.0366 97.7968 63.8845 97.4316 62.9114 97.3437L60.7602 97.1522C60.2375 97.0993 59.7471 97.2887 59.5265 97.6296L58.5162 99.1998C58.247 99.6157 58.6376 100.126 59.2687 100.192L61.7576 100.52C61.709 100.731 61.6847 100.944 61.6847 101.157C61.6847 101.443 61.729 101.729 61.8147 102.006L63.399 105.814L65.5281 110.932L66.3955 113.015C66.464 112.987 66.5346 112.956 66.6026 112.921C66.854 112.8 67.1059 112.655 67.3551 112.488C67.8492 112.165 68.3325 111.753 68.7851 111.263C69.9702 109.983 70.7027 108.43 70.892 107.013L70.57 106.582L67.9533 103.078V103.078Z" fill="#FABA97"/>
<path d="M59.9097 99.5931L58.8282 99.7744L59.0822 101.279C59.1178 101.489 59.3104 101.635 59.5229 101.614C59.8072 101.585 60.0181 101.337 60.0003 101.052L59.9091 99.5931H59.9097Z" fill="#CE9276"/>
<path d="M57.0782 101.139C56.9995 101.248 57.0453 101.402 57.171 101.45C57.4688 101.565 57.8075 101.483 58.0184 101.244L60.524 98.4031L59.573 97.6749L57.0782 101.139V101.139Z" fill="#FABA97"/>
<path d="M55.0768 105.702L50.8698 107.453L52.2928 108.6L54.9182 106.721C55.2494 106.485 55.374 106.051 55.2186 105.675L55.0768 105.702Z" fill="#FABA97"/>
<path d="M59.2456 99.4641C59.0741 99.7603 59.176 100.139 59.4727 100.31C59.6642 100.42 59.9096 100.355 60.0202 100.164L60.7133 98.9673L59.8287 98.4581L59.2461 99.4647L59.2456 99.4641Z" fill="#FABA97"/>
<path d="M60.0433 99.7372C59.8718 100.033 59.9737 100.412 60.2704 100.583C60.4619 100.693 60.7074 100.628 60.8179 100.437L61.5111 99.2404L60.6264 98.7312L60.0439 99.7378L60.0433 99.7372Z" fill="#FABA97"/>
<path d="M61.0085 99.9804C60.8369 100.277 60.9389 100.655 61.2356 100.826C61.4271 100.936 61.6725 100.871 61.7831 100.68L62.4762 99.4836L61.5916 98.9744L61.009 99.9809L61.0085 99.9804Z" fill="#FABA97"/>
<path d="M60.2068 98.5757L58.5417 100.57C58.5228 100.593 58.526 100.626 58.5487 100.645C58.5589 100.653 58.5708 100.657 58.5827 100.657C58.5978 100.657 58.6129 100.651 58.6237 100.638L60.2888 98.6437C60.3077 98.621 60.3045 98.5876 60.2818 98.5687C60.2592 98.5498 60.2257 98.5531 60.2068 98.5757Z" fill="#F5927E"/>
<path d="M64.8053 101.268L56.7653 100.785C56.3699 100.761 56.0075 101.004 55.8818 101.379L51.9936 112.958C51.855 113.37 52.0071 113.825 52.3658 114.072L52.5282 114.183L53.2726 113.732L61.3542 114.457L65.2784 102.458L65.8712 102.069L65.6948 101.792C65.5001 101.485 65.1689 101.29 64.8053 101.269V101.268Z" fill="#31415F"/>
<path d="M65.3362 101.705L57.1457 101.212C56.7508 101.19 56.3889 101.433 56.2632 101.806L54.7075 106.421L52.3357 113.459C52.1922 113.886 52.4948 114.331 52.9447 114.357L60.8305 114.832C61.3645 114.863 61.8521 114.536 62.0242 114.03L62.2755 113.286L65.8961 102.533C66.0283 102.141 65.7505 101.732 65.3357 101.706L65.3362 101.705Z" fill="white"/>
<path d="M59.5633 105.732C59.2046 106.086 59.1015 106.562 59.3329 106.795C59.5644 107.028 60.0428 106.93 60.4015 106.575C60.7602 106.22 60.8633 105.744 60.6319 105.512C60.4005 105.279 59.922 105.377 59.5633 105.732V105.732Z" fill="#002F5D"/>
<path opacity="0.26" d="M54.7081 106.421L52.3362 113.459C52.1927 113.886 52.4954 114.33 52.9452 114.357L60.831 114.832C61.365 114.863 61.8526 114.535 62.0247 114.029L62.2761 113.286C60.4777 112.27 57.6603 110.596 56.5879 109.496C55.4735 108.355 54.9373 107.099 54.7081 106.422V106.421Z" fill="#4D76B7"/>
<path d="M58.4203 112.076L55.5857 111.888V112.783L58.7871 112.68C58.888 112.677 58.9586 112.58 58.93 112.483C58.8626 112.255 58.6593 112.092 58.4203 112.076Z" fill="#FABA97"/>
<path d="M58.8443 111.203L55.5851 110.988V112.017L59.2656 111.899C59.3816 111.895 59.463 111.783 59.4301 111.672C59.3524 111.409 59.1189 111.222 58.8443 111.204V111.203Z" fill="#FABA97"/>
<path d="M58.8443 110.263L55.5851 110.048V111.077L59.2656 110.959C59.3816 110.955 59.463 110.843 59.4301 110.732C59.3524 110.469 59.1189 110.282 58.8443 110.264V110.263Z" fill="#FABA97"/>
<path d="M58.5136 109.337L55.2544 109.121V110.15L58.9349 110.032C59.0508 110.028 59.1323 109.916 59.0994 109.805C59.0217 109.542 58.7881 109.355 58.5136 109.337V109.337Z" fill="#FABA97"/>
<path d="M56.3597 109.194C54.092 108.6 51.7666 107.432 51.7666 107.432L51.6021 112.336L55.6029 112.784C55.6029 112.784 57.2487 109.428 56.3592 109.195L56.3597 109.194Z" fill="#FABA97"/>
<path d="M61.8617 98.8498C61.8336 98.8455 61.811 98.8616 61.8029 98.8859C61.7301 99.051 60.7397 100.597 60.5148 100.597C60.3842 100.597 60.2823 100.559 60.2111 100.484C60.0838 100.351 60.0919 100.141 60.0919 100.139C60.0929 100.11 60.0703 100.085 60.0412 100.083C60.012 100.082 59.9867 100.104 59.9856 100.134C59.9856 100.144 59.9748 100.39 60.1334 100.556C60.2256 100.652 60.3535 100.702 60.5148 100.702C60.8454 100.702 61.9032 98.9269 61.9059 98.9091C61.9102 98.88 61.8903 98.853 61.8612 98.8487L61.8617 98.8498Z" fill="#F5927E"/>
<path d="M63.5658 99.1919C62.7664 98.9902 62.7152 99.0112 62.6984 99.0177C62.6742 99.0269 62.6731 99.0274 62.5026 99.2944C62.2707 99.6574 61.5646 100.762 61.379 100.762C61.2485 100.762 61.146 100.724 61.0748 100.649C60.9469 100.516 60.9561 100.307 60.9561 100.305C60.9577 100.276 60.9351 100.251 60.9054 100.25C60.8709 100.246 60.8509 100.271 60.8493 100.3C60.8493 100.31 60.8385 100.556 60.9971 100.723C61.0893 100.819 61.2177 100.868 61.3785 100.869C61.5818 100.869 61.9934 100.289 62.5922 99.3521C62.658 99.2496 62.72 99.152 62.7448 99.1175C62.8176 99.1229 63.1985 99.2092 63.5394 99.2955C63.5685 99.3025 63.5971 99.2852 63.6041 99.2572C63.6111 99.2286 63.5944 99.2 63.5658 99.193V99.1919Z" fill="#F5927E"/>
<path d="M61.0364 98.5574C61.0078 98.5547 60.9857 98.5698 60.9781 98.5941C60.9053 98.7592 59.9155 100.305 59.69 100.305C59.5595 100.305 59.4575 100.267 59.3863 100.192C59.259 100.059 59.2671 99.8493 59.2671 99.8472C59.2682 99.8181 59.2455 99.7932 59.2164 99.7916C59.1867 99.7927 59.1619 99.8127 59.1608 99.8418C59.1608 99.852 59.15 100.098 59.3086 100.265C59.4009 100.361 59.5287 100.41 59.69 100.411C60.0234 100.411 61.079 98.6357 61.0817 98.6173C61.086 98.5882 61.0661 98.5618 61.0369 98.5574H61.0364Z" fill="#F5927E"/>
<path d="M56.9111 110.044L56.5174 110.056L55.26 109.921C55.2325 109.918 55.205 109.939 55.2012 109.968C55.198 109.997 55.2195 110.023 55.2487 110.026L56.5136 110.162L56.9144 110.149C56.944 110.148 56.9667 110.124 56.9662 110.095C56.9651 110.066 56.9424 110.044 56.9111 110.044Z" fill="#F5927E"/>
<path d="M56.9109 110.981L56.4864 110.994L55.2867 110.96C55.2587 110.963 55.2328 110.983 55.2322 111.012C55.2317 111.041 55.2544 111.065 55.284 111.066L56.4869 111.1L56.9147 111.087C56.9444 111.086 56.967 111.061 56.9665 111.032C56.9654 111.003 56.9427 110.979 56.9115 110.981L56.9109 110.981Z" fill="#F5927E"/>
<path d="M56.8949 111.912C56.7282 111.918 55.2998 111.963 55.2998 111.963L55.3031 112.07C55.3031 112.07 56.7314 112.024 56.8981 112.018C56.9273 112.017 56.9504 111.993 56.9499 111.964C56.9488 111.934 56.9229 111.914 56.8949 111.913V111.912Z" fill="#F5927E"/>
<path d="M69.6212 109.434C68.5666 110.807 66.8518 111.117 65.5281 110.932L66.3955 113.015C66.464 112.987 66.5346 112.956 66.6026 112.921C66.854 112.8 67.1059 112.655 67.3551 112.488C67.8492 112.165 68.3325 111.753 68.7851 111.263C69.9702 109.983 70.7027 108.43 70.892 107.013L70.57 106.582C70.5986 107.306 70.4378 108.373 69.6212 109.435V109.434Z" fill="#F5927E"/>
<path d="M47.3494 101.952L45.319 102.049C45.2899 102.05 45.2672 102.075 45.2683 102.105C45.2699 102.133 45.2931 102.155 45.3217 102.155C45.3228 102.155 45.3233 102.155 45.3244 102.155L47.3548 102.059C47.3839 102.058 47.4066 102.032 47.4055 102.003C47.4039 101.974 47.3758 101.951 47.3494 101.952Z" fill="#002141"/>
<path d="M46.3369 102.633C45.9809 102.633 45.6923 102.92 45.6923 103.275C45.6923 103.63 45.9809 103.918 46.3369 103.918C46.6929 103.918 46.9815 103.63 46.9815 103.275C46.9815 102.92 46.6929 102.633 46.3369 102.633Z" fill="#002141"/>
<path d="M53.0116 91.0305V89.3847L49.383 87.8743L53.0116 91.0305Z" fill="#F5927E"/>
<path d="M48.4038 86.9146C48.4038 87.3273 48.6541 87.6984 49.0322 87.8559L52.8384 89.4386C53.1598 89.575 53.532 89.5335 53.8185 89.3318L55.8645 87.898C56.1353 87.7081 56.2966 87.3963 56.2966 87.0668L56.3095 79.2204L48.4038 79.5581V86.9152V86.9146Z" fill="#FABA97"/>
<path opacity="0.32" d="M54.8132 84.819C54.8132 85.6357 55.4772 86.2975 56.2966 86.2975V83.3405C55.4778 83.3405 54.8132 84.0023 54.8132 84.819Z" fill="#F08372"/>
<path d="M54.0757 81.4961C54.0131 81.5026 53.9678 81.5582 53.9743 81.6207L54.2931 84.7051H53.2763C53.2132 84.7051 53.1625 84.7558 53.1625 84.8184C53.1625 84.881 53.2137 84.9317 53.2763 84.9317H54.4193C54.4517 84.9317 54.4824 84.9182 54.504 84.8945C54.5256 84.8707 54.5358 84.8389 54.5326 84.8065L54.2009 81.597C54.1944 81.5344 54.1383 81.4897 54.0757 81.4956V81.4961Z" fill="#DE7360"/>
<path d="M51.1252 81.3377C51.198 81.731 52.6264 81.4499 52.6344 81.0195C52.6469 80.3377 51.0043 80.685 51.1252 81.3377Z" fill="#0E0D0B"/>
<path d="M55.0614 80.8942C54.9448 81.2437 56.2222 81.6494 56.4202 81.3052C56.7341 80.7604 55.2545 80.3143 55.0614 80.8942Z" fill="#0E0D0B"/>
<path opacity="0.32" d="M50.4883 83.2413C49.669 83.2413 49.0044 83.9037 49.0044 84.7204C49.0044 85.537 49.6684 86.1994 50.4883 86.1994C51.3082 86.1994 51.9723 85.537 51.9723 84.7204C51.9723 83.9037 51.3082 83.2413 50.4883 83.2413Z" fill="#F08372"/>
<path d="M52.2122 82.1404C52.0379 82.1366 51.8907 82.375 51.8842 82.6733C51.8772 82.9716 52.0131 83.217 52.1874 83.2208C52.3616 83.2251 52.5088 82.9862 52.5153 82.6879C52.5223 82.3896 52.3864 82.1447 52.2122 82.1404Z" fill="#281C1C"/>
<path d="M55.3272 82.1382C55.153 82.1345 55.0057 82.3729 54.9993 82.6712C54.9922 82.9695 55.1282 83.2149 55.3024 83.2187C55.4766 83.2225 55.6234 82.984 55.6304 82.6857C55.6374 82.3874 55.5014 82.1425 55.3272 82.1382Z" fill="#281C1C"/>
<path d="M54.5321 85.8498C54.4954 85.8357 54.4528 85.8309 54.4129 85.8287C54.34 85.8309 54.2613 85.8482 54.189 85.8622C53.7904 85.9458 53.3712 85.9512 52.9683 85.8773C52.8248 85.8482 52.6846 85.8363 52.5697 85.8546C52.4515 85.873 52.3588 85.921 52.307 86.0165C52.1996 86.2101 52.2638 86.4448 52.3906 86.6287C52.4256 86.6794 52.4661 86.7236 52.5098 86.7679C52.8 87.0538 53.2688 87.2043 53.7014 87.1352C53.8918 87.1061 54.0719 87.0311 54.2241 86.9302C54.4684 86.763 54.6475 86.5219 54.6977 86.257C54.7268 86.1049 54.6944 85.915 54.5315 85.8498H54.5321Z" fill="black"/>
<path d="M54.1897 85.8622C53.791 85.9458 53.3719 85.9512 52.969 85.8773C52.8255 85.8482 52.6852 85.8363 52.5703 85.8546C52.5763 85.9577 52.6 86.0596 52.6691 86.1303C52.744 86.2101 52.8541 86.2403 52.9609 86.2587C53.3455 86.3331 53.7495 86.3223 54.1293 86.2241C54.2199 86.2004 54.3159 86.1675 54.372 86.0936C54.4276 86.0192 54.4281 85.9226 54.4135 85.8293C54.3407 85.8314 54.262 85.8487 54.1897 85.8627V85.8622Z" fill="white"/>
<path d="M53.5565 86.5909C53.1994 86.5338 52.818 86.5866 52.5105 86.7679C52.8007 87.0538 53.2695 87.2043 53.7021 87.1352C53.8925 87.1061 54.0727 87.0311 54.2248 86.9302C54.0705 86.7377 53.8094 86.6298 53.5565 86.5909Z" fill="#D66B5E"/>
<path d="M56.7201 77.4431C56.7201 77.4431 55.8683 74.8054 52.7419 75.2267C52.7419 75.2267 50.0216 73.4919 47.9928 76.1609C47.9928 76.1609 45.4889 76.8913 45.2914 80.0118C45.1954 81.5324 45.4851 83.9879 48.3316 84.1907C48.3316 84.1907 48.3316 83.1631 48.6801 81.1311C49.1769 78.2328 51.7968 76.4765 54.5538 77.5203C54.6212 77.5456 54.6886 77.5726 54.7571 77.6006C54.7571 77.6006 56.1542 78.7226 56.3284 81.2131C56.3284 81.2131 56.3133 81.239 56.309 81.239C56.2885 81.903 56.3479 82.3087 56.3479 82.3087C58.0033 80.171 57.609 78.3963 56.7179 77.4415C56.7185 77.442 56.719 77.4426 56.7195 77.4431H56.7201Z" fill="#252525"/>
<path d="M56.3095 81.2386C56.3095 81.2349 56.3095 81.2313 56.3095 81.2277C56.3074 81.2355 56.3079 81.2386 56.3095 81.2386Z" fill="#252525"/>
<g style="mix-blend-mode:multiply">
<path d="M47.1745 81.2995C47.1745 81.2995 48.5543 75.7435 53.1556 75.9917C53.1556 75.9917 48.4276 74.6134 47.1745 81.2995Z" fill="#DBDCDC"/>
</g>
<g style="mix-blend-mode:multiply">
<path d="M46.594 82.5983C46.594 82.5983 46.2919 82.0119 46.0627 80.9778C46.0627 80.9778 46.0708 82.4068 46.6199 83.3292C46.6199 83.3292 46.5352 82.9618 46.594 82.5983Z" fill="#DBDCDC"/>
</g>
<g style="mix-blend-mode:multiply">
<path d="M46.5104 79.8289C48.7215 74.2368 52.909 75.6187 53.1879 75.718C47.9674 73.7303 46.5104 79.8289 46.5104 79.8289Z" fill="#DBDCDC"/>
</g>
<g style="mix-blend-mode:multiply">
<path d="M53.1879 75.718C53.1925 75.72 53.1971 75.7216 53.2021 75.7231C53.2021 75.7231 53.1971 75.7211 53.1879 75.718Z" fill="#DBDCDC"/>
</g>
<g style="mix-blend-mode:multiply">
<path d="M47.9917 81.8847C47.9917 81.8847 48.05 81.1613 48.1546 80.7281C48.1546 80.7281 47.8968 81.1036 47.7592 81.7601C47.7592 81.7601 47.8957 81.8091 47.9917 81.8847Z" fill="#DBDCDC"/>
</g>
<path d="M56.365 81.5022C56.3429 81.5896 56.3181 81.6781 56.2906 81.7681C56.2906 81.7681 56.3327 81.6694 56.365 81.5022Z" fill="#3E3A39"/>
<path d="M55.4437 77.6562C53.8945 76.3341 51.9822 76.6632 51.9822 76.6632C47.764 77.2312 47.9916 81.8847 47.9916 81.8847C47.9797 81.9797 47.9711 82.0714 47.9652 82.1571C47.9598 82.2348 48.0714 82.2564 48.0952 82.1819C48.5618 80.7104 49.8424 80.1661 49.8424 80.1661C53.6539 81.3966 55.6708 79.452 55.6708 79.452C56.4653 80.2724 56.4443 81.0939 56.365 81.5023C56.9832 79.0668 55.4437 77.6562 55.4437 77.6562Z" fill="#252525"/>
<g style="mix-blend-mode:multiply">
<path d="M49.8742 79.1154C54.3416 80.2757 55.5995 78.1483 55.5995 78.1483C53.8518 79.4477 49.8742 79.1154 49.8742 79.1154Z" fill="#DBDCDC"/>
</g>
<g style="mix-blend-mode:multiply">
<path d="M49.0936 78.9487C49.0936 78.9487 51.5 76.4134 55.2144 77.1066C55.2144 77.1066 51.6467 75.4144 49.0936 78.9487Z" fill="#DBDCDC"/>
</g>
<path d="M47.0446 86.4087C48.0813 86.4087 48.9217 85.5709 48.9217 84.5374C48.9217 83.504 48.0813 82.6662 47.0446 82.6662C46.0078 82.6662 45.1674 83.504 45.1674 84.5374C45.1674 85.5709 46.0078 86.4087 47.0446 86.4087Z" fill="#FABA97"/>
<path d="M46.5909 83.4365C46.5289 83.4279 46.4712 83.4716 46.4625 83.5336C46.4539 83.5956 46.4976 83.6528 46.5596 83.6614C46.6093 83.6685 47.742 83.8378 47.6147 84.7921C47.5775 85.0709 47.4912 85.298 47.3585 85.4669C47.3197 85.5165 47.3283 85.5877 47.3779 85.626C47.399 85.6422 47.4232 85.6503 47.4481 85.6503C47.482 85.6503 47.5155 85.6352 47.5376 85.6066C47.6956 85.4054 47.7976 85.1411 47.8402 84.8217C47.9659 83.8783 47.0775 83.5029 46.5904 83.4365H46.5909Z" fill="#DE7360"/>
<path d="M46.6297 84.456C46.5768 84.49 46.5622 84.5606 46.5968 84.613C46.6313 84.6653 46.7014 84.6804 46.7543 84.6464C46.8071 84.6124 47.2802 84.3325 47.633 84.8686C47.6551 84.9021 47.6912 84.9199 47.7285 84.9199C47.75 84.9199 47.7716 84.914 47.7905 84.9015C47.8434 84.867 47.8579 84.7969 47.8234 84.7446C47.4361 84.155 46.8735 84.2979 46.6302 84.4565L46.6297 84.456Z" fill="#DE7360"/>
<path d="M50.2119 74.262L49.4708 74.5096C46.6836 75.4407 44.9596 76.5632 44.8399 79.4901L45.2088 81.0625L56.618 76.9165L55.7339 75.8436C54.401 74.2259 52.2035 73.5964 50.2119 74.262Z" fill="#2B5279"/>
<path d="M56.6186 76.9171L48.5592 79.6093L50.5728 79.7663C52.3777 79.907 54.0175 79.7943 55.8219 79.647C59.1587 79.3741 62.1266 78.3735 61.9281 77.9479C61.7538 77.5741 58.2983 76.9413 56.6186 76.9176V76.9171Z" fill="#002F5D"/>
<path d="M41.9811 105.334L41.9347 105.326C41.8883 105.365 41.8441 105.405 41.8004 105.446C40.8715 106.298 40.044 107.741 39.585 109.476C39.4129 110.123 39.3072 110.76 39.2651 111.365C39.2516 111.546 39.243 111.724 39.2408 111.9L41.9525 111.994C41.392 111.354 40.8693 110.38 40.8866 108.981C40.913 106.83 41.5884 105.77 41.9811 105.334Z" fill="#F5927E"/>
</svg>
