<svg width="280" height="185" viewBox="0 0 280 185" fill="none" xmlns="http://www.w3.org/2000/svg">
<path d="M18.7568 120.417C22.2324 102.646 42.3974 86.4351 42.3974 86.4351C58.0671 63.4991 51.6461 50.2391 66.1858 30.8396C69.4168 26.5288 75.5188 19.4651 85.0698 13.4162C104.432 1.15172 136.257 -6.09302 155.044 6.82683C166.053 14.3975 164.406 22.7108 178.931 30.0217C191.575 36.3857 205.066 37.4022 205.066 37.4022C210.968 37.8463 218.477 37.5757 228.671 40.8289C231.289 41.6644 233.35 42.4974 234.621 43.0404C243.549 46.8509 255.605 56.8628 265.105 72.8549C266.959 75.9748 291.008 117.889 273.873 159.021C272.496 162.328 271.117 164.992 270.088 166.851C270.074 166.979 269.987 167.131 269.821 167.305C268.27 169.786 259.708 181.428 238.506 175.886C221.213 178.635 195.471 181.263 158.137 182.629C69.9579 185.855 31.4226 175.711 31.4226 175.711C16.8244 168.045 15.282 138.189 18.7576 120.418L18.7568 120.417Z" fill="#DDF0FB"/>
<path d="M175.23 3.98842C177.142 2.41042 179.821 1.98554 182.357 1.77771C197.549 0.530727 213.188 4.96221 225.102 13.8897C228.068 16.113 230.966 18.8659 231.562 22.3831C232.16 25.9003 231.691 29.0378 222.034 32.1385C220.681 32.3179 219.321 32.4436 217.959 32.5207C206.948 33.1459 195.748 30.4734 186.351 25.0564C183.879 23.6317 181.532 22.0185 179.347 20.2243C176.81 18.1418 174.417 15.7342 173.318 12.7458C172.219 9.75739 172.7 6.07594 175.23 3.98758V3.98842Z" fill="#DDF0FB"/>
<mask id="mask0_89_8882" style="mask-type:luminance" maskUnits="userSpaceOnUse" x="16" y="0" width="264" height="184">
<path d="M18.3803 120.54C21.8595 102.813 42.0454 86.6422 42.0454 86.6422C57.7313 63.7629 51.3036 50.5356 65.8585 31.184C69.0928 26.8838 75.2012 19.8375 84.762 13.8036C104.145 1.56934 136.002 -5.65751 154.809 7.23045C165.829 14.7825 164.18 23.0752 178.72 30.3681C191.378 36.7163 204.882 37.7304 204.882 37.7304C210.791 38.1734 218.308 37.9034 228.512 41.1486C231.133 41.982 233.196 42.813 234.469 43.3547C243.406 47.1558 255.474 57.143 264.984 73.0955C266.839 76.2078 290.913 118.018 273.761 159.05C272.383 162.347 271.002 165.006 269.972 166.86C269.957 166.987 269.871 167.139 269.704 167.313C268.152 169.787 259.582 181.401 238.357 175.872C221.046 178.615 195.278 181.236 157.905 182.598C69.6345 185.817 31.0593 175.698 31.0593 175.698C16.4459 168.05 14.9019 138.268 18.3811 120.541L18.3803 120.54Z" fill="white"/>
</mask>
<g mask="url(#mask0_89_8882)">
<path d="M299.692 70.5099V182.488H13.7214V78.6621H35.1378V84.5414H36.3073V86.5987H37.5914V88.8918H39.5935L43.8134 93.0072V98.8572H46.5077V72.9985H62.808V102.581L68.0444 99.2392L74.1963 103.168V91.8017H79.2931V89.7737H79.7888V81.8664H93.96V81.5721H94.3988V75.0266L95.244 74.0176H110.032L110.877 75.0266V97.8474L112.257 96.7891L117.791 92.6243L119.316 93.7905V92.9085L119.99 93.477V94.2904L122.602 96.2407L125.213 94.2904V93.467L125.893 92.9085V93.7905L127.412 92.6243L132.972 96.7891L134.326 97.8766V86.2551H133.887V73.664H134.326V62.7681L135.171 61.7591H149.959L150.823 62.7681V69.3237H151.262V69.6079H165.414V89.7737H165.91V91.8017H171.007V102.688L182.395 102.6V33.8339H198.695V98.8572H201.39V93.0072L205.61 88.8918H207.618V86.5987H208.895V84.5414H210.084V66.6394H228.341V117.092H234.689V101.228L234.384 100.885C234.562 100.69 234.746 100.513 234.931 100.346C235.16 100.12 235.344 99.944 235.547 99.7876C236.983 98.6022 238.699 97.8474 240.529 97.5924C240.529 97.5924 240.625 97.5824 240.688 97.5824C240.732 97.5723 240.783 97.5631 240.834 97.5631H240.905C241.21 97.5046 241.552 97.5046 241.909 97.5046C244.825 97.5046 247.482 98.6808 249.401 100.748H249.236L249.216 101.728V117.043L252.305 119.885L252.916 94.8296H255.68V88.7154H256.964V87.4807H258.153V86.9615H268.194V87.4807H269.401V88.7154H270.685V108.498H281.59V107.998H282.251V108.498H285.422L287.696 111.34V70.5091H299.694L299.692 70.5099Z" fill="#8BBCD8"/>
<g opacity="0.5">
<path d="M32.6808 82.6815H30.6152V85.8657H32.6808V82.6815Z" fill="white"/>
<path d="M84.2611 85.8657H82.1954V89.0498H84.2611V85.8657Z" fill="white"/>
<path d="M87.3859 112.036H85.3203V115.22H87.3859V112.036Z" fill="white"/>
<path d="M90.7222 112.036H88.6566V115.22H90.7222V112.036Z" fill="white"/>
<path d="M91.7546 95.8687H89.689V99.0529H91.7546V95.8687Z" fill="white"/>
<path d="M144.05 76.7612H141.985V79.9454H144.05V76.7612Z" fill="white"/>
<path d="M144.05 94.2762H141.985V97.4604H144.05V94.2762Z" fill="white"/>
<path d="M99.0099 96.2767H96.9443V99.4608H99.0099V96.2767Z" fill="white"/>
<path d="M162.903 73.5361H160.837V76.7203H162.903V73.5361Z" fill="white"/>
<path d="M161.871 88.9871H159.805V92.1713H161.871V88.9871Z" fill="white"/>
<path d="M162.903 110.444H160.837V113.628H162.903V110.444Z" fill="white"/>
<path d="M159.133 73.5361H157.067V76.7203H159.133V73.5361Z" fill="white"/>
<path d="M155.363 81.089H153.298V84.2731H155.363V81.089Z" fill="white"/>
<path d="M151.593 73.5361H149.528V76.7203H151.593V73.5361Z" fill="white"/>
<path d="M151.593 103.381H149.528V106.565H151.593V103.381Z" fill="white"/>
<path d="M219.541 113.179H217.475V116.363H219.541V113.179Z" fill="white"/>
<path d="M242.312 126.121H240.247V129.305H242.312V126.121Z" fill="white"/>
<path d="M266.62 126.121H264.555V129.305H266.62V126.121Z" fill="white"/>
<path d="M273.849 116.446H271.783V119.63H273.849V116.446Z" fill="white"/>
<path d="M281.316 121.957H279.25V125.141H281.316V121.957Z" fill="white"/>
<path d="M246.364 113.629H244.298V116.813H246.364V113.629Z" fill="white"/>
<path d="M256.572 113.629H254.506V116.813H256.572V113.629Z" fill="white"/>
<path d="M214.563 113.179H212.497V116.363H214.563V113.179Z" fill="white"/>
<path d="M21.1881 96.6445H19.5997V99.0939H21.1881V96.6445Z" fill="white"/>
<path d="M35.9102 99.0939H34.6395V103.34H35.9102V99.0939Z" fill="white"/>
<path d="M31.6476 94.0313H30.1913V95.8278H31.6476V94.0313Z" fill="white"/>
<path d="M34.1371 125.182H32.6808V126.979H34.1371V125.182Z" fill="white"/>
<path d="M24.684 115.261H23.3072V119.017H24.684V115.261Z" fill="white"/>
<path d="M20.2886 124.203H18.9117V127.959H20.2886V124.203Z" fill="white"/>
<path d="M50.2092 76.7203H48.9385V79.9864H50.2092V76.7203Z" fill="white"/>
<path d="M52.8566 76.7203H51.586V79.9864H52.8566V76.7203Z" fill="white"/>
<path d="M103.06 76.7203H101.789V79.9864H103.06V76.7203Z" fill="white"/>
<path d="M108.462 96.2357H107.191V99.5018H108.462V96.2357Z" fill="white"/>
<path d="M106.344 124.448H105.073V127.714H106.344V124.448Z" fill="white"/>
<path d="M105.708 76.7203H104.438V79.9864H105.708V76.7203Z" fill="white"/>
<path d="M184.933 37.3625H183.662V40.6286H184.933V37.3625Z" fill="white"/>
<path d="M190.864 37.3625H189.593V40.6286H190.864V37.3625Z" fill="white"/>
<path d="M187.898 43.8137H186.627V47.0797H187.898V43.8137Z" fill="white"/>
<path d="M184.933 50.2639H183.662V53.53H184.933V50.2639Z" fill="white"/>
<path d="M190.864 50.2639H189.593V53.53H190.864V50.2639Z" fill="white"/>
<path d="M196.795 50.2639H195.525V53.53H196.795V50.2639Z" fill="white"/>
<path d="M193.829 56.715H192.559V59.9811H193.829V56.715Z" fill="white"/>
<path d="M196.795 56.715H195.525V59.9811H196.795V56.715Z" fill="white"/>
<path d="M184.933 63.1652H183.662V66.4313H184.933V63.1652Z" fill="white"/>
<path d="M213.529 69.6163H212.259V72.8824H213.529V69.6163Z" fill="white"/>
<path d="M216.654 76.7203H215.384V79.9864H216.654V76.7203Z" fill="white"/>
<path d="M226.028 76.7203H224.757V79.9864H226.028V76.7203Z" fill="white"/>
<path d="M219.778 69.6163H218.508V72.8824H219.778V69.6163Z" fill="white"/>
<path d="M258.914 90.6014H257.644V93.8675H258.914V90.6014Z" fill="white"/>
<path d="M262.251 90.5387H260.98V93.8048H262.251V90.5387Z" fill="white"/>
<path d="M262.251 96.2357H260.98V99.5018H262.251V96.2357Z" fill="white"/>
<path d="M262.251 111.995H260.98V115.261H262.251V111.995Z" fill="white"/>
<path d="M262.251 125.182H260.98V128.449H262.251V125.182Z" fill="white"/>
<path d="M268.923 103.606H267.653V106.872H268.923V103.606Z" fill="white"/>
<path d="M265.587 96.5417H264.316V99.8078H265.587V96.5417Z" fill="white"/>
<path d="M225.392 123.55H224.121V126.816H225.392V123.55Z" fill="white"/>
<path d="M238.509 113.629H237.239V116.895H238.509V113.629Z" fill="white"/>
<path d="M238.509 103.606H237.239V106.872H238.509V103.606Z" fill="white"/>
<path d="M255.142 103.34H253.871V106.606H255.142V103.34Z" fill="white"/>
<path d="M226.028 69.6163H224.757V72.8824H226.028V69.6163Z" fill="white"/>
<path d="M222.903 83.4163H221.632V86.6824H222.903V83.4163Z" fill="white"/>
<path d="M226.028 94.2353H224.757V97.5014H226.028V94.2353Z" fill="white"/>
<path d="M204.58 94.6031H203.309V97.8692H204.58V94.6031Z" fill="white"/>
<path d="M209.029 90.6014H207.758V93.8675H209.029V90.6014Z" fill="white"/>
<path d="M216.019 100.074H214.748V103.34H216.019V100.074Z" fill="white"/>
<path d="M187.898 63.1652H186.627V66.4313H187.898V63.1652Z" fill="white"/>
<path d="M190.864 63.1652H189.593V66.4313H190.864V63.1652Z" fill="white"/>
<path d="M193.829 69.6163H192.559V72.8824H193.829V69.6163Z" fill="white"/>
<path d="M184.933 76.0674H183.662V79.3335H184.933V76.0674Z" fill="white"/>
<path d="M193.829 82.5176H192.559V85.7837H193.829V82.5176Z" fill="white"/>
<path d="M196.795 82.5176H195.525V85.7837H196.795V82.5176Z" fill="white"/>
<path d="M187.898 88.9688H186.627V92.2348H187.898V88.9688Z" fill="white"/>
<path d="M193.829 88.9688H192.559V92.2348H193.829V88.9688Z" fill="white"/>
<path d="M184.933 95.419H183.662V98.6851H184.933V95.419Z" fill="white"/>
<path d="M196.795 95.419H195.525V98.6851H196.795V95.419Z" fill="white"/>
<path d="M184.933 101.87H183.662V105.136H184.933V101.87Z" fill="white"/>
<path d="M196.795 101.87H195.525V105.136H196.795V101.87Z" fill="white"/>
<path d="M190.864 108.321H189.593V111.587H190.864V108.321Z" fill="white"/>
<path d="M196.795 108.321H195.525V111.587H196.795V108.321Z" fill="white"/>
<path d="M184.933 114.771H183.662V118.038H184.933V114.771Z" fill="white"/>
<path d="M141.984 67.7379H140.713V71.004H141.984V67.7379Z" fill="white"/>
<path d="M174.097 107.137H172.827V110.403H174.097V107.137Z" fill="white"/>
<path d="M169.311 95.8278H168.04V99.0938H169.311V95.8278Z" fill="white"/>
<path d="M88.6558 95.8278H87.3851V99.0938H88.6558V95.8278Z" fill="white"/>
<path d="M57.0933 94.1943H55.8226V97.4604H57.0933V94.1943Z" fill="white"/>
<path d="M57.0933 111.995H55.8226V115.261H57.0933V111.995Z" fill="white"/>
<path d="M96.3081 111.995H95.0374V115.261H96.3081V111.995Z" fill="white"/>
<path d="M130.811 108.77H129.54V112.036H130.811V108.77Z" fill="white"/>
<path d="M126.997 96.2357H125.726V99.5018H126.997V96.2357Z" fill="white"/>
<path d="M138.965 67.7379H137.695V71.004H138.965V67.7379Z" fill="white"/>
<path d="M68.0025 101.707H66.7319V104.973H68.0025V101.707Z" fill="white"/>
<path d="M97.5796 76.7203H96.3089V79.9864H97.5796V76.7203Z" fill="white"/>
<path d="M100.281 85.049H99.0099V88.315H100.281V85.049Z" fill="white"/>
<path d="M118.206 104.973H116.935V108.239H118.206V104.973Z" fill="white"/>
<path d="M50.2092 94.1943H48.9385V97.4604H50.2092V94.1943Z" fill="white"/>
<path d="M59.1054 82.6406H57.8348V85.9066H59.1054V82.6406Z" fill="white"/>
<path d="M52.8566 82.6406H51.586V85.9066H52.8566V82.6406Z" fill="white"/>
<path d="M54.1282 111.995H52.8575V115.261H54.1282V111.995Z" fill="white"/>
<path d="M77.535 96.2357H76.2643V99.5018H77.535V96.2357Z" fill="white"/>
<path d="M115.241 99.0529H113.97V102.319H115.241V99.0529Z" fill="white"/>
</g>
</g>
<path d="M45.4603 171.044C47.1105 173.838 48.5458 176.613 49.513 178.714C49.513 178.714 27.5934 184.183 22.1036 180.338C17.4841 177.102 22.3561 174.469 22.3561 174.469C22.3561 174.469 14.2766 173.684 11.4134 171.156C8.61545 168.685 12.2795 167.051 12.455 166.971C12.2034 166.908 9.08276 166.138 6.02649 164.202C5.93036 164.136 5.83005 164.071 5.72973 164.007C2.88664 162.136 0.184824 159.233 0.0076013 154.937C-0.376939 145.688 13.9347 153.81 18.8426 158.579C18.8543 158.586 18.8576 158.59 18.8576 158.59C18.8576 158.59 18.861 158.587 18.8618 158.581C18.8961 158.33 19.4244 154.883 22.1095 154.938C22.9897 154.953 24.2479 155.854 25.5536 157.083C28.3767 159.728 31.4287 163.882 31.4287 163.882V163.876C31.4822 163.626 32.91 157.325 37.1367 160.362C39.7691 162.254 42.8763 166.668 45.4603 171.045V171.044Z" fill="#5CBEE3"/>
<g style="mix-blend-mode:multiply" opacity="0.3">
<path d="M32.9853 168.855C29.435 161.517 25.9173 160.452 24.558 164.5C23.1988 168.548 19.3768 169.784 13.1104 163.067C6.8441 156.349 4.69402 156.945 5.80835 162.036C5.98474 162.835 6.05496 163.569 6.0257 164.202C9.08196 166.139 12.2026 166.908 12.4542 166.971C12.2795 167.051 8.6155 168.685 11.4126 171.156C14.2758 173.685 22.3553 174.469 22.3553 174.469C22.3553 174.469 17.4842 177.102 22.1028 180.338C27.5926 184.183 49.5122 178.714 49.5122 178.714C44.3134 170.386 36.5356 176.193 32.9853 168.855ZM35.2349 178.846C28.7504 180.124 27.2281 176.326 30.1213 175.646C34.5243 174.605 41.7186 177.569 35.2349 178.846Z" fill="#326C90"/>
</g>
<g style="mix-blend-mode:multiply" opacity="0.3">
<path d="M17.2467 160.253C16.3355 161.637 20.512 166.8 22.0301 165.259C23.5482 163.718 18.616 158.175 17.2467 160.253Z" fill="#326C90"/>
</g>
<path opacity="0.5" d="M18.8426 158.578C18.4906 158.357 12.8003 154.789 8.31702 152.794C3.68916 150.737 -0.212256 151.699 1.37774 157.425C2.17607 160.303 4.05531 162.521 5.72973 164.005C2.88664 162.134 0.184824 159.232 0.0076013 154.935C-0.376939 145.686 13.9347 153.808 18.8426 158.577V158.578Z" fill="white"/>
<path opacity="0.5" d="M22.1095 154.937C22.9898 154.952 24.2479 155.853 25.5537 157.083C20.6382 154.148 18.9563 158.332 18.8618 158.581C18.8961 158.33 19.4244 154.883 22.1095 154.938V154.937Z" fill="white"/>
<path opacity="0.5" d="M45.4603 171.044C40.8216 164.507 36.6753 160.291 34.7559 160.587C32.8299 160.884 31.4923 163.758 31.4296 163.875C31.4831 163.626 32.9101 157.324 37.1367 160.361C39.7691 162.253 42.8764 166.668 45.4603 171.044Z" fill="white"/>
<path d="M2.96442 155.093C2.96442 155.093 29.2227 172.17 48.5885 178.302C48.5885 178.302 17.526 163.232 2.96442 155.093Z" fill="#4785C5"/>
<path d="M53.9653 171.355C52.3879 174.19 50.7168 176.831 49.3935 178.727C49.3935 178.727 33.5813 162.606 34.1239 155.93C34.5811 150.312 39.3194 153.178 39.3194 153.178C39.3194 153.178 35.9095 145.819 36.6443 142.072C37.3624 138.411 40.6276 140.741 40.7848 140.852C40.7121 140.604 39.7975 137.525 39.9237 133.912C39.9329 133.795 39.938 133.677 39.943 133.558C40.1202 130.161 41.2588 126.365 44.8793 124.039C52.6713 119.028 52.8978 135.47 51.2627 142.111C51.2627 142.126 51.261 142.13 51.261 142.13C51.261 142.13 51.2652 142.131 51.271 142.129C51.5043 142.031 54.7486 140.743 56.0594 143.085C56.4924 143.852 56.3512 145.391 55.9499 147.138C55.0955 150.908 53.0525 155.64 53.0525 155.64L53.0583 155.638C53.2999 155.558 59.4634 153.6 58.9794 158.779C58.6776 162.004 56.4381 166.915 53.9662 171.356L53.9653 171.355Z" fill="#5CBEE3"/>
<g style="mix-blend-mode:multiply" opacity="0.3">
<path d="M49.5448 159.498C54.0849 152.726 53.2247 149.157 49.0415 150.033C44.8584 150.909 41.8573 148.241 44.4881 139.444C47.118 130.645 45.5171 129.094 41.6834 132.63C41.0832 133.186 40.4855 133.618 39.9237 133.913C39.7975 137.526 40.7121 140.605 40.7848 140.853C40.6276 140.743 37.3624 138.412 36.6443 142.073C35.9095 145.82 39.3194 153.179 39.3194 153.179C39.3194 153.179 34.5811 150.313 34.1239 155.931C33.5813 162.606 49.3935 178.728 49.3935 178.728C53.9536 170.035 45.0047 166.27 49.5448 159.498ZM42.1365 167.509C36.6944 163.763 38.353 160.023 40.8609 161.617C44.6803 164.04 47.5786 171.254 42.1365 167.509Z" fill="#326C90"/>
</g>
<g style="mix-blend-mode:multiply" opacity="0.3">
<path d="M49.0097 141.584C47.3545 141.499 45.0088 147.71 47.1071 148.238C49.2054 148.766 51.4959 141.712 49.0097 141.584Z" fill="#326C90"/>
</g>
<path opacity="0.5" d="M51.2626 142.111C51.2752 141.697 51.4775 134.987 50.9324 130.115C50.3673 125.087 47.5635 122.212 43.423 126.479C41.3415 128.623 40.3776 131.364 39.9429 133.558C40.1202 130.161 41.2587 126.365 44.8793 124.039C52.6712 119.028 52.8978 135.47 51.2626 142.111Z" fill="white"/>
<path opacity="0.5" d="M56.0594 143.085C56.4924 143.852 56.3512 145.391 55.9499 147.138C55.9967 141.418 51.5327 142.085 51.2711 142.129C51.5043 142.031 54.7486 140.743 56.0594 143.085Z" fill="white"/>
<path opacity="0.5" d="M53.9654 171.355C57.2633 164.05 58.8056 158.345 57.5793 156.84C56.3479 155.33 53.1896 155.633 53.0576 155.637C53.2991 155.557 59.4627 153.599 58.9786 158.778C58.6769 162.003 56.4373 166.914 53.9654 171.355Z" fill="white"/>
<path d="M46.2395 126.666C46.2395 126.666 44.779 157.933 49.2807 177.723C49.2807 177.723 46.578 143.332 46.2395 126.666Z" fill="#4785C5"/>
<path d="M50.1643 166.538C50.0749 171.102 49.7413 175.486 49.3467 178.716C49.3467 178.716 19.0466 169.091 15.3132 160.434C12.1734 153.148 19.9553 153.59 19.9553 153.59C19.9553 153.59 10.8576 146.687 9.29852 141.545C7.77457 136.52 13.3721 137.267 13.6405 137.301C13.3863 137.04 10.2164 133.815 7.98774 129.24C7.92169 129.089 7.8498 128.938 7.77791 128.787C5.75573 124.448 4.66564 118.978 7.63078 113.701C14.01 102.338 25.1458 122.629 27.4981 131.964C27.5073 131.982 27.5082 131.988 27.5082 131.988C27.5082 131.988 27.5149 131.987 27.5199 131.98C27.7464 131.705 30.9281 127.965 34.1039 130.013C35.148 130.68 35.9881 132.688 36.6435 135.124C38.0697 140.374 38.654 147.604 38.654 147.604L38.6599 147.596C38.9073 147.337 45.2773 140.842 48.0936 147.599C49.8475 151.808 50.3056 159.389 50.1643 166.538Z" fill="#4A85C5"/>
<g style="mix-blend-mode:multiply" opacity="0.3">
<path d="M36.8408 154.71C38.0145 143.3 34.5888 139.429 29.9667 143.274C25.3447 147.12 19.8533 145.78 17.3145 133.11C14.7766 120.439 11.7604 119.565 9.32946 126.486C8.95077 127.573 8.49267 128.504 7.98859 129.241C10.2172 133.816 13.3864 137.04 13.6413 137.302C13.373 137.268 7.77542 136.522 9.29937 141.546C10.8593 146.688 19.9562 153.591 19.9562 153.591C19.9562 153.591 12.1742 153.149 15.3141 160.435C19.0466 169.092 49.3476 178.717 49.3476 178.717C49.2782 164.905 35.668 166.122 36.8408 154.711V154.71ZM32.4972 168.892C23.0266 164.836 24.4126 158.61 28.7362 160.278C35.3194 162.81 41.9678 172.949 32.4972 168.892Z" fill="#326C90"/>
</g>
<g style="mix-blend-mode:multiply" opacity="0.3">
<path d="M24.35 132.791C22.235 133.776 23.4204 143.043 26.378 142.318C29.3356 141.592 27.5266 131.313 24.35 132.791Z" fill="#326C90"/>
</g>
<path opacity="0.5" d="M7.6316 113.7C4.66646 118.977 5.75571 124.447 7.77873 128.786C6.87088 125.773 6.2598 121.729 7.43181 117.693C9.76246 109.66 15.1469 111.387 19.1687 117.267C23.0625 122.964 27.2407 131.439 27.499 131.962C25.1466 122.628 14.0108 102.337 7.6316 113.699V113.7Z" fill="white"/>
<path opacity="0.5" d="M34.1047 130.013C30.9289 127.965 27.7464 131.704 27.5207 131.979C27.8175 131.752 32.926 127.981 36.6443 135.124C35.9889 132.687 35.148 130.681 34.1047 130.013Z" fill="white"/>
<path opacity="0.5" d="M38.6599 147.596C38.8212 147.503 42.5479 145.046 45.075 146.112C47.5929 147.175 49.4412 155.284 50.1643 166.538C50.3056 159.39 49.8475 151.808 48.0936 147.599C45.2773 140.842 38.9073 147.337 38.6599 147.596Z" fill="white"/>
<path d="M48.5442 177.541C48.5442 177.541 22.4807 136.566 11.0574 116.07C11.0574 116.07 29.8823 155.904 48.5442 177.541Z" fill="#2F54A4"/>
<path d="M138.163 183.262C180.78 183.262 212.389 182.111 212.389 180.69C212.389 179.27 180.78 178.118 138.163 178.118C95.5456 178.118 60.9976 179.27 60.9976 180.69C60.9976 182.111 95.5456 183.262 138.163 183.262Z" fill="#7F93B8"/>
<path d="M227.439 94.5471L227.044 94.7076L226.306 95.4457L226.038 95.8654L225.903 96.2499L225.908 96.6211L226.136 96.8894L226.829 96.8184L227.373 96.6712C227.34 96.6604 227.22 95.8654 227.22 95.8654C227.22 95.8654 227.769 95.271 227.776 95.2342C227.783 95.1974 228.059 94.8422 228.059 94.8422L227.841 94.5479H227.438L227.439 94.5471Z" fill="#DBE7EE"/>
<path d="M174.115 60.7786L33.0706 60.7117V148.562H177.514H177.515L177.467 64.262L174.115 60.7786Z" fill="#5CBEE3"/>
<path d="M105.216 64.2979H36.6602V144.977H105.216V64.2979Z" fill="#31415F"/>
<path d="M203.338 92.4363H177.515V123.57H206.376V95.475C206.376 93.7964 205.015 92.4363 203.338 92.4363Z" fill="#E67C25"/>
<path d="M210.998 103.738C210.237 101.577 208.075 100.116 205.637 100.116H172.839V167.465H220.426L221.1 133.341C221.112 132.749 221.016 132.16 220.818 131.598L210.998 103.738V103.738Z" fill="#FFCD4C"/>
<path d="M195.115 137.722V148.265C195.115 148.548 195.344 148.777 195.627 148.777H199.981V137.209H195.627C195.345 137.209 195.115 137.438 195.115 137.722Z" fill="#13375B"/>
<path d="M206.98 107.734C206.621 106.566 205.542 105.769 204.319 105.769H185.782C184.245 105.769 182.999 107.014 182.999 108.549V128.913C182.999 130.449 184.245 131.694 185.782 131.694H210.569C212.44 131.694 213.778 129.885 213.229 128.098L206.98 107.734Z" fill="#31415F"/>
<path d="M209.81 116.957H182.998V128.913C182.998 130.449 184.244 131.694 185.781 131.694H210.568C212.439 131.694 213.777 129.886 213.229 128.098L209.809 116.957H209.81Z" fill="#4A58A6"/>
<path d="M199.98 153.088C192.348 153.083 186.16 159.264 186.165 166.888C186.17 174.384 192.455 180.663 199.959 180.669C207.592 180.675 213.78 174.493 213.774 166.868C213.768 159.372 207.483 153.093 199.98 153.088Z" fill="#13375B"/>
<path d="M75.3132 180.243C82.6129 180.243 88.5305 174.164 88.5305 166.666C88.5305 159.168 82.6129 153.089 75.3132 153.089C68.0135 153.089 62.0959 159.168 62.0959 166.666C62.0959 174.164 68.0135 180.243 75.3132 180.243Z" fill="#194655"/>
<path d="M173.623 60.7117H108.806V148.562H173.623C175.773 148.562 177.515 146.822 177.515 144.675V64.5989C177.515 62.4521 175.773 60.7117 173.623 60.7117Z" fill="#1061A0"/>
<path d="M72.8363 120.773H43.7592V144.977H72.8363V120.773Z" fill="#FCBC68"/>
<path d="M105.216 116.039H68.5286V144.976H105.216V116.039Z" fill="#FCBC68"/>
<path d="M105.216 100.142H81.7451V116.039H105.216V100.142Z" fill="#FCBC68"/>
<path d="M90.9163 100.142H81.7451V116.039H90.9163V100.142Z" fill="#E67C25"/>
<path d="M175.01 148.562H42.4668V167.464H175.011C175.561 167.464 176.008 167.018 176.008 166.468V149.558C176.008 149.008 175.562 148.562 175.011 148.562L175.01 148.562Z" fill="#1D285C"/>
<path d="M106.868 151.111H43.7592V165.202H106.868V151.111Z" fill="#4A58A6"/>
<path d="M104.787 156.453H86.5535V162.047H104.787V156.453Z" fill="#FFCD4C"/>
<path d="M104.787 156.453H93.7853V162.047H104.787V156.453Z" fill="#EF5E7C"/>
<path d="M66.0649 156.453H47.8302V162.047H66.0649V156.453Z" fill="#EF5E7C"/>
<path d="M56.087 156.453H47.8302V162.047H56.087V156.453Z" fill="#FFCD4C"/>
<path d="M118.51 153.088C111.21 153.088 105.292 159.167 105.292 166.665C105.292 174.164 111.752 180.242 119.052 180.242C129.881 180.242 131.728 174.163 131.728 166.665C131.728 159.167 125.81 153.088 118.51 153.088H118.51Z" fill="#13375B"/>
<path d="M122.591 151.916C115.291 151.916 109.373 158.353 109.373 166.292C109.373 174.231 114.907 180.243 122.207 180.243C129.507 180.243 135.808 174.232 135.808 166.292C135.808 158.352 129.89 151.916 122.591 151.916Z" fill="#13375B"/>
<path d="M202.246 180.668C209.545 180.668 215.463 174.378 215.463 166.619C215.463 158.86 209.545 152.57 202.246 152.57C194.946 152.57 189.028 158.86 189.028 166.619C189.028 174.378 194.946 180.668 202.246 180.668Z" fill="#13375B"/>
<path d="M202.246 173.362C205.835 173.362 208.745 170.197 208.745 166.293C208.745 162.389 205.835 159.224 202.246 159.224C198.656 159.224 195.746 162.389 195.746 166.293C195.746 170.197 198.656 173.362 202.246 173.362Z" fill="#2D4D7E"/>
<path d="M122.591 159.223C119.001 159.223 116.091 162.388 116.091 166.292C116.091 170.196 119.001 173.361 122.591 173.361C126.18 173.361 129.09 170.196 129.09 166.292C129.09 162.388 126.18 159.223 122.591 159.223Z" fill="#2D4D7E"/>
<path d="M208.328 141.312H214.805V138.45H205.463C205.463 140.031 206.747 141.312 208.329 141.312H208.328Z" fill="#B85742"/>
<path d="M50.6976 120.773H39.1898V144.977H50.6976V120.773Z" fill="#E67C25"/>
<path d="M78.5082 116.039H63.9475V144.976H78.5082V116.039Z" fill="#F79831"/>
<path d="M99.4607 100.142H92.5222V101.87H99.4607V100.142Z" fill="#EEEEB3"/>
<path d="M97.5212 116.039H88.1443V118.374H97.5212V116.039Z" fill="#EEEEB3"/>
<path d="M108.008 60.7117H33.0706V65.0821H108.008V60.7117Z" fill="#5CBEE3"/>
<path d="M108.812 60.4316H105.225V118.397H108.812V60.4316Z" fill="#5CBEE3"/>
<path d="M259.563 102.919C258.061 99.3369 256.907 98.2865 256.907 98.2865C255.895 97.3258 250.227 96.8403 250.227 96.8403L242.065 98.0103C242.065 98.0103 236.729 99.8987 236.074 101.337C235.421 102.776 232.088 110.708 232.088 110.708L236.491 112.649L237.442 123.876C237.442 123.876 256.647 123.003 256.328 122.111C256.009 121.221 255.993 113.123 255.993 113.123C255.993 113.123 261.298 109.082 261.304 108.964C261.311 108.846 261.225 108.29 261.067 107.894C260.908 107.499 260.616 105.426 259.564 102.918L259.563 102.919Z" fill="#EE4345"/>
<path d="M254.128 105.218C254.02 104.655 253.909 104.092 253.795 103.531C253.75 103.311 253.413 103.405 253.458 103.624C253.858 105.59 254.22 107.562 254.542 109.542C254.634 110.108 254.723 110.673 254.809 111.24C254.843 111.461 255.179 111.367 255.145 111.147C254.846 109.164 254.507 107.187 254.128 105.218Z" fill="#A72F30"/>
<path d="M246.928 94.7725C246.433 93.9629 245.587 90.6221 245.587 90.6221L242.89 94.3201C242.89 94.3201 243.358 96.2809 242.565 97.5815C242.537 97.6279 242.51 97.7152 242.065 98.0103C242.16 98.3478 242.456 99.1882 242.912 99.7051C244.179 101.14 244.54 101.632 245.042 101.715C245.477 101.787 246.303 100.554 247.981 98.8506C248.928 97.8899 249.595 97.2384 250.226 96.8411C250.226 96.8285 247.636 95.9339 246.927 94.7733L246.928 94.7725Z" fill="#FABA97"/>
<path d="M245.333 172.761C245.333 172.761 244.658 178.022 243.921 179.315C243.185 180.609 248.066 179.265 248.304 178.816C248.541 178.366 249.481 175.024 249.657 173.907C249.833 172.791 245.332 172.761 245.332 172.761H245.333Z" fill="#FABA97"/>
<path d="M248.542 178.367C248.422 178.046 247.94 178.564 247.738 178.644C247.537 178.724 247.456 178.042 247.015 177.715C246.573 177.388 245.688 177.4 244.925 177.715C244.162 178.03 244.202 178.203 243.618 178.966C243.034 179.729 240.102 182.338 239.446 182.699C238.789 183.061 238.776 183.543 238.776 183.543L239.526 184.185C242.125 184.225 248.903 183.583 248.903 183.583C248.903 183.583 248.984 182.459 248.903 181.857C248.823 181.255 248.663 178.689 248.541 178.368L248.542 178.367Z" fill="#EE4345"/>
<path d="M248.945 183.02C248.663 182.819 246.774 183.823 243.238 183.742C239.701 183.662 238.776 183.541 238.776 183.541C238.536 183.742 238.616 184.786 238.776 184.826C238.937 184.866 248.502 184.947 248.945 184.666C249.387 184.385 249.226 183.22 248.945 183.02Z" fill="#A72F30"/>
<path d="M247.452 178.912C247.097 179.589 246.756 180.275 246.382 180.941C246.039 181.55 245.616 182.098 244.958 182.383C244.821 182.443 244.939 182.643 245.076 182.584C245.735 182.298 246.183 181.75 246.534 181.141C246.933 180.453 247.283 179.734 247.652 179.03C247.722 178.897 247.521 178.779 247.451 178.912H247.452Z" fill="#A72F30"/>
<path d="M233.241 172.468C233.241 172.468 233.123 173.702 233.3 175.865C233.476 178.028 232.417 178.963 232.417 178.963L233.623 180.462C233.623 180.462 237.948 179.492 237.89 178.963C237.831 178.434 237.772 172.38 237.683 172.232C237.595 172.085 233.241 172.468 233.241 172.468Z" fill="#FABA97"/>
<path d="M237.961 178.056C237.667 177.942 234.872 179.11 234.343 178.963C233.813 178.816 233.956 178.008 233.666 177.64C233.376 177.272 232.946 177.458 232.323 178.153C231.7 178.848 226.37 181.813 225.664 182.107C224.958 182.401 224.487 182.254 224.046 182.459C223.605 182.665 223.665 183.2 223.665 183.2C223.665 183.2 225.341 183.988 227.017 184.046C228.694 184.105 238.491 183.694 238.403 183.047C238.314 182.4 238.255 178.168 237.961 178.055V178.056Z" fill="#EE4345"/>
<path d="M238.642 182.678C238.342 182.478 232.212 183.482 228.433 183.401C224.653 183.321 223.664 183.201 223.664 183.201C223.406 183.401 223.493 184.445 223.664 184.486C223.836 184.526 238.169 184.606 238.642 184.325C239.114 184.044 238.943 182.88 238.642 182.679V182.678Z" fill="#A72F30"/>
<path d="M233.777 179.26C232.813 180.167 231.793 181.009 230.719 181.78C230.599 181.866 230.714 182.068 230.836 181.98C231.926 181.197 232.964 180.344 233.941 179.425C234.05 179.322 233.885 179.157 233.777 179.26Z" fill="#A72F30"/>
<path d="M254.209 117.837C251.95 115.989 251.771 110.709 251.534 106.728C251.296 102.748 252.018 97.0378 252.018 97.0378C251.531 96.7168 250.638 96.8796 250.638 96.8796C250.638 96.8796 250.347 97.3084 249.942 101.717C249.537 106.125 249.951 108.491 249.442 108.595C248.634 108.761 239.225 109.513 238.939 109.133C238.653 108.752 239.539 99.0324 239.539 99.0324C239.163 98.9954 238.208 99.661 238.208 99.661C237.428 101.502 237.234 115.558 236.781 116.897C236.962 117.538 237.203 127.577 236.781 129.003C236.358 130.429 231.258 141.476 230.247 147.713C229.236 153.949 231.733 175.808 231.733 176.223C231.733 176.639 232.803 177.292 235.836 177.114C238.868 176.936 240.533 176.282 240.533 176.282C240.533 176.282 238.987 158.048 239.403 155.612C239.82 153.177 244.278 139.159 244.278 139.159C244.278 139.159 245.051 146.584 245.111 155.494C245.171 164.403 244.516 174.56 244.695 175.629C244.873 176.698 251.294 177.292 252.127 176.163C252.959 175.035 255.724 145.713 256.616 136.507C257.508 127.3 256.069 118.487 256.069 118.487C256.069 118.487 255.381 118.796 254.208 117.837H254.209Z" fill="#2B5279"/>
<path d="M253.681 126.679C253.561 125.992 253.452 125.304 253.353 124.614C254.469 124.542 255.586 124.459 256.7 124.362C256.693 124.246 256.684 124.13 256.675 124.016C255.553 124.114 254.428 124.198 253.304 124.27C253.298 124.226 253.291 124.183 253.285 124.139C253.275 124.067 253.186 124.009 253.117 124.011C252.892 124.017 252.667 124.024 252.443 124.03C252.32 124.034 252.256 124.138 252.275 124.251C252.279 124.278 252.284 124.305 252.289 124.332C248.602 124.543 244.907 124.62 241.214 124.561C240.627 124.551 240.039 124.537 239.451 124.521C239.456 124.436 239.461 124.351 239.464 124.266C239.469 124.174 239.38 124.089 239.29 124.092C239.077 124.097 238.865 124.103 238.652 124.107C238.564 124.11 238.509 124.163 238.49 124.234C238.469 124.26 238.456 124.292 238.453 124.332C238.449 124.384 238.445 124.436 238.441 124.488C238.313 124.484 238.185 124.48 238.058 124.476C237.711 124.463 237.364 124.452 237.016 124.431C237.016 124.547 237.016 124.663 237.014 124.779C237.21 124.79 237.406 124.8 237.601 124.808C237.872 124.819 238.143 124.827 238.414 124.837C238.368 125.428 238.324 126.019 238.278 126.61C237.848 126.58 237.417 126.548 236.987 126.514C236.984 126.632 236.98 126.749 236.976 126.862C237.401 126.896 237.826 126.927 238.251 126.957C238.25 126.967 238.25 126.977 238.249 126.987C238.243 127.065 238.308 127.134 238.377 127.156C238.624 127.234 238.878 127.276 239.137 127.282C239.236 127.285 239.307 127.2 239.312 127.108C239.313 127.079 239.315 127.052 239.317 127.023C241.974 127.183 244.637 127.256 247.3 127.239C249.099 127.227 250.898 127.173 252.695 127.08C252.703 127.098 252.713 127.115 252.725 127.13C252.813 127.238 252.959 127.213 253.083 127.208L253.562 127.191C253.664 127.187 253.727 127.113 253.733 127.022C254.768 126.96 255.803 126.885 256.836 126.796C256.831 126.68 256.826 126.563 256.821 126.448C255.775 126.538 254.728 126.615 253.68 126.677L253.681 126.679ZM242.27 126.819C241.291 126.784 240.313 126.736 239.335 126.676C239.368 126.074 239.4 125.471 239.432 124.868C239.778 124.878 240.122 124.888 240.468 124.895C242.381 124.935 244.296 124.939 246.209 124.907C248.257 124.872 250.304 124.794 252.349 124.676C252.391 124.908 252.436 125.141 252.484 125.373C252.522 125.675 252.559 125.976 252.594 126.277C252.611 126.43 252.629 126.583 252.646 126.735C249.191 126.912 245.728 126.941 242.271 126.819H242.27Z" fill="#002F5D"/>
<path d="M254.08 141.034C253.744 141.349 253.757 141.868 253.722 142.292C253.675 142.849 253.629 143.407 253.582 143.964C253.489 145.069 253.397 146.174 253.305 147.279C253.258 147.836 253.212 148.394 253.165 148.951C253.129 149.378 253.022 149.919 253.398 150.232C253.595 150.396 253.859 150.471 254.096 150.556C254.375 150.657 254.657 150.751 254.941 150.839C255.031 150.866 255.121 150.892 255.212 150.918C255.224 150.8 255.235 150.683 255.247 150.565C254.811 150.437 254.379 150.294 253.954 150.133C253.767 150.063 253.565 149.984 253.501 149.777C253.443 149.589 253.478 149.375 253.494 149.182C253.537 148.662 253.581 148.144 253.624 147.625C253.71 146.596 253.796 145.568 253.882 144.54C253.925 144.031 253.967 143.521 254.01 143.012C254.032 142.753 254.053 142.494 254.075 142.234C254.081 142.163 254.086 142.09 254.091 142.018C254.353 142.561 254.682 143.069 255.075 143.529C255.315 143.81 255.578 144.071 255.862 144.307C255.876 144.164 255.889 144.022 255.903 143.88C255.685 143.682 255.481 143.47 255.291 143.246C254.848 142.721 254.49 142.122 254.233 141.486C254.227 141.471 254.22 141.458 254.211 141.446C254.385 141.12 254.781 141.084 255.146 141.092C255.487 141.099 255.829 141.113 256.17 141.128C256.181 141.011 256.192 140.896 256.203 140.782C255.871 140.768 255.539 140.755 255.207 140.745C254.818 140.733 254.379 140.753 254.079 141.034H254.08Z" fill="#002F5D"/>
<path d="M243.97 136.741C243.062 138.959 242.183 141.188 241.331 143.429C240.479 145.669 239.654 147.92 238.858 150.181C238.409 151.455 237.969 152.732 237.538 154.012C237.49 154.154 237.712 154.224 237.76 154.083C238.525 151.811 239.318 149.549 240.139 147.297C240.959 145.045 241.808 142.804 242.684 140.572C243.178 139.315 243.68 138.062 244.192 136.811C244.248 136.673 244.026 136.603 243.97 136.741Z" fill="#002F5D"/>
<path d="M238.101 159.844C237.982 158.347 237.864 156.849 237.744 155.352C237.732 155.204 237.499 155.203 237.511 155.352C237.722 158.008 237.934 160.665 238.144 163.321L238.775 171.261C238.894 172.759 239.013 174.256 239.133 175.753C239.144 175.901 239.377 175.903 239.366 175.753C239.155 173.097 238.943 170.441 238.732 167.784C238.522 165.137 238.311 162.49 238.101 159.843V159.844Z" fill="#002F5D"/>
<path d="M244.268 99.8656C244.131 99.9113 239.236 107.169 239.167 107.466C239.099 107.762 239.19 108.059 239.396 108.104C239.601 108.15 239.853 108.104 240.012 107.922C240.172 107.739 245.204 100.801 245.295 100.527C245.386 100.254 244.404 99.82 244.267 99.8656H244.268Z" fill="white"/>
<path d="M244.268 99.8656C244.245 99.8735 244.09 100.081 243.848 100.423C244.055 100.635 244.29 100.824 244.531 100.993C244.636 101.066 244.743 101.136 244.852 101.204C245.114 100.826 245.28 100.575 245.295 100.528C245.387 100.254 244.405 99.8208 244.267 99.8664L244.268 99.8656Z" fill="#1A1A1A"/>
<path d="M239.692 106.594C239.38 107.08 239.181 107.406 239.167 107.465C239.121 107.662 239.148 107.858 239.23 107.982C239.163 108.083 239.095 108.184 239.03 108.287C238.998 108.339 239.018 108.418 239.072 108.446C239.13 108.476 239.197 108.459 239.231 108.404C239.293 108.304 239.359 108.207 239.424 108.108C239.624 108.144 239.859 108.095 240.011 107.921C240.041 107.887 240.238 107.62 240.542 107.205C240.507 107.186 240.47 107.17 240.436 107.151C240.171 107.003 239.905 106.819 239.691 106.593L239.692 106.594Z" fill="#1A1A1A"/>
<path d="M259.917 107.607L259.801 109.376L260.039 110.88C260.039 110.88 261.55 110.037 261.304 108.892C261.124 108.056 259.916 107.606 259.916 107.606L259.917 107.607Z" fill="#1A1A1A"/>
<path d="M256.44 108.041C255.355 108.584 254.893 109.289 254.893 109.289L247.058 105.529C247.058 105.529 245.896 103.688 245.699 103.502C245.502 103.315 244.294 101.652 243.713 101.829C243.132 102.005 240.813 102.763 240.668 103.074C240.523 103.385 239.87 105.28 240.067 105.456C240.263 105.632 240.502 105.591 240.502 105.591C240.502 105.591 240.502 106.554 240.658 106.833C240.813 107.112 241.166 107.382 241.166 107.382C241.166 107.382 241.27 107.372 241.529 107.651C241.788 107.931 242.171 107.952 242.358 107.775C242.544 107.599 242.514 107.32 242.514 107.32C242.596 107.258 242.68 107.133 242.67 107.041C242.659 106.948 243.655 106.565 243.655 106.565C243.655 106.565 244.621 107.527 244.892 108.099C245.164 108.671 253.523 116.634 256.175 116.755C258.828 116.876 260.486 115.7 260.735 113.783C261.013 111.644 259.917 107.608 259.917 107.608C259.241 107.343 257.525 107.5 256.44 108.042L256.44 108.041Z" fill="#FABA97"/>
<path d="M241.783 103.437C241.639 103.521 241.5 103.614 241.368 103.716C241.238 103.815 241.087 103.918 241.018 104.071C240.947 104.232 240.833 104.426 240.781 104.594C240.726 104.772 240.547 105.258 240.491 105.436C240.446 105.58 240.575 105.544 240.63 105.405C240.759 105.081 241.04 104.533 241.147 104.215C241.194 104.076 241.396 103.984 241.508 103.898C241.633 103.803 241.765 103.716 241.901 103.637C242.03 103.561 241.913 103.36 241.784 103.436L241.783 103.437Z" fill="#F5927E"/>
<path d="M241.976 104.841C241.832 104.926 241.694 105.018 241.562 105.12C241.432 105.219 241.28 105.322 241.212 105.476C241.141 105.636 241.027 105.83 240.975 105.998C240.92 106.177 240.741 106.662 240.685 106.841C240.64 106.984 240.769 106.949 240.824 106.809C240.953 106.485 241.234 105.937 241.341 105.62C241.388 105.48 241.59 105.388 241.702 105.303C241.827 105.207 241.959 105.121 242.095 105.041C242.224 104.966 242.108 104.764 241.978 104.841L241.976 104.841Z" fill="#F5927E"/>
<path d="M242.659 105.395C242.515 105.48 242.377 105.572 242.245 105.674C242.115 105.773 241.963 105.876 241.895 106.03C241.824 106.19 241.71 106.384 241.658 106.552C241.603 106.731 241.423 107.216 241.367 107.395C241.322 107.538 241.452 107.502 241.507 107.363C241.636 107.039 241.917 106.491 242.024 106.174C242.07 106.034 242.272 105.942 242.385 105.856C242.51 105.761 242.641 105.675 242.777 105.595C242.906 105.52 242.79 105.318 242.66 105.395L242.659 105.395Z" fill="#F5927E"/>
<path d="M244.695 103.849C244.658 103.777 244.569 103.71 244.547 103.632C244.525 103.553 244.583 103.455 244.599 103.379C244.617 103.298 244.616 103.215 244.594 103.135C244.548 102.973 244.432 102.867 244.33 102.741C244.268 102.666 244.285 102.63 244.291 102.539C244.296 102.466 244.282 102.396 244.254 102.328C244.187 102.169 244.044 102.068 243.906 101.974C243.782 101.89 243.665 102.092 243.789 102.175C243.935 102.273 244.075 102.375 244.052 102.567C244.037 102.69 244.057 102.778 244.138 102.876C244.239 102.997 244.387 103.113 244.377 103.287C244.368 103.428 244.281 103.549 244.322 103.695C244.36 103.828 244.489 103.908 244.521 104.045C244.558 104.209 244.447 104.313 244.416 104.461C244.386 104.605 244.49 104.719 244.455 104.866C244.414 105.035 244.337 105.199 244.259 105.354C244.193 105.487 244.394 105.605 244.461 105.471C244.54 105.312 244.615 105.147 244.666 104.977C244.69 104.895 244.707 104.808 244.699 104.723C244.691 104.653 244.636 104.572 244.644 104.504C244.652 104.435 244.718 104.358 244.739 104.289C244.761 104.214 244.766 104.136 244.758 104.059C244.75 103.986 244.729 103.916 244.695 103.851L244.695 103.849Z" fill="#F5927E"/>
<path d="M258.167 110.581C257.172 109.975 256.135 109.441 255.063 108.981C254.859 108.894 254.681 109.193 254.887 109.282C255.958 109.742 256.995 110.277 257.991 110.882C258.184 110.999 258.359 110.697 258.167 110.581V110.581Z" fill="#F5927E"/>
<path d="M242.968 96.6302C242.968 96.6302 243.621 96.9552 245.569 97.1464C247.207 97.3069 248.189 96.7396 248.189 96.7396L248.326 90.1768L243.09 90.7692L242.968 96.631L242.968 96.6302Z" fill="#FABA97"/>
<path d="M242.967 96.6594L246.737 93.5098L243.002 94.9764L242.967 96.6594Z" fill="#F5927E"/>
<path d="M239.358 92.5514C239.351 92.8882 239.508 93.2108 239.78 93.4106L241.837 94.9205C242.124 95.133 242.503 95.1833 242.835 95.0504L246.752 93.5137C247.142 93.3611 247.404 92.9865 247.413 92.5648L247.78 83.6942L239.57 84.4669L239.358 92.5514Z" fill="#FABA97"/>
<path opacity="0.32" d="M239.437 88.7416L239.374 91.7654C240.21 91.7827 240.901 91.1202 240.919 90.2854C240.937 89.4506 240.273 88.7597 239.438 88.7416H239.437Z" fill="#F08372"/>
<path d="M242.489 90.2012L241.452 90.1791L241.844 87.0326C241.852 86.9689 241.807 86.9107 241.743 86.9028C241.679 86.8949 241.621 86.9398 241.613 87.0035L241.206 90.2783C241.202 90.3105 241.212 90.3436 241.233 90.3687C241.254 90.3939 241.286 90.4081 241.319 90.4089L242.485 90.4333C242.55 90.4348 242.602 90.3837 242.604 90.32C242.605 90.2562 242.554 90.2027 242.49 90.2012H242.489Z" fill="#DE7360"/>
<path d="M243.222 86.4465C243.221 86.8871 244.673 87.205 244.756 86.8045C244.893 86.1396 243.225 85.7493 243.222 86.4465Z" fill="#0E0D0B"/>
<path d="M239.354 86.6582C239.55 87.0138 240.861 86.6267 240.749 86.2663C240.564 85.6691 239.046 86.094 239.354 86.6582Z" fill="#0E0D0B"/>
<path opacity="0.32" d="M245.365 88.7644C244.529 88.7471 243.837 89.4096 243.82 90.2452C243.802 91.08 244.466 91.7716 245.302 91.789C246.138 91.8063 246.83 91.1438 246.847 90.3082C246.865 89.4726 246.201 88.7817 245.365 88.7644Z" fill="#F08372"/>
<path d="M243.63 87.6016C243.452 87.6016 243.308 87.8494 243.309 88.1547C243.309 88.46 243.454 88.707 243.632 88.7063C243.81 88.7063 243.954 88.4584 243.953 88.1531C243.953 87.8478 243.808 87.6008 243.63 87.6016Z" fill="#281C1C"/>
<path d="M240.451 87.5331C240.274 87.5331 240.13 87.7809 240.13 88.0862C240.13 88.3915 240.276 88.6386 240.454 88.6378C240.632 88.6378 240.776 88.3899 240.775 88.0846C240.775 87.7794 240.629 87.5323 240.451 87.5331Z" fill="#281C1C"/>
<path d="M243.185 91.3917C243.067 91.3704 242.925 91.3791 242.778 91.4058C242.365 91.4727 241.938 91.4585 241.533 91.3649C241.459 91.3492 241.38 91.3295 241.306 91.3264C241.266 91.3271 241.222 91.3319 241.184 91.3452C241.016 91.4082 240.979 91.6018 241.006 91.7583C241.052 92.0298 241.229 92.2808 241.475 92.4562C241.628 92.5625 241.81 92.6427 242.004 92.6765C242.444 92.7568 242.926 92.612 243.228 92.3264C243.274 92.2823 243.316 92.2375 243.352 92.1864C243.485 92.0007 243.556 91.7623 243.451 91.5616C243.4 91.4633 243.306 91.4121 243.186 91.3909L243.185 91.3917Z" fill="black"/>
<path d="M242.778 91.4066C242.365 91.4734 241.938 91.4593 241.533 91.3656C241.459 91.3499 241.38 91.3302 241.306 91.3271C241.288 91.4223 241.287 91.5214 241.342 91.5985C241.397 91.6757 241.495 91.7111 241.587 91.737C241.972 91.8456 242.384 91.8653 242.778 91.7976C242.887 91.7811 243.001 91.7528 243.078 91.6725C243.15 91.6017 243.177 91.4978 243.185 91.3924C243.067 91.3712 242.925 91.3798 242.778 91.4066Z" fill="white"/>
<path d="M242.163 92.1241C241.904 92.158 241.635 92.2634 241.474 92.457C241.627 92.5632 241.809 92.6434 242.003 92.6773C242.443 92.7575 242.925 92.6128 243.227 92.3271C242.917 92.136 242.529 92.0738 242.163 92.1241Z" fill="#D66B5E"/>
<path opacity="0.15" d="M247.335 84.7839C247.086 84.6698 247.114 85.481 247.411 85.4794C247.709 85.4779 247.583 84.898 247.335 84.7839Z" fill="white"/>
<path opacity="0.15" d="M239.918 83.5392C240.368 83.761 241.295 82.82 241.031 82.6131C240.722 82.3715 239.416 83.2921 239.918 83.5392Z" fill="white"/>
<path opacity="0.15" d="M240.785 83.6681C241.137 83.8074 241.656 83.3739 241.431 83.1622C241.207 82.9506 240.434 83.5289 240.785 83.6681Z" fill="white"/>
<path d="M251.042 82.5848C250.668 82.4321 249.752 82.4644 249.752 82.4644C249.779 81.1787 248.521 80.5076 248.521 80.5076C249.034 80.842 249.322 82.2393 249.322 82.2393C249.322 82.2393 249.281 82.0718 248.157 81.163C247.034 80.2542 244.496 80.3911 242.556 80.5209C240.616 80.6508 239.125 80.2031 239.125 80.2031C239.369 80.7877 239.891 81.2849 239.891 81.2849C237.988 81.388 237.511 81.2527 237.511 81.2527C238.091 82.4675 238.617 83.1591 238.617 83.1591C238.386 83.1568 237.997 83.0986 237.997 83.0986C237.997 83.0986 238.734 84.5951 240.683 84.8532C242.632 85.1112 243.866 84.3929 244.861 84.3795C245.857 84.3669 246.584 84.9625 246.584 84.9625C246.408 88.2742 248.422 90.0761 248.422 90.0761L248.809 90.9982C251.91 86.4307 250.188 83.001 250.188 83.001C250.188 83.001 251.417 82.7382 251.042 82.5855V82.5848Z" fill="#242638"/>
<path d="M247.152 79.9962C245.723 79.3172 242.793 79.5013 241.719 79.0001C241.719 79.0001 242.447 80.1024 244.171 80.7318C245.895 81.3613 247.213 82.1481 247.213 82.1481L249.322 82.2394C249.322 82.2394 248.581 80.6752 247.152 79.9962H247.152Z" fill="#242638"/>
<path d="M239.115 83.6312C238.55 84.4991 239.354 88.0775 239.354 88.0775C239.605 86.8651 239.658 84.4369 239.658 84.4369C239.658 84.4369 239.68 82.7634 239.115 83.6312Z" fill="#242638"/>
<path opacity="0.25" d="M240.571 83.001H240.572C240.568 82.99 240.566 82.9845 240.571 83.001Z" fill="white"/>
<path d="M248.851 92.0809C249.909 92.0798 250.766 91.2221 250.765 90.1653C250.763 89.1085 249.905 88.2527 248.847 88.2538C247.789 88.2549 246.932 89.1125 246.933 90.1693C246.934 91.2262 247.793 92.082 248.851 92.0809Z" fill="#FABA97"/>
<path d="M249.337 89.0469C248.838 89.1044 247.924 89.4694 248.032 90.4364C248.069 90.7638 248.167 91.036 248.324 91.2453C248.346 91.2752 248.38 91.2909 248.414 91.2917C248.44 91.2917 248.465 91.2846 248.487 91.2689C248.538 91.2303 248.549 91.158 248.51 91.106C248.378 90.9306 248.296 90.6961 248.263 90.4105C248.154 89.4325 249.313 89.283 249.364 89.2775C249.428 89.2704 249.473 89.2122 249.466 89.1484C249.459 89.0847 249.401 89.0391 249.337 89.0461V89.0469Z" fill="#DE7360"/>
<path d="M249.276 90.0887C249.031 89.9219 248.461 89.763 248.052 90.3578C248.016 90.4105 248.03 90.4829 248.082 90.5191C248.102 90.5325 248.124 90.5388 248.145 90.5395C248.183 90.5403 248.221 90.523 248.244 90.4892C248.615 89.9486 249.091 90.2445 249.144 90.2807C249.197 90.3169 249.27 90.3027 249.306 90.25C249.342 90.1973 249.329 90.1249 249.275 90.0887H249.276Z" fill="#DE7360"/>
<path d="M239.94 112.574C239.806 117.474 241.002 120.269 245.529 119.729C250.055 119.188 248.686 112.4 248.686 112.4L239.941 112.574H239.94Z" fill="#5CBEE3"/>
<path d="M246.273 112.496C245.289 118.889 240.913 118.013 240.913 118.013C242.189 120.62 245.528 119.729 245.528 119.729C250.296 119.142 248.685 112.4 248.685 112.4L246.273 112.496Z" fill="#51A7C8"/>
<path d="M227.908 107.599L232.011 113.238L232.698 114.16C232.698 114.16 235.706 118.759 235.884 118.755C236.549 118.741 241.392 116.728 241.392 116.728L232.875 104.493L227.908 107.6L227.908 107.599Z" fill="#002F5D"/>
<path d="M233.186 103.875C233.119 103.786 228.473 106.809 228.362 106.899C228.25 106.988 227.908 107.6 227.908 107.6C228.421 107.488 232.651 104.611 232.784 104.589C232.918 104.567 241.258 116.751 241.391 116.729C241.525 116.707 241.568 116.388 241.659 116.105C241.686 116.022 236.62 108.865 236.62 108.865C236.62 108.865 233.253 103.964 233.186 103.875H233.186Z" fill="white"/>
<path d="M231.532 104.849C231.532 104.849 231.525 104.73 231.458 104.702C231.39 104.675 229.934 105.632 229.704 105.821C229.475 106.01 229.195 106.634 229.195 106.89C229.195 107.007 229.488 107.465 229.488 107.465C229.55 107.532 231.66 106.253 231.606 106.145C231.552 106.037 231.283 105.66 231.258 105.562C231.233 105.464 231.533 104.85 231.533 104.85L231.532 104.849Z" fill="#0B609F"/>
<path d="M230.29 106.594C230.29 106.594 229.002 107.417 228.153 107.764C227.305 108.111 227.138 107.997 227.295 107.419C227.453 106.842 228.252 105.983 228.805 106.084C229.181 106.152 228.816 106.643 228.816 106.643C228.816 106.643 229.193 106.462 229.193 106.168C229.193 106.002 228.976 105.789 228.658 105.84C228.34 105.891 227.725 106.24 227.324 106.916C226.925 107.593 227.068 107.91 227.068 107.91L234.028 118.754C235.16 118.728 238.836 116.959 238.836 116.959L231.734 105.69L230.288 106.593L230.29 106.594Z" fill="white"/>
<path d="M239.913 111.442C239.779 111.33 239.781 111.264 239.669 110.885C239.557 110.507 239.301 110.554 239.145 110.45C238.989 110.346 239.078 110.064 238.884 109.685C238.689 109.307 238.411 109.38 238.166 109.425C237.92 109.47 237.913 108.731 237.4 108.665C236.887 108.598 236.62 108.865 236.62 108.865L236.843 109.244C236.843 109.244 236.754 109.533 236.285 110.179C235.817 110.825 235.658 110.3 235.658 110.3C235.277 109.283 235.25 109.086 234.96 108.595C234.671 108.105 233.994 108.215 233.971 108.595C233.939 109.132 233.969 109.368 234.064 109.991C234.139 110.488 234.1 111.293 234.056 111.828C234.011 112.362 231.729 115.161 231.729 115.161L230.623 113.446C230.623 113.446 229.039 116.493 229.195 118.431C229.351 120.369 230.968 121.483 232.369 121.321C235.24 120.99 237.483 115.777 237.483 115.777C237.483 115.777 239.158 114.83 239.582 114.496C240.006 114.162 240.166 112.553 240.166 112.13C240.166 111.706 240.05 111.554 239.916 111.443L239.913 111.442Z" fill="#FABA97"/>
<path d="M239.153 114.087C239.055 114.103 238.954 114.072 238.881 114.005C238.813 113.943 238.797 113.865 238.765 113.783C238.693 113.599 238.54 113.565 238.382 113.475C238.237 113.393 238.223 113.241 238.188 113.092C238.155 112.95 238.099 112.809 237.967 112.731C237.795 112.629 237.585 112.655 237.535 112.418C237.504 112.267 237.556 112.089 237.494 111.948C237.456 111.859 237.379 111.837 237.298 111.798C237.223 111.763 237.158 111.711 237.107 111.647C236.992 111.501 236.954 111.311 237.006 111.134C237.042 111.01 236.847 110.959 236.812 111.082C236.732 111.359 236.655 111.659 236.87 111.851C236.923 111.898 237.197 112.075 237.219 112.119C237.239 112.161 237.256 112.522 237.313 112.65C237.376 112.791 237.475 112.856 237.618 112.902C237.702 112.93 237.803 112.964 237.857 113.04C237.895 113.093 237.951 113.453 238.032 113.562C238.127 113.692 238.325 113.717 238.452 113.801C238.534 113.855 238.541 113.944 238.578 114.028C238.611 114.101 238.659 114.17 238.72 114.221C238.846 114.326 239.049 114.307 239.208 114.28C239.335 114.259 239.28 114.065 239.154 114.087L239.153 114.087Z" fill="#F5927E"/>
<path d="M244.685 173.025C244.685 173.025 244.528 175.544 244.536 175.905C244.536 175.905 244.62 176.18 247.863 176.73C251.106 177.28 252.179 176.24 252.179 176.24L252.729 173.647C250.847 174.023 244.685 173.026 244.685 173.026V173.025Z" fill="white"/>
<path d="M231.509 174.413L231.799 176.757C231.799 176.757 231.596 176.901 234.637 177.162C237.677 177.422 240.534 176.283 240.534 176.283L240.284 173.632L231.51 174.413H231.509Z" fill="white"/>
<path d="M254.28 106.586L254.743 109.016C258.643 106.547 261.304 108.893 261.304 108.893L260.535 105.776C258.063 104.889 254.28 106.586 254.28 106.586Z" fill="white"/>
<path d="M219.966 106.85L205.983 106.795L206.046 107.944L219.951 107.993C222.61 108.028 224.744 110.218 224.708 112.874L224.578 122.59L225.723 122.605L225.852 112.889C225.896 109.603 223.255 106.893 219.966 106.849L219.966 106.85Z" fill="#31415F"/>
<path d="M228.184 121.564L222.765 121.424C222.524 121.418 222.324 121.608 222.318 121.849L222.062 131.751C222.056 131.992 222.246 132.193 222.488 132.199L227.906 132.338C228.147 132.344 228.348 132.154 228.354 131.913L228.609 122.011C228.615 121.77 228.425 121.569 228.184 121.564Z" fill="#31415F"/>
<path d="M223.303 122.748L223.094 130.882C223.09 131.044 223.218 131.179 223.38 131.184L227.029 131.277C227.192 131.281 227.327 131.153 227.331 130.991L227.539 122.857C227.544 122.694 227.415 122.559 227.253 122.555L223.604 122.462C223.442 122.457 223.307 122.586 223.303 122.748Z" fill="#8CB0DD"/>
</svg>
