<svg width="90" height="14" viewBox="0 0 90 14" fill="none" xmlns="http://www.w3.org/2000/svg">
<path d="M30.4271 4.77967C30.3 4.52093 30.1186 4.29617 29.8827 4.10495C29.6465 3.91373 29.3641 3.75082 29.0347 3.61579C28.7053 3.48076 28.3346 3.37229 27.9225 3.28997C27.7054 3.2451 27.5074 3.19283 27.3277 3.13272C27.1484 3.07261 26.9944 3.00335 26.8673 2.92451C26.7398 2.84611 26.6428 2.7542 26.5749 2.64879C26.5079 2.54381 26.474 2.42446 26.474 2.28943C26.474 2.11694 26.5249 1.97058 26.6254 1.85036C26.7263 1.73101 26.8669 1.6391 27.0466 1.57507C27.2267 1.51104 27.4399 1.47968 27.6867 1.47968C27.9112 1.47968 28.1301 1.51496 28.3437 1.58683C28.5569 1.65783 28.7549 1.76498 28.9385 1.90655C29.1217 2.04899 29.2923 2.2254 29.4494 2.43491L30.5163 1.40083C30.337 1.10812 30.1138 0.860708 29.8484 0.659032C29.5821 0.456485 29.2696 0.300981 28.9102 0.192085C28.5513 0.0836239 28.1318 0.0291748 27.6527 0.0291748C27.2633 0.0291748 26.8947 0.0853665 26.5466 0.197748C26.1985 0.309693 25.8917 0.471295 25.6255 0.680812C25.36 0.890328 25.152 1.13992 25.0028 1.42828C24.8527 1.71707 24.7783 2.02982 24.7783 2.3674C24.7783 2.70498 24.8283 2.9929 24.9297 3.25512C25.0306 3.51778 25.186 3.75212 25.3953 3.95772C25.6054 4.16419 25.8669 4.33668 26.1815 4.4752C26.4957 4.61371 26.8625 4.73176 27.282 4.82889C27.4765 4.85895 27.6562 4.89815 27.8207 4.94694C27.9856 4.99616 28.1353 5.05235 28.2702 5.11551C28.4051 5.17954 28.5212 5.25054 28.6183 5.32938C28.7153 5.40779 28.7906 5.49752 28.8428 5.59901C28.895 5.70006 28.9211 5.8107 28.9211 5.93049C28.9211 6.09557 28.8689 6.23801 28.764 6.3578C28.6587 6.47715 28.5147 6.56949 28.3315 6.63309C28.1483 6.69712 27.9403 6.72848 27.708 6.72848C27.2816 6.72848 26.8865 6.63657 26.5236 6.45319C26.1602 6.26937 25.7956 5.92308 25.4283 5.41301L24.3732 6.61566C24.6203 6.94584 24.8988 7.22679 25.2099 7.45896C25.5202 7.69112 25.8757 7.86754 26.2768 7.98689C26.6772 8.10711 27.1206 8.16722 27.6075 8.16722C28.2062 8.16722 28.7305 8.06791 29.1796 7.86928C29.6286 7.67109 29.9802 7.38447 30.2348 7.00943C30.4893 6.63483 30.6164 6.18139 30.6164 5.6491C30.6164 5.3272 30.5533 5.03667 30.4254 4.77836L30.4271 4.77967Z" fill="#EE4345"/>
<path d="M35.6999 6.43752C35.5463 6.5499 35.3836 6.63397 35.2113 6.69016C35.0389 6.74635 34.8558 6.77467 34.6608 6.77467C34.3614 6.77467 34.0921 6.69757 33.8528 6.54381C33.613 6.39048 33.4242 6.18837 33.2854 5.93747C33.147 5.68614 33.0774 5.39952 33.0774 5.07719C33.0774 4.75486 33.1444 4.45517 33.2797 4.20036C33.4146 3.94597 33.5991 3.74517 33.8354 3.59881C34.0708 3.45289 34.3427 3.37971 34.6495 3.37971C34.8436 3.37971 35.0329 3.41369 35.216 3.48077C35.3997 3.54829 35.5698 3.64019 35.7269 3.75649C35.8844 3.8728 36.0154 4.00216 36.1202 4.14417L36.9962 3.08787C36.749 2.74289 36.4048 2.47326 35.9632 2.27812C35.5215 2.08341 35.035 1.98584 34.5033 1.98584C33.9346 1.98584 33.4251 2.12087 32.9756 2.3905C32.5265 2.66013 32.1728 3.02907 31.9147 3.49776C31.6563 3.96601 31.527 4.49263 31.527 5.07719C31.527 5.66175 31.6563 6.19795 31.9147 6.66272C32.1728 7.12749 32.5265 7.49425 32.9756 7.76432C33.4251 8.03394 33.9342 8.16898 34.5033 8.16898C35.0046 8.16898 35.4802 8.06966 35.9297 7.87103C36.3791 7.67284 36.7307 7.41236 36.9857 7.0896L36.1207 6.0333C35.9936 6.19055 35.8531 6.32558 35.6995 6.43796L35.6999 6.43752Z" fill="#EE4345"/>
<path d="M26.7298 13.0251H26.28L26.0293 12.3366H24.9269L24.6762 13.0251H24.2384L25.2294 10.3985H25.7388L26.7298 13.0251ZM25.0463 11.9904H25.9099L25.4801 10.7646L25.0463 11.9904Z" fill="black"/>
<path d="M30.7915 12.3287C30.7384 12.4879 30.6589 12.6232 30.5527 12.7346C30.4466 12.8434 30.3219 12.9257 30.1786 12.9814C30.0354 13.0371 29.8775 13.0649 29.705 13.0649C29.453 13.0649 29.2341 13.0106 29.0484 12.9018C28.8627 12.793 28.7194 12.6378 28.6186 12.4361C28.5177 12.2345 28.4673 11.9931 28.4673 11.7118C28.4673 11.4306 28.5177 11.1891 28.6186 10.9875C28.7194 10.7859 28.8627 10.6307 29.0484 10.5219C29.2341 10.4131 29.4517 10.3587 29.7011 10.3587C29.8735 10.3587 30.0287 10.3826 30.1667 10.4303C30.3073 10.4781 30.4267 10.5497 30.5249 10.6452C30.623 10.7408 30.6987 10.8602 30.7517 11.0034L30.3498 11.1825C30.2967 11.026 30.2198 10.9119 30.1189 10.8403C30.0181 10.766 29.8868 10.7288 29.7249 10.7288C29.5631 10.7288 29.4211 10.7673 29.2991 10.8442C29.1771 10.9212 29.0815 11.0326 29.0126 11.1785C28.9462 11.3245 28.9131 11.5022 28.9131 11.7118C28.9131 11.9188 28.9449 12.0965 29.0086 12.2451C29.0723 12.391 29.1638 12.5025 29.2832 12.5794C29.4026 12.6564 29.5458 12.6948 29.713 12.6948C29.8748 12.6948 30.0141 12.6537 30.1309 12.5715C30.2503 12.4866 30.3352 12.3605 30.3856 12.1934L30.7915 12.3287Z" fill="black"/>
<path d="M35.0244 12.3287C34.9713 12.4879 34.8917 12.6232 34.7856 12.7346C34.6795 12.8434 34.5548 12.9257 34.4115 12.9814C34.2682 13.0371 34.1104 13.0649 33.9379 13.0649C33.6858 13.0649 33.467 13.0106 33.2812 12.9018C33.0955 12.793 32.9522 12.6378 32.8514 12.4361C32.7506 12.2345 32.7002 11.9931 32.7002 11.7118C32.7002 11.4306 32.7506 11.1891 32.8514 10.9875C32.9522 10.7859 33.0955 10.6307 33.2812 10.5219C33.467 10.4131 33.6845 10.3587 33.9339 10.3587C34.1064 10.3587 34.2616 10.3826 34.3995 10.4303C34.5402 10.4781 34.6596 10.5497 34.7577 10.6452C34.8559 10.7408 34.9315 10.8602 34.9846 11.0034L34.5826 11.1825C34.5296 11.026 34.4526 10.9119 34.3518 10.8403C34.251 10.766 34.1196 10.7288 33.9578 10.7288C33.7959 10.7288 33.654 10.7673 33.532 10.8442C33.4099 10.9212 33.3144 11.0326 33.2454 11.1785C33.1791 11.3245 33.1459 11.5022 33.1459 11.7118C33.1459 11.9188 33.1778 12.0965 33.2414 12.2451C33.3051 12.391 33.3966 12.5025 33.516 12.5794C33.6354 12.6564 33.7787 12.6948 33.9459 12.6948C34.1077 12.6948 34.247 12.6537 34.3637 12.5715C34.4831 12.4866 34.568 12.3605 34.6184 12.1934L35.0244 12.3287Z" fill="black"/>
<path d="M37.0803 13.0251V10.3985H38.9826V10.7646H37.5061V11.5208H38.6603V11.879H37.5061V12.659H39.0383V13.0251H37.0803Z" fill="black"/>
<path d="M41.5485 12.659H42.9972V13.0251H41.1227V10.3985H41.5485V12.659Z" fill="black"/>
<path d="M45.0174 13.0251V10.3985H46.9198V10.7646H45.4433V11.5208H46.5974V11.879H45.4433V12.659H46.9755V13.0251H45.0174Z" fill="black"/>
<path d="M50.1304 10.3985C50.4117 10.3985 50.6345 10.4688 50.799 10.6094C50.9662 10.75 51.0498 10.9397 51.0498 11.1785C51.0498 11.4253 50.9662 11.6163 50.799 11.7516C50.6345 11.8843 50.4117 11.9506 50.1304 11.9506L50.0906 11.9745H49.4817V13.0251H49.0599V10.3985H50.1304ZM50.0986 11.6203C50.271 11.6203 50.3984 11.5858 50.4806 11.5168C50.5655 11.4452 50.608 11.3364 50.608 11.1905C50.608 11.0472 50.5655 10.9397 50.4806 10.8681C50.3984 10.7965 50.271 10.7607 50.0986 10.7607H49.4817V11.6203H50.0986ZM50.3493 11.7078L51.205 13.0251H50.7155L49.9832 11.875L50.3493 11.7078Z" fill="black"/>
<path d="M55.427 13.0251H54.9773L54.7266 12.3366H53.6242L53.3734 13.0251H52.9357L53.9266 10.3985H54.436L55.427 13.0251ZM53.7436 11.9904H54.6072L54.1774 10.7646L53.7436 11.9904Z" fill="black"/>
<path d="M59.0094 10.3985V10.7646H58.11V13.0251H57.6841V10.7646H56.7847V10.3985H59.0094Z" fill="black"/>
<path d="M61.0317 13.0251V10.3985H62.934V10.7646H61.4575V11.5208H62.6116V11.879H61.4575V12.659H62.9897V13.0251H61.0317Z" fill="black"/>
<path d="M68.3064 10.3985V13.0251H67.8806V10.3985H68.3064Z" fill="black"/>
<path d="M73.2841 10.3985V13.0251H72.8901V11.5049L72.9219 10.7806H72.9179L72.118 13.0251H71.7638L70.9639 10.7806H70.9599L70.9917 11.5049V13.0251H70.5977V10.3985H71.2305L71.7598 11.9188L71.9429 12.5436H71.9508L72.1379 11.9188L72.6632 10.3985H73.2841Z" fill="black"/>
<path d="M76.5877 10.3985C76.776 10.3985 76.9379 10.4317 77.0732 10.498C77.2112 10.5643 77.3186 10.6585 77.3955 10.7806C77.4725 10.9026 77.511 11.0499 77.511 11.2223C77.511 11.3921 77.4725 11.5394 77.3955 11.6641C77.3186 11.7861 77.2112 11.8803 77.0732 11.9466C76.9379 12.013 76.776 12.0461 76.5877 12.0461H76.0026V13.0251H75.5768V10.3985H76.5877ZM76.52 11.68C76.7084 11.68 76.8463 11.6415 76.9339 11.5646C77.0241 11.485 77.0692 11.3709 77.0692 11.2223C77.0692 11.0711 77.0241 10.957 76.9339 10.8801C76.8463 10.8005 76.7084 10.7607 76.52 10.7607H76.0026V11.68H76.52Z" fill="black"/>
<path d="M81.5514 13.0251H81.1017L80.8509 12.3366H79.7486L79.4978 13.0251H79.0601L80.051 10.3985H80.5604L81.5514 13.0251ZM79.8679 11.9904H80.7316L80.3017 10.7646L79.8679 11.9904Z" fill="black"/>
<path d="M85.6131 12.3287C85.5601 12.4879 85.4805 12.6232 85.3744 12.7346C85.2682 12.8434 85.1435 12.9257 85.0003 12.9814C84.857 13.0371 84.6991 13.0649 84.5267 13.0649C84.2746 13.0649 84.0557 13.0106 83.87 12.9018C83.6843 12.793 83.541 12.6378 83.4402 12.4361C83.3394 12.2345 83.289 11.9931 83.289 11.7118C83.289 11.4306 83.3394 11.1891 83.4402 10.9875C83.541 10.7859 83.6843 10.6307 83.87 10.5219C84.0557 10.4131 84.2733 10.3587 84.5227 10.3587C84.6951 10.3587 84.8504 10.3826 84.9883 10.4303C85.1289 10.4781 85.2483 10.5497 85.3465 10.6452C85.4447 10.7408 85.5203 10.8602 85.5733 11.0034L85.1714 11.1825C85.1183 11.026 85.0414 10.9119 84.9406 10.8403C84.8397 10.766 84.7084 10.7288 84.5466 10.7288C84.3847 10.7288 84.2428 10.7673 84.1207 10.8442C83.9987 10.9212 83.9032 11.0326 83.8342 11.1785C83.7679 11.3245 83.7347 11.5022 83.7347 11.7118C83.7347 11.9188 83.7665 12.0965 83.8302 12.2451C83.8939 12.391 83.9854 12.5025 84.1048 12.5794C84.2242 12.6564 84.3675 12.6948 84.5346 12.6948C84.6965 12.6948 84.8358 12.6537 84.9525 12.5715C85.0719 12.4866 85.1568 12.3605 85.2072 12.1934L85.6131 12.3287Z" fill="black"/>
<path d="M89.6231 10.3985V10.7646H88.7237V13.0251H88.2979V10.7646H87.3984V10.3985H89.6231Z" fill="black"/>
<path d="M42.1403 2.10954V2.88923C42.0267 2.73373 41.8936 2.59391 41.7417 2.46933C41.5585 2.31993 41.3449 2.20145 41.1017 2.1152C40.8584 2.02939 40.5908 1.98627 40.2989 1.98627C39.7824 1.98627 39.322 2.11912 38.9173 2.38526C38.5131 2.65097 38.1933 3.01468 37.9574 3.47553C37.7212 3.93638 37.6037 4.46693 37.6037 5.06629C37.6037 5.66566 37.7198 6.19794 37.9518 6.66271C38.1841 7.12748 38.4983 7.49425 38.8951 7.76431C39.292 8.03394 39.7371 8.16897 40.2318 8.16897C40.5081 8.16897 40.7705 8.12584 41.0177 8.0396C41.2648 7.95335 41.4872 7.83705 41.6856 7.69113C41.8527 7.56829 41.9963 7.43065 42.1181 7.27819V8.05615H43.7237V2.1091H42.1403V2.10954ZM41.9771 5.971C41.854 6.22974 41.6799 6.43011 41.4554 6.57255C41.2309 6.71498 40.9685 6.78598 40.6696 6.78598C40.3706 6.78598 40.1209 6.71498 39.9003 6.57255C39.6792 6.43011 39.5056 6.22974 39.3777 5.971C39.2506 5.7127 39.1867 5.41084 39.1867 5.06629C39.1867 4.72174 39.2506 4.43295 39.3777 4.17813C39.5052 3.92331 39.6792 3.72295 39.9003 3.57659C40.1213 3.43067 40.3776 3.35749 40.6696 3.35749C40.9615 3.35749 41.2309 3.43067 41.4554 3.57659C41.6799 3.72295 41.854 3.92331 41.9771 4.17813C42.1012 4.43295 42.1625 4.72915 42.1625 5.06629C42.1625 5.40343 42.1007 5.7127 41.9771 5.971Z" fill="#EE4345"/>
<path d="M45.3298 0.609798V8.05657H46.9246V0.0648804L45.3298 0.609798Z" fill="#EE4345"/>
<path d="M53.6508 3.76216C53.5159 3.40236 53.3231 3.08961 53.072 2.82347C52.821 2.55776 52.5238 2.3513 52.1792 2.20494C51.835 2.05858 51.4608 1.98584 51.0561 1.98584C50.6218 1.98584 50.2193 2.06207 49.849 2.21626C49.4783 2.36959 49.1581 2.58695 48.8887 2.86834C48.6194 3.14929 48.4092 3.48077 48.26 3.86321C48.1098 4.24609 48.0354 4.66513 48.0354 5.12293C48.0354 5.71489 48.1703 6.23933 48.4397 6.69626C48.7094 7.15363 49.0837 7.51342 49.5632 7.77564C50.0418 8.0383 50.6036 8.16941 51.2471 8.16941C51.5169 8.16941 51.7897 8.13544 52.0673 8.06836C52.3436 8.00084 52.6134 7.90109 52.8754 7.77042C53.1373 7.6393 53.3771 7.47596 53.5942 7.28125L52.8305 6.2132C52.5834 6.41574 52.351 6.55818 52.1339 6.64007C51.9168 6.72327 51.6775 6.76421 51.4151 6.76421C51.0335 6.76421 50.7023 6.69103 50.4212 6.54468C50.1406 6.39876 49.9235 6.1949 49.7699 5.93225C49.6824 5.78327 49.6197 5.61819 49.5823 5.43742H53.8183L53.8292 4.94259C53.8444 4.51572 53.7843 4.12195 53.6499 3.76216H53.6508ZM49.7203 4.09974C49.8395 3.85232 50.0144 3.66502 50.242 3.5374C50.4704 3.4102 50.7493 3.34617 51.0787 3.34617C51.3032 3.34617 51.5056 3.39147 51.6853 3.4812C51.8654 3.57137 52.0129 3.699 52.1291 3.86321C52.2449 4.0283 52.3101 4.21212 52.3254 4.41423V4.45953H49.5958C49.6258 4.32885 49.6672 4.20907 49.7203 4.09974Z" fill="#EE4345"/>
<path d="M62.4217 2.48064C62.2272 1.98582 61.9478 1.55459 61.5849 1.18782C61.2216 0.82019 60.7986 0.535317 60.3156 0.333205C59.8331 0.130658 59.2992 0.0296021 58.7157 0.0296021C58.1322 0.0296021 57.6074 0.130658 57.1209 0.333205C56.634 0.535317 56.2089 0.82019 55.8464 1.18782C55.4831 1.55459 55.2042 1.98364 55.0092 2.47454C54.8147 2.96588 54.7173 3.50732 54.7173 4.09928C54.7173 4.69124 54.8143 5.22483 55.0092 5.72358C55.2037 6.22189 55.4831 6.65312 55.8464 7.01639C56.2089 7.38011 56.634 7.6628 57.1209 7.86535C57.6074 8.0679 58.1387 8.16895 58.7157 8.16895C59.2926 8.16895 59.8331 8.0679 60.3156 7.86535C60.7982 7.6628 61.2216 7.37837 61.5849 7.01073C61.9474 6.64397 62.2267 6.21274 62.4217 5.71791C62.6162 5.22309 62.7136 4.68383 62.7136 4.09928C62.7136 3.51472 62.6166 2.97503 62.4217 2.48064ZM60.8326 5.08849C60.7164 5.38818 60.5576 5.6504 60.3552 5.87516C60.1529 6.09992 59.9118 6.27241 59.6312 6.3922C59.3505 6.51242 59.0455 6.57253 58.7161 6.57253C58.3867 6.57253 58.083 6.51242 57.8062 6.3922C57.5291 6.27285 57.2854 6.09992 57.0761 5.87516C56.8668 5.6504 56.7075 5.38818 56.5988 5.08849C56.4904 4.78881 56.436 4.45907 56.436 4.09928C56.436 3.73948 56.49 3.40975 56.5988 3.11006C56.7071 2.81038 56.8664 2.5499 57.0761 2.32862C57.2854 2.10734 57.5295 1.93485 57.8062 1.81115C58.0826 1.68788 58.3858 1.62602 58.7161 1.62602C59.0464 1.62602 59.3505 1.68788 59.6312 1.81115C59.9118 1.93529 60.1529 2.10778 60.3552 2.32862C60.5576 2.5499 60.7164 2.80994 60.8326 3.11006C60.9487 3.40975 61.0066 3.73948 61.0066 4.09928C61.0066 4.45907 60.9487 4.78881 60.8326 5.08849Z" fill="#002F5D"/>
<path d="M67.7955 6.43752C67.6419 6.5499 67.4791 6.63397 67.3068 6.69016C67.1345 6.74635 66.9513 6.77467 66.7564 6.77467C66.457 6.77467 66.1877 6.69757 65.9475 6.54381C65.7082 6.39048 65.5189 6.18837 65.3805 5.93747C65.2422 5.68614 65.1734 5.39952 65.1734 5.07719C65.1734 4.75486 65.2404 4.45517 65.3753 4.20036C65.5102 3.94597 65.6956 3.74517 65.931 3.59881C66.1672 3.45289 66.4383 3.37971 66.7451 3.37971C66.9396 3.37971 67.1289 3.41369 67.3121 3.48077C67.4952 3.54829 67.6658 3.64019 67.8229 3.75649C67.98 3.8728 68.111 4.00216 68.2163 4.14417L69.0922 3.08787C68.845 2.74289 68.5004 2.47326 68.0592 2.27812C67.6171 2.08341 67.1306 1.98584 66.5993 1.98584C66.0297 1.98584 65.5211 2.12087 65.0716 2.3905C64.6225 2.66013 64.2688 3.02907 64.0103 3.49776C63.7523 3.96601 63.623 4.49263 63.623 5.07719C63.623 5.66175 63.7523 6.19795 64.0103 6.66272C64.2688 7.12749 64.623 7.49425 65.0716 7.76432C65.5211 8.03394 66.0297 8.16898 66.5993 8.16898C67.1006 8.16898 67.5762 8.06966 68.0257 7.87103C68.4747 7.67284 68.8267 7.41236 69.0809 7.08959L68.2163 6.0333C68.0888 6.19055 67.9487 6.32558 67.7951 6.43796L67.7955 6.43752Z" fill="#002F5D"/>
<path d="M75.325 3.76216C75.1901 3.40236 74.9973 3.08961 74.7467 2.82347C74.4956 2.55776 74.198 2.3513 73.8538 2.20494C73.5092 2.05858 73.135 1.98584 72.7303 1.98584C72.296 1.98584 71.8935 2.06207 71.5232 2.21626C71.1525 2.36959 70.8327 2.58695 70.5629 2.86834C70.2936 3.14929 70.0843 3.48077 69.9341 3.86321C69.784 4.24609 69.7096 4.66513 69.7096 5.12293C69.7096 5.71489 69.8445 6.23933 70.1143 6.69626C70.3836 7.15363 70.7578 7.51342 71.2374 7.77564C71.716 8.0383 72.2778 8.16941 72.9222 8.16941C73.1915 8.16941 73.4648 8.13544 73.742 8.06836C74.0183 8.00084 74.2885 7.90109 74.55 7.77042C74.8124 7.6393 75.0517 7.47596 75.2688 7.28125L74.5052 6.2132C74.258 6.41574 74.0257 6.55818 73.8085 6.64007C73.5914 6.72327 73.3521 6.76421 73.0897 6.76421C72.7081 6.76421 72.377 6.69103 72.0959 6.54468C71.8152 6.39876 71.5981 6.1949 71.4445 5.93225C71.357 5.78327 71.2944 5.61819 71.2569 5.43742H75.4929L75.5042 4.94259C75.519 4.51572 75.459 4.12195 75.3241 3.76216H75.325ZM71.3944 4.09974C71.5137 3.85232 71.6886 3.66502 71.917 3.5374C72.145 3.4102 72.4235 3.34617 72.7538 3.34617C72.9779 3.34617 73.1802 3.39147 73.3604 3.4812C73.5396 3.57137 73.6876 3.699 73.8037 3.86321C73.9199 4.0283 73.9852 4.21212 74 4.41423V4.45953H71.2709C71.3005 4.32885 71.3418 4.20907 71.3949 4.09974H71.3944Z" fill="#002F5D"/>
<path d="M80.8163 2.10954V2.88923C80.7027 2.73373 80.5704 2.59391 80.4177 2.46933C80.2345 2.31993 80.0213 2.20145 79.7781 2.1152C79.5344 2.02939 79.2672 1.98627 78.9748 1.98627C78.4583 1.98627 77.998 2.11912 77.5937 2.38526C77.189 2.65097 76.8688 3.01468 76.6334 3.47553C76.398 3.93638 76.2796 4.46693 76.2796 5.06629C76.2796 5.66566 76.3958 6.19794 76.6282 6.66271C76.8601 7.12748 77.1747 7.49425 77.5711 7.76431C77.9679 8.03394 78.4135 8.16897 78.9078 8.16897C79.185 8.16897 79.4465 8.12584 79.6936 8.0396C79.9408 7.95335 80.1631 7.83705 80.3616 7.69113C80.5278 7.56829 80.6722 7.43108 80.7941 7.2795V8.05659H82.4001V2.10954H80.8163ZM80.6535 5.971C80.5295 6.22974 80.3559 6.43011 80.131 6.57255C79.9064 6.71498 79.6445 6.78598 79.3451 6.78598C79.0457 6.78598 78.7964 6.71498 78.5758 6.57255C78.3552 6.43011 78.1811 6.22974 78.0541 5.971C77.9266 5.7127 77.8631 5.41084 77.8631 5.06629C77.8631 4.72174 77.9262 4.43295 78.0541 4.17813C78.1811 3.92331 78.3552 3.72295 78.5758 3.57659C78.7968 3.43067 79.0536 3.35749 79.3451 3.35749C79.6366 3.35749 79.9064 3.43067 80.131 3.57659C80.3555 3.72295 80.5295 3.92331 80.6535 4.17813C80.7767 4.43295 80.8389 4.72915 80.8389 5.06629C80.8389 5.40343 80.7767 5.7127 80.6535 5.971Z" fill="#002F5D"/>
<path d="M89.2221 3.07087C89.0685 2.70716 88.8405 2.43536 88.5372 2.25589C88.2339 2.07556 87.8575 1.98627 87.4085 1.98627C87.0791 1.98627 86.7645 2.05335 86.4655 2.18838C86.1657 2.32341 85.9094 2.50156 85.6962 2.72241C85.644 2.77685 85.5953 2.83261 85.5513 2.88967L85.5226 2.10997H83.9949V8.05702H85.5896V4.48217C85.5896 4.32493 85.6218 4.17857 85.6849 4.04397C85.7489 3.90894 85.835 3.78915 85.9434 3.68418C86.0517 3.5792 86.1827 3.49862 86.3367 3.44243C86.4899 3.38624 86.657 3.35836 86.8363 3.35836C87.0608 3.34312 87.2496 3.37927 87.4037 3.46464C87.5568 3.55089 87.6713 3.68418 87.7461 3.86364C87.821 4.04397 87.8584 4.26873 87.8584 4.53836V8.05702H89.4531V4.41466C89.4531 3.88281 89.3761 3.43502 89.2229 3.07175L89.2221 3.07087Z" fill="#002F5D"/>
<path d="M12.9471 13.065C15.8674 13.065 18.2348 10.6951 18.2348 7.77175C18.2348 4.84838 15.8674 2.47852 12.9471 2.47852C10.0268 2.47852 7.65945 4.84838 7.65945 7.77175C7.65945 10.6951 10.0268 13.065 12.9471 13.065Z" fill="#002F5D"/>
<path d="M14.749 0.0697152C14.612 0.496153 15.222 0.347182 17.4103 2.02898C18.7217 3.03736 19.4084 4.18164 19.2852 5.49798C18.9776 8.78447 13.9849 10.8613 7.98539 10.3508C1.89359 9.83206 0.328437 7.22159 0.032115 7.55612C-0.426075 8.196 4.05575 12.216 11.0935 12.1489C17.1109 12.0919 21.9782 9.14906 21.6889 5.84427C21.5218 3.93379 20.5079 2.87271 18.277 1.4013C17.3802 0.809774 14.8839 -0.285723 14.749 0.0692792V0.0697152Z" fill="#EE4345"/>
</svg>
