<svg width="90" height="80" viewBox="0 0 90 80" fill="none" xmlns="http://www.w3.org/2000/svg">
<g id="Frame 899">
<path id="Powered by" d="M34.1646 36V29H37.0146C37.3946 29 37.7379 29.0967 38.0446 29.29C38.3579 29.4767 38.6079 29.7333 38.7946 30.06C38.9812 30.3867 39.0746 30.75 39.0746 31.15C39.0746 31.55 38.9812 31.9133 38.7946 32.24C38.6079 32.5667 38.3579 32.83 38.0446 33.03C37.7379 33.2233 37.3946 33.32 37.0146 33.32H35.2446V36H34.1646ZM35.2446 32.28H36.9946C37.1746 32.28 37.3379 32.23 37.4846 32.13C37.6312 32.0233 37.7479 31.8867 37.8346 31.72C37.9279 31.5467 37.9746 31.3567 37.9746 31.15C37.9746 30.9433 37.9279 30.7567 37.8346 30.59C37.7479 30.4233 37.6312 30.29 37.4846 30.19C37.3379 30.09 37.1746 30.04 36.9946 30.04H35.2446V32.28ZM42.5048 36.1C41.9915 36.1 41.5315 35.9833 41.1248 35.75C40.7248 35.51 40.4081 35.1867 40.1748 34.78C39.9415 34.3667 39.8248 33.8967 39.8248 33.37C39.8248 32.8433 39.9415 32.3767 40.1748 31.97C40.4081 31.5567 40.7248 31.2333 41.1248 31C41.5315 30.76 41.9915 30.64 42.5048 30.64C43.0115 30.64 43.4648 30.76 43.8648 31C44.2715 31.2333 44.5915 31.5567 44.8248 31.97C45.0581 32.3767 45.1748 32.8433 45.1748 33.37C45.1748 33.8967 45.0581 34.3667 44.8248 34.78C44.5915 35.1867 44.2715 35.51 43.8648 35.75C43.4648 35.9833 43.0115 36.1 42.5048 36.1ZM42.5048 35.16C42.8181 35.16 43.0981 35.0833 43.3448 34.93C43.5915 34.77 43.7848 34.5567 43.9248 34.29C44.0648 34.0167 44.1315 33.71 44.1248 33.37C44.1315 33.0233 44.0648 32.7167 43.9248 32.45C43.7848 32.1767 43.5915 31.9633 43.3448 31.81C43.0981 31.6567 42.8181 31.58 42.5048 31.58C42.1915 31.58 41.9081 31.66 41.6548 31.82C41.4081 31.9733 41.2148 32.1867 41.0748 32.46C40.9348 32.7267 40.8681 33.03 40.8748 33.37C40.8681 33.71 40.9348 34.0167 41.0748 34.29C41.2148 34.5567 41.4081 34.77 41.6548 34.93C41.9081 35.0833 42.1915 35.16 42.5048 35.16ZM47.3918 36L45.6018 30.75L46.6418 30.74L47.9218 34.67L47.6918 34.65L49.0818 31.58H49.7018L51.1018 34.66L50.8318 34.68L52.1218 30.75H53.1618L51.3918 36H50.6818L49.2218 32.66L49.4518 32.69L48.0918 36H47.3918ZM56.4034 36.1C55.8634 36.1 55.3834 35.9867 54.9634 35.76C54.5501 35.5267 54.2234 35.21 53.9834 34.81C53.7501 34.41 53.6334 33.95 53.6334 33.43C53.6334 33.0167 53.7001 32.64 53.8334 32.3C53.9667 31.96 54.1501 31.6667 54.3834 31.42C54.6234 31.1667 54.9067 30.9733 55.2334 30.84C55.5667 30.7 55.9267 30.63 56.3134 30.63C56.6534 30.63 56.9701 30.6967 57.2634 30.83C57.5567 30.9567 57.8101 31.1333 58.0234 31.36C58.2434 31.5867 58.4101 31.8567 58.5234 32.17C58.6434 32.4767 58.7001 32.8133 58.6934 33.18L58.6834 33.62H54.3934L54.1634 32.8H57.7934L57.6434 32.97V32.73C57.6234 32.51 57.5501 32.3133 57.4234 32.14C57.2967 31.9667 57.1367 31.83 56.9434 31.73C56.7501 31.63 56.5401 31.58 56.3134 31.58C55.9534 31.58 55.6501 31.65 55.4034 31.79C55.1567 31.9233 54.9701 32.1233 54.8434 32.39C54.7167 32.65 54.6534 32.9733 54.6534 33.36C54.6534 33.7267 54.7301 34.0467 54.8834 34.32C55.0367 34.5867 55.2534 34.7933 55.5334 34.94C55.8134 35.0867 56.1367 35.16 56.5034 35.16C56.7634 35.16 57.0034 35.1167 57.2234 35.03C57.4501 34.9433 57.6934 34.7867 57.9534 34.56L58.4734 35.29C58.3134 35.45 58.1167 35.59 57.8834 35.71C57.6567 35.83 57.4134 35.9267 57.1534 36C56.9001 36.0667 56.6501 36.1 56.4034 36.1ZM59.8128 36V30.75H60.8528V32.4L60.7528 32C60.8261 31.7467 60.9494 31.5167 61.1228 31.31C61.3028 31.1033 61.5061 30.94 61.7328 30.82C61.9661 30.7 62.2061 30.64 62.4528 30.64C62.5661 30.64 62.6728 30.65 62.7728 30.67C62.8794 30.69 62.9628 30.7133 63.0228 30.74L62.7528 31.86C62.6728 31.8267 62.5828 31.8 62.4828 31.78C62.3894 31.7533 62.2961 31.74 62.2028 31.74C62.0228 31.74 61.8494 31.7767 61.6828 31.85C61.5228 31.9167 61.3794 32.0133 61.2528 32.14C61.1328 32.26 61.0361 32.4033 60.9628 32.57C60.8894 32.73 60.8528 32.9067 60.8528 33.1V36H59.8128ZM66.0714 36.1C65.5314 36.1 65.0514 35.9867 64.6314 35.76C64.218 35.5267 63.8914 35.21 63.6514 34.81C63.418 34.41 63.3014 33.95 63.3014 33.43C63.3014 33.0167 63.368 32.64 63.5014 32.3C63.6347 31.96 63.818 31.6667 64.0514 31.42C64.2914 31.1667 64.5747 30.9733 64.9014 30.84C65.2347 30.7 65.5947 30.63 65.9814 30.63C66.3214 30.63 66.638 30.6967 66.9314 30.83C67.2247 30.9567 67.478 31.1333 67.6914 31.36C67.9114 31.5867 68.078 31.8567 68.1914 32.17C68.3114 32.4767 68.368 32.8133 68.3614 33.18L68.3514 33.62H64.0614L63.8314 32.8H67.4614L67.3114 32.97V32.73C67.2914 32.51 67.218 32.3133 67.0914 32.14C66.9647 31.9667 66.8047 31.83 66.6114 31.73C66.418 31.63 66.208 31.58 65.9814 31.58C65.6214 31.58 65.318 31.65 65.0714 31.79C64.8247 31.9233 64.638 32.1233 64.5114 32.39C64.3847 32.65 64.3214 32.9733 64.3214 33.36C64.3214 33.7267 64.398 34.0467 64.5514 34.32C64.7047 34.5867 64.9214 34.7933 65.2014 34.94C65.4814 35.0867 65.8047 35.16 66.1714 35.16C66.4314 35.16 66.6714 35.1167 66.8914 35.03C67.118 34.9433 67.3614 34.7867 67.6214 34.56L68.1414 35.29C67.9814 35.45 67.7847 35.59 67.5514 35.71C67.3247 35.83 67.0814 35.9267 66.8214 36C66.568 36.0667 66.318 36.1 66.0714 36.1ZM71.6707 36.1C71.1907 36.1 70.7607 35.9833 70.3807 35.75C70.0074 35.51 69.7107 35.1867 69.4907 34.78C69.2707 34.3667 69.1607 33.8967 69.1607 33.37C69.1607 32.8433 69.2674 32.3767 69.4807 31.97C69.7007 31.5567 69.9974 31.2333 70.3707 31C70.7441 30.76 71.1674 30.64 71.6407 30.64C71.9007 30.64 72.1507 30.6833 72.3907 30.77C72.6374 30.85 72.8574 30.9633 73.0507 31.11C73.2441 31.25 73.3941 31.4067 73.5007 31.58C73.6141 31.7467 73.6707 31.9167 73.6707 32.09L73.3707 32.11V28.6H74.4007V36H73.3707V34.75H73.5707C73.5707 34.91 73.5174 35.07 73.4107 35.23C73.3041 35.3833 73.1607 35.5267 72.9807 35.66C72.8074 35.7933 72.6041 35.9 72.3707 35.98C72.1441 36.06 71.9107 36.1 71.6707 36.1ZM71.8107 35.21C72.1241 35.21 72.4007 35.13 72.6407 34.97C72.8807 34.81 73.0674 34.5933 73.2007 34.32C73.3407 34.04 73.4107 33.7233 73.4107 33.37C73.4107 33.0167 73.3407 32.7033 73.2007 32.43C73.0674 32.15 72.8807 31.93 72.6407 31.77C72.4007 31.61 72.1241 31.53 71.8107 31.53C71.4974 31.53 71.2207 31.61 70.9807 31.77C70.7407 31.93 70.5507 32.15 70.4107 32.43C70.2774 32.7033 70.2107 33.0167 70.2107 33.37C70.2107 33.7233 70.2774 34.04 70.4107 34.32C70.5507 34.5933 70.7407 34.81 70.9807 34.97C71.2207 35.13 71.4974 35.21 71.8107 35.21ZM81.3814 36.1C81.1547 36.1 80.928 36.0633 80.7014 35.99C80.4814 35.9167 80.278 35.82 80.0914 35.7C79.9114 35.5733 79.758 35.4367 79.6314 35.29C79.5114 35.1367 79.4314 34.9833 79.3914 34.83L79.6514 34.69V35.97H78.6214V28.6H79.6514V31.95L79.4914 31.86C79.5247 31.7067 79.598 31.56 79.7114 31.42C79.8247 31.2733 79.968 31.1433 80.1414 31.03C80.3214 30.91 80.5147 30.8167 80.7214 30.75C80.928 30.6767 81.138 30.64 81.3514 30.64C81.8247 30.64 82.2447 30.7567 82.6114 30.99C82.978 31.2233 83.268 31.5467 83.4814 31.96C83.6947 32.3667 83.8014 32.8333 83.8014 33.36C83.8014 33.8867 83.6947 34.3567 83.4814 34.77C83.2747 35.1833 82.988 35.51 82.6214 35.75C82.2547 35.9833 81.8414 36.1 81.3814 36.1ZM81.2114 35.16C81.518 35.16 81.7914 35.0833 82.0314 34.93C82.2714 34.77 82.4614 34.5567 82.6014 34.29C82.7414 34.0167 82.8114 33.7067 82.8114 33.36C82.8114 33.02 82.7414 32.7167 82.6014 32.45C82.468 32.1767 82.2814 31.9633 82.0414 31.81C81.8014 31.6567 81.5247 31.58 81.2114 31.58C80.898 31.58 80.6214 31.6567 80.3814 31.81C80.1414 31.9633 79.9514 32.1767 79.8114 32.45C79.6714 32.7167 79.6014 33.02 79.6014 33.36C79.6014 33.7067 79.6714 34.0167 79.8114 34.29C79.9514 34.5567 80.1414 34.77 80.3814 34.93C80.6214 35.0833 80.898 35.16 81.2114 35.16ZM85.6049 38.3L86.6649 35.85L86.6749 36.67L84.0549 30.75H85.2549L86.8949 34.61C86.9282 34.6767 86.9682 34.78 87.0149 34.92C87.0615 35.0533 87.1015 35.1867 87.1349 35.32L86.8749 35.38C86.9282 35.24 86.9782 35.1 87.0249 34.96C87.0782 34.82 87.1282 34.68 87.1749 34.54L88.5449 30.75H89.7649L87.6049 36L86.7149 38.3H85.6049Z" fill="#A6A6A6"/>
<g id="Main Logo">
<g id="Group">
<g id="Group_2">
<path id="Vector" d="M30.4271 46.7797C30.3 46.5209 30.1186 46.2962 29.8827 46.1049C29.6465 45.9137 29.3641 45.7508 29.0347 45.6158C28.7053 45.4808 28.3346 45.3723 27.9225 45.29C27.7054 45.2451 27.5074 45.1928 27.3277 45.1327C27.1484 45.0726 26.9944 45.0034 26.8673 44.9245C26.7398 44.8461 26.6428 44.7542 26.5749 44.6488C26.5079 44.5438 26.474 44.4245 26.474 44.2894C26.474 44.1169 26.5249 43.9706 26.6254 43.8504C26.7263 43.731 26.8669 43.6391 27.0466 43.5751C27.2267 43.511 27.4399 43.4797 27.6867 43.4797C27.9112 43.4797 28.1301 43.515 28.3437 43.5868C28.5569 43.6578 28.7549 43.765 28.9385 43.9065C29.1217 44.049 29.2923 44.2254 29.4494 44.4349L30.5163 43.4008C30.337 43.1081 30.1138 42.8607 29.8484 42.659C29.5821 42.4565 29.2696 42.301 28.9102 42.1921C28.5513 42.0836 28.1318 42.0292 27.6527 42.0292C27.2633 42.0292 26.8947 42.0854 26.5466 42.1977C26.1985 42.3097 25.8917 42.4713 25.6255 42.6808C25.36 42.8903 25.152 43.1399 25.0028 43.4283C24.8527 43.7171 24.7783 44.0298 24.7783 44.3674C24.7783 44.705 24.8283 44.9929 24.9297 45.2551C25.0306 45.5178 25.186 45.7521 25.3953 45.9577C25.6054 46.1642 25.8669 46.3367 26.1815 46.4752C26.4957 46.6137 26.8625 46.7318 27.282 46.8289C27.4765 46.8589 27.6562 46.8982 27.8207 46.9469C27.9856 46.9962 28.1353 47.0523 28.2702 47.1155C28.4051 47.1795 28.5212 47.2505 28.6183 47.3294C28.7153 47.4078 28.7906 47.4975 28.8428 47.599C28.895 47.7001 28.9211 47.8107 28.9211 47.9305C28.9211 48.0956 28.8689 48.238 28.764 48.3578C28.6587 48.4771 28.5147 48.5695 28.3315 48.6331C28.1483 48.6971 27.9403 48.7285 27.708 48.7285C27.2816 48.7285 26.8865 48.6366 26.5236 48.4532C26.1602 48.2694 25.7956 47.9231 25.4283 47.413L24.3732 48.6157C24.6203 48.9458 24.8988 49.2268 25.2099 49.459C25.5202 49.6911 25.8757 49.8675 26.2768 49.9869C26.6772 50.1071 27.1206 50.1672 27.6075 50.1672C28.2062 50.1672 28.7305 50.0679 29.1796 49.8693C29.6286 49.6711 29.9802 49.3845 30.2348 49.0094C30.4893 48.6348 30.6164 48.1814 30.6164 47.6491C30.6164 47.3272 30.5533 47.0367 30.4254 46.7784L30.4271 46.7797Z" fill="#EE4345"/>
<path id="Vector_2" d="M35.6999 48.4375C35.5463 48.5499 35.3836 48.634 35.2113 48.6902C35.0389 48.7464 34.8558 48.7747 34.6608 48.7747C34.3614 48.7747 34.0921 48.6976 33.8528 48.5438C33.613 48.3905 33.4242 48.1884 33.2854 47.9375C33.147 47.6861 33.0774 47.3995 33.0774 47.0772C33.0774 46.7549 33.1444 46.4552 33.2797 46.2004C33.4146 45.946 33.5991 45.7452 33.8354 45.5988C34.0708 45.4529 34.3427 45.3797 34.6495 45.3797C34.8436 45.3797 35.0329 45.4137 35.216 45.4808C35.3997 45.5483 35.5698 45.6402 35.7269 45.7565C35.8844 45.8728 36.0154 46.0022 36.1202 46.1442L36.9962 45.0879C36.749 44.7429 36.4048 44.4733 35.9632 44.2781C35.5215 44.0834 35.035 43.9858 34.5033 43.9858C33.9346 43.9858 33.4251 44.1209 32.9756 44.3905C32.5265 44.6601 32.1728 45.0291 31.9147 45.4978C31.6563 45.966 31.527 46.4926 31.527 47.0772C31.527 47.6617 31.6563 48.198 31.9147 48.6627C32.1728 49.1275 32.5265 49.4943 32.9756 49.7643C33.4251 50.0339 33.9342 50.169 34.5033 50.169C35.0046 50.169 35.4802 50.0697 35.9297 49.871C36.3791 49.6728 36.7307 49.4124 36.9857 49.0896L36.1207 48.0333C35.9936 48.1905 35.8531 48.3256 35.6995 48.438L35.6999 48.4375Z" fill="#EE4345"/>
<g id="ACCELERATE IMPACT">
<path d="M26.7298 55.0251H26.28L26.0293 54.3366H24.9269L24.6762 55.0251H24.2384L25.2294 52.3985H25.7388L26.7298 55.0251ZM25.0463 53.9904H25.9099L25.4801 52.7646L25.0463 53.9904Z" fill="black"/>
<path d="M30.7915 54.3287C30.7384 54.4879 30.6589 54.6232 30.5527 54.7346C30.4466 54.8434 30.3219 54.9257 30.1786 54.9814C30.0354 55.0371 29.8775 55.0649 29.705 55.0649C29.453 55.0649 29.2341 55.0106 29.0484 54.9018C28.8627 54.793 28.7194 54.6378 28.6186 54.4361C28.5177 54.2345 28.4673 53.9931 28.4673 53.7118C28.4673 53.4306 28.5177 53.1891 28.6186 52.9875C28.7194 52.7859 28.8627 52.6307 29.0484 52.5219C29.2341 52.4131 29.4517 52.3587 29.7011 52.3587C29.8735 52.3587 30.0287 52.3826 30.1667 52.4303C30.3073 52.4781 30.4267 52.5497 30.5249 52.6452C30.623 52.7408 30.6987 52.8602 30.7517 53.0034L30.3498 53.1825C30.2967 53.026 30.2198 52.9119 30.1189 52.8403C30.0181 52.766 29.8868 52.7288 29.7249 52.7288C29.5631 52.7288 29.4211 52.7673 29.2991 52.8442C29.1771 52.9212 29.0815 53.0326 29.0126 53.1785C28.9462 53.3245 28.9131 53.5022 28.9131 53.7118C28.9131 53.9188 28.9449 54.0965 29.0086 54.2451C29.0723 54.391 29.1638 54.5025 29.2832 54.5794C29.4026 54.6564 29.5458 54.6948 29.713 54.6948C29.8748 54.6948 30.0141 54.6537 30.1309 54.5715C30.2503 54.4866 30.3352 54.3605 30.3856 54.1934L30.7915 54.3287Z" fill="black"/>
<path d="M35.0244 54.3287C34.9713 54.4879 34.8917 54.6232 34.7856 54.7346C34.6795 54.8434 34.5548 54.9257 34.4115 54.9814C34.2682 55.0371 34.1104 55.0649 33.9379 55.0649C33.6858 55.0649 33.467 55.0106 33.2812 54.9018C33.0955 54.793 32.9522 54.6378 32.8514 54.4361C32.7506 54.2345 32.7002 53.9931 32.7002 53.7118C32.7002 53.4306 32.7506 53.1891 32.8514 52.9875C32.9522 52.7859 33.0955 52.6307 33.2812 52.5219C33.467 52.4131 33.6845 52.3587 33.9339 52.3587C34.1064 52.3587 34.2616 52.3826 34.3995 52.4303C34.5402 52.4781 34.6596 52.5497 34.7577 52.6452C34.8559 52.7408 34.9315 52.8602 34.9846 53.0034L34.5826 53.1825C34.5296 53.026 34.4526 52.9119 34.3518 52.8403C34.251 52.766 34.1196 52.7288 33.9578 52.7288C33.7959 52.7288 33.654 52.7673 33.532 52.8442C33.4099 52.9212 33.3144 53.0326 33.2454 53.1785C33.1791 53.3245 33.1459 53.5022 33.1459 53.7118C33.1459 53.9188 33.1778 54.0965 33.2414 54.2451C33.3051 54.391 33.3966 54.5025 33.516 54.5794C33.6354 54.6564 33.7787 54.6948 33.9459 54.6948C34.1077 54.6948 34.247 54.6537 34.3637 54.5715C34.4831 54.4866 34.568 54.3605 34.6184 54.1934L35.0244 54.3287Z" fill="black"/>
<path d="M37.0803 55.0251V52.3985H38.9826V52.7646H37.5061V53.5208H38.6603V53.879H37.5061V54.659H39.0383V55.0251H37.0803Z" fill="black"/>
<path d="M41.5485 54.659H42.9972V55.0251H41.1227V52.3985H41.5485V54.659Z" fill="black"/>
<path d="M45.0174 55.0251V52.3985H46.9198V52.7646H45.4433V53.5208H46.5974V53.879H45.4433V54.659H46.9755V55.0251H45.0174Z" fill="black"/>
<path d="M50.1304 52.3985C50.4117 52.3985 50.6345 52.4688 50.799 52.6094C50.9662 52.75 51.0498 52.9397 51.0498 53.1785C51.0498 53.4253 50.9662 53.6163 50.799 53.7516C50.6345 53.8843 50.4117 53.9506 50.1304 53.9506L50.0906 53.9745H49.4817V55.0251H49.0599V52.3985H50.1304ZM50.0986 53.6203C50.271 53.6203 50.3984 53.5858 50.4806 53.5168C50.5655 53.4452 50.608 53.3364 50.608 53.1905C50.608 53.0472 50.5655 52.9397 50.4806 52.8681C50.3984 52.7965 50.271 52.7607 50.0986 52.7607H49.4817V53.6203H50.0986ZM50.3493 53.7078L51.205 55.0251H50.7155L49.9832 53.875L50.3493 53.7078Z" fill="black"/>
<path d="M55.427 55.0251H54.9773L54.7266 54.3366H53.6242L53.3734 55.0251H52.9357L53.9266 52.3985H54.436L55.427 55.0251ZM53.7436 53.9904H54.6072L54.1774 52.7646L53.7436 53.9904Z" fill="black"/>
<path d="M59.0094 52.3985V52.7646H58.11V55.0251H57.6841V52.7646H56.7847V52.3985H59.0094Z" fill="black"/>
<path d="M61.0317 55.0251V52.3985H62.934V52.7646H61.4575V53.5208H62.6116V53.879H61.4575V54.659H62.9897V55.0251H61.0317Z" fill="black"/>
<path d="M68.3064 52.3985V55.0251H67.8806V52.3985H68.3064Z" fill="black"/>
<path d="M73.2841 52.3985V55.0251H72.8901V53.5049L72.9219 52.7806H72.9179L72.118 55.0251H71.7638L70.9639 52.7806H70.9599L70.9917 53.5049V55.0251H70.5977V52.3985H71.2305L71.7598 53.9188L71.9429 54.5436H71.9508L72.1379 53.9188L72.6632 52.3985H73.2841Z" fill="black"/>
<path d="M76.5877 52.3985C76.776 52.3985 76.9379 52.4317 77.0732 52.498C77.2112 52.5643 77.3186 52.6585 77.3955 52.7806C77.4725 52.9026 77.511 53.0499 77.511 53.2223C77.511 53.3921 77.4725 53.5394 77.3955 53.6641C77.3186 53.7861 77.2112 53.8803 77.0732 53.9466C76.9379 54.013 76.776 54.0461 76.5877 54.0461H76.0026V55.0251H75.5768V52.3985H76.5877ZM76.52 53.68C76.7084 53.68 76.8463 53.6415 76.9339 53.5646C77.0241 53.485 77.0692 53.3709 77.0692 53.2223C77.0692 53.0711 77.0241 52.957 76.9339 52.8801C76.8463 52.8005 76.7084 52.7607 76.52 52.7607H76.0026V53.68H76.52Z" fill="black"/>
<path d="M81.5514 55.0251H81.1017L80.8509 54.3366H79.7486L79.4978 55.0251H79.0601L80.051 52.3985H80.5604L81.5514 55.0251ZM79.8679 53.9904H80.7316L80.3017 52.7646L79.8679 53.9904Z" fill="black"/>
<path d="M85.6131 54.3287C85.5601 54.4879 85.4805 54.6232 85.3744 54.7346C85.2682 54.8434 85.1435 54.9257 85.0003 54.9814C84.857 55.0371 84.6991 55.0649 84.5267 55.0649C84.2746 55.0649 84.0557 55.0106 83.87 54.9018C83.6843 54.793 83.541 54.6378 83.4402 54.4361C83.3394 54.2345 83.289 53.9931 83.289 53.7118C83.289 53.4306 83.3394 53.1891 83.4402 52.9875C83.541 52.7859 83.6843 52.6307 83.87 52.5219C84.0557 52.4131 84.2733 52.3587 84.5227 52.3587C84.6951 52.3587 84.8504 52.3826 84.9883 52.4303C85.1289 52.4781 85.2483 52.5497 85.3465 52.6452C85.4447 52.7408 85.5203 52.8602 85.5733 53.0034L85.1714 53.1825C85.1183 53.026 85.0414 52.9119 84.9406 52.8403C84.8397 52.766 84.7084 52.7288 84.5466 52.7288C84.3847 52.7288 84.2428 52.7673 84.1207 52.8442C83.9987 52.9212 83.9032 53.0326 83.8342 53.1785C83.7679 53.3245 83.7347 53.5022 83.7347 53.7118C83.7347 53.9188 83.7665 54.0965 83.8302 54.2451C83.8939 54.391 83.9854 54.5025 84.1048 54.5794C84.2242 54.6564 84.3675 54.6948 84.5346 54.6948C84.6965 54.6948 84.8358 54.6537 84.9525 54.5715C85.0719 54.4866 85.1568 54.3605 85.2072 54.1934L85.6131 54.3287Z" fill="black"/>
<path d="M89.6231 52.3985V52.7646H88.7237V55.0251H88.2979V52.7646H87.3984V52.3985H89.6231Z" fill="black"/>
</g>
<path id="Vector_3" d="M42.1403 44.1095V44.8892C42.0267 44.7337 41.8936 44.5939 41.7417 44.4693C41.5585 44.3199 41.3449 44.2014 41.1017 44.1152C40.8584 44.0294 40.5908 43.9863 40.2989 43.9863C39.7824 43.9863 39.322 44.1191 38.9173 44.3853C38.5131 44.651 38.1933 45.0147 37.9574 45.4755C37.7212 45.9364 37.6037 46.4669 37.6037 47.0663C37.6037 47.6657 37.7198 48.1979 37.9518 48.6627C38.1841 49.1275 38.4983 49.4942 38.8951 49.7643C39.292 50.0339 39.7371 50.169 40.2318 50.169C40.5081 50.169 40.7705 50.1258 41.0177 50.0396C41.2648 49.9534 41.4872 49.8371 41.6856 49.6911C41.8527 49.5683 41.9963 49.4306 42.1181 49.2782V50.0561H43.7237V44.1091H42.1403V44.1095ZM41.9771 47.971C41.854 48.2297 41.6799 48.4301 41.4554 48.5725C41.2309 48.715 40.9685 48.786 40.6696 48.786C40.3706 48.786 40.1209 48.715 39.9003 48.5725C39.6792 48.4301 39.5056 48.2297 39.3777 47.971C39.2506 47.7127 39.1867 47.4108 39.1867 47.0663C39.1867 46.7217 39.2506 46.4329 39.3777 46.1781C39.5052 45.9233 39.6792 45.7229 39.9003 45.5766C40.1213 45.4307 40.3776 45.3575 40.6696 45.3575C40.9615 45.3575 41.2309 45.4307 41.4554 45.5766C41.6799 45.7229 41.854 45.9233 41.9771 46.1781C42.1012 46.4329 42.1625 46.7291 42.1625 47.0663C42.1625 47.4034 42.1007 47.7127 41.9771 47.971Z" fill="#EE4345"/>
<path id="Vector_4" d="M45.3298 42.6098V50.0566H46.9246V42.0649L45.3298 42.6098Z" fill="#EE4345"/>
<path id="Vector_5" d="M53.6508 45.7622C53.5159 45.4024 53.3231 45.0896 53.072 44.8235C52.821 44.5578 52.5238 44.3513 52.1792 44.2049C51.835 44.0586 51.4608 43.9858 51.0561 43.9858C50.6218 43.9858 50.2193 44.0621 49.849 44.2163C49.4783 44.3696 49.1581 44.5869 48.8887 44.8683C48.6194 45.1493 48.4092 45.4808 48.26 45.8632C48.1098 46.2461 48.0354 46.6651 48.0354 47.1229C48.0354 47.7149 48.1703 48.2393 48.4397 48.6963C48.7094 49.1536 49.0837 49.5134 49.5632 49.7756C50.0418 50.0383 50.6036 50.1694 51.2471 50.1694C51.5169 50.1694 51.7897 50.1354 52.0673 50.0684C52.3436 50.0008 52.6134 49.9011 52.8754 49.7704C53.1373 49.6393 53.3771 49.476 53.5942 49.2813L52.8305 48.2132C52.5834 48.4157 52.351 48.5582 52.1339 48.6401C51.9168 48.7233 51.6775 48.7642 51.4151 48.7642C51.0335 48.7642 50.7023 48.691 50.4212 48.5447C50.1406 48.3988 49.9235 48.1949 49.7699 47.9322C49.6824 47.7833 49.6197 47.6182 49.5823 47.4374H53.8183L53.8292 46.9426C53.8444 46.5157 53.7843 46.122 53.6499 45.7622H53.6508ZM49.7203 46.0997C49.8395 45.8523 50.0144 45.665 50.242 45.5374C50.4704 45.4102 50.7493 45.3462 51.0787 45.3462C51.3032 45.3462 51.5056 45.3915 51.6853 45.4812C51.8654 45.5714 52.0129 45.699 52.1291 45.8632C52.2449 46.0283 52.3101 46.2121 52.3254 46.4142V46.4595H49.5958C49.6258 46.3289 49.6672 46.2091 49.7203 46.0997Z" fill="#EE4345"/>
<path id="Vector_6" d="M62.4217 44.4806C62.2272 43.9858 61.9478 43.5546 61.5849 43.1878C61.2216 42.8202 60.7986 42.5353 60.3156 42.3332C59.8331 42.1307 59.2992 42.0296 58.7157 42.0296C58.1322 42.0296 57.6074 42.1307 57.1209 42.3332C56.634 42.5353 56.2089 42.8202 55.8464 43.1878C55.4831 43.5546 55.2042 43.9836 55.0092 44.4745C54.8147 44.9659 54.7173 45.5073 54.7173 46.0993C54.7173 46.6912 54.8143 47.2248 55.0092 47.7236C55.2037 48.2219 55.4831 48.6531 55.8464 49.0164C56.2089 49.3801 56.634 49.6628 57.1209 49.8654C57.6074 50.0679 58.1387 50.169 58.7157 50.169C59.2926 50.169 59.8331 50.0679 60.3156 49.8654C60.7982 49.6628 61.2216 49.3784 61.5849 49.0107C61.9474 48.644 62.2267 48.2127 62.4217 47.7179C62.6162 47.2231 62.7136 46.6838 62.7136 46.0993C62.7136 45.5147 62.6166 44.975 62.4217 44.4806ZM60.8326 47.0885C60.7164 47.3882 60.5576 47.6504 60.3552 47.8752C60.1529 48.0999 59.9118 48.2724 59.6312 48.3922C59.3505 48.5124 59.0455 48.5725 58.7161 48.5725C58.3867 48.5725 58.083 48.5124 57.8062 48.3922C57.5291 48.2728 57.2854 48.0999 57.0761 47.8752C56.8668 47.6504 56.7075 47.3882 56.5988 47.0885C56.4904 46.7888 56.436 46.4591 56.436 46.0993C56.436 45.7395 56.49 45.4097 56.5988 45.1101C56.7071 44.8104 56.8664 44.5499 57.0761 44.3286C57.2854 44.1073 57.5295 43.9349 57.8062 43.8111C58.0826 43.6879 58.3858 43.626 58.7161 43.626C59.0464 43.626 59.3505 43.6879 59.6312 43.8111C59.9118 43.9353 60.1529 44.1078 60.3552 44.3286C60.5576 44.5499 60.7164 44.8099 60.8326 45.1101C60.9487 45.4097 61.0066 45.7395 61.0066 46.0993C61.0066 46.4591 60.9487 46.7888 60.8326 47.0885Z" fill="#002F5D"/>
<path id="Vector_7" d="M67.7955 48.4375C67.6419 48.5499 67.4791 48.634 67.3068 48.6902C67.1345 48.7464 66.9513 48.7747 66.7564 48.7747C66.457 48.7747 66.1877 48.6976 65.9475 48.5438C65.7082 48.3905 65.5189 48.1884 65.3805 47.9375C65.2422 47.6861 65.1734 47.3995 65.1734 47.0772C65.1734 46.7549 65.2404 46.4552 65.3753 46.2004C65.5102 45.946 65.6956 45.7452 65.931 45.5988C66.1672 45.4529 66.4383 45.3797 66.7451 45.3797C66.9396 45.3797 67.1289 45.4137 67.3121 45.4808C67.4952 45.5483 67.6658 45.6402 67.8229 45.7565C67.98 45.8728 68.111 46.0022 68.2163 46.1442L69.0922 45.0879C68.845 44.7429 68.5004 44.4733 68.0592 44.2781C67.6171 44.0834 67.1306 43.9858 66.5993 43.9858C66.0297 43.9858 65.5211 44.1209 65.0716 44.3905C64.6225 44.6601 64.2688 45.0291 64.0103 45.4978C63.7523 45.966 63.623 46.4926 63.623 47.0772C63.623 47.6617 63.7523 48.198 64.0103 48.6627C64.2688 49.1275 64.623 49.4943 65.0716 49.7643C65.5211 50.0339 66.0297 50.169 66.5993 50.169C67.1006 50.169 67.5762 50.0697 68.0257 49.871C68.4747 49.6728 68.8267 49.4124 69.0809 49.0896L68.2163 48.0333C68.0888 48.1905 67.9487 48.3256 67.7951 48.438L67.7955 48.4375Z" fill="#002F5D"/>
<path id="Vector_8" d="M75.325 45.7622C75.1901 45.4024 74.9973 45.0896 74.7467 44.8235C74.4956 44.5578 74.198 44.3513 73.8538 44.2049C73.5092 44.0586 73.135 43.9858 72.7303 43.9858C72.296 43.9858 71.8935 44.0621 71.5232 44.2163C71.1525 44.3696 70.8327 44.5869 70.5629 44.8683C70.2936 45.1493 70.0843 45.4808 69.9341 45.8632C69.784 46.2461 69.7096 46.6651 69.7096 47.1229C69.7096 47.7149 69.8445 48.2393 70.1143 48.6963C70.3836 49.1536 70.7578 49.5134 71.2374 49.7756C71.716 50.0383 72.2778 50.1694 72.9222 50.1694C73.1915 50.1694 73.4648 50.1354 73.742 50.0684C74.0183 50.0008 74.2885 49.9011 74.55 49.7704C74.8124 49.6393 75.0517 49.476 75.2688 49.2813L74.5052 48.2132C74.258 48.4157 74.0257 48.5582 73.8085 48.6401C73.5914 48.7233 73.3521 48.7642 73.0897 48.7642C72.7081 48.7642 72.377 48.691 72.0959 48.5447C71.8152 48.3988 71.5981 48.1949 71.4445 47.9322C71.357 47.7833 71.2944 47.6182 71.2569 47.4374H75.4929L75.5042 46.9426C75.519 46.5157 75.459 46.122 75.3241 45.7622H75.325ZM71.3944 46.0997C71.5137 45.8523 71.6886 45.665 71.917 45.5374C72.145 45.4102 72.4235 45.3462 72.7538 45.3462C72.9779 45.3462 73.1802 45.3915 73.3604 45.4812C73.5396 45.5714 73.6876 45.699 73.8037 45.8632C73.9199 46.0283 73.9852 46.2121 74 46.4142V46.4595H71.2709C71.3005 46.3289 71.3418 46.2091 71.3949 46.0997H71.3944Z" fill="#002F5D"/>
<path id="Vector_9" d="M80.8163 44.1095V44.8892C80.7027 44.7337 80.5704 44.5939 80.4177 44.4693C80.2345 44.3199 80.0213 44.2014 79.7781 44.1152C79.5344 44.0294 79.2672 43.9863 78.9748 43.9863C78.4583 43.9863 77.998 44.1191 77.5937 44.3853C77.189 44.651 76.8688 45.0147 76.6334 45.4755C76.398 45.9364 76.2796 46.4669 76.2796 47.0663C76.2796 47.6657 76.3958 48.1979 76.6282 48.6627C76.8601 49.1275 77.1747 49.4942 77.5711 49.7643C77.9679 50.0339 78.4135 50.169 78.9078 50.169C79.185 50.169 79.4465 50.1258 79.6936 50.0396C79.9408 49.9534 80.1631 49.8371 80.3616 49.6911C80.5278 49.5683 80.6722 49.4311 80.7941 49.2795V50.0566H82.4001V44.1095H80.8163ZM80.6535 47.971C80.5295 48.2297 80.3559 48.4301 80.131 48.5725C79.9064 48.715 79.6445 48.786 79.3451 48.786C79.0457 48.786 78.7964 48.715 78.5758 48.5725C78.3552 48.4301 78.1811 48.2297 78.0541 47.971C77.9266 47.7127 77.8631 47.4108 77.8631 47.0663C77.8631 46.7217 77.9262 46.4329 78.0541 46.1781C78.1811 45.9233 78.3552 45.7229 78.5758 45.5766C78.7968 45.4307 79.0536 45.3575 79.3451 45.3575C79.6366 45.3575 79.9064 45.4307 80.131 45.5766C80.3555 45.7229 80.5295 45.9233 80.6535 46.1781C80.7767 46.4329 80.8389 46.7291 80.8389 47.0663C80.8389 47.4034 80.7767 47.7127 80.6535 47.971Z" fill="#002F5D"/>
<path id="Vector_10" d="M89.2221 45.0709C89.0685 44.7072 88.8405 44.4354 88.5372 44.2559C88.2339 44.0756 87.8575 43.9863 87.4085 43.9863C87.0791 43.9863 86.7645 44.0533 86.4655 44.1884C86.1657 44.3234 85.9094 44.5016 85.6962 44.7224C85.644 44.7769 85.5953 44.8326 85.5513 44.8897L85.5226 44.11H83.9949V50.057H85.5896V46.4822C85.5896 46.3249 85.6218 46.1786 85.6849 46.044C85.7489 45.9089 85.835 45.7892 85.9434 45.6842C86.0517 45.5792 86.1827 45.4986 86.3367 45.4424C86.4899 45.3862 86.657 45.3584 86.8363 45.3584C87.0608 45.3431 87.2496 45.3793 87.4037 45.4646C87.5568 45.5509 87.6713 45.6842 87.7461 45.8636C87.821 46.044 87.8584 46.2687 87.8584 46.5384V50.057H89.4531V46.4147C89.4531 45.8828 89.3761 45.435 89.2229 45.0717L89.2221 45.0709Z" fill="#002F5D"/>
</g>
<g id="Group_3">
<path id="Vector_11" d="M12.9471 55.065C15.8674 55.065 18.2348 52.6951 18.2348 49.7717C18.2348 46.8484 15.8674 44.4785 12.9471 44.4785C10.0268 44.4785 7.65945 46.8484 7.65945 49.7717C7.65945 52.6951 10.0268 55.065 12.9471 55.065Z" fill="#002F5D"/>
<path id="Vector_12" d="M14.749 42.0697C14.612 42.4962 15.222 42.3472 17.4103 44.029C18.7217 45.0374 19.4084 46.1816 19.2852 47.498C18.9776 50.7845 13.9849 52.8613 7.98539 52.3508C1.89359 51.8321 0.328437 49.2216 0.032115 49.5561C-0.426075 50.196 4.05575 54.216 11.0935 54.1489C17.1109 54.0919 21.9782 51.1491 21.6889 47.8443C21.5218 45.9338 20.5079 44.8727 18.277 43.4013C17.3802 42.8098 14.8839 41.7143 14.749 42.0693V42.0697Z" fill="#EE4345"/>
</g>
</g>
</g>
</g>
</svg>
