<svg width="16" height="16" viewBox="0 0 16 16" fill="none" xmlns="http://www.w3.org/2000/svg">
<rect width="16" height="16" rx="8" fill="#1798EE"/>
<mask id="mask0_797_14919" style="mask-type:alpha" maskUnits="userSpaceOnUse" x="2" y="2" width="12" height="12">
<rect x="2.28577" y="2.28564" width="11.4286" height="11.4286" fill="#D9D9D9"/>
</mask>
<g mask="url(#mask0_797_14919)">
<path d="M7.99995 7.99994C8.26186 7.99994 8.48606 7.90669 8.67257 7.72018C8.85908 7.53367 8.95233 7.30947 8.95233 7.04756C8.95233 6.78566 8.85908 6.56145 8.67257 6.37494C8.48606 6.18843 8.26186 6.09518 7.99995 6.09518C7.73805 6.09518 7.51384 6.18843 7.32733 6.37494C7.14083 6.56145 7.04757 6.78566 7.04757 7.04756C7.04757 7.30947 7.14083 7.53367 7.32733 7.72018C7.51384 7.90669 7.73805 7.99994 7.99995 7.99994ZM7.99995 12.7618C6.72218 11.6745 5.76781 10.6646 5.13686 9.73208C4.50591 8.79954 4.19043 7.93645 4.19043 7.1428C4.19043 5.95232 4.57337 5.00391 5.33924 4.29756C6.10511 3.59121 6.99202 3.23804 7.99995 3.23804C9.00789 3.23804 9.89479 3.59121 10.6607 4.29756C11.4265 5.00391 11.8095 5.95232 11.8095 7.1428C11.8095 7.93645 11.494 8.79954 10.863 9.73208C10.2321 10.6646 9.27773 11.6745 7.99995 12.7618Z" fill="white"/>
</g>
</svg>
