<svg width="85" height="76" viewBox="0 0 85 76" fill="none" xmlns="http://www.w3.org/2000/svg">
<path d="M37.0007 68.5471L29.6171 64.2656L29.6347 70.7157L37.0007 74.9982V68.5471Z" fill="#E67C25"/>
<path d="M73.612 47.4057L66.2418 43.1211L29.617 64.2671L37.0006 68.5486L73.612 47.4057Z" fill="#FCBC68"/>
<path d="M37.0005 68.5492V75.0003L73.6294 53.8553L73.6119 47.4062L37.0005 68.5492Z" fill="#F4AB2A"/>
<path d="M7.75629 51.8177L0.370605 47.5352L0.389194 53.9832L7.75629 58.2667V51.8177Z" fill="#E67C25"/>
<path d="M44.3656 30.6731L36.9954 26.3906L0.370605 47.5356L7.75629 51.8181L44.3656 30.6731Z" fill="#FCBC68"/>
<path d="M7.75635 51.8169V58.2659L44.3853 37.122L44.3657 30.6719L7.75635 51.8169Z" fill="#F4AB2A"/>
<path d="M37.0004 62.2825L44.3851 58L44.3654 64.4501L37.0004 68.7326V62.2825Z" fill="#F4AB2A"/>
<path d="M0.389229 41.139L7.75839 36.8555L44.3852 58.0015L37.0006 62.284L0.389229 41.139Z" fill="#FCBC68"/>
<path d="M37.0006 62.2856V68.7357L0.370605 47.5907L0.389194 41.1406L37.0006 62.2856Z" fill="#E67C25"/>
<path d="M51.6192 53.8499L59.0028 49.5664L58.9863 56.0165L51.6192 60.3V53.8499Z" fill="#F4AB2A"/>
<path d="M15.009 32.7054L22.3792 28.4219L59.0029 49.5648L51.6193 53.8484L15.009 32.7054Z" fill="#FCBC68"/>
<path d="M51.6194 53.85V60.3001L14.9894 39.153L15.009 32.707L51.6194 53.85Z" fill="#E67C25"/>
<path d="M66.2375 45.4085L73.6232 41.125L73.6015 47.574L66.2375 51.8586V45.4085Z" fill="#F4AB2A"/>
<path d="M29.6271 24.264L36.9972 19.9805L73.6231 41.1255L66.2374 45.409L29.6271 24.264Z" fill="#FCBC68"/>
<path d="M66.2374 45.4106V51.8607L29.6084 30.7157L29.627 24.2656L66.2374 45.4106Z" fill="#E67C25"/>
<path d="M37.731 14.3047L13.0089 28.5771L38.2708 43.1661L62.9857 28.8937L63.0001 28.8865L37.731 14.3047Z" fill="#FCBC68"/>
<path d="M37.7294 14.6875L13.6766 28.5784L38.2763 42.678L62.3291 28.8951L37.7294 14.6875Z" fill="#FCBC68"/>
<path d="M38.2692 43.1672V56.2232L27.4231 50.0119L23.0329 47.5L13.0001 41.7565V28.5781L38.2692 43.1672Z" fill="#E67C25"/>
<path d="M38.269 43.1669V56.2229L62.9767 42.0441V28.8945L38.269 43.1669Z" fill="#F79831"/>
<path d="M37.731 0L13.0089 14.2724L38.2708 28.8614L62.9857 14.5891L63.0001 14.5819L37.731 0Z" fill="#FCBC68"/>
<path d="M37.7294 0.382812L13.6766 14.2737L38.2763 28.3733L62.3291 14.5904L37.7294 0.382812Z" fill="#FCBC68"/>
<path d="M38.2692 28.8625V41.9185L27.4231 35.7072L23.0329 33.1953L13.0001 27.4518V14.2734L38.2692 28.8625Z" fill="#E67C25"/>
<path d="M38.269 28.8622V41.9182L62.9767 27.7394V14.5898L38.269 28.8622Z" fill="#F79831"/>
<path d="M60.2751 32.1875V41.6971L49.5 47.9179V38.4088L60.2751 32.1875Z" fill="#D9D9D9"/>
<path d="M51.5662 38.668V45.2749L51.1444 45.5186V38.9117L51.5662 38.668Z" fill="#343343"/>
<path d="M52.4506 38.1562V44.7632L51.9918 45.0279V38.421L52.4506 38.1562Z" fill="#343343"/>
<path d="M53.7266 37.418V44.0249L53.0101 44.4387V37.8318L53.7266 37.418Z" fill="#343343"/>
<path d="M54.5548 36.9414V43.5492L54.1519 43.7815V37.1746L54.5548 36.9414Z" fill="#343343"/>
<path d="M55.2494 36.5391V43.1464L54.8129 43.3986V36.7908L55.2494 36.5391Z" fill="#343343"/>
<path d="M56.2142 35.9844V42.5917L55.7415 42.8645V36.2576L56.2142 35.9844Z" fill="#343343"/>
<path d="M56.8613 35.6094V42.2167L56.4892 42.4318V35.8241L56.8613 35.6094Z" fill="#343343"/>
<path d="M57.8911 35.0156V41.6229L57.2865 41.9724V35.3646L57.8911 35.0156Z" fill="#343343"/>
<path d="M58.6311 34.5898V41.1976L58.3158 41.3795V34.7717L58.6311 34.5898Z" fill="#343343"/>
<path d="M58.6311 35.3242L51.1439 39.6296V40.0464L58.6311 35.7406V35.3242Z" fill="#18A0FB"/>
<path d="M75.1067 44.8429L70.7807 47.3309L70.7466 47.7258L51.1439 40.3468V40.0441L58.6311 35.7383L75.1067 44.8429Z" fill="url(#paint0_linear_2771_116496)"/>
<path d="M51.1444 39.6292L51.5662 39.3867V39.8031L51.1444 40.0456V39.6292Z" fill="#18A0FB"/>
<path d="M51.9918 39.139L52.4506 38.875V39.2918L51.9918 39.5553V39.139Z" fill="#18A0FB"/>
<path d="M53.0101 38.5563L53.7266 38.1445V38.5609L53.0101 38.9726V38.5563Z" fill="#18A0FB"/>
<path d="M54.5548 37.668V38.0847L54.1519 38.3171V37.9004L54.5548 37.668Z" fill="#18A0FB"/>
<path d="M54.8129 37.5204L55.2494 37.2695V37.6859L54.8129 37.9372V37.5204Z" fill="#18A0FB"/>
<path d="M55.7415 36.9833L56.2142 36.7109V37.1277L55.7415 37.3997V36.9833Z" fill="#18A0FB"/>
<path d="M56.4892 36.5541L56.8613 36.3398V36.7566L56.4892 36.9709V36.5541Z" fill="#18A0FB"/>
<path d="M57.2865 36.0973L57.8911 35.75V36.1664L57.2865 36.5137V36.0973Z" fill="#18A0FB"/>
<path d="M58.6311 35.3242V35.741L58.3158 35.922V35.5057L58.6311 35.3242Z" fill="#18A0FB"/>
<path d="M73.2897 53.6445L72.9483 58.3705C73.4206 58.7969 73.9252 59.1861 74.4576 59.5346C74.6691 59.5742 74.5407 53.663 73.2897 53.6445Z" fill="#8F181B"/>
<path d="M82.7509 62.2407C83.5118 65.2581 84.1928 69.6487 84.0802 70.9826V70.9842L84.0759 73.0357C84.0759 73.0357 84.1341 73.9546 82.6928 74.7398C81.2515 75.5244 80.6736 75.8168 79.7684 75.4937C79.6854 75.4642 79.5833 75.4213 79.466 75.3668C78.307 74.8366 75.6745 73.0014 75.4312 72.8813C75.1621 72.7486 74.9697 71.6161 75.4577 71.0562C75.685 70.7814 75.9368 70.5278 76.21 70.2985V70.2958C76.2042 70.2646 76.1519 69.9749 76.0647 69.4927C75.4926 66.3362 73.4316 54.9321 73.2767 53.8149C73.0953 52.5168 72.9758 51.3521 72.9758 51.3521C72.9758 51.3521 74.0782 50.8144 76.5104 50.9048C77.8237 50.9539 80.0455 51.1131 81.8098 51.2495C83.3124 51.3653 84.4857 51.4647 84.4857 51.4647C84.5692 52.1642 82.6182 54.176 82.5987 54.2558C82.3465 55.2459 82.153 56.2499 82.0192 57.2627C82.0936 58.9426 82.3388 60.6105 82.7509 62.2407Z" fill="url(#paint1_linear_2771_116496)"/>
<path d="M82.7512 62.2412C83.512 65.2586 84.1931 69.6492 84.0804 70.9831V70.9847L84.0757 73.0361C84.0757 73.0361 84.1343 73.9551 82.6931 74.7402C81.2517 75.5249 80.6738 75.8172 79.7687 75.4941C79.6856 75.4645 79.5836 75.4217 79.4662 75.3672C79.3906 73.4088 79.2018 69.5529 78.7324 67.6775C77.9837 64.6902 77.3688 60.2251 77.3598 60.1369C77.359 59.4407 77.4033 58.7452 77.4925 58.0547C77.6021 57.154 77.9407 56.2965 78.4759 55.5639C79.0138 55.0594 79.4593 54.4648 79.7924 53.8069C79.7924 53.8069 80.714 52.611 81.8101 51.25C83.3127 51.3657 84.4854 51.4651 84.4854 51.4651C84.5695 52.1647 82.6185 54.1765 82.5989 54.2563C82.3465 55.2463 82.153 56.2503 82.0194 57.2632C82.0939 58.943 82.3391 60.611 82.7512 62.2412Z" fill="url(#paint2_linear_2771_116496)"/>
<path d="M84.0757 73.0339C84.0757 73.0339 84.1344 73.9529 82.6931 74.7381C81.2518 75.5227 80.6739 75.815 79.7687 75.492C78.8636 75.169 75.5658 73.0314 75.2936 72.7969C75.0666 72.6014 74.9695 71.6145 75.458 71.0545C75.6853 70.7797 75.9372 70.5261 76.2104 70.2969C76.2378 70.4671 76.3056 70.6282 76.4081 70.7669C76.4081 70.7669 78.4324 73.161 79.6189 73.2931C80.8048 73.4258 81.2957 73.0674 82.6984 72.3229C84.0609 71.6002 84.0805 71.0154 84.0805 70.9826L84.0757 73.0339Z" fill="#1C1B24"/>
<path d="M84.4855 51.4659C84.4855 51.4659 84.5167 52.194 83.1044 53.0273C81.6922 53.8611 81.0826 53.9509 80.6384 53.9943C80.3447 54.0107 80.0521 53.9462 79.7925 53.8077L72.9761 51.733L66.735 49.2331C66.735 49.2331 66.3274 43.9998 66.3316 43.9448C66.4025 42.9608 71.4185 38.2023 74.2816 38.7834C76.17 40.1552 77.9868 41.6232 79.7248 43.1813C81.5865 44.9695 83.9446 46.3997 84.1492 46.6276L84.1497 46.6281C84.3538 46.8581 84.4997 48.7536 84.4997 48.7536L84.4855 51.4659Z" fill="url(#paint3_linear_2771_116496)"/>
<path d="M84.1491 46.6259L79.5048 49.3769C79.0977 49.3267 66.3316 43.9431 66.3316 43.9431L66.3778 43.4913C66.4487 42.5073 71.5265 38.2426 74.3895 38.8237C75.685 39.5285 83.9445 46.398 84.1491 46.6259Z" fill="url(#paint4_linear_2771_116496)"/>
<path d="M84.4857 51.4661C84.4857 51.4661 84.5164 52.1942 83.1041 53.0274C81.6919 53.8613 81.0823 53.9512 80.6382 53.9945C80.3444 54.0109 80.0518 53.9463 79.7922 53.8079L79.8128 51.2552L79.5046 49.3787C79.7922 48.5337 82.1144 47.4393 82.9635 46.9651C83.8126 46.4908 84.1489 46.6277 84.1489 46.6277L84.1494 46.6283C84.3535 46.8583 84.5 48.7538 84.5 48.7538L84.4857 51.4661Z" fill="url(#paint5_linear_2771_116496)"/>
<path d="M84.4858 51.4663C84.4858 51.4663 84.5164 52.1943 83.1042 53.0276C81.692 53.8614 81.0824 53.9513 80.6382 53.9946C80.3445 54.011 80.0518 53.9465 79.7923 53.808L79.7991 52.9657L79.8129 51.2553C80.4817 51.2088 81.9394 50.5479 82.6437 50.1312L83.1491 49.8378C83.1491 49.8378 84.2859 49.1975 84.5 48.7539L84.4858 51.4663Z" fill="url(#paint6_linear_2771_116496)"/>
<path d="M77.2432 68.7223C77.147 69.3975 76.8673 69.5662 76.0647 69.4942C75.4926 66.3377 73.4316 54.9336 73.2767 53.8164C73.7237 54.2667 74.2208 54.6644 74.7582 55.0018C74.9645 55.0859 75.1791 55.148 75.3984 55.1869C75.3984 55.1869 75.8498 57.0754 75.4797 57.7469C75.1096 58.4179 75.1019 60.2098 75.7099 60.8971C76.3179 61.5845 76.7409 64.4 76.3443 64.9815C75.9478 65.5631 77.3754 67.797 77.2432 68.7223Z" fill="#2A2936"/>
<path style="mix-blend-mode:screen" d="M79.6391 48.606C77.9112 47.9289 66.4396 43.5312 66.4396 43.5312L66.4053 43.919L79.5048 49.3772C79.9498 48.4153 83.1077 46.8622 83.7917 46.6307C83.024 46.6079 79.984 48.3169 79.6391 48.606Z" fill="url(#paint7_linear_2771_116496)"/>
<defs>
<linearGradient id="paint0_linear_2771_116496" x1="67.2525" y1="49.743" x2="59.0256" y2="35.4937" gradientUnits="userSpaceOnUse">
<stop stop-color="#18A0FB" stop-opacity="0"/>
<stop offset="1" stop-color="#18A0FB"/>
</linearGradient>
<linearGradient id="paint1_linear_2771_116496" x1="73.8444" y1="63.8869" x2="86.1446" y2="61.9387" gradientUnits="userSpaceOnUse">
<stop stop-color="#18171F"/>
<stop offset="0.82596" stop-color="#22212B"/>
<stop offset="1" stop-color="#1F1E28"/>
</linearGradient>
<linearGradient id="paint2_linear_2771_116496" x1="76.2465" y1="63.4368" x2="83.3777" y2="63.4368" gradientUnits="userSpaceOnUse">
<stop offset="0.00529" stop-color="#1D1C24"/>
<stop offset="0.64077" stop-color="#22212B"/>
<stop offset="1" stop-color="#292834"/>
</linearGradient>
<linearGradient id="paint3_linear_2771_116496" x1="73.8376" y1="52.0465" x2="78.1523" y2="40.1922" gradientUnits="userSpaceOnUse">
<stop offset="0.72222" stop-color="#25242F"/>
<stop offset="0.82804" stop-color="#2C2B38"/>
</linearGradient>
<linearGradient id="paint4_linear_2771_116496" x1="74.3381" y1="47.3217" x2="77.2969" y2="39.9983" gradientUnits="userSpaceOnUse">
<stop offset="0.00794" stop-color="#2C2B38"/>
<stop offset="0.10334" stop-color="#31303E"/>
<stop offset="0.2619" stop-color="#343343"/>
</linearGradient>
<linearGradient id="paint5_linear_2771_116496" x1="83.4725" y1="52.8157" x2="80.7873" y2="48.1649" gradientUnits="userSpaceOnUse">
<stop offset="0.72222" stop-color="#2A2936"/>
<stop offset="0.88582" stop-color="#2E2D3B"/>
<stop offset="1" stop-color="#343343"/>
</linearGradient>
<linearGradient id="paint6_linear_2771_116496" x1="83.1423" y1="53.0065" x2="81.5517" y2="50.2514" gradientUnits="userSpaceOnUse">
<stop offset="0.05373" stop-color="#201F29"/>
<stop offset="1" stop-color="#2A2936"/>
</linearGradient>
<linearGradient id="paint7_linear_2771_116496" x1="75.0985" y1="50.3739" x2="75.0985" y2="45.137" gradientUnits="userSpaceOnUse">
<stop stop-color="#17171F"/>
<stop offset="0.45677" stop-color="#0E0E14"/>
<stop offset="1"/>
</linearGradient>
</defs>
</svg>
