<svg width="94" height="80" viewBox="0 0 94 80" fill="none" xmlns="http://www.w3.org/2000/svg">
<path d="M45.0007 59.8692L35.9298 54.6094L35.9513 62.5334L45.0007 67.7946V59.8692Z" fill="#E67C25"/>
<path d="M89.9785 33.8965L80.9241 28.6328L35.9298 54.6112L45.0007 59.871L89.9785 33.8965Z" fill="#FCBC68"/>
<path d="M45.0007 59.873V67.7983L90.0001 41.8212L89.9785 33.8984L45.0007 59.873Z" fill="#F4AB2A"/>
<path d="M9.07346 39.3158L0 34.0547L0.0228359 41.9762L9.07346 47.2386V39.3158Z" fill="#E67C25"/>
<path d="M54.0487 13.3393L44.9943 8.07812L0 34.0552L9.07346 39.3163L54.0487 13.3393Z" fill="#FCBC68"/>
<path d="M9.07343 39.3169V47.2397L54.0728 21.2639L54.0487 13.3398L9.07343 39.3169Z" fill="#F4AB2A"/>
<path d="M45.0006 52.1752L54.0728 46.9141L54.0487 54.8381L45.0006 60.0992V52.1752Z" fill="#F4AB2A"/>
<path d="M0.0227661 26.1999L9.07593 20.9375L54.0728 46.9159L45.0006 52.177L0.0227661 26.1999Z" fill="#FCBC68"/>
<path d="M45.0007 52.1763V60.1004L0 34.1233L0.0228359 26.1992L45.0007 52.1763Z" fill="#E67C25"/>
<path d="M62.9598 41.8054L72.0307 36.543L72.0104 44.467L62.9598 49.7294V41.8054Z" fill="#F4AB2A"/>
<path d="M17.9834 15.8327L27.0378 10.5703L72.0308 36.5449L62.9599 41.8073L17.9834 15.8327Z" fill="#FCBC68"/>
<path d="M62.9599 41.8066V49.7306L17.9592 23.751L17.9833 15.832L62.9599 41.8066Z" fill="#E67C25"/>
<path d="M80.9189 31.4421L89.9924 26.1797L89.9657 34.1025L80.9189 39.3661V31.4421Z" fill="#F4AB2A"/>
<path d="M35.9423 5.46553L44.9968 0.203125L89.9923 26.1802L80.9189 31.4426L35.9423 5.46553Z" fill="#FCBC68"/>
<path d="M80.919 31.4419V39.366L35.9196 13.3889L35.9424 5.46484L80.919 31.4419Z" fill="#E67C25"/>
<path d="M71.5743 37.6133V44.298L64 48.6709V41.9865L71.5743 37.6133Z" fill="#D9D9D9"/>
<path d="M65.4524 42.168V46.8122L65.1559 46.9836V42.3393L65.4524 42.168Z" fill="#343343"/>
<path d="M66.0741 41.8086V46.4529L65.7516 46.639V41.9947L66.0741 41.8086Z" fill="#343343"/>
<path d="M66.9711 41.293V45.9372L66.4674 46.2281V41.5839L66.9711 41.293Z" fill="#343343"/>
<path d="M67.5532 40.9531V45.598L67.27 45.7613V41.1171L67.5532 40.9531Z" fill="#343343"/>
<path d="M68.0415 40.6719V45.3165L67.7346 45.4937V40.8488L68.0415 40.6719Z" fill="#343343"/>
<path d="M68.7197 40.2812V44.9258L68.3873 45.1176V40.4733L68.7197 40.2812Z" fill="#343343"/>
<path d="M69.1746 40.0195V44.6641L68.913 44.8153V40.1705L69.1746 40.0195Z" fill="#343343"/>
<path d="M69.8985 39.6016V44.2461L69.4735 44.4918V39.8469L69.8985 39.6016Z" fill="#343343"/>
<path d="M70.4187 39.3008V43.9457L70.197 44.0735V39.4286L70.4187 39.3008Z" fill="#343343"/>
<path d="M70.4186 39.8164L65.1555 42.8429V43.1358L70.4186 40.1091V39.8164Z" fill="#18A0FB"/>
<path d="M82 46.5094L78.959 48.2583L78.9351 48.5359L65.1555 43.3489V43.1361L70.4186 40.1094L82 46.5094Z" fill="url(#paint0_linear_2771_129513)"/>
<path d="M65.1559 42.8423L65.4524 42.6719V42.9645L65.1559 43.135V42.8423Z" fill="#18A0FB"/>
<path d="M65.7516 42.502L66.0741 42.3164V42.6094L65.7516 42.7946V42.502Z" fill="#18A0FB"/>
<path d="M66.4674 42.0902L66.9711 41.8008V42.0935L66.4674 42.3829V42.0902Z" fill="#18A0FB"/>
<path d="M67.5532 41.4648V41.7578L67.27 41.9212V41.6282L67.5532 41.4648Z" fill="#18A0FB"/>
<path d="M67.7346 41.36L68.0415 41.1836V41.4763L67.7346 41.6529V41.36Z" fill="#18A0FB"/>
<path d="M68.3873 40.9844L68.7197 40.793V41.0859L68.3873 41.2771V40.9844Z" fill="#18A0FB"/>
<path d="M68.913 40.6819L69.1746 40.5312V40.8242L68.913 40.9748V40.6819Z" fill="#18A0FB"/>
<path d="M69.4735 40.3613L69.8985 40.1172V40.4099L69.4735 40.654V40.3613Z" fill="#18A0FB"/>
<path d="M70.4187 39.8164V40.1094L70.197 40.2366V39.944L70.4187 39.8164Z" fill="#18A0FB"/>
<path d="M82.7896 57.457L82.4482 62.183C82.9206 62.6094 83.4252 62.9986 83.9575 63.3471C84.169 63.3867 84.0407 57.4755 82.7896 57.457Z" fill="#8F181B"/>
<path d="M92.2509 66.0532C93.0118 69.0706 93.6927 73.4612 93.5802 74.7951V74.7967L93.5759 76.8482C93.5759 76.8482 93.6341 77.7671 92.1928 78.5523C90.7515 79.3369 90.1735 79.6293 89.2684 79.3062C89.1854 79.2767 89.0833 79.2338 88.9659 79.1793C87.807 78.6491 85.1745 76.8139 84.9312 76.6938C84.6621 76.5611 84.4696 75.4286 84.9576 74.8687C85.185 74.5939 85.4368 74.3403 85.71 74.111V74.1083C85.7042 74.0771 85.6519 73.7874 85.5647 73.3052C84.9925 70.1487 82.9316 58.7446 82.7767 57.6274C82.5953 56.3293 82.4758 55.1646 82.4758 55.1646C82.4758 55.1646 83.5782 54.6269 86.0104 54.7173C87.3237 54.7664 89.5454 54.9256 91.3098 55.062C92.8124 55.1778 93.9857 55.2772 93.9857 55.2772C94.0692 55.9767 92.1182 57.9885 92.0986 58.0683C91.8465 59.0584 91.653 60.0624 91.5192 61.0752C91.5936 62.7551 91.8388 64.423 92.2509 66.0532Z" fill="url(#paint1_linear_2771_129513)"/>
<path d="M92.2512 66.0537C93.012 69.0711 93.693 73.4617 93.5804 74.7956V74.7972L93.5756 76.8486C93.5756 76.8486 93.6343 77.7676 92.193 78.5527C90.7517 79.3374 90.1738 79.6297 89.2686 79.3066C89.1856 79.277 89.0836 79.2342 88.9662 79.1797C88.8906 77.2213 88.7018 73.3654 88.2323 71.49C87.4836 68.5027 86.8687 64.0376 86.8598 63.9494C86.859 63.2532 86.9033 62.5577 86.9924 61.8672C87.1021 60.9665 87.4406 60.109 87.9759 59.3764C88.5137 58.8719 88.9593 58.2773 89.2924 57.6194C89.2924 57.6194 90.214 56.4235 91.31 55.0625C92.8127 55.1782 93.9854 55.2776 93.9854 55.2776C94.0695 55.9772 92.1185 57.989 92.0989 58.0688C91.8464 59.0588 91.6529 60.0628 91.5194 61.0757C91.5939 62.7555 91.839 64.4235 92.2512 66.0537Z" fill="url(#paint2_linear_2771_129513)"/>
<path d="M93.5757 76.8464C93.5757 76.8464 93.6343 77.7654 92.1931 78.5506C90.7517 79.3352 90.1738 79.6275 89.2687 79.3045C88.3635 78.9815 85.0658 76.8439 84.7935 76.6094C84.5665 76.4139 84.4694 75.427 84.9579 74.867C85.1853 74.5922 85.4371 74.3386 85.7103 74.1094C85.7378 74.2796 85.8056 74.4407 85.9081 74.5794C85.9081 74.5794 87.9324 76.9735 89.1188 77.1056C90.3047 77.2383 90.7956 76.8799 92.1983 76.1354C93.5609 75.4127 93.5804 74.8279 93.5804 74.7951L93.5757 76.8464Z" fill="#1C1B24"/>
<path d="M93.9854 55.2745C93.9854 55.2745 94.0166 56.0026 92.6044 56.8359C91.1921 57.6697 90.5825 57.7595 90.1384 57.8029C89.8446 57.8193 89.552 57.7548 89.2924 57.6163L82.4761 55.5416L76.235 53.0417C76.235 53.0417 75.8273 47.8084 75.8316 47.7534C75.9024 46.7694 80.9184 42.0109 83.7815 42.592C85.67 43.9638 87.4868 45.4318 89.2247 46.9899C91.0864 48.7781 93.4445 50.2083 93.6491 50.4362L93.6497 50.4367C93.8538 50.6667 93.9997 52.5622 93.9997 52.5622L93.9854 55.2745Z" fill="url(#paint3_linear_2771_129513)"/>
<path d="M93.6491 50.4384L89.0047 53.1894C88.5976 53.1392 75.8315 47.7556 75.8315 47.7556L75.8778 47.3038C75.9486 46.3198 81.0265 42.0551 83.8895 42.6362C85.1849 43.341 93.4445 50.2105 93.6491 50.4384Z" fill="url(#paint4_linear_2771_129513)"/>
<path d="M93.9857 55.2747C93.9857 55.2747 94.0163 56.0028 92.6041 56.836C91.1919 57.6699 90.5822 57.7598 90.1381 57.8031C89.8443 57.8195 89.5517 57.7549 89.2921 57.6165L89.3128 55.0638L89.0045 53.1873C89.2921 52.3423 91.6143 51.2479 92.4634 50.7737C93.3126 50.2994 93.6488 50.4363 93.6488 50.4363L93.6494 50.4369C93.8534 50.6669 93.9999 52.5624 93.9999 52.5624L93.9857 55.2747Z" fill="url(#paint5_linear_2771_129513)"/>
<path d="M93.9858 55.2749C93.9858 55.2749 94.0164 56.0029 92.6042 56.8362C91.192 57.67 90.5823 57.7599 90.1382 57.8032C89.8444 57.8196 89.5518 57.7551 89.2922 57.6166L89.2991 56.7743L89.3129 55.0639C89.9817 55.0174 91.4394 54.3565 92.1437 53.9398L92.6491 53.6464C92.6491 53.6464 93.7859 53.006 94 52.5625L93.9858 55.2749Z" fill="url(#paint6_linear_2771_129513)"/>
<path d="M86.7433 72.5309C86.647 73.2061 86.3673 73.3748 85.5647 73.3028C84.9926 70.1463 82.9317 58.7422 82.7767 57.625C83.2238 58.0753 83.7208 58.473 84.2582 58.8104C84.4645 58.8945 84.6791 58.9565 84.8985 58.9955C84.8985 58.9955 85.3498 60.884 84.9797 61.5555C84.6096 62.2265 84.6019 64.0184 85.2099 64.7057C85.818 65.3931 86.241 68.2085 85.8444 68.7901C85.4479 69.3717 86.8754 71.6056 86.7433 72.5309Z" fill="#2A2936"/>
<path style="mix-blend-mode:screen" d="M89.1391 52.4185C87.4112 51.7414 75.9395 47.3438 75.9395 47.3438L75.9053 47.7315L89.0048 53.1897C89.4498 52.2278 92.6077 50.6747 93.2917 50.4432C92.524 50.4204 89.484 52.1294 89.1391 52.4185Z" fill="url(#paint7_linear_2771_129513)"/>
<defs>
<linearGradient id="paint0_linear_2771_129513" x1="76.4789" y1="49.9539" x2="70.6959" y2="39.9375" gradientUnits="userSpaceOnUse">
<stop stop-color="#18A0FB" stop-opacity="0"/>
<stop offset="1" stop-color="#18A0FB"/>
</linearGradient>
<linearGradient id="paint1_linear_2771_129513" x1="83.3444" y1="67.6994" x2="95.6446" y2="65.7512" gradientUnits="userSpaceOnUse">
<stop stop-color="#18171F"/>
<stop offset="0.82596" stop-color="#22212B"/>
<stop offset="1" stop-color="#1F1E28"/>
</linearGradient>
<linearGradient id="paint2_linear_2771_129513" x1="85.7465" y1="67.2493" x2="92.8777" y2="67.2493" gradientUnits="userSpaceOnUse">
<stop offset="0.00529" stop-color="#1D1C24"/>
<stop offset="0.64077" stop-color="#22212B"/>
<stop offset="1" stop-color="#292834"/>
</linearGradient>
<linearGradient id="paint3_linear_2771_129513" x1="83.3376" y1="55.8551" x2="87.6522" y2="44.0008" gradientUnits="userSpaceOnUse">
<stop offset="0.72222" stop-color="#25242F"/>
<stop offset="0.82804" stop-color="#2C2B38"/>
</linearGradient>
<linearGradient id="paint4_linear_2771_129513" x1="83.838" y1="51.1342" x2="86.7969" y2="43.8108" gradientUnits="userSpaceOnUse">
<stop offset="0.00794" stop-color="#2C2B38"/>
<stop offset="0.10334" stop-color="#31303E"/>
<stop offset="0.2619" stop-color="#343343"/>
</linearGradient>
<linearGradient id="paint5_linear_2771_129513" x1="92.9724" y1="56.6243" x2="90.2873" y2="51.9735" gradientUnits="userSpaceOnUse">
<stop offset="0.72222" stop-color="#2A2936"/>
<stop offset="0.88582" stop-color="#2E2D3B"/>
<stop offset="1" stop-color="#343343"/>
</linearGradient>
<linearGradient id="paint6_linear_2771_129513" x1="92.6423" y1="56.8151" x2="91.0517" y2="54.06" gradientUnits="userSpaceOnUse">
<stop offset="0.05373" stop-color="#201F29"/>
<stop offset="1" stop-color="#2A2936"/>
</linearGradient>
<linearGradient id="paint7_linear_2771_129513" x1="84.5985" y1="54.1864" x2="84.5985" y2="48.9495" gradientUnits="userSpaceOnUse">
<stop stop-color="#17171F"/>
<stop offset="0.45677" stop-color="#0E0E14"/>
<stop offset="1"/>
</linearGradient>
</defs>
</svg>
