<svg width="100" height="75" viewBox="0 0 100 75" fill="none" xmlns="http://www.w3.org/2000/svg">
<path d="M53.47 10.5898L49.1073 8.51837L31.1717 0L0 14.6662L18.0702 23.251L18.7704 23.5834L22.4329 25.3336L47.2761 37.1308L78.4209 22.4646L78.4343 22.4535L53.47 10.5898Z" fill="#FCBC68"/>
<path d="M31.1582 0.585938L1.25213 14.6651L47.2759 36.3653L77.182 22.4413L31.1582 0.585938Z" fill="#FCBC68"/>
<path d="M47.2761 37.1215V74.9501L26.9706 65.3905L22.4329 63.2526L18.7704 61.5356L18.0567 61.1922L0 52.6849V14.668L18.7704 23.5851L26.9706 27.4843L47.2761 37.1215Z" fill="#E67C25"/>
<path d="M47.2759 37.1193V74.948L78.4073 60.4258V22.4531L47.2759 37.1193Z" fill="#F79831"/>
<path d="M75.7751 27V36.5096L65 42.7304V33.2213L75.7751 27Z" fill="#D9D9D9"/>
<path d="M67.0662 33.4805V40.0874L66.6444 40.3311V33.7242L67.0662 33.4805Z" fill="#343343"/>
<path d="M67.9506 32.9688V39.5757L67.4918 39.8404V33.2335L67.9506 32.9688Z" fill="#343343"/>
<path d="M69.2266 32.2305V38.8374L68.5101 39.2512V32.6443L69.2266 32.2305Z" fill="#343343"/>
<path d="M70.0548 31.7539V38.3617L69.6519 38.594V31.9871L70.0548 31.7539Z" fill="#343343"/>
<path d="M70.7494 31.3516V37.9589L70.3129 38.2111V31.6033L70.7494 31.3516Z" fill="#343343"/>
<path d="M71.7142 30.7969V37.4042L71.2415 37.677V31.0701L71.7142 30.7969Z" fill="#343343"/>
<path d="M72.3613 30.4219V37.0292L71.9892 37.2443V30.6366L72.3613 30.4219Z" fill="#343343"/>
<path d="M73.3911 29.8281V36.4354L72.7865 36.7849V30.1771L73.3911 29.8281Z" fill="#343343"/>
<path d="M74.1311 29.4023V36.0101L73.8158 36.192V29.5842L74.1311 29.4023Z" fill="#343343"/>
<path d="M74.1311 30.1367L66.6439 34.4421V34.8589L74.1311 30.5531V30.1367Z" fill="#18A0FB"/>
<path d="M90.6067 39.6554L86.2807 42.1434L86.2466 42.5383L66.6439 35.1593V34.8566L74.1311 30.5508L90.6067 39.6554Z" fill="url(#paint0_linear_2771_116570)"/>
<path d="M66.6444 34.4417L67.0662 34.1992V34.6156L66.6444 34.8581V34.4417Z" fill="#18A0FB"/>
<path d="M67.4918 33.9515L67.9506 33.6875V34.1043L67.4918 34.3678V33.9515Z" fill="#18A0FB"/>
<path d="M68.5101 33.3688L69.2266 32.957V33.3734L68.5101 33.7851V33.3688Z" fill="#18A0FB"/>
<path d="M70.0548 32.4805V32.8972L69.6519 33.1296V32.7129L70.0548 32.4805Z" fill="#18A0FB"/>
<path d="M70.3129 32.3329L70.7494 32.082V32.4984L70.3129 32.7497V32.3329Z" fill="#18A0FB"/>
<path d="M71.2415 31.7958L71.7142 31.5234V31.9402L71.2415 32.2122V31.7958Z" fill="#18A0FB"/>
<path d="M71.9892 31.3666L72.3613 31.1523V31.5691L71.9892 31.7834V31.3666Z" fill="#18A0FB"/>
<path d="M72.7865 30.9098L73.3911 30.5625V30.9789L72.7865 31.3262V30.9098Z" fill="#18A0FB"/>
<path d="M74.1311 30.1367V30.5535L73.8158 30.7345V30.3182L74.1311 30.1367Z" fill="#18A0FB"/>
<path d="M88.7897 48.457L88.4483 53.183C88.9206 53.6094 89.4252 53.9986 89.9576 54.3471C90.1691 54.3867 90.0407 48.4755 88.7897 48.457Z" fill="#8F181B"/>
<path d="M98.2509 57.0532C99.0118 60.0706 99.6928 64.4612 99.5802 65.7951V65.7967L99.5759 67.8482C99.5759 67.8482 99.6341 68.7671 98.1928 69.5523C96.7515 70.3369 96.1736 70.6293 95.2684 70.3062C95.1854 70.2767 95.0833 70.2338 94.966 70.1793C93.807 69.6491 91.1745 67.8139 90.9312 67.6938C90.6621 67.5611 90.4697 66.4286 90.9577 65.8687C91.185 65.5939 91.4368 65.3403 91.71 65.111V65.1083C91.7042 65.0771 91.6519 64.7874 91.5647 64.3052C90.9926 61.1487 88.9316 49.7446 88.7767 48.6274C88.5953 47.3293 88.4758 46.1646 88.4758 46.1646C88.4758 46.1646 89.5782 45.6269 92.0104 45.7173C93.3237 45.7664 95.5455 45.9256 97.3098 46.062C98.8124 46.1778 99.9857 46.2772 99.9857 46.2772C100.069 46.9767 98.1182 48.9885 98.0987 49.0683C97.8465 50.0584 97.653 51.0624 97.5192 52.0752C97.5936 53.7551 97.8388 55.423 98.2509 57.0532Z" fill="url(#paint1_linear_2771_116570)"/>
<path d="M98.2512 57.0537C99.012 60.0711 99.6931 64.4617 99.5804 65.7956V65.7972L99.5757 67.8486C99.5757 67.8486 99.6343 68.7676 98.1931 69.5527C96.7517 70.3374 96.1738 70.6297 95.2687 70.3066C95.1856 70.277 95.0836 70.2342 94.9662 70.1797C94.8906 68.2213 94.7018 64.3654 94.2324 62.49C93.4837 59.5027 92.8688 55.0376 92.8598 54.9494C92.859 54.2532 92.9033 53.5577 92.9925 52.8672C93.1021 51.9665 93.4407 51.109 93.9759 50.3764C94.5138 49.8719 94.9593 49.2773 95.2924 48.6194C95.2924 48.6194 96.214 47.4235 97.3101 46.0625C98.8127 46.1782 99.9854 46.2776 99.9854 46.2776C100.07 46.9772 98.1185 48.989 98.0989 49.0688C97.8465 50.0588 97.653 51.0628 97.5194 52.0757C97.5939 53.7555 97.8391 55.4235 98.2512 57.0537Z" fill="url(#paint2_linear_2771_116570)"/>
<path d="M99.5757 67.8464C99.5757 67.8464 99.6344 68.7654 98.1931 69.5506C96.7518 70.3352 96.1739 70.6275 95.2687 70.3045C94.3636 69.9815 91.0658 67.8439 90.7936 67.6094C90.5666 67.4139 90.4695 66.427 90.958 65.867C91.1853 65.5922 91.4372 65.3386 91.7104 65.1094C91.7378 65.2796 91.8056 65.4407 91.9081 65.5794C91.9081 65.5794 93.9324 67.9735 95.1189 68.1056C96.3048 68.2383 96.7957 67.8799 98.1984 67.1354C99.5609 66.4127 99.5805 65.8279 99.5805 65.7951L99.5757 67.8464Z" fill="#1C1B24"/>
<path d="M99.9855 46.2784C99.9855 46.2784 100.017 47.0065 98.6044 47.8398C97.1922 48.6736 96.5826 48.7634 96.1384 48.8068C95.8447 48.8232 95.5521 48.7587 95.2925 48.6202L88.4761 46.5455L82.235 44.0456C82.235 44.0456 81.8274 38.8123 81.8316 38.7573C81.9025 37.7733 86.9185 33.0148 89.7816 33.5959C91.67 34.9677 93.4868 36.4357 95.2248 37.9938C97.0865 39.782 99.4446 41.2122 99.6492 41.4401L99.6497 41.4406C99.8538 41.6706 99.9997 43.5661 99.9997 43.5661L99.9855 46.2784Z" fill="url(#paint3_linear_2771_116570)"/>
<path d="M99.6491 41.4384L95.0048 44.1894C94.5977 44.1392 81.8316 38.7556 81.8316 38.7556L81.8778 38.3038C81.9487 37.3198 87.0265 33.0551 89.8895 33.6362C91.185 34.341 99.4445 41.2105 99.6491 41.4384Z" fill="url(#paint4_linear_2771_116570)"/>
<path d="M99.9857 46.2786C99.9857 46.2786 100.016 47.0067 98.6041 47.8399C97.1919 48.6738 96.5823 48.7637 96.1382 48.807C95.8444 48.8234 95.5518 48.7588 95.2922 48.6204L95.3128 46.0677L95.0046 44.1912C95.2922 43.3462 97.6144 42.2518 98.4635 41.7776C99.3126 41.3033 99.6489 41.4402 99.6489 41.4402L99.6494 41.4408C99.8535 41.6708 100 43.5663 100 43.5663L99.9857 46.2786Z" fill="url(#paint5_linear_2771_116570)"/>
<path d="M99.9858 46.2788C99.9858 46.2788 100.016 47.0068 98.6042 47.8401C97.192 48.6739 96.5824 48.7638 96.1382 48.8071C95.8445 48.8235 95.5518 48.759 95.2923 48.6205L95.2991 47.7782L95.3129 46.0678C95.9817 46.0213 97.4394 45.3604 98.1437 44.9437L98.6491 44.6503C98.6491 44.6503 99.7859 44.01 100 43.5664L99.9858 46.2788Z" fill="url(#paint6_linear_2771_116570)"/>
<path d="M92.7432 63.5348C92.647 64.21 92.3673 64.3787 91.5647 64.3067C90.9926 61.1502 88.9316 49.7461 88.7767 48.6289C89.2237 49.0792 89.7208 49.4769 90.2582 49.8143C90.4645 49.8984 90.6791 49.9605 90.8984 49.9994C90.8984 49.9994 91.3498 51.8879 90.9797 52.5594C90.6096 53.2304 90.6019 55.0223 91.2099 55.7096C91.8179 56.397 92.2409 59.2125 91.8443 59.794C91.4478 60.3756 92.8754 62.6095 92.7432 63.5348Z" fill="#2A2936"/>
<path style="mix-blend-mode:screen" d="M95.1391 43.4185C93.4112 42.7414 81.9396 38.3438 81.9396 38.3438L81.9053 38.7315L95.0048 44.1897C95.4498 43.2278 98.6077 41.6747 99.2917 41.4432C98.524 41.4204 95.484 43.1294 95.1391 43.4185Z" fill="url(#paint7_linear_2771_116570)"/>
<defs>
<linearGradient id="paint0_linear_2771_116570" x1="82.7525" y1="44.5555" x2="74.5256" y2="30.3062" gradientUnits="userSpaceOnUse">
<stop stop-color="#18A0FB" stop-opacity="0"/>
<stop offset="1" stop-color="#18A0FB"/>
</linearGradient>
<linearGradient id="paint1_linear_2771_116570" x1="89.3444" y1="58.6994" x2="101.645" y2="56.7512" gradientUnits="userSpaceOnUse">
<stop stop-color="#18171F"/>
<stop offset="0.82596" stop-color="#22212B"/>
<stop offset="1" stop-color="#1F1E28"/>
</linearGradient>
<linearGradient id="paint2_linear_2771_116570" x1="91.7465" y1="58.2493" x2="98.8777" y2="58.2493" gradientUnits="userSpaceOnUse">
<stop offset="0.00529" stop-color="#1D1C24"/>
<stop offset="0.64077" stop-color="#22212B"/>
<stop offset="1" stop-color="#292834"/>
</linearGradient>
<linearGradient id="paint3_linear_2771_116570" x1="89.3376" y1="46.859" x2="93.6523" y2="35.0047" gradientUnits="userSpaceOnUse">
<stop offset="0.72222" stop-color="#25242F"/>
<stop offset="0.82804" stop-color="#2C2B38"/>
</linearGradient>
<linearGradient id="paint4_linear_2771_116570" x1="89.8381" y1="42.1342" x2="92.7969" y2="34.8108" gradientUnits="userSpaceOnUse">
<stop offset="0.00794" stop-color="#2C2B38"/>
<stop offset="0.10334" stop-color="#31303E"/>
<stop offset="0.2619" stop-color="#343343"/>
</linearGradient>
<linearGradient id="paint5_linear_2771_116570" x1="98.9725" y1="47.6282" x2="96.2873" y2="42.9774" gradientUnits="userSpaceOnUse">
<stop offset="0.72222" stop-color="#2A2936"/>
<stop offset="0.88582" stop-color="#2E2D3B"/>
<stop offset="1" stop-color="#343343"/>
</linearGradient>
<linearGradient id="paint6_linear_2771_116570" x1="98.6423" y1="47.819" x2="97.0517" y2="45.0639" gradientUnits="userSpaceOnUse">
<stop offset="0.05373" stop-color="#201F29"/>
<stop offset="1" stop-color="#2A2936"/>
</linearGradient>
<linearGradient id="paint7_linear_2771_116570" x1="90.5985" y1="45.1864" x2="90.5985" y2="39.9495" gradientUnits="userSpaceOnUse">
<stop stop-color="#17171F"/>
<stop offset="0.45677" stop-color="#0E0E14"/>
<stop offset="1"/>
</linearGradient>
</defs>
</svg>
